<svg width="80" height="38" viewBox="0 0 80 38" fill="none" xmlns="http://www.w3.org/2000/svg">
<rect width="80" height="38" rx="10" fill="white"/>
<path d="M19.6662 24.8C19.5382 24.864 19.2982 24.92 18.9462 24.968C18.6102 25 18.2822 25.016 17.9622 25.016C17.3062 25.016 16.8102 24.912 16.4742 24.704C16.1382 24.48 15.9702 24.016 15.9702 23.312V20.672H12.3462C12.2342 20.496 12.1382 20.264 12.0582 19.976C11.9942 19.688 11.9622 19.4 11.9622 19.112C11.9622 18.536 12.0902 18.12 12.3462 17.864C12.6022 17.592 12.9462 17.456 13.3782 17.456H15.9702V13.424C16.1302 13.376 16.3702 13.328 16.6902 13.28C17.0262 13.216 17.3542 13.184 17.6742 13.184C18.3142 13.184 18.8022 13.296 19.1382 13.52C19.4902 13.744 19.6662 14.216 19.6662 14.936V17.456H23.2182C23.2982 17.648 23.3782 17.888 23.4582 18.176C23.5542 18.448 23.6022 18.736 23.6022 19.04C23.6022 19.6 23.4742 20.016 23.2182 20.288C22.9622 20.544 22.6262 20.672 22.2102 20.672H19.6662V24.8ZM27.5716 15.296L25.1716 16.04C24.9316 15.88 24.6916 15.656 24.4516 15.368C24.2116 15.08 24.0916 14.68 24.0916 14.168C24.0916 13.208 24.6756 12.536 25.8436 12.152L28.5316 11.24H29.4196C30.1076 11.24 30.6516 11.44 31.0516 11.84C31.4516 12.24 31.6516 12.784 31.6516 13.472V25.976C31.4756 26.008 31.2116 26.048 30.8596 26.096C30.5236 26.16 30.1796 26.192 29.8276 26.192C29.4756 26.192 29.1556 26.168 28.8676 26.12C28.5956 26.072 28.3636 25.976 28.1716 25.832C27.9796 25.688 27.8276 25.496 27.7156 25.256C27.6196 25 27.5716 24.672 27.5716 24.272V15.296ZM34.2289 16.52C34.2289 15.848 34.4369 15.288 34.8529 14.84C35.2689 14.392 35.8369 14.168 36.5569 14.168C37.2769 14.168 37.8449 14.392 38.2609 14.84C38.6769 15.288 38.8849 15.848 38.8849 16.52C38.8849 17.192 38.6769 17.752 38.2609 18.2C37.8449 18.648 37.2769 18.872 36.5569 18.872C35.8369 18.872 35.2689 18.648 34.8529 18.2C34.4369 17.752 34.2289 17.192 34.2289 16.52ZM34.2289 24.056C34.2289 23.384 34.4369 22.824 34.8529 22.376C35.2689 21.928 35.8369 21.704 36.5569 21.704C37.2769 21.704 37.8449 21.928 38.2609 22.376C38.6769 22.824 38.8849 23.384 38.8849 24.056C38.8849 24.728 38.6769 25.288 38.2609 25.736C37.8449 26.184 37.2769 26.408 36.5569 26.408C35.8369 26.408 35.2689 26.184 34.8529 25.736C34.4369 25.288 34.2289 24.728 34.2289 24.056ZM49.2484 18.704C49.2484 17.296 49.0404 16.208 48.6244 15.44C48.2244 14.672 47.6484 14.288 46.8964 14.288C46.1444 14.288 45.5684 14.672 45.1684 15.44C44.7844 16.208 44.5924 17.296 44.5924 18.704C44.5924 20.112 44.7844 21.208 45.1684 21.992C45.5684 22.76 46.1444 23.144 46.8964 23.144C47.6484 23.144 48.2244 22.76 48.6244 21.992C49.0404 21.208 49.2484 20.112 49.2484 18.704ZM53.3524 18.704C53.3524 19.936 53.1924 21.032 52.8724 21.992C52.5524 22.952 52.1044 23.76 51.5284 24.416C50.9684 25.056 50.2884 25.544 49.4884 25.88C48.7044 26.216 47.8484 26.384 46.9204 26.384C45.9764 26.384 45.1044 26.216 44.3044 25.88C43.5204 25.544 42.8404 25.056 42.2644 24.416C41.7044 23.76 41.2644 22.952 40.9444 21.992C40.6404 21.032 40.4884 19.936 40.4884 18.704C40.4884 17.472 40.6404 16.384 40.9444 15.44C41.2644 14.48 41.7044 13.68 42.2644 13.04C42.8404 12.384 43.5204 11.888 44.3044 11.552C45.1044 11.216 45.9764 11.048 46.9204 11.048C47.8484 11.048 48.7044 11.216 49.4884 11.552C50.2884 11.888 50.9684 12.384 51.5284 13.04C52.1044 13.68 52.5524 14.48 52.8724 15.44C53.1924 16.384 53.3524 17.472 53.3524 18.704ZM63.8031 18.704C63.8031 17.296 63.5951 16.208 63.1791 15.44C62.7791 14.672 62.2031 14.288 61.4511 14.288C60.6991 14.288 60.1231 14.672 59.7231 15.44C59.3391 16.208 59.1471 17.296 59.1471 18.704C59.1471 20.112 59.3391 21.208 59.7231 21.992C60.1231 22.76 60.6991 23.144 61.4511 23.144C62.2031 23.144 62.7791 22.76 63.1791 21.992C63.5951 21.208 63.8031 20.112 63.8031 18.704ZM67.9071 18.704C67.9071 19.936 67.7471 21.032 67.4271 21.992C67.1071 22.952 66.6591 23.76 66.0831 24.416C65.5231 25.056 64.8431 25.544 64.0431 25.88C63.2591 26.216 62.4031 26.384 61.4751 26.384C60.5311 26.384 59.6591 26.216 58.8591 25.88C58.0751 25.544 57.3951 25.056 56.8191 24.416C56.2591 23.76 55.8191 22.952 55.4991 21.992C55.1951 21.032 55.0431 19.936 55.0431 18.704C55.0431 17.472 55.1951 16.384 55.4991 15.44C55.8191 14.48 56.2591 13.68 56.8191 13.04C57.3951 12.384 58.0751 11.888 58.8591 11.552C59.6591 11.216 60.5311 11.048 61.4751 11.048C62.4031 11.048 63.2591 11.216 64.0431 11.552C64.8431 11.888 65.5231 12.384 66.0831 13.04C66.6591 13.68 67.1071 14.48 67.4271 15.44C67.7471 16.384 67.9071 17.472 67.9071 18.704Z" fill="#4294FF"/>
</svg>
