<svg width="80" height="38" viewBox="0 0 80 38" fill="none" xmlns="http://www.w3.org/2000/svg">
<rect width="80" height="38" rx="10" fill="white"/>
<path d="M11.4826 24.8C11.3546 24.864 11.1146 24.92 10.7626 24.968C10.4266 25 10.0986 25.016 9.77859 25.016C9.12259 25.016 8.62659 24.912 8.29059 24.704C7.95459 24.48 7.78659 24.016 7.78659 23.312V20.672H4.16259C4.05059 20.496 3.95459 20.264 3.87459 19.976C3.81059 19.688 3.77859 19.4 3.77859 19.112C3.77859 18.536 3.90659 18.12 4.16259 17.864C4.41859 17.592 4.76259 17.456 5.19459 17.456H7.78659V13.424C7.94659 13.376 8.18659 13.328 8.50659 13.28C8.84259 13.216 9.17059 13.184 9.49059 13.184C10.1306 13.184 10.6186 13.296 10.9546 13.52C11.3066 13.744 11.4826 14.216 11.4826 14.936V17.456H15.0346C15.1146 17.648 15.1946 17.888 15.2746 18.176C15.3706 18.448 15.4186 18.736 15.4186 19.04C15.4186 19.6 15.2906 20.016 15.0346 20.288C14.7786 20.544 14.4426 20.672 14.0266 20.672H11.4826V24.8ZM21.26 11.048C23.1 11.048 24.5 11.432 25.46 12.2C26.42 12.952 26.9 13.968 26.9 15.248C26.9 16.016 26.692 16.672 26.276 17.216C25.876 17.744 25.396 18.144 24.836 18.416C25.172 18.544 25.484 18.704 25.772 18.896C26.06 19.088 26.316 19.328 26.54 19.616C26.764 19.904 26.94 20.24 27.068 20.624C27.196 21.008 27.26 21.456 27.26 21.968C27.26 22.656 27.108 23.272 26.804 23.816C26.516 24.36 26.108 24.824 25.58 25.208C25.052 25.592 24.42 25.88 23.684 26.072C22.964 26.28 22.172 26.384 21.308 26.384C19.644 26.384 18.388 26.152 17.54 25.688C16.692 25.224 16.268 24.632 16.268 23.912C16.268 23.48 16.372 23.112 16.58 22.808C16.788 22.488 17.044 22.24 17.348 22.064C17.668 22.288 18.092 22.528 18.62 22.784C19.164 23.024 19.868 23.144 20.732 23.144C21.548 23.144 22.148 23 22.532 22.712C22.932 22.424 23.132 22.048 23.132 21.584C23.132 21.12 22.972 20.768 22.652 20.528C22.348 20.288 21.812 20.168 21.044 20.168H18.788C18.676 19.992 18.58 19.776 18.5 19.52C18.42 19.264 18.38 18.96 18.38 18.608C18.38 18.24 18.412 17.928 18.476 17.672C18.556 17.4 18.66 17.176 18.788 17H21.044C22.196 17 22.772 16.56 22.772 15.68C22.772 15.264 22.588 14.928 22.22 14.672C21.852 14.416 21.3 14.288 20.564 14.288C19.908 14.288 19.332 14.368 18.836 14.528C18.34 14.672 17.932 14.856 17.612 15.08C17.34 14.888 17.116 14.656 16.94 14.384C16.764 14.096 16.676 13.76 16.676 13.376C16.676 12.576 17.092 11.992 17.924 11.624C18.756 11.24 19.868 11.048 21.26 11.048ZM37.6898 18.704C37.6898 17.296 37.4818 16.208 37.0658 15.44C36.6658 14.672 36.0898 14.288 35.3378 14.288C34.5858 14.288 34.0098 14.672 33.6098 15.44C33.2258 16.208 33.0338 17.296 33.0338 18.704C33.0338 20.112 33.2258 21.208 33.6098 21.992C34.0098 22.76 34.5858 23.144 35.3378 23.144C36.0898 23.144 36.6658 22.76 37.0658 21.992C37.4818 21.208 37.6898 20.112 37.6898 18.704ZM41.7938 18.704C41.7938 19.936 41.6338 21.032 41.3138 21.992C40.9938 22.952 40.5458 23.76 39.9698 24.416C39.4098 25.056 38.7298 25.544 37.9298 25.88C37.1458 26.216 36.2898 26.384 35.3618 26.384C34.4178 26.384 33.5458 26.216 32.7458 25.88C31.9618 25.544 31.2818 25.056 30.7058 24.416C30.1458 23.76 29.7058 22.952 29.3858 21.992C29.0818 21.032 28.9298 19.936 28.9298 18.704C28.9298 17.472 29.0818 16.384 29.3858 15.44C29.7058 14.48 30.1458 13.68 30.7058 13.04C31.2818 12.384 31.9618 11.888 32.7458 11.552C33.5458 11.216 34.4178 11.048 35.3618 11.048C36.2898 11.048 37.1458 11.216 37.9298 11.552C38.7298 11.888 39.4098 12.384 39.9698 13.04C40.5458 13.68 40.9938 14.48 41.3138 15.44C41.6338 16.384 41.7938 17.472 41.7938 18.704ZM43.4125 16.52C43.4125 15.848 43.6205 15.288 44.0365 14.84C44.4525 14.392 45.0205 14.168 45.7405 14.168C46.4605 14.168 47.0285 14.392 47.4445 14.84C47.8605 15.288 48.0685 15.848 48.0685 16.52C48.0685 17.192 47.8605 17.752 47.4445 18.2C47.0285 18.648 46.4605 18.872 45.7405 18.872C45.0205 18.872 44.4525 18.648 44.0365 18.2C43.6205 17.752 43.4125 17.192 43.4125 16.52ZM43.4125 24.056C43.4125 23.384 43.6205 22.824 44.0365 22.376C44.4525 21.928 45.0205 21.704 45.7405 21.704C46.4605 21.704 47.0285 21.928 47.4445 22.376C47.8605 22.824 48.0685 23.384 48.0685 24.056C48.0685 24.728 47.8605 25.288 47.4445 25.736C47.0285 26.184 46.4605 26.408 45.7405 26.408C45.0205 26.408 44.4525 26.184 44.0365 25.736C43.6205 25.288 43.4125 24.728 43.4125 24.056ZM58.432 18.704C58.432 17.296 58.224 16.208 57.808 15.44C57.408 14.672 56.832 14.288 56.08 14.288C55.328 14.288 54.752 14.672 54.352 15.44C53.968 16.208 53.776 17.296 53.776 18.704C53.776 20.112 53.968 21.208 54.352 21.992C54.752 22.76 55.328 23.144 56.08 23.144C56.832 23.144 57.408 22.76 57.808 21.992C58.224 21.208 58.432 20.112 58.432 18.704ZM62.536 18.704C62.536 19.936 62.376 21.032 62.056 21.992C61.736 22.952 61.288 23.76 60.712 24.416C60.152 25.056 59.472 25.544 58.672 25.88C57.888 26.216 57.032 26.384 56.104 26.384C55.16 26.384 54.288 26.216 53.488 25.88C52.704 25.544 52.024 25.056 51.448 24.416C50.888 23.76 50.448 22.952 50.128 21.992C49.824 21.032 49.672 19.936 49.672 18.704C49.672 17.472 49.824 16.384 50.128 15.44C50.448 14.48 50.888 13.68 51.448 13.04C52.024 12.384 52.704 11.888 53.488 11.552C54.288 11.216 55.16 11.048 56.104 11.048C57.032 11.048 57.888 11.216 58.672 11.552C59.472 11.888 60.152 12.384 60.712 13.04C61.288 13.68 61.736 14.48 62.056 15.44C62.376 16.384 62.536 17.472 62.536 18.704ZM72.9867 18.704C72.9867 17.296 72.7787 16.208 72.3627 15.44C71.9627 14.672 71.3867 14.288 70.6347 14.288C69.8827 14.288 69.3067 14.672 68.9067 15.44C68.5227 16.208 68.3307 17.296 68.3307 18.704C68.3307 20.112 68.5227 21.208 68.9067 21.992C69.3067 22.76 69.8827 23.144 70.6347 23.144C71.3867 23.144 71.9627 22.76 72.3627 21.992C72.7787 21.208 72.9867 20.112 72.9867 18.704ZM77.0907 18.704C77.0907 19.936 76.9307 21.032 76.6107 21.992C76.2907 22.952 75.8427 23.76 75.2667 24.416C74.7067 25.056 74.0267 25.544 73.2267 25.88C72.4427 26.216 71.5867 26.384 70.6587 26.384C69.7147 26.384 68.8427 26.216 68.0427 25.88C67.2587 25.544 66.5787 25.056 66.0027 24.416C65.4427 23.76 65.0027 22.952 64.6827 21.992C64.3787 21.032 64.2267 19.936 64.2267 18.704C64.2267 17.472 64.3787 16.384 64.6827 15.44C65.0027 14.48 65.4427 13.68 66.0027 13.04C66.5787 12.384 67.2587 11.888 68.0427 11.552C68.8427 11.216 69.7147 11.048 70.6587 11.048C71.5867 11.048 72.4427 11.216 73.2267 11.552C74.0267 11.888 74.7067 12.384 75.2667 13.04C75.8427 13.68 76.2907 14.48 76.6107 15.44C76.9307 16.384 77.0907 17.472 77.0907 18.704Z" fill="#4294FF"/>
</svg>
