<svg width="37" height="37" viewBox="0 0 37 37" fill="none" xmlns="http://www.w3.org/2000/svg">
<g id="&#240;&#159;&#166;&#134; icon &#34;Alert Circle&#34;">
<path id="Vector" fill-rule="evenodd" clip-rule="evenodd" d="M0 18.5C0 8.28273 8.28273 0 18.5 0C28.7173 0 37 8.28273 37 18.5C37 28.7173 28.7173 37 18.5 37C8.28273 37 0 28.7173 0 18.5ZM20.35 8.325C20.35 7.30325 19.5218 6.475 18.5 6.475C17.4782 6.475 16.65 7.30325 16.65 8.325V21.275C16.65 22.2968 17.4782 23.125 18.5 23.125C19.5218 23.125 20.35 22.2968 20.35 21.275V8.325ZM18.5 26.825C19.5218 26.825 20.35 27.6532 20.35 28.675C20.35 29.6968 19.5218 30.525 18.5 30.525C17.4782 30.525 16.65 29.6968 16.65 28.675C16.65 27.6532 17.4782 26.825 18.5 26.825Z" fill="#1257B4"/>
</g>
</svg>
