<svg width="30" height="30" viewBox="0 0 30 30" fill="none" xmlns="http://www.w3.org/2000/svg">
<g id="Close Button">
<path id="Rectangle 3" d="M1.5 1.5H28.5V28.5H1.5V1.5Z" fill="white" stroke="#4294FF" stroke-width="3"/>
<g id="&#240;&#159;&#166;&#134; icon &#34;Times&#34;">
<path id="Vector" d="M17.2745 15L20.686 11.5885C21.1047 11.1699 21.1047 10.4911 20.686 10.0722L19.9278 9.31398C19.5092 8.89534 18.8305 8.89534 18.4115 9.31398L15 12.7255L11.5885 9.31398C11.1699 8.89534 10.4911 8.89534 10.0722 9.31398L9.31398 10.0722C8.89534 10.4908 8.89534 11.1695 9.31398 11.5885L12.7255 15L9.31398 18.4115C8.89534 18.8301 8.89534 19.5089 9.31398 19.9278L10.0722 20.686C10.4908 21.1047 11.1699 21.1047 11.5885 20.686L15 17.2745L18.4115 20.686C18.8301 21.1047 19.5092 21.1047 19.9278 20.686L20.686 19.9278C21.1047 19.5092 21.1047 18.8305 20.686 18.4115L17.2745 15Z" fill="#4294FF"/>
</g>
</g>
</svg>
