<svg width="307" height="210" viewBox="0 0 307 210" fill="none" xmlns="http://www.w3.org/2000/svg">
<rect width="307" height="210" fill="#A1CAFF"/>
<path d="M88.5441 63.24C88.7707 63.1067 89.1107 62.98 89.5641 62.86C90.0307 62.74 90.4974 62.68 90.9641 62.68C91.6307 62.68 92.2174 62.78 92.7241 62.98C93.2441 63.1667 93.5774 63.4667 93.7241 63.88C93.9641 64.5733 94.2241 65.38 94.5041 66.3C94.7841 67.22 95.0641 68.1733 95.3441 69.16C95.6241 70.1333 95.8974 71.1 96.1641 72.06C96.4307 73.0067 96.6641 73.8467 96.8641 74.58C96.7041 74.7667 96.4641 74.9133 96.1441 75.02C95.8241 75.14 95.4441 75.2 95.0041 75.2C94.6841 75.2 94.4107 75.1733 94.1841 75.12C93.9707 75.0667 93.7907 74.9867 93.6441 74.88C93.5107 74.7733 93.3974 74.6333 93.3041 74.46C93.2241 74.2867 93.1507 74.0867 93.0841 73.86L92.7241 72.48H89.1041C88.9974 72.88 88.8907 73.2933 88.7841 73.72C88.6774 74.1467 88.5707 74.56 88.4641 74.96C88.2774 75.0267 88.0774 75.08 87.8641 75.12C87.6641 75.1733 87.4174 75.2 87.1241 75.2C86.4441 75.2 85.9374 75.0867 85.6041 74.86C85.2841 74.62 85.1241 74.2933 85.1241 73.88C85.1241 73.6933 85.1507 73.5067 85.2041 73.32C85.2574 73.1333 85.3174 72.9133 85.3841 72.66C85.4774 72.3 85.6041 71.8533 85.7641 71.32C85.9374 70.7867 86.1241 70.2133 86.3241 69.6C86.5241 68.9733 86.7374 68.3333 86.9641 67.68C87.1907 67.0267 87.4041 66.4133 87.6041 65.84C87.8041 65.2533 87.9841 64.7333 88.1441 64.28C88.3174 63.8267 88.4507 63.48 88.5441 63.24ZM90.9441 65.82C90.7574 66.38 90.5441 67.0067 90.3041 67.7C90.0774 68.38 89.8707 69.0733 89.6841 69.78H92.1641C91.9774 69.06 91.7841 68.36 91.5841 67.68C91.3974 66.9867 91.2241 66.3667 91.0641 65.82H90.9441ZM101.643 74.98C101.51 75.02 101.296 75.06 101.003 75.1C100.723 75.14 100.43 75.16 100.123 75.16C99.8298 75.16 99.5631 75.14 99.3231 75.1C99.0965 75.06 98.9031 74.98 98.7431 74.86C98.5831 74.74 98.4565 74.58 98.3631 74.38C98.2831 74.1667 98.2431 73.8933 98.2431 73.56V67.56C98.2431 67.2533 98.2965 66.9933 98.4031 66.78C98.5231 66.5533 98.6898 66.3533 98.9031 66.18C99.1165 66.0067 99.3765 65.8533 99.6831 65.72C100.003 65.5733 100.343 65.4467 100.703 65.34C101.063 65.2333 101.436 65.1533 101.823 65.1C102.21 65.0333 102.596 65 102.983 65C103.623 65 104.13 65.1267 104.503 65.38C104.876 65.62 105.063 66.02 105.063 66.58C105.063 66.7667 105.036 66.9533 104.983 67.14C104.93 67.3133 104.863 67.4733 104.783 67.62C104.503 67.62 104.216 67.6333 103.923 67.66C103.63 67.6867 103.343 67.7267 103.063 67.78C102.783 67.8333 102.516 67.8933 102.263 67.96C102.023 68.0133 101.816 68.08 101.643 68.16V74.98ZM111.235 75.32C110.448 75.32 109.715 75.2133 109.035 75C108.368 74.7733 107.781 74.44 107.275 74C106.781 73.56 106.388 73.0067 106.095 72.34C105.815 71.6733 105.675 70.8933 105.675 70C105.675 69.12 105.815 68.3667 106.095 67.74C106.388 67.1 106.768 66.58 107.235 66.18C107.701 65.7667 108.235 65.4667 108.835 65.28C109.435 65.08 110.048 64.98 110.675 64.98C111.381 64.98 112.021 65.0867 112.595 65.3C113.181 65.5133 113.681 65.8067 114.095 66.18C114.521 66.5533 114.848 67 115.075 67.52C115.315 68.04 115.435 68.6067 115.435 69.22C115.435 69.6733 115.308 70.02 115.055 70.26C114.801 70.5 114.448 70.6533 113.995 70.72L109.055 71.46C109.201 71.9 109.501 72.2333 109.955 72.46C110.408 72.6733 110.928 72.78 111.515 72.78C112.061 72.78 112.575 72.7133 113.055 72.58C113.548 72.4333 113.948 72.2667 114.255 72.08C114.468 72.2133 114.648 72.4 114.795 72.64C114.941 72.88 115.015 73.1333 115.015 73.4C115.015 74 114.735 74.4467 114.175 74.74C113.748 74.9667 113.268 75.12 112.735 75.2C112.201 75.28 111.701 75.32 111.235 75.32ZM110.675 67.46C110.355 67.46 110.075 67.5133 109.835 67.62C109.608 67.7267 109.421 67.8667 109.275 68.04C109.128 68.2 109.015 68.3867 108.935 68.6C108.868 68.8 108.828 69.0067 108.815 69.22L112.235 68.66C112.195 68.3933 112.048 68.1267 111.795 67.86C111.541 67.5933 111.168 67.46 110.675 67.46ZM122.595 72.52C122.448 72.1867 122.288 71.8133 122.115 71.4C121.955 70.9867 121.782 70.5133 121.595 69.98C121.422 69.4467 121.235 68.84 121.035 68.16C120.848 67.4667 120.648 66.6733 120.435 65.78C120.622 65.5933 120.868 65.4333 121.175 65.3C121.495 65.1533 121.842 65.08 122.215 65.08C122.682 65.08 123.068 65.18 123.375 65.38C123.682 65.5667 123.908 65.9267 124.055 66.46L125.635 71.96H125.715C125.875 71.5067 126.028 71.0133 126.175 70.48C126.335 69.9467 126.488 69.4 126.635 68.84C126.782 68.2667 126.915 67.7 127.035 67.14C127.168 66.5667 127.282 66.0067 127.375 65.46C127.855 65.2067 128.382 65.08 128.955 65.08C129.422 65.08 129.808 65.18 130.115 65.38C130.422 65.58 130.575 65.9267 130.575 66.42C130.575 66.78 130.528 67.2 130.435 67.68C130.342 68.1467 130.215 68.6467 130.055 69.18C129.908 69.7133 129.728 70.2667 129.515 70.84C129.315 71.4 129.102 71.9533 128.875 72.5C128.648 73.0467 128.415 73.5667 128.175 74.06C127.935 74.54 127.702 74.9733 127.475 75.36C127.102 76.0133 126.755 76.5467 126.435 76.96C126.115 77.3733 125.808 77.6933 125.515 77.92C125.222 78.16 124.928 78.32 124.635 78.4C124.342 78.4933 124.035 78.54 123.715 78.54C123.155 78.54 122.702 78.3733 122.355 78.04C122.008 77.7067 121.802 77.2733 121.735 76.74C122.162 76.4067 122.588 76.0333 123.015 75.62C123.442 75.22 123.828 74.8067 124.175 74.38C123.948 74.3133 123.702 74.16 123.435 73.92C123.182 73.6667 122.902 73.2 122.595 72.52ZM142.053 70.14C142.053 70.9667 141.926 71.7067 141.673 72.36C141.42 73 141.06 73.54 140.593 73.98C140.14 74.42 139.593 74.7533 138.953 74.98C138.313 75.2067 137.6 75.32 136.813 75.32C136.026 75.32 135.313 75.2 134.673 74.96C134.033 74.72 133.48 74.38 133.013 73.94C132.56 73.4867 132.206 72.94 131.953 72.3C131.7 71.66 131.573 70.94 131.573 70.14C131.573 69.3533 131.7 68.64 131.953 68C132.206 67.36 132.56 66.82 133.013 66.38C133.48 65.9267 134.033 65.58 134.673 65.34C135.313 65.1 136.026 64.98 136.813 64.98C137.6 64.98 138.313 65.1067 138.953 65.36C139.593 65.6 140.14 65.9467 140.593 66.4C141.06 66.84 141.42 67.38 141.673 68.02C141.926 68.66 142.053 69.3667 142.053 70.14ZM135.053 70.14C135.053 70.9533 135.206 71.58 135.513 72.02C135.833 72.4467 136.273 72.66 136.833 72.66C137.393 72.66 137.82 72.44 138.113 72C138.42 71.56 138.573 70.94 138.573 70.14C138.573 69.34 138.42 68.7267 138.113 68.3C137.806 67.86 137.373 67.64 136.813 67.64C136.253 67.64 135.82 67.86 135.513 68.3C135.206 68.7267 135.053 69.34 135.053 70.14ZM143.712 65.42C143.845 65.38 144.052 65.34 144.332 65.3C144.625 65.26 144.925 65.24 145.232 65.24C145.525 65.24 145.785 65.26 146.012 65.3C146.252 65.34 146.452 65.42 146.612 65.54C146.772 65.66 146.892 65.8267 146.972 66.04C147.065 66.24 147.112 66.5067 147.112 66.84V71.14C147.112 71.6867 147.245 72.08 147.512 72.32C147.779 72.5467 148.165 72.66 148.672 72.66C148.979 72.66 149.225 72.6333 149.412 72.58C149.612 72.5267 149.765 72.4733 149.872 72.42V65.42C150.005 65.38 150.212 65.34 150.492 65.3C150.785 65.26 151.085 65.24 151.392 65.24C151.685 65.24 151.945 65.26 152.172 65.3C152.412 65.34 152.612 65.42 152.772 65.54C152.932 65.66 153.052 65.8267 153.132 66.04C153.225 66.24 153.272 66.5067 153.272 66.84V72.92C153.272 73.5867 152.992 74.0867 152.432 74.42C151.965 74.7133 151.405 74.9333 150.752 75.08C150.112 75.24 149.412 75.32 148.652 75.32C147.932 75.32 147.265 75.24 146.652 75.08C146.052 74.92 145.532 74.6733 145.092 74.34C144.652 74.0067 144.312 73.58 144.072 73.06C143.832 72.5267 143.712 71.8867 143.712 71.14V65.42ZM167.556 72.1C167.556 73.1133 167.176 73.9067 166.416 74.48C165.656 75.0533 164.536 75.34 163.056 75.34C162.496 75.34 161.976 75.3 161.496 75.22C161.016 75.14 160.603 75.02 160.256 74.86C159.923 74.6867 159.656 74.4733 159.456 74.22C159.27 73.9667 159.176 73.6667 159.176 73.32C159.176 73 159.243 72.7333 159.376 72.52C159.51 72.2933 159.67 72.1067 159.856 71.96C160.243 72.1733 160.683 72.3667 161.176 72.54C161.683 72.7 162.263 72.78 162.916 72.78C163.33 72.78 163.643 72.72 163.856 72.6C164.083 72.48 164.196 72.32 164.196 72.12C164.196 71.9333 164.116 71.7867 163.956 71.68C163.796 71.5733 163.53 71.4867 163.156 71.42L162.556 71.3C161.396 71.0733 160.53 70.72 159.956 70.24C159.396 69.7467 159.116 69.0467 159.116 68.14C159.116 67.6467 159.223 67.2 159.436 66.8C159.65 66.4 159.95 66.0667 160.336 65.8C160.723 65.5333 161.183 65.3267 161.716 65.18C162.263 65.0333 162.863 64.96 163.516 64.96C164.01 64.96 164.47 65 164.896 65.08C165.336 65.1467 165.716 65.2533 166.036 65.4C166.356 65.5467 166.61 65.74 166.796 65.98C166.983 66.2067 167.076 66.48 167.076 66.8C167.076 67.1067 167.016 67.3733 166.896 67.6C166.79 67.8133 166.65 67.9933 166.476 68.14C166.37 68.0733 166.21 68.0067 165.996 67.94C165.783 67.86 165.55 67.7933 165.296 67.74C165.043 67.6733 164.783 67.62 164.516 67.58C164.263 67.54 164.03 67.52 163.816 67.52C163.376 67.52 163.036 67.5733 162.796 67.68C162.556 67.7733 162.436 67.9267 162.436 68.14C162.436 68.2867 162.503 68.4067 162.636 68.5C162.77 68.5933 163.023 68.68 163.396 68.76L164.016 68.9C165.296 69.1933 166.203 69.6 166.736 70.12C167.283 70.6267 167.556 71.2867 167.556 72.1ZM169.2 65.42C169.333 65.38 169.54 65.34 169.82 65.3C170.113 65.26 170.413 65.24 170.72 65.24C171.013 65.24 171.273 65.26 171.5 65.3C171.74 65.34 171.94 65.42 172.1 65.54C172.26 65.66 172.38 65.8267 172.46 66.04C172.553 66.24 172.6 66.5067 172.6 66.84V71.14C172.6 71.6867 172.733 72.08 173 72.32C173.267 72.5467 173.653 72.66 174.16 72.66C174.467 72.66 174.713 72.6333 174.9 72.58C175.1 72.5267 175.253 72.4733 175.36 72.42V65.42C175.493 65.38 175.7 65.34 175.98 65.3C176.273 65.26 176.573 65.24 176.88 65.24C177.173 65.24 177.433 65.26 177.66 65.3C177.9 65.34 178.1 65.42 178.26 65.54C178.42 65.66 178.54 65.8267 178.62 66.04C178.713 66.24 178.76 66.5067 178.76 66.84V72.92C178.76 73.5867 178.48 74.0867 177.92 74.42C177.453 74.7133 176.893 74.9333 176.24 75.08C175.6 75.24 174.9 75.32 174.14 75.32C173.42 75.32 172.753 75.24 172.14 75.08C171.54 74.92 171.02 74.6733 170.58 74.34C170.14 74.0067 169.8 73.58 169.56 73.06C169.32 72.5267 169.2 71.8867 169.2 71.14V65.42ZM184.241 74.98C184.107 75.02 183.894 75.06 183.601 75.1C183.321 75.14 183.027 75.16 182.721 75.16C182.427 75.16 182.161 75.14 181.921 75.1C181.694 75.06 181.501 74.98 181.341 74.86C181.181 74.74 181.054 74.58 180.961 74.38C180.881 74.1667 180.841 73.8933 180.841 73.56V67.56C180.841 67.2533 180.894 66.9933 181.001 66.78C181.121 66.5533 181.287 66.3533 181.501 66.18C181.714 66.0067 181.974 65.8533 182.281 65.72C182.601 65.5733 182.941 65.4467 183.301 65.34C183.661 65.2333 184.034 65.1533 184.421 65.1C184.807 65.0333 185.194 65 185.581 65C186.221 65 186.727 65.1267 187.101 65.38C187.474 65.62 187.661 66.02 187.661 66.58C187.661 66.7667 187.634 66.9533 187.581 67.14C187.527 67.3133 187.461 67.4733 187.381 67.62C187.101 67.62 186.814 67.6333 186.521 67.66C186.227 67.6867 185.941 67.7267 185.661 67.78C185.381 67.8333 185.114 67.8933 184.861 67.96C184.621 68.0133 184.414 68.08 184.241 68.16V74.98ZM193.832 75.32C193.046 75.32 192.312 75.2133 191.632 75C190.966 74.7733 190.379 74.44 189.872 74C189.379 73.56 188.986 73.0067 188.692 72.34C188.412 71.6733 188.272 70.8933 188.272 70C188.272 69.12 188.412 68.3667 188.692 67.74C188.986 67.1 189.366 66.58 189.832 66.18C190.299 65.7667 190.832 65.4667 191.432 65.28C192.032 65.08 192.646 64.98 193.272 64.98C193.979 64.98 194.619 65.0867 195.192 65.3C195.779 65.5133 196.279 65.8067 196.692 66.18C197.119 66.5533 197.446 67 197.672 67.52C197.912 68.04 198.032 68.6067 198.032 69.22C198.032 69.6733 197.906 70.02 197.652 70.26C197.399 70.5 197.046 70.6533 196.592 70.72L191.652 71.46C191.799 71.9 192.099 72.2333 192.552 72.46C193.006 72.6733 193.526 72.78 194.112 72.78C194.659 72.78 195.172 72.7133 195.652 72.58C196.146 72.4333 196.546 72.2667 196.852 72.08C197.066 72.2133 197.246 72.4 197.392 72.64C197.539 72.88 197.612 73.1333 197.612 73.4C197.612 74 197.332 74.4467 196.772 74.74C196.346 74.9667 195.866 75.12 195.332 75.2C194.799 75.28 194.299 75.32 193.832 75.32ZM193.272 67.46C192.952 67.46 192.672 67.5133 192.432 67.62C192.206 67.7267 192.019 67.8667 191.872 68.04C191.726 68.2 191.612 68.3867 191.532 68.6C191.466 68.8 191.426 69.0067 191.412 69.22L194.832 68.66C194.792 68.3933 194.646 68.1267 194.392 67.86C194.139 67.5933 193.766 67.46 193.272 67.46ZM205.193 72.52C205.046 72.1867 204.886 71.8133 204.713 71.4C204.553 70.9867 204.379 70.5133 204.193 69.98C204.019 69.4467 203.833 68.84 203.633 68.16C203.446 67.4667 203.246 66.6733 203.033 65.78C203.219 65.5933 203.466 65.4333 203.773 65.3C204.093 65.1533 204.439 65.08 204.813 65.08C205.279 65.08 205.666 65.18 205.973 65.38C206.279 65.5667 206.506 65.9267 206.653 66.46L208.233 71.96H208.313C208.473 71.5067 208.626 71.0133 208.773 70.48C208.933 69.9467 209.086 69.4 209.233 68.84C209.379 68.2667 209.513 67.7 209.633 67.14C209.766 66.5667 209.879 66.0067 209.973 65.46C210.453 65.2067 210.979 65.08 211.553 65.08C212.019 65.08 212.406 65.18 212.713 65.38C213.019 65.58 213.173 65.9267 213.173 66.42C213.173 66.78 213.126 67.2 213.033 67.68C212.939 68.1467 212.813 68.6467 212.653 69.18C212.506 69.7133 212.326 70.2667 212.113 70.84C211.913 71.4 211.699 71.9533 211.473 72.5C211.246 73.0467 211.013 73.5667 210.773 74.06C210.533 74.54 210.299 74.9733 210.073 75.36C209.699 76.0133 209.353 76.5467 209.033 76.96C208.713 77.3733 208.406 77.6933 208.113 77.92C207.819 78.16 207.526 78.32 207.233 78.4C206.939 78.4933 206.633 78.54 206.313 78.54C205.753 78.54 205.299 78.3733 204.953 78.04C204.606 77.7067 204.399 77.2733 204.333 76.74C204.759 76.4067 205.186 76.0333 205.613 75.62C206.039 75.22 206.426 74.8067 206.773 74.38C206.546 74.3133 206.299 74.16 206.033 73.92C205.779 73.6667 205.499 73.2 205.193 72.52ZM224.651 70.14C224.651 70.9667 224.524 71.7067 224.271 72.36C224.017 73 223.657 73.54 223.191 73.98C222.737 74.42 222.191 74.7533 221.551 74.98C220.911 75.2067 220.197 75.32 219.411 75.32C218.624 75.32 217.911 75.2 217.271 74.96C216.631 74.72 216.077 74.38 215.611 73.94C215.157 73.4867 214.804 72.94 214.551 72.3C214.297 71.66 214.171 70.94 214.171 70.14C214.171 69.3533 214.297 68.64 214.551 68C214.804 67.36 215.157 66.82 215.611 66.38C216.077 65.9267 216.631 65.58 217.271 65.34C217.911 65.1 218.624 64.98 219.411 64.98C220.197 64.98 220.911 65.1067 221.551 65.36C222.191 65.6 222.737 65.9467 223.191 66.4C223.657 66.84 224.017 67.38 224.271 68.02C224.524 68.66 224.651 69.3667 224.651 70.14ZM217.651 70.14C217.651 70.9533 217.804 71.58 218.111 72.02C218.431 72.4467 218.871 72.66 219.431 72.66C219.991 72.66 220.417 72.44 220.711 72C221.017 71.56 221.171 70.94 221.171 70.14C221.171 69.34 221.017 68.7267 220.711 68.3C220.404 67.86 219.971 67.64 219.411 67.64C218.851 67.64 218.417 67.86 218.111 68.3C217.804 68.7267 217.651 69.34 217.651 70.14ZM226.31 65.42C226.443 65.38 226.65 65.34 226.93 65.3C227.223 65.26 227.523 65.24 227.83 65.24C228.123 65.24 228.383 65.26 228.61 65.3C228.85 65.34 229.05 65.42 229.21 65.54C229.37 65.66 229.49 65.8267 229.57 66.04C229.663 66.24 229.71 66.5067 229.71 66.84V71.14C229.71 71.6867 229.843 72.08 230.11 72.32C230.376 72.5467 230.763 72.66 231.27 72.66C231.576 72.66 231.823 72.6333 232.01 72.58C232.21 72.5267 232.363 72.4733 232.47 72.42V65.42C232.603 65.38 232.81 65.34 233.09 65.3C233.383 65.26 233.683 65.24 233.99 65.24C234.283 65.24 234.543 65.26 234.77 65.3C235.01 65.34 235.21 65.42 235.37 65.54C235.53 65.66 235.65 65.8267 235.73 66.04C235.823 66.24 235.87 66.5067 235.87 66.84V72.92C235.87 73.5867 235.59 74.0867 235.03 74.42C234.563 74.7133 234.003 74.9333 233.35 75.08C232.71 75.24 232.01 75.32 231.25 75.32C230.53 75.32 229.863 75.24 229.25 75.08C228.65 74.92 228.13 74.6733 227.69 74.34C227.25 74.0067 226.91 73.58 226.67 73.06C226.43 72.5267 226.31 71.8867 226.31 71.14V65.42ZM93.9041 102.1C93.9041 103.113 93.5241 103.907 92.7641 104.48C92.0041 105.053 90.8841 105.34 89.4041 105.34C88.8441 105.34 88.3241 105.3 87.8441 105.22C87.3641 105.14 86.9507 105.02 86.6041 104.86C86.2707 104.687 86.0041 104.473 85.8041 104.22C85.6174 103.967 85.5241 103.667 85.5241 103.32C85.5241 103 85.5907 102.733 85.7241 102.52C85.8574 102.293 86.0174 102.107 86.2041 101.96C86.5907 102.173 87.0307 102.367 87.5241 102.54C88.0307 102.7 88.6107 102.78 89.2641 102.78C89.6774 102.78 89.9907 102.72 90.2041 102.6C90.4307 102.48 90.5441 102.32 90.5441 102.12C90.5441 101.933 90.4641 101.787 90.3041 101.68C90.1441 101.573 89.8774 101.487 89.5041 101.42L88.9041 101.3C87.7441 101.073 86.8774 100.72 86.3041 100.24C85.7441 99.7467 85.4641 99.0467 85.4641 98.14C85.4641 97.6467 85.5707 97.2 85.7841 96.8C85.9974 96.4 86.2974 96.0667 86.6841 95.8C87.0707 95.5333 87.5307 95.3267 88.0641 95.18C88.6107 95.0333 89.2107 94.96 89.8641 94.96C90.3574 94.96 90.8174 95 91.2441 95.08C91.6841 95.1467 92.0641 95.2533 92.3841 95.4C92.7041 95.5467 92.9574 95.74 93.1441 95.98C93.3307 96.2067 93.4241 96.48 93.4241 96.8C93.4241 97.1067 93.3641 97.3733 93.2441 97.6C93.1374 97.8133 92.9974 97.9933 92.8241 98.14C92.7174 98.0733 92.5574 98.0067 92.3441 97.94C92.1307 97.86 91.8974 97.7933 91.6441 97.74C91.3907 97.6733 91.1307 97.62 90.8641 97.58C90.6107 97.54 90.3774 97.52 90.1641 97.52C89.7241 97.52 89.3841 97.5733 89.1441 97.68C88.9041 97.7733 88.7841 97.9267 88.7841 98.14C88.7841 98.2867 88.8507 98.4067 88.9841 98.5C89.1174 98.5933 89.3707 98.68 89.7441 98.76L90.3641 98.9C91.6441 99.1933 92.5507 99.6 93.0841 100.12C93.6307 100.627 93.9041 101.287 93.9041 102.1ZM98.9478 101.66C98.9478 102.007 99.0545 102.253 99.2678 102.4C99.4945 102.547 99.8078 102.62 100.208 102.62C100.408 102.62 100.614 102.607 100.828 102.58C101.041 102.54 101.228 102.493 101.388 102.44C101.508 102.587 101.608 102.753 101.688 102.94C101.781 103.113 101.828 103.327 101.828 103.58C101.828 104.087 101.634 104.5 101.248 104.82C100.874 105.14 100.208 105.3 99.2478 105.3C98.0745 105.3 97.1678 105.033 96.5278 104.5C95.9011 103.967 95.5878 103.1 95.5878 101.9V93.34C95.7345 93.3 95.9411 93.26 96.2078 93.22C96.4878 93.1667 96.7811 93.14 97.0878 93.14C97.6745 93.14 98.1278 93.2467 98.4478 93.46C98.7811 93.66 98.9478 94.0933 98.9478 94.76V96.04H101.568C101.648 96.1867 101.721 96.3733 101.788 96.6C101.868 96.8133 101.908 97.0533 101.908 97.32C101.908 97.7867 101.801 98.1267 101.588 98.34C101.388 98.54 101.114 98.64 100.768 98.64H98.9478V101.66ZM113.498 100.14C113.498 100.967 113.372 101.707 113.118 102.36C112.865 103 112.505 103.54 112.038 103.98C111.585 104.42 111.038 104.753 110.398 104.98C109.758 105.207 109.045 105.32 108.258 105.32C107.472 105.32 106.758 105.2 106.118 104.96C105.478 104.72 104.925 104.38 104.458 103.94C104.005 103.487 103.652 102.94 103.398 102.3C103.145 101.66 103.018 100.94 103.018 100.14C103.018 99.3533 103.145 98.64 103.398 98C103.652 97.36 104.005 96.82 104.458 96.38C104.925 95.9267 105.478 95.58 106.118 95.34C106.758 95.1 107.472 94.98 108.258 94.98C109.045 94.98 109.758 95.1067 110.398 95.36C111.038 95.6 111.585 95.9467 112.038 96.4C112.505 96.84 112.865 97.38 113.118 98.02C113.372 98.66 113.498 99.3667 113.498 100.14ZM106.498 100.14C106.498 100.953 106.652 101.58 106.958 102.02C107.278 102.447 107.718 102.66 108.278 102.66C108.838 102.66 109.265 102.44 109.558 102C109.865 101.56 110.018 100.94 110.018 100.14C110.018 99.34 109.865 98.7267 109.558 98.3C109.252 97.86 108.818 97.64 108.258 97.64C107.698 97.64 107.265 97.86 106.958 98.3C106.652 98.7267 106.498 99.34 106.498 100.14ZM125.217 100.14C125.217 100.967 125.091 101.707 124.837 102.36C124.584 103 124.224 103.54 123.757 103.98C123.304 104.42 122.757 104.753 122.117 104.98C121.477 105.207 120.764 105.32 119.977 105.32C119.191 105.32 118.477 105.2 117.837 104.96C117.197 104.72 116.644 104.38 116.177 103.94C115.724 103.487 115.371 102.94 115.117 102.3C114.864 101.66 114.737 100.94 114.737 100.14C114.737 99.3533 114.864 98.64 115.117 98C115.371 97.36 115.724 96.82 116.177 96.38C116.644 95.9267 117.197 95.58 117.837 95.34C118.477 95.1 119.191 94.98 119.977 94.98C120.764 94.98 121.477 95.1067 122.117 95.36C122.757 95.6 123.304 95.9467 123.757 96.4C124.224 96.84 124.584 97.38 124.837 98.02C125.091 98.66 125.217 99.3667 125.217 100.14ZM118.217 100.14C118.217 100.953 118.371 101.58 118.677 102.02C118.997 102.447 119.437 102.66 119.997 102.66C120.557 102.66 120.984 102.44 121.277 102C121.584 101.56 121.737 100.94 121.737 100.14C121.737 99.34 121.584 98.7267 121.277 98.3C120.971 97.86 120.537 97.64 119.977 97.64C119.417 97.64 118.984 97.86 118.677 98.3C118.371 98.7267 118.217 99.34 118.217 100.14ZM126.456 100.14C126.456 99.26 126.589 98.5 126.856 97.86C127.123 97.2067 127.489 96.6667 127.956 96.24C128.436 95.8133 128.989 95.5 129.616 95.3C130.256 95.0867 130.943 94.98 131.676 94.98C131.943 94.98 132.203 95.0067 132.456 95.06C132.709 95.1 132.916 95.1533 133.076 95.22V91.98C133.209 91.94 133.423 91.9 133.716 91.86C134.009 91.8067 134.309 91.78 134.616 91.78C134.909 91.78 135.169 91.8 135.396 91.84C135.636 91.88 135.836 91.96 135.996 92.08C136.156 92.2 136.276 92.3667 136.356 92.58C136.436 92.78 136.476 93.0467 136.476 93.38V102.86C136.476 103.487 136.183 103.987 135.596 104.36C135.209 104.613 134.709 104.833 134.096 105.02C133.483 105.22 132.776 105.32 131.976 105.32C131.109 105.32 130.329 105.2 129.636 104.96C128.956 104.72 128.376 104.373 127.896 103.92C127.429 103.467 127.069 102.927 126.816 102.3C126.576 101.66 126.456 100.94 126.456 100.14ZM132.136 97.64C131.416 97.64 130.863 97.8467 130.476 98.26C130.089 98.6733 129.896 99.3 129.896 100.14C129.896 100.967 130.076 101.593 130.436 102.02C130.796 102.433 131.316 102.64 131.996 102.64C132.236 102.64 132.449 102.607 132.636 102.54C132.836 102.46 132.989 102.373 133.096 102.28V97.88C132.829 97.72 132.509 97.64 132.136 97.64ZM139.615 103.46C139.615 102.913 139.781 102.467 140.115 102.12C140.461 101.76 140.935 101.58 141.535 101.58C142.135 101.58 142.601 101.76 142.935 102.12C143.281 102.467 143.455 102.913 143.455 103.46C143.455 104.007 143.281 104.46 142.935 104.82C142.601 105.167 142.135 105.34 141.535 105.34C140.935 105.34 140.461 105.167 140.115 104.82C139.781 104.46 139.615 104.007 139.615 103.46ZM140.275 100.84C140.048 100.72 139.835 100.507 139.635 100.2C139.435 99.88 139.335 99.5067 139.335 99.08C139.335 98.6667 139.441 98.36 139.655 98.16C139.881 97.9467 140.208 97.7867 140.635 97.68L142.195 97.3C142.861 97.1267 143.195 96.8067 143.195 96.34C143.195 96.0867 143.068 95.8667 142.815 95.68C142.575 95.4933 142.155 95.4 141.555 95.4C141.008 95.4 140.495 95.4733 140.015 95.62C139.535 95.7533 139.148 95.9133 138.855 96.1C138.628 95.9267 138.435 95.72 138.275 95.48C138.115 95.2267 138.035 94.9267 138.035 94.58C138.035 94.2333 138.135 93.9333 138.335 93.68C138.535 93.4133 138.808 93.2 139.155 93.04C139.515 92.8667 139.935 92.74 140.415 92.66C140.908 92.58 141.448 92.54 142.035 92.54C143.608 92.54 144.795 92.8933 145.595 93.6C146.408 94.2933 146.815 95.2067 146.815 96.34C146.815 98.4733 145.308 99.84 142.295 100.44L140.275 100.84ZM152.2 97.08C152.173 97 152.153 96.9067 152.14 96.8C152.14 96.6933 152.14 96.5933 152.14 96.5C152.14 96.26 152.166 96.0333 152.22 95.82C152.273 95.6067 152.36 95.42 152.48 95.26C152.6 95.1 152.753 94.9733 152.94 94.88C153.14 94.7733 153.386 94.72 153.68 94.72C153.96 94.72 154.233 94.78 154.5 94.9C154.78 95.02 155.12 95.1933 155.52 95.42L159.82 97.9C160.166 98.3533 160.34 98.9533 160.34 99.7C160.34 100.26 160.26 100.693 160.1 101C159.94 101.307 159.706 101.547 159.4 101.72L153.9 104.92C153.246 104.747 152.8 104.513 152.56 104.22C152.333 103.913 152.22 103.587 152.22 103.24C152.22 102.773 152.333 102.413 152.56 102.16C152.8 101.893 153.146 101.647 153.6 101.42L157.12 99.64L152.2 97.08ZM161.574 97.1C161.574 96.54 161.747 96.0733 162.094 95.7C162.44 95.3267 162.914 95.14 163.514 95.14C164.114 95.14 164.587 95.3267 164.934 95.7C165.28 96.0733 165.454 96.54 165.454 97.1C165.454 97.66 165.28 98.1267 164.934 98.5C164.587 98.8733 164.114 99.06 163.514 99.06C162.914 99.06 162.44 98.8733 162.094 98.5C161.747 98.1267 161.574 97.66 161.574 97.1ZM161.574 103.38C161.574 102.82 161.747 102.353 162.094 101.98C162.44 101.607 162.914 101.42 163.514 101.42C164.114 101.42 164.587 101.607 164.934 101.98C165.28 102.353 165.454 102.82 165.454 103.38C165.454 103.94 165.28 104.407 164.934 104.78C164.587 105.153 164.114 105.34 163.514 105.34C162.914 105.34 162.44 105.153 162.094 104.78C161.747 104.407 161.574 103.94 161.574 103.38ZM173.57 95.32C172.543 95.32 171.757 95.6333 171.21 96.26C170.663 96.8867 170.39 97.7733 170.39 98.92C170.39 100.08 170.69 100.973 171.29 101.6C171.903 102.227 172.723 102.54 173.75 102.54C174.297 102.54 174.757 102.467 175.13 102.32C175.517 102.173 175.883 102.007 176.23 101.82C176.457 102.007 176.63 102.233 176.75 102.5C176.883 102.753 176.95 103.053 176.95 103.4C176.95 103.947 176.643 104.413 176.03 104.8C175.43 105.173 174.51 105.36 173.27 105.36C172.377 105.36 171.537 105.233 170.75 104.98C169.963 104.727 169.277 104.34 168.69 103.82C168.103 103.287 167.637 102.62 167.29 101.82C166.957 101.007 166.79 100.04 166.79 98.92C166.79 97.88 166.95 96.9667 167.27 96.18C167.603 95.38 168.05 94.7067 168.61 94.16C169.183 93.6133 169.85 93.2 170.61 92.92C171.37 92.64 172.183 92.5 173.05 92.5C174.277 92.5 175.223 92.7 175.89 93.1C176.57 93.5 176.91 94.0133 176.91 94.64C176.91 94.9867 176.823 95.2867 176.65 95.54C176.477 95.7933 176.277 95.9933 176.05 96.14C175.703 95.9133 175.33 95.72 174.93 95.56C174.543 95.4 174.09 95.32 173.57 95.32Z" fill="#1257B4"/>
<rect width="307" height="35.7377" fill="#1257B4"/>
<path fill-rule="evenodd" clip-rule="evenodd" d="M24 83.9399C24 72.4462 33.3174 63.1288 44.8111 63.1288C56.3047 63.1288 65.6222 72.4462 65.6222 83.9399C65.6222 95.4335 56.3047 104.751 44.8111 104.751C33.3174 104.751 24 95.4335 24 83.9399ZM46.8922 72.4938C46.8922 71.3444 45.9605 70.4127 44.8111 70.4127C43.6617 70.4127 42.73 71.3444 42.73 72.4938V87.0615C42.73 88.2109 43.6617 89.1426 44.8111 89.1426C45.9605 89.1426 46.8922 88.2109 46.8922 87.0615V72.4938ZM44.8111 93.3049C45.9605 93.3049 46.8922 94.2366 46.8922 95.386C46.8922 96.5354 45.9605 97.4671 44.8111 97.4671C43.6617 97.4671 42.73 96.5354 42.73 95.386C42.73 94.2366 43.6617 93.3049 44.8111 93.3049Z" fill="#1257B4"/>
<path d="M85.1974 123.276C85.1974 122.296 85.2814 121.437 85.4494 120.7C85.6267 119.963 85.8507 119.342 86.1214 118.838C86.2987 118.511 86.5134 118.231 86.7654 117.998C87.0267 117.765 87.3487 117.648 87.7314 117.648C87.9834 117.648 88.2074 117.718 88.4034 117.858C88.5994 117.998 88.7487 118.147 88.8514 118.306C88.6274 118.642 88.4267 118.992 88.2494 119.356C88.0814 119.711 87.9367 120.089 87.8154 120.49C87.7034 120.891 87.6147 121.321 87.5494 121.778C87.4934 122.235 87.4654 122.735 87.4654 123.276C87.4654 123.817 87.4934 124.317 87.5494 124.774C87.6147 125.231 87.7034 125.661 87.8154 126.062C87.9367 126.463 88.0814 126.841 88.2494 127.196C88.4267 127.56 88.6274 127.91 88.8514 128.246C88.7487 128.405 88.5994 128.554 88.4034 128.694C88.2074 128.834 87.9834 128.904 87.7314 128.904C87.3487 128.904 87.0267 128.787 86.7654 128.554C86.5134 128.321 86.2987 128.041 86.1214 127.714C85.8507 127.21 85.6267 126.589 85.4494 125.852C85.2814 125.115 85.1974 124.256 85.1974 123.276ZM90.5986 125.264C90.496 125.031 90.384 124.769 90.2626 124.48C90.1506 124.191 90.0293 123.859 89.8986 123.486C89.7773 123.113 89.6466 122.688 89.5066 122.212C89.376 121.727 89.236 121.171 89.0866 120.546C89.2173 120.415 89.39 120.303 89.6046 120.21C89.8286 120.107 90.0713 120.056 90.3326 120.056C90.6593 120.056 90.93 120.126 91.1446 120.266C91.3593 120.397 91.518 120.649 91.6206 121.022L92.7266 124.872H92.7826C92.8946 124.555 93.002 124.209 93.1046 123.836C93.2166 123.463 93.324 123.08 93.4266 122.688C93.5293 122.287 93.6226 121.89 93.7066 121.498C93.8 121.097 93.8793 120.705 93.9446 120.322C94.2806 120.145 94.6493 120.056 95.0506 120.056C95.3773 120.056 95.648 120.126 95.8626 120.266C96.0773 120.406 96.1846 120.649 96.1846 120.994C96.1846 121.246 96.152 121.54 96.0866 121.876C96.0213 122.203 95.9326 122.553 95.8206 122.926C95.718 123.299 95.592 123.687 95.4426 124.088C95.3026 124.48 95.1533 124.867 94.9946 125.25C94.836 125.633 94.6726 125.997 94.5046 126.342C94.3366 126.678 94.1733 126.981 94.0146 127.252C93.7533 127.709 93.5106 128.083 93.2866 128.372C93.0626 128.661 92.848 128.885 92.6426 129.044C92.4373 129.212 92.232 129.324 92.0266 129.38C91.8213 129.445 91.6066 129.478 91.3826 129.478C90.9906 129.478 90.6733 129.361 90.4306 129.128C90.188 128.895 90.0433 128.591 89.9966 128.218C90.2953 127.985 90.594 127.723 90.8926 127.434C91.1913 127.154 91.462 126.865 91.7046 126.566C91.546 126.519 91.3733 126.412 91.1866 126.244C91.0093 126.067 90.8133 125.74 90.5986 125.264ZM104.219 123.598C104.219 124.177 104.131 124.695 103.953 125.152C103.776 125.6 103.524 125.978 103.197 126.286C102.88 126.594 102.497 126.827 102.049 126.986C101.601 127.145 101.102 127.224 100.551 127.224C100.001 127.224 99.5012 127.14 99.0532 126.972C98.6052 126.804 98.2179 126.566 97.8912 126.258C97.5739 125.941 97.3266 125.558 97.1492 125.11C96.9719 124.662 96.8832 124.158 96.8832 123.598C96.8832 123.047 96.9719 122.548 97.1492 122.1C97.3266 121.652 97.5739 121.274 97.8912 120.966C98.2179 120.649 98.6052 120.406 99.0532 120.238C99.5012 120.07 100.001 119.986 100.551 119.986C101.102 119.986 101.601 120.075 102.049 120.252C102.497 120.42 102.88 120.663 103.197 120.98C103.524 121.288 103.776 121.666 103.953 122.114C104.131 122.562 104.219 123.057 104.219 123.598ZM99.3192 123.598C99.3192 124.167 99.4266 124.606 99.6412 124.914C99.8652 125.213 100.173 125.362 100.565 125.362C100.957 125.362 101.256 125.208 101.461 124.9C101.676 124.592 101.783 124.158 101.783 123.598C101.783 123.038 101.676 122.609 101.461 122.31C101.247 122.002 100.943 121.848 100.551 121.848C100.159 121.848 99.8559 122.002 99.6412 122.31C99.4266 122.609 99.3192 123.038 99.3192 123.598ZM105.38 120.294C105.474 120.266 105.618 120.238 105.814 120.21C106.02 120.182 106.23 120.168 106.444 120.168C106.65 120.168 106.832 120.182 106.99 120.21C107.158 120.238 107.298 120.294 107.41 120.378C107.522 120.462 107.606 120.579 107.662 120.728C107.728 120.868 107.76 121.055 107.76 121.288V124.298C107.76 124.681 107.854 124.956 108.04 125.124C108.227 125.283 108.498 125.362 108.852 125.362C109.067 125.362 109.24 125.343 109.37 125.306C109.51 125.269 109.618 125.231 109.692 125.194V120.294C109.786 120.266 109.93 120.238 110.126 120.21C110.332 120.182 110.542 120.168 110.756 120.168C110.962 120.168 111.144 120.182 111.302 120.21C111.47 120.238 111.61 120.294 111.722 120.378C111.834 120.462 111.918 120.579 111.974 120.728C112.04 120.868 112.072 121.055 112.072 121.288V125.544C112.072 126.011 111.876 126.361 111.484 126.594C111.158 126.799 110.766 126.953 110.308 127.056C109.86 127.168 109.37 127.224 108.838 127.224C108.334 127.224 107.868 127.168 107.438 127.056C107.018 126.944 106.654 126.771 106.346 126.538C106.038 126.305 105.8 126.006 105.632 125.642C105.464 125.269 105.38 124.821 105.38 124.298V120.294ZM116.36 117.886C116.453 117.858 116.602 117.83 116.808 117.802C117.013 117.765 117.223 117.746 117.438 117.746C117.643 117.746 117.825 117.76 117.984 117.788C118.152 117.816 118.292 117.872 118.404 117.956C118.516 118.04 118.6 118.157 118.656 118.306C118.712 118.446 118.74 118.633 118.74 118.866V120.238C118.973 120.145 119.192 120.079 119.398 120.042C119.612 120.005 119.846 119.986 120.098 119.986C120.546 119.986 120.97 120.065 121.372 120.224C121.773 120.383 122.128 120.616 122.436 120.924C122.744 121.223 122.986 121.596 123.164 122.044C123.341 122.492 123.43 123.01 123.43 123.598C123.43 124.205 123.336 124.737 123.15 125.194C122.972 125.642 122.72 126.015 122.394 126.314C122.067 126.613 121.666 126.841 121.19 127C120.723 127.149 120.205 127.224 119.636 127.224C119.02 127.224 118.497 127.149 118.068 127C117.638 126.86 117.274 126.683 116.976 126.468C116.565 126.179 116.36 125.805 116.36 125.348V117.886ZM119.636 125.348C120.065 125.348 120.396 125.203 120.63 124.914C120.872 124.615 120.994 124.177 120.994 123.598C120.994 123.01 120.872 122.571 120.63 122.282C120.387 121.993 120.06 121.848 119.65 121.848C119.463 121.848 119.3 121.867 119.16 121.904C119.029 121.941 118.884 121.997 118.726 122.072V125.124C118.828 125.189 118.95 125.245 119.09 125.292C119.239 125.329 119.421 125.348 119.636 125.348ZM128.187 127.224C127.637 127.224 127.123 127.149 126.647 127C126.181 126.841 125.77 126.608 125.415 126.3C125.07 125.992 124.795 125.605 124.589 125.138C124.393 124.671 124.295 124.125 124.295 123.5C124.295 122.884 124.393 122.357 124.589 121.918C124.795 121.47 125.061 121.106 125.387 120.826C125.714 120.537 126.087 120.327 126.507 120.196C126.927 120.056 127.357 119.986 127.795 119.986C128.29 119.986 128.738 120.061 129.139 120.21C129.55 120.359 129.9 120.565 130.189 120.826C130.488 121.087 130.717 121.4 130.875 121.764C131.043 122.128 131.127 122.525 131.127 122.954C131.127 123.271 131.039 123.514 130.861 123.682C130.684 123.85 130.437 123.957 130.119 124.004L126.661 124.522C126.764 124.83 126.974 125.063 127.291 125.222C127.609 125.371 127.973 125.446 128.383 125.446C128.766 125.446 129.125 125.399 129.461 125.306C129.807 125.203 130.087 125.087 130.301 124.956C130.451 125.049 130.577 125.18 130.679 125.348C130.782 125.516 130.833 125.693 130.833 125.88C130.833 126.3 130.637 126.613 130.245 126.818C129.947 126.977 129.611 127.084 129.237 127.14C128.864 127.196 128.514 127.224 128.187 127.224ZM127.795 121.722C127.571 121.722 127.375 121.759 127.207 121.834C127.049 121.909 126.918 122.007 126.815 122.128C126.713 122.24 126.633 122.371 126.577 122.52C126.531 122.66 126.503 122.805 126.493 122.954L128.887 122.562C128.859 122.375 128.757 122.189 128.579 122.002C128.402 121.815 128.141 121.722 127.795 121.722ZM134.653 124.662C134.653 124.905 134.728 125.077 134.877 125.18C135.036 125.283 135.255 125.334 135.535 125.334C135.675 125.334 135.82 125.325 135.969 125.306C136.118 125.278 136.249 125.245 136.361 125.208C136.445 125.311 136.515 125.427 136.571 125.558C136.636 125.679 136.669 125.829 136.669 126.006C136.669 126.361 136.534 126.65 136.263 126.874C136.002 127.098 135.535 127.21 134.863 127.21C134.042 127.21 133.407 127.023 132.959 126.65C132.52 126.277 132.301 125.67 132.301 124.83V118.838C132.404 118.81 132.548 118.782 132.735 118.754C132.931 118.717 133.136 118.698 133.351 118.698C133.762 118.698 134.079 118.773 134.303 118.922C134.536 119.062 134.653 119.365 134.653 119.832V120.728H136.487C136.543 120.831 136.594 120.961 136.641 121.12C136.697 121.269 136.725 121.437 136.725 121.624C136.725 121.951 136.65 122.189 136.501 122.338C136.361 122.478 136.17 122.548 135.927 122.548H134.653V124.662ZM140.258 124.662C140.258 124.905 140.333 125.077 140.482 125.18C140.641 125.283 140.86 125.334 141.14 125.334C141.28 125.334 141.425 125.325 141.574 125.306C141.724 125.278 141.854 125.245 141.966 125.208C142.05 125.311 142.12 125.427 142.176 125.558C142.242 125.679 142.274 125.829 142.274 126.006C142.274 126.361 142.139 126.65 141.868 126.874C141.607 127.098 141.14 127.21 140.468 127.21C139.647 127.21 139.012 127.023 138.564 126.65C138.126 126.277 137.906 125.67 137.906 124.83V118.838C138.009 118.81 138.154 118.782 138.34 118.754C138.536 118.717 138.742 118.698 138.956 118.698C139.367 118.698 139.684 118.773 139.908 118.922C140.142 119.062 140.258 119.365 140.258 119.832V120.728H142.092C142.148 120.831 142.2 120.961 142.246 121.12C142.302 121.269 142.33 121.437 142.33 121.624C142.33 121.951 142.256 122.189 142.106 122.338C141.966 122.478 141.775 122.548 141.532 122.548H140.258V124.662ZM147 127.224C146.449 127.224 145.936 127.149 145.46 127C144.993 126.841 144.582 126.608 144.228 126.3C143.882 125.992 143.607 125.605 143.402 125.138C143.206 124.671 143.108 124.125 143.108 123.5C143.108 122.884 143.206 122.357 143.402 121.918C143.607 121.47 143.873 121.106 144.2 120.826C144.526 120.537 144.9 120.327 145.32 120.196C145.74 120.056 146.169 119.986 146.608 119.986C147.102 119.986 147.55 120.061 147.952 120.21C148.362 120.359 148.712 120.565 149.002 120.826C149.3 121.087 149.529 121.4 149.688 121.764C149.856 122.128 149.94 122.525 149.94 122.954C149.94 123.271 149.851 123.514 149.674 123.682C149.496 123.85 149.249 123.957 148.932 124.004L145.474 124.522C145.576 124.83 145.786 125.063 146.104 125.222C146.421 125.371 146.785 125.446 147.196 125.446C147.578 125.446 147.938 125.399 148.274 125.306C148.619 125.203 148.899 125.087 149.114 124.956C149.263 125.049 149.389 125.18 149.492 125.348C149.594 125.516 149.646 125.693 149.646 125.88C149.646 126.3 149.45 126.613 149.058 126.818C148.759 126.977 148.423 127.084 148.05 127.14C147.676 127.196 147.326 127.224 147 127.224ZM146.608 121.722C146.384 121.722 146.188 121.759 146.02 121.834C145.861 121.909 145.73 122.007 145.628 122.128C145.525 122.24 145.446 122.371 145.39 122.52C145.343 122.66 145.315 122.805 145.306 122.954L147.7 122.562C147.672 122.375 147.569 122.189 147.392 122.002C147.214 121.815 146.953 121.722 146.608 121.722ZM153.465 126.986C153.372 127.014 153.223 127.042 153.017 127.07C152.821 127.098 152.616 127.112 152.401 127.112C152.196 127.112 152.009 127.098 151.841 127.07C151.683 127.042 151.547 126.986 151.435 126.902C151.323 126.818 151.235 126.706 151.169 126.566C151.113 126.417 151.085 126.225 151.085 125.992V121.792C151.085 121.577 151.123 121.395 151.197 121.246C151.281 121.087 151.398 120.947 151.547 120.826C151.697 120.705 151.879 120.597 152.093 120.504C152.317 120.401 152.555 120.313 152.807 120.238C153.059 120.163 153.321 120.107 153.591 120.07C153.862 120.023 154.133 120 154.403 120C154.851 120 155.206 120.089 155.467 120.266C155.729 120.434 155.859 120.714 155.859 121.106C155.859 121.237 155.841 121.367 155.803 121.498C155.766 121.619 155.719 121.731 155.663 121.834C155.467 121.834 155.267 121.843 155.061 121.862C154.856 121.881 154.655 121.909 154.459 121.946C154.263 121.983 154.077 122.025 153.899 122.072C153.731 122.109 153.587 122.156 153.465 122.212V126.986ZM163.956 122.688C163.956 122.399 163.872 122.189 163.704 122.058C163.545 121.918 163.326 121.848 163.046 121.848C162.859 121.848 162.673 121.871 162.486 121.918C162.309 121.965 162.155 122.035 162.024 122.128V126.986C161.931 127.014 161.781 127.042 161.576 127.07C161.38 127.098 161.175 127.112 160.96 127.112C160.755 127.112 160.568 127.098 160.4 127.07C160.241 127.042 160.106 126.986 159.994 126.902C159.882 126.818 159.793 126.706 159.728 126.566C159.672 126.417 159.644 126.225 159.644 125.992V121.792C159.644 121.54 159.695 121.335 159.798 121.176C159.91 121.017 160.059 120.873 160.246 120.742C160.563 120.518 160.96 120.336 161.436 120.196C161.921 120.056 162.458 119.986 163.046 119.986C164.101 119.986 164.913 120.219 165.482 120.686C166.051 121.143 166.336 121.783 166.336 122.604V126.986C166.243 127.014 166.093 127.042 165.888 127.07C165.692 127.098 165.487 127.112 165.272 127.112C165.067 127.112 164.88 127.098 164.712 127.07C164.553 127.042 164.418 126.986 164.306 126.902C164.194 126.818 164.105 126.706 164.04 126.566C163.984 126.417 163.956 126.225 163.956 125.992V122.688ZM174.848 123.598C174.848 124.177 174.759 124.695 174.582 125.152C174.405 125.6 174.153 125.978 173.826 126.286C173.509 126.594 173.126 126.827 172.678 126.986C172.23 127.145 171.731 127.224 171.18 127.224C170.629 127.224 170.13 127.14 169.682 126.972C169.234 126.804 168.847 126.566 168.52 126.258C168.203 125.941 167.955 125.558 167.778 125.11C167.601 124.662 167.512 124.158 167.512 123.598C167.512 123.047 167.601 122.548 167.778 122.1C167.955 121.652 168.203 121.274 168.52 120.966C168.847 120.649 169.234 120.406 169.682 120.238C170.13 120.07 170.629 119.986 171.18 119.986C171.731 119.986 172.23 120.075 172.678 120.252C173.126 120.42 173.509 120.663 173.826 120.98C174.153 121.288 174.405 121.666 174.582 122.114C174.759 122.562 174.848 123.057 174.848 123.598ZM169.948 123.598C169.948 124.167 170.055 124.606 170.27 124.914C170.494 125.213 170.802 125.362 171.194 125.362C171.586 125.362 171.885 125.208 172.09 124.9C172.305 124.592 172.412 124.158 172.412 123.598C172.412 123.038 172.305 122.609 172.09 122.31C171.875 122.002 171.572 121.848 171.18 121.848C170.788 121.848 170.485 122.002 170.27 122.31C170.055 122.609 169.948 123.038 169.948 123.598ZM178.389 124.662C178.389 124.905 178.464 125.077 178.613 125.18C178.772 125.283 178.991 125.334 179.271 125.334C179.411 125.334 179.556 125.325 179.705 125.306C179.855 125.278 179.985 125.245 180.097 125.208C180.181 125.311 180.251 125.427 180.307 125.558C180.373 125.679 180.405 125.829 180.405 126.006C180.405 126.361 180.27 126.65 179.999 126.874C179.738 127.098 179.271 127.21 178.599 127.21C177.778 127.21 177.143 127.023 176.695 126.65C176.257 126.277 176.037 125.67 176.037 124.83V118.838C176.14 118.81 176.285 118.782 176.471 118.754C176.667 118.717 176.873 118.698 177.087 118.698C177.498 118.698 177.815 118.773 178.039 118.922C178.273 119.062 178.389 119.365 178.389 119.832V120.728H180.223C180.279 120.831 180.331 120.961 180.377 121.12C180.433 121.269 180.461 121.437 180.461 121.624C180.461 121.951 180.387 122.189 180.237 122.338C180.097 122.478 179.906 122.548 179.663 122.548H178.389V124.662ZM184.445 117.886C184.539 117.858 184.688 117.83 184.893 117.802C185.099 117.765 185.309 117.746 185.523 117.746C185.729 117.746 185.911 117.76 186.069 117.788C186.237 117.816 186.377 117.872 186.489 117.956C186.601 118.04 186.685 118.157 186.741 118.306C186.797 118.446 186.825 118.633 186.825 118.866V120.238C187.059 120.145 187.278 120.079 187.483 120.042C187.698 120.005 187.931 119.986 188.183 119.986C188.631 119.986 189.056 120.065 189.457 120.224C189.859 120.383 190.213 120.616 190.521 120.924C190.829 121.223 191.072 121.596 191.249 122.044C191.427 122.492 191.515 123.01 191.515 123.598C191.515 124.205 191.422 124.737 191.235 125.194C191.058 125.642 190.806 126.015 190.479 126.314C190.153 126.613 189.751 126.841 189.275 127C188.809 127.149 188.291 127.224 187.721 127.224C187.105 127.224 186.583 127.149 186.153 127C185.724 126.86 185.36 126.683 185.061 126.468C184.651 126.179 184.445 125.805 184.445 125.348V117.886ZM187.721 125.348C188.151 125.348 188.482 125.203 188.715 124.914C188.958 124.615 189.079 124.177 189.079 123.598C189.079 123.01 188.958 122.571 188.715 122.282C188.473 121.993 188.146 121.848 187.735 121.848C187.549 121.848 187.385 121.867 187.245 121.904C187.115 121.941 186.97 121.997 186.811 122.072V125.124C186.914 125.189 187.035 125.245 187.175 125.292C187.325 125.329 187.507 125.348 187.721 125.348ZM196.273 127.224C195.723 127.224 195.209 127.149 194.733 127C194.267 126.841 193.856 126.608 193.501 126.3C193.156 125.992 192.881 125.605 192.675 125.138C192.479 124.671 192.381 124.125 192.381 123.5C192.381 122.884 192.479 122.357 192.675 121.918C192.881 121.47 193.147 121.106 193.473 120.826C193.8 120.537 194.173 120.327 194.593 120.196C195.013 120.056 195.443 119.986 195.881 119.986C196.376 119.986 196.824 120.061 197.225 120.21C197.636 120.359 197.986 120.565 198.275 120.826C198.574 121.087 198.803 121.4 198.961 121.764C199.129 122.128 199.213 122.525 199.213 122.954C199.213 123.271 199.125 123.514 198.947 123.682C198.77 123.85 198.523 123.957 198.205 124.004L194.747 124.522C194.85 124.83 195.06 125.063 195.377 125.222C195.695 125.371 196.059 125.446 196.469 125.446C196.852 125.446 197.211 125.399 197.547 125.306C197.893 125.203 198.173 125.087 198.387 124.956C198.537 125.049 198.663 125.18 198.765 125.348C198.868 125.516 198.919 125.693 198.919 125.88C198.919 126.3 198.723 126.613 198.331 126.818C198.033 126.977 197.697 127.084 197.323 127.14C196.95 127.196 196.6 127.224 196.273 127.224ZM195.881 121.722C195.657 121.722 195.461 121.759 195.293 121.834C195.135 121.909 195.004 122.007 194.901 122.128C194.799 122.24 194.719 122.371 194.663 122.52C194.617 122.66 194.589 122.805 194.579 122.954L196.973 122.562C196.945 122.375 196.843 122.189 196.665 122.002C196.488 121.815 196.227 121.722 195.881 121.722ZM205.584 126.986C205.481 127.005 205.327 127.028 205.122 127.056C204.926 127.093 204.725 127.112 204.52 127.112C204.314 127.112 204.128 127.098 203.96 127.07C203.801 127.042 203.666 126.986 203.554 126.902C203.442 126.818 203.353 126.706 203.288 126.566C203.232 126.417 203.204 126.225 203.204 125.992V117.872C203.306 117.853 203.456 117.83 203.652 117.802C203.857 117.765 204.062 117.746 204.268 117.746C204.473 117.746 204.655 117.76 204.814 117.788C204.982 117.816 205.122 117.872 205.234 117.956C205.346 118.04 205.43 118.157 205.486 118.306C205.551 118.446 205.584 118.633 205.584 118.866V126.986ZM208.149 125.264C208.047 125.031 207.935 124.769 207.813 124.48C207.701 124.191 207.58 123.859 207.449 123.486C207.328 123.113 207.197 122.688 207.057 122.212C206.927 121.727 206.787 121.171 206.637 120.546C206.768 120.415 206.941 120.303 207.155 120.21C207.379 120.107 207.622 120.056 207.883 120.056C208.21 120.056 208.481 120.126 208.695 120.266C208.91 120.397 209.069 120.649 209.171 121.022L210.277 124.872H210.333C210.445 124.555 210.553 124.209 210.655 123.836C210.767 123.463 210.875 123.08 210.977 122.688C211.08 122.287 211.173 121.89 211.257 121.498C211.351 121.097 211.43 120.705 211.495 120.322C211.831 120.145 212.2 120.056 212.601 120.056C212.928 120.056 213.199 120.126 213.413 120.266C213.628 120.406 213.735 120.649 213.735 120.994C213.735 121.246 213.703 121.54 213.637 121.876C213.572 122.203 213.483 122.553 213.371 122.926C213.269 123.299 213.143 123.687 212.993 124.088C212.853 124.48 212.704 124.867 212.545 125.25C212.387 125.633 212.223 125.997 212.055 126.342C211.887 126.678 211.724 126.981 211.565 127.252C211.304 127.709 211.061 128.083 210.837 128.372C210.613 128.661 210.399 128.885 210.193 129.044C209.988 129.212 209.783 129.324 209.577 129.38C209.372 129.445 209.157 129.478 208.933 129.478C208.541 129.478 208.224 129.361 207.981 129.128C207.739 128.895 207.594 128.591 207.547 128.218C207.846 127.985 208.145 127.723 208.443 127.434C208.742 127.154 209.013 126.865 209.255 126.566C209.097 126.519 208.924 126.412 208.737 126.244C208.56 126.067 208.364 125.74 208.149 125.264ZM214.74 118.306C214.74 117.951 214.857 117.653 215.09 117.41C215.333 117.167 215.65 117.046 216.042 117.046C216.434 117.046 216.747 117.167 216.98 117.41C217.223 117.653 217.344 117.951 217.344 118.306C217.344 118.661 217.223 118.959 216.98 119.202C216.747 119.445 216.434 119.566 216.042 119.566C215.65 119.566 215.333 119.445 215.09 119.202C214.857 118.959 214.74 118.661 214.74 118.306ZM217.232 126.986C217.13 127.005 216.976 127.028 216.77 127.056C216.574 127.093 216.374 127.112 216.168 127.112C215.963 127.112 215.776 127.098 215.608 127.07C215.45 127.042 215.314 126.986 215.202 126.902C215.09 126.818 215.002 126.706 214.936 126.566C214.88 126.417 214.852 126.225 214.852 125.992V120.294C214.955 120.275 215.104 120.252 215.3 120.224C215.506 120.187 215.711 120.168 215.916 120.168C216.122 120.168 216.304 120.182 216.462 120.21C216.63 120.238 216.77 120.294 216.882 120.378C216.994 120.462 217.078 120.579 217.134 120.728C217.2 120.868 217.232 121.055 217.232 121.288V126.986ZM223.06 122.688C223.06 122.399 222.976 122.189 222.808 122.058C222.649 121.918 222.43 121.848 222.15 121.848C221.963 121.848 221.776 121.871 221.59 121.918C221.412 121.965 221.258 122.035 221.128 122.128V126.986C221.034 127.014 220.885 127.042 220.68 127.07C220.484 127.098 220.278 127.112 220.064 127.112C219.858 127.112 219.672 127.098 219.504 127.07C219.345 127.042 219.21 126.986 219.098 126.902C218.986 126.818 218.897 126.706 218.832 126.566C218.776 126.417 218.748 126.225 218.748 125.992V121.792C218.748 121.54 218.799 121.335 218.902 121.176C219.014 121.017 219.163 120.873 219.35 120.742C219.667 120.518 220.064 120.336 220.54 120.196C221.025 120.056 221.562 119.986 222.15 119.986C223.204 119.986 224.016 120.219 224.586 120.686C225.155 121.143 225.44 121.783 225.44 122.604V126.986C225.346 127.014 225.197 127.042 224.992 127.07C224.796 127.098 224.59 127.112 224.376 127.112C224.17 127.112 223.984 127.098 223.816 127.07C223.657 127.042 223.522 126.986 223.41 126.902C223.298 126.818 223.209 126.706 223.144 126.566C223.088 126.417 223.06 126.225 223.06 125.992V122.688ZM230.228 119.986C230.76 119.986 231.24 120.056 231.67 120.196C232.108 120.327 232.477 120.499 232.776 120.714C232.962 120.845 233.107 120.989 233.21 121.148C233.322 121.307 233.378 121.512 233.378 121.764V126.664C233.378 127.159 233.284 127.583 233.098 127.938C232.911 128.302 232.654 128.601 232.328 128.834C232.01 129.077 231.632 129.254 231.194 129.366C230.764 129.478 230.302 129.534 229.808 129.534C228.958 129.534 228.291 129.417 227.806 129.184C227.32 128.96 227.078 128.591 227.078 128.078C227.078 127.863 227.12 127.672 227.204 127.504C227.297 127.345 227.4 127.224 227.512 127.14C227.782 127.289 228.086 127.415 228.422 127.518C228.767 127.621 229.122 127.672 229.486 127.672C229.99 127.672 230.391 127.588 230.69 127.42C230.988 127.252 231.138 126.981 231.138 126.608V126.384C230.755 126.552 230.288 126.636 229.738 126.636C229.318 126.636 228.916 126.575 228.534 126.454C228.16 126.323 227.829 126.127 227.54 125.866C227.26 125.595 227.031 125.25 226.854 124.83C226.686 124.41 226.602 123.911 226.602 123.332C226.602 122.763 226.69 122.268 226.868 121.848C227.054 121.428 227.306 121.083 227.624 120.812C227.95 120.532 228.333 120.327 228.772 120.196C229.22 120.056 229.705 119.986 230.228 119.986ZM231.096 122.016C231.03 121.979 230.932 121.941 230.802 121.904C230.68 121.867 230.526 121.848 230.34 121.848C229.882 121.848 229.537 121.979 229.304 122.24C229.08 122.492 228.968 122.856 228.968 123.332C228.968 123.873 229.08 124.265 229.304 124.508C229.537 124.741 229.831 124.858 230.186 124.858C230.568 124.858 230.872 124.769 231.096 124.592V122.016ZM237.807 123.276C237.807 124.256 237.718 125.115 237.541 125.852C237.373 126.589 237.154 127.21 236.883 127.714C236.706 128.041 236.486 128.321 236.225 128.554C235.973 128.787 235.656 128.904 235.273 128.904C235.021 128.904 234.797 128.834 234.601 128.694C234.405 128.554 234.256 128.405 234.153 128.246C234.377 127.91 234.573 127.56 234.741 127.196C234.918 126.841 235.063 126.463 235.175 126.062C235.296 125.661 235.385 125.231 235.441 124.774C235.506 124.317 235.539 123.817 235.539 123.276C235.539 122.735 235.506 122.235 235.441 121.778C235.385 121.321 235.296 120.891 235.175 120.49C235.063 120.089 234.918 119.711 234.741 119.356C234.573 118.992 234.377 118.642 234.153 118.306C234.256 118.147 234.405 117.998 234.601 117.858C234.797 117.718 235.021 117.648 235.273 117.648C235.656 117.648 235.973 117.765 236.225 117.998C236.486 118.231 236.706 118.511 236.883 118.838C237.154 119.342 237.373 119.963 237.541 120.7C237.718 121.437 237.807 122.296 237.807 123.276Z" fill="#1257B4"/>
</svg>
