<svg width="86" height="29" viewBox="0 0 86 29" fill="none" xmlns="http://www.w3.org/2000/svg">
<rect width="86" height="29" rx="10" fill="white"/>
<path d="M23.9421 18.4C24.0888 18.4267 24.2688 18.4533 24.4821 18.48C24.6954 18.4933 24.8954 18.5 25.0821 18.5C25.5354 18.5 25.9488 18.4333 26.3221 18.3C26.7088 18.1667 27.0354 17.96 27.3021 17.68C27.5821 17.4 27.7954 17.04 27.9421 16.6C28.1021 16.1467 28.1821 15.6067 28.1821 14.98C28.1821 13.78 27.9021 12.88 27.3421 12.28C26.7821 11.6667 26.0354 11.36 25.1021 11.36C24.9154 11.36 24.7221 11.3667 24.5221 11.38C24.3354 11.3933 24.1421 11.4133 23.9421 11.44V18.4ZM25.0621 21.32C24.8354 21.32 24.5754 21.3133 24.2821 21.3C23.9888 21.2867 23.6821 21.26 23.3621 21.22C23.0554 21.18 22.7421 21.1267 22.4221 21.06C22.1154 21.0067 21.8288 20.9267 21.5621 20.82C20.8288 20.54 20.4621 20.0533 20.4621 19.36V10.02C20.4621 9.74 20.5354 9.52667 20.6821 9.38C20.8421 9.22 21.0554 9.09333 21.3221 9C21.8954 8.81333 22.5021 8.69333 23.1421 8.64C23.7821 8.57333 24.3554 8.54 24.8621 8.54C25.9021 8.54 26.8421 8.66667 27.6821 8.92C28.5354 9.17333 29.2621 9.56667 29.8621 10.1C30.4754 10.62 30.9488 11.28 31.2821 12.08C31.6154 12.88 31.7821 13.8267 31.7821 14.92C31.7821 15.9867 31.6221 16.92 31.3021 17.72C30.9821 18.5067 30.5221 19.1733 29.9221 19.72C29.3354 20.2533 28.6288 20.6533 27.8021 20.92C26.9754 21.1867 26.0621 21.32 25.0621 21.32ZM43.5824 16.14C43.5824 16.9667 43.4558 17.7067 43.2024 18.36C42.9491 19 42.5891 19.54 42.1224 19.98C41.6691 20.42 41.1224 20.7533 40.4824 20.98C39.8424 21.2067 39.1291 21.32 38.3424 21.32C37.5558 21.32 36.8424 21.2 36.2024 20.96C35.5624 20.72 35.0091 20.38 34.5424 19.94C34.0891 19.4867 33.7358 18.94 33.4824 18.3C33.2291 17.66 33.1024 16.94 33.1024 16.14C33.1024 15.3533 33.2291 14.64 33.4824 14C33.7358 13.36 34.0891 12.82 34.5424 12.38C35.0091 11.9267 35.5624 11.58 36.2024 11.34C36.8424 11.1 37.5558 10.98 38.3424 10.98C39.1291 10.98 39.8424 11.1067 40.4824 11.36C41.1224 11.6 41.6691 11.9467 42.1224 12.4C42.5891 12.84 42.9491 13.38 43.2024 14.02C43.4558 14.66 43.5824 15.3667 43.5824 16.14ZM36.5824 16.14C36.5824 16.9533 36.7358 17.58 37.0424 18.02C37.3624 18.4467 37.8024 18.66 38.3624 18.66C38.9224 18.66 39.3491 18.44 39.6424 18C39.9491 17.56 40.1024 16.94 40.1024 16.14C40.1024 15.34 39.9491 14.7267 39.6424 14.3C39.3358 13.86 38.9024 13.64 38.3424 13.64C37.7824 13.64 37.3491 13.86 37.0424 14.3C36.7358 14.7267 36.5824 15.34 36.5824 16.14ZM51.4012 14.84C51.4012 14.4267 51.2812 14.1267 51.0412 13.94C50.8145 13.74 50.5012 13.64 50.1012 13.64C49.8345 13.64 49.5678 13.6733 49.3012 13.74C49.0478 13.8067 48.8278 13.9067 48.6412 14.04V20.98C48.5078 21.02 48.2945 21.06 48.0012 21.1C47.7212 21.14 47.4278 21.16 47.1212 21.16C46.8278 21.16 46.5612 21.14 46.3212 21.1C46.0945 21.06 45.9012 20.98 45.7412 20.86C45.5812 20.74 45.4545 20.58 45.3612 20.38C45.2812 20.1667 45.2412 19.8933 45.2412 19.56V13.56C45.2412 13.2 45.3145 12.9067 45.4612 12.68C45.6212 12.4533 45.8345 12.2467 46.1012 12.06C46.5545 11.74 47.1212 11.48 47.8012 11.28C48.4945 11.08 49.2612 10.98 50.1012 10.98C51.6078 10.98 52.7678 11.3133 53.5812 11.98C54.3945 12.6333 54.8012 13.5467 54.8012 14.72V20.98C54.6678 21.02 54.4545 21.06 54.1612 21.1C53.8812 21.14 53.5878 21.16 53.2812 21.16C52.9878 21.16 52.7212 21.14 52.4812 21.1C52.2545 21.06 52.0612 20.98 51.9012 20.86C51.7412 20.74 51.6145 20.58 51.5212 20.38C51.4412 20.1667 51.4012 19.8933 51.4012 19.56V14.84ZM62.0413 21.32C61.2547 21.32 60.5213 21.2133 59.8413 21C59.1747 20.7733 58.588 20.44 58.0813 20C57.588 19.56 57.1947 19.0067 56.9013 18.34C56.6213 17.6733 56.4813 16.8933 56.4813 16C56.4813 15.12 56.6213 14.3667 56.9013 13.74C57.1947 13.1 57.5747 12.58 58.0413 12.18C58.508 11.7667 59.0413 11.4667 59.6413 11.28C60.2413 11.08 60.8547 10.98 61.4813 10.98C62.188 10.98 62.828 11.0867 63.4013 11.3C63.988 11.5133 64.488 11.8067 64.9013 12.18C65.328 12.5533 65.6547 13 65.8813 13.52C66.1213 14.04 66.2413 14.6067 66.2413 15.22C66.2413 15.6733 66.1147 16.02 65.8613 16.26C65.608 16.5 65.2547 16.6533 64.8013 16.72L59.8613 17.46C60.008 17.9 60.308 18.2333 60.7613 18.46C61.2147 18.6733 61.7347 18.78 62.3213 18.78C62.868 18.78 63.3813 18.7133 63.8613 18.58C64.3547 18.4333 64.7547 18.2667 65.0613 18.08C65.2747 18.2133 65.4547 18.4 65.6013 18.64C65.748 18.88 65.8213 19.1333 65.8213 19.4C65.8213 20 65.5413 20.4467 64.9813 20.74C64.5547 20.9667 64.0747 21.12 63.5413 21.2C63.008 21.28 62.508 21.32 62.0413 21.32ZM61.4813 13.46C61.1613 13.46 60.8813 13.5133 60.6413 13.62C60.4147 13.7267 60.228 13.8667 60.0813 14.04C59.9347 14.2 59.8213 14.3867 59.7413 14.6C59.6747 14.8 59.6347 15.0067 59.6213 15.22L63.0413 14.66C63.0013 14.3933 62.8547 14.1267 62.6013 13.86C62.348 13.5933 61.9747 13.46 61.4813 13.46Z" fill="#4294FF"/>
</svg>
