<svg width="100" height="18" viewBox="0 0 100 18" fill="none" xmlns="http://www.w3.org/2000/svg">
<mask id="path-1-outside-1_34_346" maskUnits="userSpaceOnUse" x="0" y="0" width="100" height="18" fill="black">
<rect fill="white" width="100" height="18"/>
<path d="M7.10056 4.984C7.70856 4.984 8.2579 5.064 8.74856 5.224C9.2499 5.37333 9.67123 5.57067 10.0126 5.816C10.2259 5.96533 10.3912 6.13067 10.5086 6.312C10.6366 6.49333 10.7006 6.728 10.7006 7.016V12.616C10.7006 13.1813 10.5939 13.6667 10.3806 14.072C10.1672 14.488 9.8739 14.8293 9.50056 15.096C9.1379 15.3733 8.7059 15.576 8.20456 15.704C7.7139 15.832 7.1859 15.896 6.62056 15.896C5.6499 15.896 4.88723 15.7627 4.33256 15.496C3.7779 15.24 3.50056 14.8187 3.50056 14.232C3.50056 13.9867 3.54856 13.768 3.64456 13.576C3.75123 13.3947 3.86856 13.256 3.99656 13.16C4.3059 13.3307 4.65256 13.4747 5.03656 13.592C5.43123 13.7093 5.83656 13.768 6.25256 13.768C6.82856 13.768 7.28723 13.672 7.62856 13.48C7.9699 13.288 8.14056 12.9787 8.14056 12.552V12.296C7.70323 12.488 7.1699 12.584 6.54056 12.584C6.06056 12.584 5.6019 12.5147 5.16456 12.376C4.7379 12.2267 4.35923 12.0027 4.02856 11.704C3.70856 11.3947 3.44723 11 3.24456 10.52C3.05256 10.04 2.95656 9.46933 2.95656 8.808C2.95656 8.15733 3.0579 7.592 3.26056 7.112C3.4739 6.632 3.7619 6.23733 4.12456 5.928C4.4979 5.608 4.93523 5.37333 5.43656 5.224C5.94856 5.064 6.50323 4.984 7.10056 4.984ZM8.09256 7.304C8.0179 7.26133 7.9059 7.21867 7.75656 7.176C7.6179 7.13333 7.4419 7.112 7.22856 7.112C6.7059 7.112 6.31123 7.26133 6.04456 7.56C5.78856 7.848 5.66056 8.264 5.66056 8.808C5.66056 9.42667 5.78856 9.87467 6.04456 10.152C6.31123 10.4187 6.64723 10.552 7.05256 10.552C7.4899 10.552 7.83656 10.4507 8.09256 10.248V7.304ZM15.1067 12.984C15 13.016 14.8294 13.048 14.5947 13.08C14.3707 13.112 14.136 13.128 13.8907 13.128C13.656 13.128 13.4427 13.112 13.2507 13.08C13.0694 13.048 12.9147 12.984 12.7867 12.888C12.6587 12.792 12.5574 12.664 12.4827 12.504C12.4187 12.3333 12.3867 12.1147 12.3867 11.848V7.048C12.3867 6.80267 12.4294 6.59467 12.5147 6.424C12.6107 6.24267 12.744 6.08267 12.9147 5.944C13.0854 5.80533 13.2934 5.68267 13.5387 5.576C13.7947 5.45867 14.0667 5.35733 14.3547 5.272C14.6427 5.18667 14.9414 5.12267 15.2507 5.08C15.56 5.02667 15.8694 5 16.1787 5C16.6907 5 17.096 5.10133 17.3947 5.304C17.6934 5.496 17.8427 5.816 17.8427 6.264C17.8427 6.41333 17.8214 6.56267 17.7787 6.712C17.736 6.85067 17.6827 6.97867 17.6187 7.096C17.3947 7.096 17.1654 7.10667 16.9307 7.128C16.696 7.14933 16.4667 7.18133 16.2427 7.224C16.0187 7.26667 15.8054 7.31467 15.6027 7.368C15.4107 7.41067 15.2454 7.464 15.1067 7.528V12.984ZM22.0584 11.272C22.2398 11.272 22.4371 11.256 22.6504 11.224C22.8744 11.1813 23.0398 11.128 23.1464 11.064V9.784L21.9944 9.88C21.6958 9.90133 21.4504 9.96533 21.2584 10.072C21.0664 10.1787 20.9704 10.3387 20.9704 10.552C20.9704 10.7653 21.0504 10.9413 21.2104 11.08C21.3811 11.208 21.6638 11.272 22.0584 11.272ZM21.9304 4.984C22.5064 4.984 23.0291 5.04267 23.4984 5.16C23.9784 5.27733 24.3838 5.45867 24.7144 5.704C25.0558 5.93867 25.3171 6.24267 25.4984 6.616C25.6798 6.97867 25.7704 7.41067 25.7704 7.912V11.496C25.7704 11.7733 25.6904 12.0027 25.5304 12.184C25.3811 12.3547 25.1998 12.504 24.9864 12.632C24.2931 13.048 23.3171 13.256 22.0584 13.256C21.4931 13.256 20.9811 13.2027 20.5224 13.096C20.0744 12.9893 19.6851 12.8293 19.3544 12.616C19.0344 12.4027 18.7838 12.1307 18.6024 11.8C18.4318 11.4693 18.3464 11.0853 18.3464 10.648C18.3464 9.912 18.5651 9.34667 19.0024 8.952C19.4398 8.55733 20.1171 8.312 21.0344 8.216L23.1304 7.992V7.88C23.1304 7.57067 22.9918 7.352 22.7144 7.224C22.4478 7.08533 22.0584 7.016 21.5464 7.016C21.1411 7.016 20.7464 7.05867 20.3624 7.144C19.9784 7.22933 19.6318 7.336 19.3224 7.464C19.1838 7.368 19.0664 7.224 18.9704 7.032C18.8744 6.82933 18.8264 6.62133 18.8264 6.408C18.8264 6.13067 18.8904 5.912 19.0184 5.752C19.1571 5.58133 19.3651 5.43733 19.6424 5.32C19.9518 5.20267 20.3144 5.11733 20.7304 5.064C21.1571 5.01067 21.5571 4.984 21.9304 4.984ZM27.4656 2.584C27.5722 2.552 27.7429 2.52 27.9776 2.488C28.2122 2.44533 28.4522 2.424 28.6976 2.424C28.9322 2.424 29.1402 2.44 29.3216 2.472C29.5136 2.504 29.6736 2.568 29.8016 2.664C29.9296 2.76 30.0256 2.89333 30.0896 3.064C30.1536 3.224 30.1856 3.43733 30.1856 3.704V5.272C30.4522 5.16533 30.7029 5.09067 30.9376 5.048C31.1829 5.00533 31.4496 4.984 31.7376 4.984C32.2496 4.984 32.7349 5.07467 33.1936 5.256C33.6522 5.43733 34.0576 5.704 34.4096 6.056C34.7616 6.39733 35.0389 6.824 35.2416 7.336C35.4442 7.848 35.5456 8.44 35.5456 9.112C35.5456 9.80533 35.4389 10.4133 35.2256 10.936C35.0229 11.448 34.7349 11.8747 34.3616 12.216C33.9882 12.5573 33.5296 12.8187 32.9856 13C32.4522 13.1707 31.8602 13.256 31.2096 13.256C30.5056 13.256 29.9082 13.1707 29.4176 13C28.9269 12.84 28.5109 12.6373 28.1696 12.392C27.7002 12.0613 27.4656 11.6347 27.4656 11.112V2.584ZM31.2096 11.112C31.7002 11.112 32.0789 10.9467 32.3456 10.616C32.6229 10.2747 32.7616 9.77333 32.7616 9.112C32.7616 8.44 32.6229 7.93867 32.3456 7.608C32.0682 7.27733 31.6949 7.112 31.2256 7.112C31.0122 7.112 30.8256 7.13333 30.6656 7.176C30.5162 7.21867 30.3509 7.28267 30.1696 7.368V10.856C30.2869 10.9307 30.4256 10.9947 30.5856 11.048C30.7562 11.0907 30.9642 11.112 31.2096 11.112ZM43.4022 11.272C43.5835 11.272 43.7809 11.256 43.9942 11.224C44.2182 11.1813 44.3835 11.128 44.4902 11.064V9.784L43.3382 9.88C43.0395 9.90133 42.7942 9.96533 42.6022 10.072C42.4102 10.1787 42.3142 10.3387 42.3142 10.552C42.3142 10.7653 42.3942 10.9413 42.5542 11.08C42.7249 11.208 43.0075 11.272 43.4022 11.272ZM43.2742 4.984C43.8502 4.984 44.3729 5.04267 44.8422 5.16C45.3222 5.27733 45.7275 5.45867 46.0582 5.704C46.3995 5.93867 46.6609 6.24267 46.8422 6.616C47.0235 6.97867 47.1142 7.41067 47.1142 7.912V11.496C47.1142 11.7733 47.0342 12.0027 46.8742 12.184C46.7249 12.3547 46.5435 12.504 46.3302 12.632C45.6369 13.048 44.6609 13.256 43.4022 13.256C42.8369 13.256 42.3249 13.2027 41.8662 13.096C41.4182 12.9893 41.0289 12.8293 40.6982 12.616C40.3782 12.4027 40.1275 12.1307 39.9462 11.8C39.7755 11.4693 39.6902 11.0853 39.6902 10.648C39.6902 9.912 39.9089 9.34667 40.3462 8.952C40.7835 8.55733 41.4609 8.312 42.3782 8.216L44.4742 7.992V7.88C44.4742 7.57067 44.3355 7.352 44.0582 7.224C43.7915 7.08533 43.4022 7.016 42.8902 7.016C42.4849 7.016 42.0902 7.05867 41.7062 7.144C41.3222 7.22933 40.9755 7.336 40.6662 7.464C40.5275 7.368 40.4102 7.224 40.3142 7.032C40.2182 6.82933 40.1702 6.62133 40.1702 6.408C40.1702 6.13067 40.2342 5.912 40.3622 5.752C40.5009 5.58133 40.7089 5.43733 40.9862 5.32C41.2955 5.20267 41.6582 5.11733 42.0742 5.064C42.5009 5.01067 42.9009 4.984 43.2742 4.984ZM58.5404 10.68C58.5404 11.4907 58.2364 12.1253 57.6284 12.584C57.0204 13.0427 56.1244 13.272 54.9404 13.272C54.4924 13.272 54.0764 13.24 53.6924 13.176C53.3084 13.112 52.9778 13.016 52.7004 12.888C52.4338 12.7493 52.2204 12.5787 52.0604 12.376C51.9111 12.1733 51.8364 11.9333 51.8364 11.656C51.8364 11.4 51.8898 11.1867 51.9964 11.016C52.1031 10.8347 52.2311 10.6853 52.3804 10.568C52.6898 10.7387 53.0418 10.8933 53.4364 11.032C53.8418 11.16 54.3058 11.224 54.8284 11.224C55.1591 11.224 55.4098 11.176 55.5804 11.08C55.7618 10.984 55.8524 10.856 55.8524 10.696C55.8524 10.5467 55.7884 10.4293 55.6604 10.344C55.5324 10.2587 55.3191 10.1893 55.0204 10.136L54.5404 10.04C53.6124 9.85867 52.9191 9.576 52.4604 9.192C52.0124 8.79733 51.7884 8.23733 51.7884 7.512C51.7884 7.11733 51.8738 6.76 52.0444 6.44C52.2151 6.12 52.4551 5.85333 52.7644 5.64C53.0738 5.42667 53.4418 5.26133 53.8684 5.144C54.3058 5.02667 54.7858 4.968 55.3084 4.968C55.7031 4.968 56.0711 5 56.4124 5.064C56.7644 5.11733 57.0684 5.20267 57.3244 5.32C57.5804 5.43733 57.7831 5.592 57.9324 5.784C58.0818 5.96533 58.1564 6.184 58.1564 6.44C58.1564 6.68533 58.1084 6.89867 58.0124 7.08C57.9271 7.25067 57.8151 7.39467 57.6764 7.512C57.5911 7.45867 57.4631 7.40533 57.2924 7.352C57.1218 7.288 56.9351 7.23467 56.7324 7.192C56.5298 7.13867 56.3218 7.096 56.1084 7.064C55.9058 7.032 55.7191 7.016 55.5484 7.016C55.1964 7.016 54.9244 7.05867 54.7324 7.144C54.5404 7.21867 54.4444 7.34133 54.4444 7.512C54.4444 7.62933 54.4978 7.72533 54.6044 7.8C54.7111 7.87467 54.9138 7.944 55.2124 8.008L55.7084 8.12C56.7324 8.35467 57.4578 8.68 57.8844 9.096C58.3218 9.50133 58.5404 10.0293 58.5404 10.68ZM64.7834 8.072C64.7834 7.74133 64.6874 7.50133 64.4954 7.352C64.3141 7.192 64.0634 7.112 63.7434 7.112C63.5301 7.112 63.3168 7.13867 63.1034 7.192C62.9008 7.24533 62.7248 7.32533 62.5754 7.432V12.984C62.4688 13.016 62.2981 13.048 62.0634 13.08C61.8394 13.112 61.6048 13.128 61.3594 13.128C61.1248 13.128 60.9114 13.112 60.7194 13.08C60.5381 13.048 60.3834 12.984 60.2554 12.888C60.1274 12.792 60.0261 12.664 59.9514 12.504C59.8874 12.3333 59.8554 12.1147 59.8554 11.848V7.048C59.8554 6.76 59.9141 6.52533 60.0314 6.344C60.1594 6.16267 60.3301 5.99733 60.5434 5.848C60.9061 5.592 61.3594 5.384 61.9034 5.224C62.4581 5.064 63.0714 4.984 63.7434 4.984C64.9488 4.984 65.8768 5.25067 66.5274 5.784C67.1781 6.30667 67.5034 7.03733 67.5034 7.976V12.984C67.3968 13.016 67.2261 13.048 66.9914 13.08C66.7674 13.112 66.5328 13.128 66.2874 13.128C66.0528 13.128 65.8394 13.112 65.6474 13.08C65.4661 13.048 65.3114 12.984 65.1834 12.888C65.0554 12.792 64.9541 12.664 64.8794 12.504C64.8154 12.3333 64.7834 12.1147 64.7834 11.848V8.072ZM72.5116 11.272C72.6929 11.272 72.8902 11.256 73.1036 11.224C73.3276 11.1813 73.4929 11.128 73.5996 11.064V9.784L72.4476 9.88C72.1489 9.90133 71.9036 9.96533 71.7116 10.072C71.5196 10.1787 71.4236 10.3387 71.4236 10.552C71.4236 10.7653 71.5036 10.9413 71.6636 11.08C71.8342 11.208 72.1169 11.272 72.5116 11.272ZM72.3836 4.984C72.9596 4.984 73.4822 5.04267 73.9516 5.16C74.4316 5.27733 74.8369 5.45867 75.1676 5.704C75.5089 5.93867 75.7702 6.24267 75.9516 6.616C76.1329 6.97867 76.2236 7.41067 76.2236 7.912V11.496C76.2236 11.7733 76.1436 12.0027 75.9836 12.184C75.8342 12.3547 75.6529 12.504 75.4396 12.632C74.7462 13.048 73.7702 13.256 72.5116 13.256C71.9462 13.256 71.4342 13.2027 70.9756 13.096C70.5276 12.9893 70.1382 12.8293 69.8076 12.616C69.4876 12.4027 69.2369 12.1307 69.0556 11.8C68.8849 11.4693 68.7996 11.0853 68.7996 10.648C68.7996 9.912 69.0182 9.34667 69.4556 8.952C69.8929 8.55733 70.5702 8.312 71.4876 8.216L73.5836 7.992V7.88C73.5836 7.57067 73.4449 7.352 73.1676 7.224C72.9009 7.08533 72.5116 7.016 71.9996 7.016C71.5942 7.016 71.1996 7.05867 70.8156 7.144C70.4316 7.22933 70.0849 7.336 69.7756 7.464C69.6369 7.368 69.5196 7.224 69.4236 7.032C69.3276 6.82933 69.2796 6.62133 69.2796 6.408C69.2796 6.13067 69.3436 5.912 69.4716 5.752C69.6102 5.58133 69.8182 5.43733 70.0956 5.32C70.4049 5.20267 70.7676 5.11733 71.1836 5.064C71.6102 5.01067 72.0102 4.984 72.3836 4.984ZM82.2707 7.128C82.004 7.128 81.748 7.17067 81.5027 7.256C81.268 7.34133 81.06 7.46933 80.8787 7.64C80.708 7.8 80.5694 8.00267 80.4627 8.248C80.356 8.49333 80.3027 8.78133 80.3027 9.112C80.3027 9.77333 80.4894 10.2693 80.8627 10.6C81.2467 10.9307 81.7107 11.096 82.2547 11.096C82.5747 11.096 82.852 11.0587 83.0867 10.984C83.3214 10.9093 83.5294 10.8293 83.7107 10.744C83.924 10.8933 84.084 11.0587 84.1907 11.24C84.2974 11.4107 84.3507 11.6187 84.3507 11.864C84.3507 12.3013 84.1427 12.6427 83.7267 12.888C83.3107 13.1227 82.7347 13.24 81.9987 13.24C81.3267 13.24 80.7187 13.144 80.1747 12.952C79.6307 12.7493 79.1614 12.472 78.7667 12.12C78.3827 11.7573 78.084 11.3253 77.8707 10.824C77.6574 10.3227 77.5507 9.768 77.5507 9.16C77.5507 8.456 77.6627 7.84267 77.8867 7.32C78.1214 6.78667 78.436 6.34933 78.8307 6.008C79.2254 5.66667 79.6787 5.41067 80.1907 5.24C80.7134 5.06933 81.2627 4.984 81.8387 4.984C82.6067 4.984 83.1987 5.12267 83.6147 5.4C84.0307 5.67733 84.2387 6.03467 84.2387 6.472C84.2387 6.67467 84.1907 6.86667 84.0947 7.048C83.9987 7.21867 83.8867 7.368 83.7587 7.496C83.5774 7.41067 83.3587 7.33067 83.1027 7.256C82.8467 7.17067 82.5694 7.128 82.2707 7.128ZM93.3148 11.592C93.2615 12.0933 93.1121 12.4773 92.8668 12.744C92.6321 13.0107 92.2855 13.144 91.8268 13.144C91.4855 13.144 91.1815 13.064 90.9148 12.904C90.6481 12.7333 90.3601 12.4507 90.0508 12.056L88.4668 10.072V12.984C88.3495 13.0053 88.1735 13.032 87.9388 13.064C87.7148 13.1067 87.4855 13.128 87.2508 13.128C87.0161 13.128 86.8028 13.112 86.6108 13.08C86.4295 13.048 86.2748 12.984 86.1468 12.888C86.0188 12.792 85.9175 12.664 85.8428 12.504C85.7788 12.3333 85.7468 12.1147 85.7468 11.848V2.584C85.8641 2.552 86.0348 2.52 86.2588 2.488C86.4935 2.44533 86.7281 2.424 86.9628 2.424C87.1975 2.424 87.4055 2.44 87.5868 2.472C87.7788 2.504 87.9388 2.568 88.0668 2.664C88.1948 2.76 88.2908 2.89333 88.3548 3.064C88.4295 3.224 88.4668 3.43733 88.4668 3.704V7.928L91.2188 5.112C91.7735 5.112 92.2161 5.23467 92.5468 5.48C92.8881 5.72533 93.0588 6.03467 93.0588 6.408C93.0588 6.568 93.0321 6.71733 92.9788 6.856C92.9255 6.984 92.8401 7.11733 92.7228 7.256C92.6161 7.39467 92.4721 7.544 92.2908 7.704C92.1201 7.85333 91.9175 8.02933 91.6828 8.232L90.7548 9.032L93.3148 11.592ZM97.5498 3.72C97.5498 3.96533 97.5445 4.32267 97.5338 4.792C97.5231 5.25067 97.5018 5.752 97.4698 6.296C97.4378 6.82933 97.3951 7.368 97.3418 7.912C97.2885 8.44533 97.2245 8.90933 97.1498 9.304C97.1071 9.336 97.0431 9.368 96.9578 9.4C96.8725 9.432 96.7818 9.45867 96.6858 9.48C96.5898 9.50133 96.4938 9.51733 96.3978 9.528C96.3018 9.53867 96.2165 9.544 96.1418 9.544C95.8325 9.544 95.5711 9.496 95.3578 9.4C95.1551 9.304 95.0271 9.11733 94.9738 8.84C94.9205 8.59467 94.8725 8.22133 94.8298 7.72C94.7978 7.21867 94.7658 6.67467 94.7338 6.088C94.7018 5.50133 94.6751 4.92 94.6538 4.344C94.6431 3.768 94.6378 3.27733 94.6378 2.872C94.8511 2.75467 95.0911 2.664 95.3578 2.6C95.6351 2.52533 95.9071 2.488 96.1738 2.488C96.6111 2.488 96.9471 2.58933 97.1818 2.792C97.4271 2.99467 97.5498 3.304 97.5498 3.72ZM94.6058 11.784C94.6058 11.3467 94.7391 10.9893 95.0058 10.712C95.2831 10.424 95.6618 10.28 96.1418 10.28C96.6218 10.28 96.9951 10.424 97.2618 10.712C97.5391 10.9893 97.6778 11.3467 97.6778 11.784C97.6778 12.2213 97.5391 12.584 97.2618 12.872C96.9951 13.1493 96.6218 13.288 96.1418 13.288C95.6618 13.288 95.2831 13.1493 95.0058 12.872C94.7391 12.584 94.6058 12.2213 94.6058 11.784Z"/>
</mask>
<path d="M7.10056 4.984C7.70856 4.984 8.2579 5.064 8.74856 5.224C9.2499 5.37333 9.67123 5.57067 10.0126 5.816C10.2259 5.96533 10.3912 6.13067 10.5086 6.312C10.6366 6.49333 10.7006 6.728 10.7006 7.016V12.616C10.7006 13.1813 10.5939 13.6667 10.3806 14.072C10.1672 14.488 9.8739 14.8293 9.50056 15.096C9.1379 15.3733 8.7059 15.576 8.20456 15.704C7.7139 15.832 7.1859 15.896 6.62056 15.896C5.6499 15.896 4.88723 15.7627 4.33256 15.496C3.7779 15.24 3.50056 14.8187 3.50056 14.232C3.50056 13.9867 3.54856 13.768 3.64456 13.576C3.75123 13.3947 3.86856 13.256 3.99656 13.16C4.3059 13.3307 4.65256 13.4747 5.03656 13.592C5.43123 13.7093 5.83656 13.768 6.25256 13.768C6.82856 13.768 7.28723 13.672 7.62856 13.48C7.9699 13.288 8.14056 12.9787 8.14056 12.552V12.296C7.70323 12.488 7.1699 12.584 6.54056 12.584C6.06056 12.584 5.6019 12.5147 5.16456 12.376C4.7379 12.2267 4.35923 12.0027 4.02856 11.704C3.70856 11.3947 3.44723 11 3.24456 10.52C3.05256 10.04 2.95656 9.46933 2.95656 8.808C2.95656 8.15733 3.0579 7.592 3.26056 7.112C3.4739 6.632 3.7619 6.23733 4.12456 5.928C4.4979 5.608 4.93523 5.37333 5.43656 5.224C5.94856 5.064 6.50323 4.984 7.10056 4.984ZM8.09256 7.304C8.0179 7.26133 7.9059 7.21867 7.75656 7.176C7.6179 7.13333 7.4419 7.112 7.22856 7.112C6.7059 7.112 6.31123 7.26133 6.04456 7.56C5.78856 7.848 5.66056 8.264 5.66056 8.808C5.66056 9.42667 5.78856 9.87467 6.04456 10.152C6.31123 10.4187 6.64723 10.552 7.05256 10.552C7.4899 10.552 7.83656 10.4507 8.09256 10.248V7.304ZM15.1067 12.984C15 13.016 14.8294 13.048 14.5947 13.08C14.3707 13.112 14.136 13.128 13.8907 13.128C13.656 13.128 13.4427 13.112 13.2507 13.08C13.0694 13.048 12.9147 12.984 12.7867 12.888C12.6587 12.792 12.5574 12.664 12.4827 12.504C12.4187 12.3333 12.3867 12.1147 12.3867 11.848V7.048C12.3867 6.80267 12.4294 6.59467 12.5147 6.424C12.6107 6.24267 12.744 6.08267 12.9147 5.944C13.0854 5.80533 13.2934 5.68267 13.5387 5.576C13.7947 5.45867 14.0667 5.35733 14.3547 5.272C14.6427 5.18667 14.9414 5.12267 15.2507 5.08C15.56 5.02667 15.8694 5 16.1787 5C16.6907 5 17.096 5.10133 17.3947 5.304C17.6934 5.496 17.8427 5.816 17.8427 6.264C17.8427 6.41333 17.8214 6.56267 17.7787 6.712C17.736 6.85067 17.6827 6.97867 17.6187 7.096C17.3947 7.096 17.1654 7.10667 16.9307 7.128C16.696 7.14933 16.4667 7.18133 16.2427 7.224C16.0187 7.26667 15.8054 7.31467 15.6027 7.368C15.4107 7.41067 15.2454 7.464 15.1067 7.528V12.984ZM22.0584 11.272C22.2398 11.272 22.4371 11.256 22.6504 11.224C22.8744 11.1813 23.0398 11.128 23.1464 11.064V9.784L21.9944 9.88C21.6958 9.90133 21.4504 9.96533 21.2584 10.072C21.0664 10.1787 20.9704 10.3387 20.9704 10.552C20.9704 10.7653 21.0504 10.9413 21.2104 11.08C21.3811 11.208 21.6638 11.272 22.0584 11.272ZM21.9304 4.984C22.5064 4.984 23.0291 5.04267 23.4984 5.16C23.9784 5.27733 24.3838 5.45867 24.7144 5.704C25.0558 5.93867 25.3171 6.24267 25.4984 6.616C25.6798 6.97867 25.7704 7.41067 25.7704 7.912V11.496C25.7704 11.7733 25.6904 12.0027 25.5304 12.184C25.3811 12.3547 25.1998 12.504 24.9864 12.632C24.2931 13.048 23.3171 13.256 22.0584 13.256C21.4931 13.256 20.9811 13.2027 20.5224 13.096C20.0744 12.9893 19.6851 12.8293 19.3544 12.616C19.0344 12.4027 18.7838 12.1307 18.6024 11.8C18.4318 11.4693 18.3464 11.0853 18.3464 10.648C18.3464 9.912 18.5651 9.34667 19.0024 8.952C19.4398 8.55733 20.1171 8.312 21.0344 8.216L23.1304 7.992V7.88C23.1304 7.57067 22.9918 7.352 22.7144 7.224C22.4478 7.08533 22.0584 7.016 21.5464 7.016C21.1411 7.016 20.7464 7.05867 20.3624 7.144C19.9784 7.22933 19.6318 7.336 19.3224 7.464C19.1838 7.368 19.0664 7.224 18.9704 7.032C18.8744 6.82933 18.8264 6.62133 18.8264 6.408C18.8264 6.13067 18.8904 5.912 19.0184 5.752C19.1571 5.58133 19.3651 5.43733 19.6424 5.32C19.9518 5.20267 20.3144 5.11733 20.7304 5.064C21.1571 5.01067 21.5571 4.984 21.9304 4.984ZM27.4656 2.584C27.5722 2.552 27.7429 2.52 27.9776 2.488C28.2122 2.44533 28.4522 2.424 28.6976 2.424C28.9322 2.424 29.1402 2.44 29.3216 2.472C29.5136 2.504 29.6736 2.568 29.8016 2.664C29.9296 2.76 30.0256 2.89333 30.0896 3.064C30.1536 3.224 30.1856 3.43733 30.1856 3.704V5.272C30.4522 5.16533 30.7029 5.09067 30.9376 5.048C31.1829 5.00533 31.4496 4.984 31.7376 4.984C32.2496 4.984 32.7349 5.07467 33.1936 5.256C33.6522 5.43733 34.0576 5.704 34.4096 6.056C34.7616 6.39733 35.0389 6.824 35.2416 7.336C35.4442 7.848 35.5456 8.44 35.5456 9.112C35.5456 9.80533 35.4389 10.4133 35.2256 10.936C35.0229 11.448 34.7349 11.8747 34.3616 12.216C33.9882 12.5573 33.5296 12.8187 32.9856 13C32.4522 13.1707 31.8602 13.256 31.2096 13.256C30.5056 13.256 29.9082 13.1707 29.4176 13C28.9269 12.84 28.5109 12.6373 28.1696 12.392C27.7002 12.0613 27.4656 11.6347 27.4656 11.112V2.584ZM31.2096 11.112C31.7002 11.112 32.0789 10.9467 32.3456 10.616C32.6229 10.2747 32.7616 9.77333 32.7616 9.112C32.7616 8.44 32.6229 7.93867 32.3456 7.608C32.0682 7.27733 31.6949 7.112 31.2256 7.112C31.0122 7.112 30.8256 7.13333 30.6656 7.176C30.5162 7.21867 30.3509 7.28267 30.1696 7.368V10.856C30.2869 10.9307 30.4256 10.9947 30.5856 11.048C30.7562 11.0907 30.9642 11.112 31.2096 11.112ZM43.4022 11.272C43.5835 11.272 43.7809 11.256 43.9942 11.224C44.2182 11.1813 44.3835 11.128 44.4902 11.064V9.784L43.3382 9.88C43.0395 9.90133 42.7942 9.96533 42.6022 10.072C42.4102 10.1787 42.3142 10.3387 42.3142 10.552C42.3142 10.7653 42.3942 10.9413 42.5542 11.08C42.7249 11.208 43.0075 11.272 43.4022 11.272ZM43.2742 4.984C43.8502 4.984 44.3729 5.04267 44.8422 5.16C45.3222 5.27733 45.7275 5.45867 46.0582 5.704C46.3995 5.93867 46.6609 6.24267 46.8422 6.616C47.0235 6.97867 47.1142 7.41067 47.1142 7.912V11.496C47.1142 11.7733 47.0342 12.0027 46.8742 12.184C46.7249 12.3547 46.5435 12.504 46.3302 12.632C45.6369 13.048 44.6609 13.256 43.4022 13.256C42.8369 13.256 42.3249 13.2027 41.8662 13.096C41.4182 12.9893 41.0289 12.8293 40.6982 12.616C40.3782 12.4027 40.1275 12.1307 39.9462 11.8C39.7755 11.4693 39.6902 11.0853 39.6902 10.648C39.6902 9.912 39.9089 9.34667 40.3462 8.952C40.7835 8.55733 41.4609 8.312 42.3782 8.216L44.4742 7.992V7.88C44.4742 7.57067 44.3355 7.352 44.0582 7.224C43.7915 7.08533 43.4022 7.016 42.8902 7.016C42.4849 7.016 42.0902 7.05867 41.7062 7.144C41.3222 7.22933 40.9755 7.336 40.6662 7.464C40.5275 7.368 40.4102 7.224 40.3142 7.032C40.2182 6.82933 40.1702 6.62133 40.1702 6.408C40.1702 6.13067 40.2342 5.912 40.3622 5.752C40.5009 5.58133 40.7089 5.43733 40.9862 5.32C41.2955 5.20267 41.6582 5.11733 42.0742 5.064C42.5009 5.01067 42.9009 4.984 43.2742 4.984ZM58.5404 10.68C58.5404 11.4907 58.2364 12.1253 57.6284 12.584C57.0204 13.0427 56.1244 13.272 54.9404 13.272C54.4924 13.272 54.0764 13.24 53.6924 13.176C53.3084 13.112 52.9778 13.016 52.7004 12.888C52.4338 12.7493 52.2204 12.5787 52.0604 12.376C51.9111 12.1733 51.8364 11.9333 51.8364 11.656C51.8364 11.4 51.8898 11.1867 51.9964 11.016C52.1031 10.8347 52.2311 10.6853 52.3804 10.568C52.6898 10.7387 53.0418 10.8933 53.4364 11.032C53.8418 11.16 54.3058 11.224 54.8284 11.224C55.1591 11.224 55.4098 11.176 55.5804 11.08C55.7618 10.984 55.8524 10.856 55.8524 10.696C55.8524 10.5467 55.7884 10.4293 55.6604 10.344C55.5324 10.2587 55.3191 10.1893 55.0204 10.136L54.5404 10.04C53.6124 9.85867 52.9191 9.576 52.4604 9.192C52.0124 8.79733 51.7884 8.23733 51.7884 7.512C51.7884 7.11733 51.8738 6.76 52.0444 6.44C52.2151 6.12 52.4551 5.85333 52.7644 5.64C53.0738 5.42667 53.4418 5.26133 53.8684 5.144C54.3058 5.02667 54.7858 4.968 55.3084 4.968C55.7031 4.968 56.0711 5 56.4124 5.064C56.7644 5.11733 57.0684 5.20267 57.3244 5.32C57.5804 5.43733 57.7831 5.592 57.9324 5.784C58.0818 5.96533 58.1564 6.184 58.1564 6.44C58.1564 6.68533 58.1084 6.89867 58.0124 7.08C57.9271 7.25067 57.8151 7.39467 57.6764 7.512C57.5911 7.45867 57.4631 7.40533 57.2924 7.352C57.1218 7.288 56.9351 7.23467 56.7324 7.192C56.5298 7.13867 56.3218 7.096 56.1084 7.064C55.9058 7.032 55.7191 7.016 55.5484 7.016C55.1964 7.016 54.9244 7.05867 54.7324 7.144C54.5404 7.21867 54.4444 7.34133 54.4444 7.512C54.4444 7.62933 54.4978 7.72533 54.6044 7.8C54.7111 7.87467 54.9138 7.944 55.2124 8.008L55.7084 8.12C56.7324 8.35467 57.4578 8.68 57.8844 9.096C58.3218 9.50133 58.5404 10.0293 58.5404 10.68ZM64.7834 8.072C64.7834 7.74133 64.6874 7.50133 64.4954 7.352C64.3141 7.192 64.0634 7.112 63.7434 7.112C63.5301 7.112 63.3168 7.13867 63.1034 7.192C62.9008 7.24533 62.7248 7.32533 62.5754 7.432V12.984C62.4688 13.016 62.2981 13.048 62.0634 13.08C61.8394 13.112 61.6048 13.128 61.3594 13.128C61.1248 13.128 60.9114 13.112 60.7194 13.08C60.5381 13.048 60.3834 12.984 60.2554 12.888C60.1274 12.792 60.0261 12.664 59.9514 12.504C59.8874 12.3333 59.8554 12.1147 59.8554 11.848V7.048C59.8554 6.76 59.9141 6.52533 60.0314 6.344C60.1594 6.16267 60.3301 5.99733 60.5434 5.848C60.9061 5.592 61.3594 5.384 61.9034 5.224C62.4581 5.064 63.0714 4.984 63.7434 4.984C64.9488 4.984 65.8768 5.25067 66.5274 5.784C67.1781 6.30667 67.5034 7.03733 67.5034 7.976V12.984C67.3968 13.016 67.2261 13.048 66.9914 13.08C66.7674 13.112 66.5328 13.128 66.2874 13.128C66.0528 13.128 65.8394 13.112 65.6474 13.08C65.4661 13.048 65.3114 12.984 65.1834 12.888C65.0554 12.792 64.9541 12.664 64.8794 12.504C64.8154 12.3333 64.7834 12.1147 64.7834 11.848V8.072ZM72.5116 11.272C72.6929 11.272 72.8902 11.256 73.1036 11.224C73.3276 11.1813 73.4929 11.128 73.5996 11.064V9.784L72.4476 9.88C72.1489 9.90133 71.9036 9.96533 71.7116 10.072C71.5196 10.1787 71.4236 10.3387 71.4236 10.552C71.4236 10.7653 71.5036 10.9413 71.6636 11.08C71.8342 11.208 72.1169 11.272 72.5116 11.272ZM72.3836 4.984C72.9596 4.984 73.4822 5.04267 73.9516 5.16C74.4316 5.27733 74.8369 5.45867 75.1676 5.704C75.5089 5.93867 75.7702 6.24267 75.9516 6.616C76.1329 6.97867 76.2236 7.41067 76.2236 7.912V11.496C76.2236 11.7733 76.1436 12.0027 75.9836 12.184C75.8342 12.3547 75.6529 12.504 75.4396 12.632C74.7462 13.048 73.7702 13.256 72.5116 13.256C71.9462 13.256 71.4342 13.2027 70.9756 13.096C70.5276 12.9893 70.1382 12.8293 69.8076 12.616C69.4876 12.4027 69.2369 12.1307 69.0556 11.8C68.8849 11.4693 68.7996 11.0853 68.7996 10.648C68.7996 9.912 69.0182 9.34667 69.4556 8.952C69.8929 8.55733 70.5702 8.312 71.4876 8.216L73.5836 7.992V7.88C73.5836 7.57067 73.4449 7.352 73.1676 7.224C72.9009 7.08533 72.5116 7.016 71.9996 7.016C71.5942 7.016 71.1996 7.05867 70.8156 7.144C70.4316 7.22933 70.0849 7.336 69.7756 7.464C69.6369 7.368 69.5196 7.224 69.4236 7.032C69.3276 6.82933 69.2796 6.62133 69.2796 6.408C69.2796 6.13067 69.3436 5.912 69.4716 5.752C69.6102 5.58133 69.8182 5.43733 70.0956 5.32C70.4049 5.20267 70.7676 5.11733 71.1836 5.064C71.6102 5.01067 72.0102 4.984 72.3836 4.984ZM82.2707 7.128C82.004 7.128 81.748 7.17067 81.5027 7.256C81.268 7.34133 81.06 7.46933 80.8787 7.64C80.708 7.8 80.5694 8.00267 80.4627 8.248C80.356 8.49333 80.3027 8.78133 80.3027 9.112C80.3027 9.77333 80.4894 10.2693 80.8627 10.6C81.2467 10.9307 81.7107 11.096 82.2547 11.096C82.5747 11.096 82.852 11.0587 83.0867 10.984C83.3214 10.9093 83.5294 10.8293 83.7107 10.744C83.924 10.8933 84.084 11.0587 84.1907 11.24C84.2974 11.4107 84.3507 11.6187 84.3507 11.864C84.3507 12.3013 84.1427 12.6427 83.7267 12.888C83.3107 13.1227 82.7347 13.24 81.9987 13.24C81.3267 13.24 80.7187 13.144 80.1747 12.952C79.6307 12.7493 79.1614 12.472 78.7667 12.12C78.3827 11.7573 78.084 11.3253 77.8707 10.824C77.6574 10.3227 77.5507 9.768 77.5507 9.16C77.5507 8.456 77.6627 7.84267 77.8867 7.32C78.1214 6.78667 78.436 6.34933 78.8307 6.008C79.2254 5.66667 79.6787 5.41067 80.1907 5.24C80.7134 5.06933 81.2627 4.984 81.8387 4.984C82.6067 4.984 83.1987 5.12267 83.6147 5.4C84.0307 5.67733 84.2387 6.03467 84.2387 6.472C84.2387 6.67467 84.1907 6.86667 84.0947 7.048C83.9987 7.21867 83.8867 7.368 83.7587 7.496C83.5774 7.41067 83.3587 7.33067 83.1027 7.256C82.8467 7.17067 82.5694 7.128 82.2707 7.128ZM93.3148 11.592C93.2615 12.0933 93.1121 12.4773 92.8668 12.744C92.6321 13.0107 92.2855 13.144 91.8268 13.144C91.4855 13.144 91.1815 13.064 90.9148 12.904C90.6481 12.7333 90.3601 12.4507 90.0508 12.056L88.4668 10.072V12.984C88.3495 13.0053 88.1735 13.032 87.9388 13.064C87.7148 13.1067 87.4855 13.128 87.2508 13.128C87.0161 13.128 86.8028 13.112 86.6108 13.08C86.4295 13.048 86.2748 12.984 86.1468 12.888C86.0188 12.792 85.9175 12.664 85.8428 12.504C85.7788 12.3333 85.7468 12.1147 85.7468 11.848V2.584C85.8641 2.552 86.0348 2.52 86.2588 2.488C86.4935 2.44533 86.7281 2.424 86.9628 2.424C87.1975 2.424 87.4055 2.44 87.5868 2.472C87.7788 2.504 87.9388 2.568 88.0668 2.664C88.1948 2.76 88.2908 2.89333 88.3548 3.064C88.4295 3.224 88.4668 3.43733 88.4668 3.704V7.928L91.2188 5.112C91.7735 5.112 92.2161 5.23467 92.5468 5.48C92.8881 5.72533 93.0588 6.03467 93.0588 6.408C93.0588 6.568 93.0321 6.71733 92.9788 6.856C92.9255 6.984 92.8401 7.11733 92.7228 7.256C92.6161 7.39467 92.4721 7.544 92.2908 7.704C92.1201 7.85333 91.9175 8.02933 91.6828 8.232L90.7548 9.032L93.3148 11.592ZM97.5498 3.72C97.5498 3.96533 97.5445 4.32267 97.5338 4.792C97.5231 5.25067 97.5018 5.752 97.4698 6.296C97.4378 6.82933 97.3951 7.368 97.3418 7.912C97.2885 8.44533 97.2245 8.90933 97.1498 9.304C97.1071 9.336 97.0431 9.368 96.9578 9.4C96.8725 9.432 96.7818 9.45867 96.6858 9.48C96.5898 9.50133 96.4938 9.51733 96.3978 9.528C96.3018 9.53867 96.2165 9.544 96.1418 9.544C95.8325 9.544 95.5711 9.496 95.3578 9.4C95.1551 9.304 95.0271 9.11733 94.9738 8.84C94.9205 8.59467 94.8725 8.22133 94.8298 7.72C94.7978 7.21867 94.7658 6.67467 94.7338 6.088C94.7018 5.50133 94.6751 4.92 94.6538 4.344C94.6431 3.768 94.6378 3.27733 94.6378 2.872C94.8511 2.75467 95.0911 2.664 95.3578 2.6C95.6351 2.52533 95.9071 2.488 96.1738 2.488C96.6111 2.488 96.9471 2.58933 97.1818 2.792C97.4271 2.99467 97.5498 3.304 97.5498 3.72ZM94.6058 11.784C94.6058 11.3467 94.7391 10.9893 95.0058 10.712C95.2831 10.424 95.6618 10.28 96.1418 10.28C96.6218 10.28 96.9951 10.424 97.2618 10.712C97.5391 10.9893 97.6778 11.3467 97.6778 11.784C97.6778 12.2213 97.5391 12.584 97.2618 12.872C96.9951 13.1493 96.6218 13.288 96.1418 13.288C95.6618 13.288 95.2831 13.1493 95.0058 12.872C94.7391 12.584 94.6058 12.2213 94.6058 11.784Z" fill="white"/>
<path d="M8.74856 5.224L8.12852 7.12546L8.15297 7.13343L8.17761 7.14077L8.74856 5.224ZM10.0126 5.816L8.84529 7.44003L8.85542 7.44731L8.86564 7.45446L10.0126 5.816ZM10.5086 6.312L8.82942 7.3985L8.85135 7.43239L8.87463 7.46536L10.5086 6.312ZM10.3806 14.072L8.61073 13.1405L8.60578 13.1499L8.60093 13.1594L10.3806 14.072ZM9.50056 15.096L8.33809 13.4685L8.31156 13.4875L8.28566 13.5073L9.50056 15.096ZM8.20456 15.704L7.70979 13.7661L7.69972 13.7688L8.20456 15.704ZM4.33256 15.496L5.19915 13.6935L5.18497 13.6867L5.17068 13.6801L4.33256 15.496ZM3.64456 13.576L1.92069 12.562L1.88616 12.6207L1.85571 12.6816L3.64456 13.576ZM3.99656 13.16L4.96272 11.4088L3.83079 10.7843L2.79656 11.56L3.99656 13.16ZM5.03656 13.592L4.45213 15.5047L4.45937 15.5069L4.46662 15.5091L5.03656 13.592ZM7.62856 13.48L8.60909 15.2232L8.60909 15.2232L7.62856 13.48ZM8.14056 12.296H10.1406V9.2337L7.33658 10.4647L8.14056 12.296ZM5.16456 12.376L4.50386 14.2637L4.53183 14.2735L4.56007 14.2825L5.16456 12.376ZM4.02856 11.704L2.63852 13.142L2.66286 13.1655L2.68799 13.1882L4.02856 11.704ZM3.24456 10.52L1.38761 11.2628L1.39467 11.2804L1.40206 11.2979L3.24456 10.52ZM3.26056 7.112L1.43294 6.29972L1.42534 6.31682L1.41806 6.33406L3.26056 7.112ZM4.12456 5.928L5.42246 7.44967L5.42615 7.44651L4.12456 5.928ZM5.43656 5.224L6.00752 7.14077L6.02034 7.13695L6.03311 7.13296L5.43656 5.224ZM8.09256 7.304H10.0926V6.14336L9.08484 5.56751L8.09256 7.304ZM7.75656 7.176L7.16839 9.08756L7.1877 9.0935L7.20712 9.09905L7.75656 7.176ZM6.04456 7.56L4.55268 6.22797L4.54974 6.23127L6.04456 7.56ZM6.04456 10.152L4.57496 11.5086L4.60208 11.5379L4.63035 11.5662L6.04456 10.152ZM8.09256 10.248L9.33397 11.8161L10.0926 11.2155V10.248H8.09256ZM7.10056 6.984C7.5345 6.984 7.87005 7.04117 8.12852 7.12546L9.3686 3.32254C8.64574 3.08682 7.88263 2.984 7.10056 2.984V6.984ZM8.17761 7.14077C8.51536 7.24138 8.7231 7.3522 8.84529 7.44003L11.1798 4.19197C10.6194 3.78913 9.98444 3.50529 9.31952 3.30723L8.17761 7.14077ZM8.86564 7.45446C8.91005 7.48555 8.87786 7.47336 8.82942 7.3985L12.1877 5.2255C11.9046 4.78797 11.5417 4.44511 11.1595 4.17754L8.86564 7.45446ZM8.87463 7.46536C8.70247 7.22147 8.70056 7.0187 8.70056 7.016H12.7006C12.7006 6.4373 12.5707 5.76519 12.1425 5.15864L8.87463 7.46536ZM8.70056 7.016V12.616H12.7006V7.016H8.70056ZM8.70056 12.616C8.70056 12.9316 8.6415 13.082 8.61073 13.1405L12.1504 15.0035C12.5463 14.2513 12.7006 13.431 12.7006 12.616H8.70056ZM8.60093 13.1594C8.53042 13.2969 8.4465 13.3911 8.33809 13.4685L10.663 16.7235C11.3013 16.2676 11.804 15.6791 12.1602 14.9846L8.60093 13.1594ZM8.28566 13.5073C8.16379 13.6005 7.98471 13.696 7.7098 13.7662L8.69933 17.6418C9.42708 17.456 10.112 17.1462 10.7155 16.6847L8.28566 13.5073ZM7.69972 13.7688C7.39152 13.8492 7.03478 13.896 6.62056 13.896V17.896C7.33701 17.896 8.03627 17.8148 8.70941 17.6392L7.69972 13.7688ZM6.62056 13.896C5.7949 13.896 5.37184 13.7765 5.19915 13.6935L3.46597 17.2985C4.40262 17.7488 5.5049 17.896 6.62056 17.896V13.896ZM5.17068 13.6801C5.16035 13.6753 5.27303 13.7272 5.37914 13.8884C5.48862 14.0547 5.50056 14.1997 5.50056 14.232H1.50056C1.50056 14.851 1.65117 15.5 2.03798 16.0876C2.42143 16.6702 2.95011 17.0607 3.49445 17.3119L5.17068 13.6801ZM5.50056 14.232C5.50056 14.2526 5.49491 14.3474 5.43342 14.4704L1.85571 12.6816C1.60221 13.1886 1.50056 13.7207 1.50056 14.232H5.50056ZM5.36843 14.59C5.38108 14.5685 5.33548 14.6558 5.19656 14.76L2.79656 11.56C2.40164 11.8562 2.12138 12.2208 1.92069 12.562L5.36843 14.59ZM3.03041 14.9112C3.47617 15.1571 3.95325 15.3523 4.45213 15.5047L5.621 11.6793C5.35187 11.5971 5.13562 11.5042 4.96272 11.4088L3.03041 14.9112ZM4.46662 15.5091C5.0482 15.682 5.6456 15.768 6.25256 15.768V11.768C6.02753 11.768 5.81426 11.7367 5.6065 11.6749L4.46662 15.5091ZM6.25256 15.768C7.02153 15.768 7.86002 15.6445 8.60909 15.2232L6.64804 11.7368C6.68656 11.7152 6.68614 11.7243 6.61884 11.7384C6.55075 11.7527 6.43289 11.768 6.25256 11.768V15.768ZM8.60909 15.2232C9.64614 14.6398 10.1406 13.6222 10.1406 12.552H6.14056C6.14056 12.4973 6.1528 12.3347 6.26141 12.1378C6.37482 11.9323 6.53087 11.8028 6.64804 11.7368L8.60909 15.2232ZM10.1406 12.552V12.296H6.14056V12.552H10.1406ZM7.33658 10.4647C7.21949 10.5161 6.97681 10.584 6.54056 10.584V14.584C7.36298 14.584 8.18697 14.4599 8.94454 14.1273L7.33658 10.4647ZM6.54056 10.584C6.25612 10.584 6.00199 10.5434 5.76905 10.4695L4.56007 14.2825C5.20181 14.4859 5.865 14.584 6.54056 14.584V10.584ZM5.82526 10.4883C5.64607 10.4256 5.49936 10.3374 5.36913 10.2198L2.68799 13.1882C3.21909 13.6679 3.82972 14.0278 4.50386 14.2637L5.82526 10.4883ZM5.41861 10.266C5.32253 10.1731 5.20258 10.0156 5.08706 9.74206L1.40206 11.2979C1.69188 11.9844 2.0946 12.6162 2.63852 13.142L5.41861 10.266ZM5.10152 9.77722C5.02634 9.58929 4.95656 9.28287 4.95656 8.808H0.956563C0.956563 9.65579 1.07878 10.4907 1.38761 11.2628L5.10152 9.77722ZM4.95656 8.808C4.95656 8.36027 5.02673 8.07073 5.10306 7.88994L1.41806 6.33406C1.08906 7.11327 0.956563 7.9544 0.956563 8.808H4.95656ZM5.08819 7.92428C5.19268 7.68917 5.30949 7.54602 5.42246 7.44967L2.82667 4.40633C2.2143 4.92865 1.75511 5.57483 1.43294 6.29972L5.08819 7.92428ZM5.42615 7.44651C5.57314 7.32051 5.7575 7.21524 6.00752 7.14077L4.86561 3.30723C4.11296 3.53142 3.42265 3.89548 2.82298 4.40949L5.42615 7.44651ZM6.03311 7.13296C6.33147 7.03972 6.68283 6.984 7.10056 6.984V2.984C6.32363 2.984 5.56566 3.08828 4.84001 3.31504L6.03311 7.13296ZM9.08484 5.56751C8.80122 5.40544 8.50731 5.31047 8.30601 5.25295L7.20712 9.09905C7.24195 9.109 7.25085 9.11289 7.24057 9.10897C7.2347 9.10674 7.21986 9.10092 7.19804 9.09095C7.17668 9.08118 7.14276 9.06476 7.10028 9.04049L9.08484 5.56751ZM8.34474 5.26444C7.94877 5.14261 7.55674 5.112 7.22856 5.112V9.112C7.27036 9.112 7.28585 9.11419 7.2799 9.11347C7.27631 9.11303 7.26496 9.11154 7.24694 9.10787C7.22899 9.10422 7.20225 9.09797 7.16839 9.08756L8.34474 5.26444ZM7.22856 5.112C6.3206 5.112 5.30639 5.38382 4.55269 6.22797L7.53644 8.89203C7.44393 8.99564 7.33517 9.06172 7.24835 9.09457C7.17274 9.12318 7.1534 9.112 7.22856 9.112V5.112ZM4.54974 6.23127C3.85601 7.01172 3.66056 7.97473 3.66056 8.808H7.66056C7.66056 8.68784 7.67526 8.65297 7.66812 8.67617C7.66403 8.68946 7.65372 8.71853 7.63235 8.7577C7.61066 8.79748 7.58017 8.84284 7.53938 8.88873L4.54974 6.23127ZM3.66056 8.808C3.66056 9.62692 3.81697 10.6874 4.57496 11.5086L7.51417 8.79544C7.64233 8.93428 7.67745 9.05099 7.67961 9.05856C7.68073 9.06247 7.67556 9.04538 7.67032 9.00171C7.6651 8.95824 7.66056 8.89468 7.66056 8.808H3.66056ZM4.63035 11.5662C5.30202 12.2379 6.16067 12.552 7.05256 12.552V8.552C7.07197 8.552 7.14068 8.55588 7.23425 8.59302C7.33068 8.63128 7.4078 8.68681 7.45878 8.73779L4.63035 11.5662ZM7.05256 12.552C7.78788 12.552 8.62113 12.3804 9.33397 11.8161L6.85116 8.67991C6.94557 8.60517 7.03176 8.57027 7.07943 8.55633C7.122 8.54389 7.11985 8.552 7.05256 8.552V12.552ZM10.0926 10.248V7.304H6.09256V10.248H10.0926ZM15.1067 12.984L15.6814 14.8997L17.1067 14.4721V12.984H15.1067ZM14.5947 13.08L14.3245 11.0983L14.3118 11.1001L14.5947 13.08ZM13.2507 13.08L12.9031 15.0496L12.9125 15.0512L12.9219 15.0528L13.2507 13.08ZM12.7867 12.888L13.9867 11.288L13.9867 11.288L12.7867 12.888ZM12.4827 12.504L10.61 13.2062L10.6374 13.2792L10.6703 13.3498L12.4827 12.504ZM12.5147 6.424L10.7471 5.48822L10.7362 5.50878L10.7258 5.52957L12.5147 6.424ZM12.9147 5.944L14.1759 7.49623L14.1759 7.49623L12.9147 5.944ZM13.5387 5.576L14.3361 7.41014L14.3541 7.40231L14.372 7.39413L13.5387 5.576ZM14.3547 5.272L14.9229 7.1896L14.9229 7.1896L14.3547 5.272ZM15.2507 5.08L15.524 7.06124L15.5573 7.05664L15.5905 7.05092L15.2507 5.08ZM17.3947 5.304L16.2717 6.95895L16.2923 6.97291L16.3132 6.98636L17.3947 5.304ZM17.7787 6.712L19.6902 7.30017L19.6962 7.28086L19.7017 7.26144L17.7787 6.712ZM17.6187 7.096V9.096H18.806L19.3745 8.0537L17.6187 7.096ZM16.9307 7.128L17.1118 9.11979L17.1118 9.11979L16.9307 7.128ZM16.2427 7.224L15.8685 5.25932L15.8685 5.25932L16.2427 7.224ZM15.6027 7.368L16.0365 9.32037L16.0743 9.31199L16.1117 9.30215L15.6027 7.368ZM15.1067 7.528L14.2686 5.71208L13.1067 6.24834V7.528H15.1067ZM14.532 11.0683C14.5561 11.0611 14.5685 11.0584 14.565 11.0592C14.5623 11.0598 14.5513 11.0623 14.5301 11.0663C14.4867 11.0744 14.4198 11.0853 14.3245 11.0983L14.8649 15.0617C15.1146 15.0276 15.416 14.9793 15.6814 14.8997L14.532 11.0683ZM14.3118 11.1001C14.189 11.1177 14.0492 11.128 13.8907 11.128V15.128C14.2228 15.128 14.5524 15.1063 14.8775 15.0599L14.3118 11.1001ZM13.8907 11.128C13.7446 11.128 13.6434 11.1179 13.5795 11.1072L12.9219 15.0528C13.242 15.1061 13.5675 15.128 13.8907 15.128V11.128ZM13.5983 11.1104C13.6793 11.1247 13.8281 11.169 13.9867 11.288L11.5867 14.488C12.0013 14.799 12.4594 14.9713 12.9031 15.0496L13.5983 11.1104ZM13.9867 11.288C14.1481 11.4091 14.2454 11.5518 14.2951 11.6582L10.6703 13.3498C10.8693 13.7762 11.1692 14.1749 11.5867 14.488L13.9867 11.288ZM14.3553 11.8018C14.3693 11.839 14.3777 11.8685 14.3825 11.8882C14.3874 11.9079 14.3892 11.9198 14.3896 11.9224C14.3902 11.9262 14.3867 11.9035 14.3867 11.848H10.3867C10.3867 12.2535 10.4324 12.7327 10.61 13.2062L14.3553 11.8018ZM14.3867 11.848V7.048H10.3867V11.848H14.3867ZM14.3867 7.048C14.3867 7.02728 14.391 7.14361 14.3035 7.31843L10.7258 5.52957C10.4678 6.04572 10.3867 6.57805 10.3867 7.048H14.3867ZM14.2823 7.35977C14.2644 7.39352 14.2439 7.42344 14.2231 7.44837C14.2026 7.47303 14.1853 7.48857 14.1759 7.49623L11.6535 4.39177C11.2895 4.68752 10.9776 5.05283 10.7471 5.48822L14.2823 7.35977ZM14.1759 7.49623C14.1789 7.49376 14.2228 7.4594 14.3361 7.41014L12.7412 3.74186C12.3639 3.90593 11.9918 4.1169 11.6535 4.39177L14.1759 7.49623ZM14.372 7.39413C14.5366 7.31868 14.7195 7.24985 14.9229 7.1896L13.7865 3.3544C13.4139 3.46482 13.0528 3.59865 12.7054 3.75787L14.372 7.39413ZM14.9229 7.1896C15.1106 7.13398 15.3105 7.09069 15.524 7.06124L14.9774 3.09876C14.5722 3.15464 14.1748 3.23936 13.7865 3.3544L14.9229 7.1896ZM15.5905 7.05092C15.7893 7.01665 15.9849 7 16.1787 7V3C15.7538 3 15.3308 3.03668 14.9109 3.10908L15.5905 7.05092ZM16.1787 7C16.3064 7 16.3684 7.01299 16.3816 7.01629C16.3918 7.01884 16.3446 7.00842 16.2717 6.95895L18.5177 3.64905C17.7757 3.14556 16.9302 3 16.1787 3V7ZM16.3132 6.98636C16.1466 6.87929 16.0043 6.71803 15.9183 6.53377C15.8409 6.36778 15.8427 6.25626 15.8427 6.264H19.8427C19.8427 5.33814 19.4992 4.27926 18.4762 3.62164L16.3132 6.98636ZM15.8427 6.264C15.8427 6.22018 15.8493 6.18473 15.8556 6.16256L19.7017 7.26144C19.7934 6.94061 19.8427 6.60649 19.8427 6.264H15.8427ZM15.8671 6.12383C15.8606 6.14521 15.8575 6.14813 15.8629 6.13829L19.3745 8.0537C19.5078 7.8092 19.6115 7.55612 19.6902 7.30017L15.8671 6.12383ZM17.6187 5.096C17.3312 5.096 17.0414 5.10969 16.7496 5.13621L17.1118 9.11979C17.2893 9.10364 17.4582 9.096 17.6187 9.096V5.096ZM16.7496 5.13621C16.4523 5.16324 16.1585 5.20409 15.8685 5.25932L16.6169 9.18868C16.7749 9.15858 16.9397 9.13543 17.1118 9.11979L16.7496 5.13621ZM15.8685 5.25932C15.6031 5.30987 15.3446 5.36782 15.0937 5.43385L16.1117 9.30215C16.2661 9.26151 16.4343 9.22347 16.6169 9.18868L15.8685 5.25932ZM15.1688 5.41563C14.8752 5.48089 14.5675 5.5741 14.2686 5.71208L15.9448 9.34392C15.9322 9.34975 15.9322 9.34872 15.9487 9.34342C15.965 9.33816 15.9935 9.32993 16.0365 9.32037L15.1688 5.41563ZM13.1067 7.528V12.984H17.1067V7.528H13.1067ZM22.6504 11.224L22.9471 13.2019L22.986 13.196L23.0247 13.1887L22.6504 11.224ZM23.1464 11.064L24.1754 12.779L25.1464 12.1964V11.064H23.1464ZM23.1464 9.784H25.1464V7.6104L22.9803 7.79091L23.1464 9.784ZM21.9944 9.88L22.1369 11.8749L22.1487 11.8741L22.1605 11.8731L21.9944 9.88ZM21.2584 10.072L20.2872 8.32368L20.2872 8.32369L21.2584 10.072ZM21.2104 11.08L19.9006 12.5914L19.9539 12.6376L20.0104 12.68L21.2104 11.08ZM23.4984 5.16L23.0134 7.10031L23.0235 7.1028L23.4984 5.16ZM24.7144 5.704L23.5227 7.3102L23.5517 7.33167L23.5814 7.35208L24.7144 5.704ZM25.4984 6.616L23.6994 7.48981L23.7044 7.50015L23.7096 7.51043L25.4984 6.616ZM25.5304 12.184L24.0307 10.8607L24.0253 10.867L25.5304 12.184ZM24.9864 12.632L23.9574 10.917L23.9574 10.917L24.9864 12.632ZM20.5224 13.096L20.0592 15.0416L20.0694 15.044L20.5224 13.096ZM19.3544 12.616L18.245 14.2801L18.2575 14.2884L18.2702 14.2966L19.3544 12.616ZM18.6024 11.8L16.8252 12.7173L16.8367 12.7396L16.8488 12.7617L18.6024 11.8ZM19.0024 8.952L17.6625 7.46721L17.6625 7.46721L19.0024 8.952ZM21.0344 8.216L21.2426 10.2051L21.247 10.2047L21.0344 8.216ZM23.1304 7.992L23.343 9.98068L25.1304 9.78965V7.992H23.1304ZM22.7144 7.224L21.7917 8.99843L21.8335 9.02017L21.8763 9.03992L22.7144 7.224ZM20.3624 7.144L19.9286 5.19163L19.9286 5.19163L20.3624 7.144ZM19.3224 7.464L18.184 9.10838L19.0801 9.72874L20.0871 9.31203L19.3224 7.464ZM18.9704 7.032L17.163 7.88817L17.1721 7.9074L17.1816 7.92643L18.9704 7.032ZM19.0184 5.752L17.4662 4.49081L17.4614 4.49669L17.4567 4.50261L19.0184 5.752ZM19.6424 5.32L18.9331 3.45L18.8979 3.46338L18.8632 3.47807L19.6424 5.32ZM20.7304 5.064L20.4824 3.07943L20.4761 3.08024L20.7304 5.064ZM22.0584 13.272C22.3556 13.272 22.6534 13.2459 22.9471 13.2019L22.3538 9.24613C22.2208 9.26607 22.1239 9.272 22.0584 9.272V13.272ZM23.0247 13.1887C23.3204 13.1323 23.7634 13.0262 24.1754 12.779L22.1174 9.34901C22.1797 9.31169 22.2306 9.28768 22.2633 9.27358C22.2965 9.25925 22.3194 9.25151 22.3284 9.24858C22.3442 9.24349 22.3306 9.24897 22.2762 9.25932L23.0247 13.1887ZM25.1464 11.064V9.784H21.1464V11.064H25.1464ZM22.9803 7.79091L21.8283 7.88691L22.1605 11.8731L23.3125 11.7771L22.9803 7.79091ZM21.8519 7.88508C21.3621 7.92007 20.8091 8.03372 20.2872 8.32368L22.2297 11.8203C22.1582 11.8601 22.1069 11.8752 22.0913 11.8792C22.0763 11.8832 22.0887 11.8784 22.1369 11.8749L21.8519 7.88508ZM20.2872 8.32369C19.9391 8.51702 19.5856 8.81269 19.3275 9.24301C19.0675 9.67631 18.9704 10.1358 18.9704 10.552H22.9704C22.9704 10.7549 22.9214 11.0277 22.7574 11.301C22.5952 11.5713 22.3857 11.7336 22.2297 11.8203L20.2872 8.32369ZM18.9704 10.552C18.9704 11.3403 19.2984 12.0695 19.9006 12.5914L22.5203 9.56862C22.6369 9.66966 22.7611 9.81827 22.8512 10.0164C22.941 10.2141 22.9704 10.403 22.9704 10.552H18.9704ZM20.0104 12.68C20.7167 13.2097 21.5505 13.272 22.0584 13.272V9.272C21.9602 9.272 21.9471 9.26319 21.9921 9.27337C22.0325 9.28253 22.2051 9.32598 22.4104 9.48L20.0104 12.68ZM21.9304 6.984C22.3729 6.984 22.7294 7.02929 23.0134 7.10028L23.9835 3.21972C23.3288 3.05604 22.6399 2.984 21.9304 2.984V6.984ZM23.0235 7.1028C23.2953 7.16923 23.4445 7.25213 23.5227 7.3102L25.9061 4.0978C25.3231 3.6652 24.6616 3.38544 23.9733 3.2172L23.0235 7.1028ZM23.5814 7.35208C23.6369 7.39023 23.669 7.4272 23.6994 7.48981L27.2975 5.74219C26.9652 5.05813 26.4747 4.4871 25.8475 4.05592L23.5814 7.35208ZM23.7096 7.51043C23.7231 7.53748 23.7704 7.64919 23.7704 7.912H27.7704C27.7704 7.17214 27.6364 6.41986 27.2873 5.72157L23.7096 7.51043ZM23.7704 7.912V11.496H27.7704V7.912H23.7704ZM23.7704 11.496C23.7704 11.4417 23.7785 11.3421 23.822 11.2173C23.867 11.0884 23.9386 10.9652 24.0308 10.8608L27.0301 13.5072C27.5596 12.9071 27.7704 12.1844 27.7704 11.496H23.7704ZM24.0253 10.867C24.0247 10.8676 24.0207 10.8721 24.011 10.8801C24.0012 10.8883 23.9841 10.901 23.9574 10.917L26.0154 14.347C26.39 14.1222 26.7366 13.8427 27.0356 13.501L24.0253 10.867ZM23.9574 10.917C23.7022 11.0701 23.1393 11.256 22.0584 11.256V15.256C23.4949 15.256 24.884 15.0259 26.0154 14.347L23.9574 10.917ZM22.0584 11.256C21.6163 11.256 21.2595 11.214 20.9755 11.148L20.0694 15.044C20.7027 15.1913 21.37 15.256 22.0584 15.256V11.256ZM20.9857 11.1504C20.7215 11.0875 20.5495 11.0069 20.4387 10.9354L18.2702 14.2966C18.8207 14.6518 19.4274 14.8912 20.0592 15.0416L20.9857 11.1504ZM20.4638 10.9519C20.4065 10.9137 20.3792 10.8806 20.3561 10.8383L16.8488 12.7617C17.1883 13.3807 17.6623 13.8916 18.245 14.2801L20.4638 10.9519ZM20.3797 10.8827C20.379 10.8814 20.3464 10.822 20.3464 10.648H16.3464C16.3464 11.3486 16.4845 12.0572 16.8252 12.7173L20.3797 10.8827ZM20.3464 10.648C20.3464 10.4754 20.3723 10.4026 20.3758 10.3935C20.3773 10.3895 20.3751 10.3961 20.3667 10.4084C20.3582 10.4208 20.349 10.4308 20.3424 10.4368L17.6625 7.46721C16.7042 8.33202 16.3464 9.49759 16.3464 10.648H20.3464ZM20.3424 10.4368C20.3315 10.4466 20.3713 10.4061 20.5195 10.3524C20.6699 10.298 20.9028 10.2407 21.2426 10.2051L20.8263 6.22686C19.7097 6.34372 18.547 6.66906 17.6625 7.46721L20.3424 10.4368ZM21.247 10.2047L23.343 9.98068L22.9179 6.00332L20.8219 6.22732L21.247 10.2047ZM25.1304 7.992V7.88H21.1304V7.992H25.1304ZM25.1304 7.88C25.1304 7.4207 25.0245 6.90026 24.7155 6.41292C24.4054 5.92395 23.9768 5.60387 23.5526 5.40808L21.8763 9.03992C21.7294 8.97213 21.5088 8.82538 21.3374 8.55508C21.167 8.2864 21.1304 8.02997 21.1304 7.88H25.1304ZM23.6371 5.44957C22.951 5.09275 22.1827 5.016 21.5464 5.016V9.016C21.7172 9.016 21.8208 9.02795 21.8718 9.03702C21.9261 9.04669 21.8846 9.04672 21.7917 8.99843L23.6371 5.44957ZM21.5464 5.016C20.9996 5.016 20.4593 5.07369 19.9286 5.19163L20.7963 9.09637C21.0336 9.04365 21.2826 9.016 21.5464 9.016V5.016ZM19.9286 5.19163C19.4505 5.29786 18.9907 5.43679 18.5577 5.61597L20.0871 9.31203C20.2728 9.23521 20.5064 9.16081 20.7963 9.09637L19.9286 5.19163ZM20.4609 5.81962C20.664 5.96024 20.7451 6.10911 20.7593 6.13757L17.1816 7.92643C17.3878 8.33889 17.7036 8.77576 18.184 9.10838L20.4609 5.81962ZM20.7779 6.17583C20.7884 6.19796 20.8013 6.23122 20.8112 6.27428C20.8212 6.31767 20.8264 6.36321 20.8264 6.408H16.8264C16.8264 6.9326 16.9468 7.43192 17.163 7.88817L20.7779 6.17583ZM20.8264 6.408C20.8264 6.42496 20.8218 6.69937 20.5802 7.00139L17.4567 4.50261C16.9591 5.12463 16.8264 5.83637 16.8264 6.408H20.8264ZM20.5707 7.01319C20.5045 7.09459 20.4454 7.14065 20.4169 7.16038C20.3894 7.17943 20.3862 7.17698 20.4217 7.16193L18.8632 3.47807C18.3904 3.67807 17.8732 3.98995 17.4662 4.49081L20.5707 7.01319ZM20.3517 7.18999C20.4815 7.14078 20.6851 7.08619 20.9848 7.04776L20.4761 3.08024C19.9438 3.14848 19.4221 3.26455 18.9331 3.45L20.3517 7.18999ZM20.9785 7.04856C21.3349 7.004 21.6514 6.984 21.9304 6.984V2.984C21.4629 2.984 20.9793 3.01733 20.4824 3.07944L20.9785 7.04856ZM27.4656 2.584L26.8909 0.668348L25.4656 1.09594V2.584H27.4656ZM27.9776 2.488L28.2478 4.46966L28.2917 4.46367L28.3353 4.45574L27.9776 2.488ZM29.3216 2.472L28.974 4.44157L28.9834 4.44322L28.9928 4.44479L29.3216 2.472ZM29.8016 2.664L28.6016 4.264L28.6016 4.264L29.8016 2.664ZM30.0896 3.064L28.2169 3.76625L28.2245 3.7866L28.2326 3.80678L30.0896 3.064ZM30.1856 5.272H28.1856V8.22607L30.9283 7.12895L30.1856 5.272ZM30.9376 5.048L30.5949 3.07758L30.5873 3.07889L30.5798 3.08026L30.9376 5.048ZM33.1936 5.256L33.9289 3.39608L33.9289 3.39608L33.1936 5.256ZM34.4096 6.056L32.9954 7.47021L33.0062 7.48109L33.0173 7.4918L34.4096 6.056ZM35.2416 7.336L33.3819 8.0721L33.3819 8.0721L35.2416 7.336ZM35.2256 10.936L33.3739 10.1802L33.3699 10.19L33.3659 10.1999L35.2256 10.936ZM34.3616 12.216L33.012 10.7399L33.012 10.7399L34.3616 12.216ZM32.9856 13L33.5951 14.9048L33.6066 14.9012L33.618 14.8974L32.9856 13ZM29.4176 13L30.0746 11.111L30.0562 11.1046L30.0376 11.0985L29.4176 13ZM28.1696 12.392L29.3368 10.768L29.3292 10.7625L29.3215 10.757L28.1696 12.392ZM32.3456 10.616L30.7933 9.35481L30.7887 9.36049L32.3456 10.616ZM32.3456 7.608L33.8779 6.32278L33.8779 6.32278L32.3456 7.608ZM30.6656 7.176L30.1502 5.24353L30.1331 5.24809L30.1161 5.25295L30.6656 7.176ZM30.1696 7.368L29.318 5.55836L28.1696 6.09879V7.368H30.1696ZM30.1696 10.856H28.1696V11.9539L29.0958 12.5433L30.1696 10.856ZM30.5856 11.048L29.9531 12.9454L30.026 12.9697L30.1005 12.9883L30.5856 11.048ZM28.0403 4.49965C28.0162 4.50688 28.0037 4.5096 28.0073 4.50878C28.0099 4.50817 28.021 4.50571 28.0421 4.50174C28.0855 4.49361 28.1524 4.48266 28.2478 4.46966L27.7073 0.506339C27.4576 0.540389 27.1563 0.588728 26.8909 0.668348L28.0403 4.49965ZM28.3353 4.45574C28.4486 4.43514 28.5688 4.424 28.6976 4.424V0.424C28.3357 0.424 27.9758 0.455526 27.6198 0.52026L28.3353 4.45574ZM28.6976 4.424C28.8457 4.424 28.9336 4.43443 28.974 4.44157L29.6691 0.502431C29.3469 0.445565 29.0188 0.424 28.6976 0.424V4.424ZM28.9928 4.44479C28.9363 4.43538 28.7796 4.39756 28.6016 4.264L31.0016 1.064C30.5675 0.738435 30.0908 0.572619 29.6504 0.499212L28.9928 4.44479ZM28.6016 4.264C28.3834 4.10039 28.2677 3.90182 28.2169 3.76625L31.9622 2.36175C31.7834 1.88485 31.4757 1.41961 31.0016 1.064L28.6016 4.264ZM28.2326 3.80678C28.195 3.71264 28.1852 3.65042 28.1837 3.64068C28.182 3.62941 28.1856 3.6478 28.1856 3.704H32.1856C32.1856 3.30725 32.1422 2.81053 31.9465 2.32122L28.2326 3.80678ZM28.1856 3.704V5.272H32.1856V3.704H28.1856ZM30.9283 7.12895C31.095 7.0623 31.2158 7.03019 31.2953 7.01574L30.5798 3.08026C30.19 3.15114 29.8095 3.26837 29.4428 3.41505L30.9283 7.12895ZM31.2802 7.01842C31.3965 6.99821 31.547 6.984 31.7376 6.984V2.984C31.3521 2.984 30.9693 3.01246 30.5949 3.07758L31.2802 7.01842ZM31.7376 6.984C32.0076 6.984 32.2426 7.03066 32.4582 7.11592L33.9289 3.39608C33.2272 3.11867 32.4915 2.984 31.7376 2.984V6.984ZM32.4582 7.11592C32.6601 7.19572 32.8349 7.30979 32.9954 7.47021L35.8238 4.64179C35.2802 4.09821 34.6444 3.67895 33.9289 3.39608L32.4582 7.11592ZM33.0173 7.4918C33.1419 7.61268 33.2708 7.79129 33.3819 8.0721L37.1012 6.5999C36.807 5.85671 36.3812 5.18198 35.8019 4.6202L33.0173 7.4918ZM33.3819 8.0721C33.4739 8.30437 33.5456 8.63809 33.5456 9.112H37.5456C37.5456 8.24191 37.4146 7.39163 37.1012 6.5999L33.3819 8.0721ZM33.5456 9.112C33.5456 9.60356 33.4697 9.94544 33.3739 10.1802L37.0773 11.6918C37.4081 10.8812 37.5456 10.0071 37.5456 9.112H33.5456ZM33.3659 10.1999C33.2649 10.4552 33.1421 10.621 33.012 10.7399L35.7111 13.6921C36.3277 13.1283 36.7809 12.4408 37.0852 11.6721L33.3659 10.1999ZM33.012 10.7399C32.8715 10.8684 32.6667 10.9981 32.3531 11.1026L33.618 14.8974C34.3924 14.6392 35.105 14.2462 35.7111 13.6921L33.012 10.7399ZM32.376 11.0952C32.0686 11.1935 31.6861 11.256 31.2096 11.256V15.256C32.0344 15.256 32.8358 15.1478 33.5951 14.9048L32.376 11.0952ZM31.2096 11.256C30.6552 11.256 30.2939 11.1873 30.0746 11.111L28.7605 14.889C29.5226 15.1541 30.356 15.256 31.2096 15.256V11.256ZM30.0376 11.0985C29.6997 10.9884 29.4781 10.8695 29.3368 10.768L27.0023 14.016C27.5437 14.4051 28.1541 14.6916 28.7975 14.9015L30.0376 11.0985ZM29.3215 10.757C29.2912 10.7357 29.3408 10.7634 29.394 10.8602C29.4509 10.9637 29.4656 11.0618 29.4656 11.112H25.4656C25.4656 12.3565 26.0777 13.3647 27.0177 14.027L29.3215 10.757ZM29.4656 11.112V2.584H25.4656V11.112H29.4656ZM31.2096 13.112C32.1997 13.112 33.1945 12.7492 33.9024 11.8715L30.7887 9.36049C30.8516 9.28259 30.9472 9.20492 31.0613 9.15509C31.1671 9.10888 31.2303 9.112 31.2096 9.112V13.112ZM33.8978 11.8772C34.5791 11.0386 34.7616 10.0108 34.7616 9.112H30.7616C30.7616 9.30875 30.7403 9.41337 30.7299 9.45083C30.7209 9.48343 30.7292 9.4338 30.7933 9.35482L33.8978 11.8772ZM34.7616 9.112C34.7616 8.21857 34.5858 7.16671 33.8779 6.32278L30.8132 8.89322C30.7339 8.79875 30.7216 8.73493 30.7299 8.76517C30.7396 8.8002 30.7616 8.90669 30.7616 9.112H34.7616ZM33.8779 6.32278C33.1844 5.49588 32.2275 5.112 31.2256 5.112V9.112C31.2228 9.112 31.1515 9.11065 31.0477 9.0647C30.9393 9.01671 30.8593 8.94816 30.8132 8.89322L33.8779 6.32278ZM31.2256 5.112C30.8854 5.112 30.5185 5.14532 30.1502 5.24353L31.1809 9.10847C31.1547 9.11546 31.1439 9.11607 31.1527 9.11506C31.1613 9.11408 31.1848 9.112 31.2256 9.112V5.112ZM30.1161 5.25295C29.8385 5.33229 29.5704 5.43958 29.318 5.55836L31.0212 9.17764C31.1314 9.12575 31.194 9.10505 31.215 9.09905L30.1161 5.25295ZM28.1696 7.368V10.856H32.1696V7.368H28.1696ZM29.0958 12.5433C29.3766 12.722 29.6696 12.8509 29.9531 12.9454L31.218 9.15063C31.2009 9.14492 31.1955 9.14216 31.1997 9.14408C31.2039 9.14602 31.2195 9.15351 31.2433 9.16868L29.0958 12.5433ZM30.1005 12.9883C30.4783 13.0827 30.8597 13.112 31.2096 13.112V9.112C31.1437 9.112 31.0994 9.10908 31.0736 9.10644C31.0473 9.10373 31.0483 9.10213 31.0706 9.10771L30.1005 12.9883ZM43.9942 11.224L44.2909 13.2019L44.3298 13.196L44.3684 13.1887L43.9942 11.224ZM44.4902 11.064L45.5192 12.779L46.4902 12.1964V11.064H44.4902ZM44.4902 9.784H46.4902V7.6104L44.3241 7.79091L44.4902 9.784ZM43.3382 9.88L43.4807 11.8749L43.4925 11.8741L43.5043 11.8731L43.3382 9.88ZM42.6022 10.072L41.6309 8.32368L41.6309 8.32369L42.6022 10.072ZM42.5542 11.08L41.2443 12.5914L41.2977 12.6376L41.3542 12.68L42.5542 11.08ZM44.8422 5.16L44.3571 7.10031L44.3673 7.1028L44.8422 5.16ZM46.0582 5.704L44.8665 7.3102L44.8954 7.33167L44.9251 7.35208L46.0582 5.704ZM46.8422 6.616L45.0432 7.48981L45.0482 7.50015L45.0533 7.51043L46.8422 6.616ZM46.8742 12.184L45.3745 10.8607L45.369 10.867L46.8742 12.184ZM46.3302 12.632L45.3012 10.917L45.3012 10.917L46.3302 12.632ZM41.8662 13.096L41.4029 15.0416L41.4132 15.044L41.8662 13.096ZM40.6982 12.616L39.5888 14.2801L39.6013 14.2884L39.6139 14.2966L40.6982 12.616ZM39.9462 11.8L38.1689 12.7173L38.1805 12.7396L38.1926 12.7617L39.9462 11.8ZM40.3462 8.952L39.0063 7.46721L39.0063 7.46721L40.3462 8.952ZM42.3782 8.216L42.5864 10.2051L42.5907 10.2047L42.3782 8.216ZM44.4742 7.992L44.6867 9.98068L46.4742 9.78965V7.992H44.4742ZM44.0582 7.224L43.1355 8.99843L43.1773 9.02017L43.2201 9.03992L44.0582 7.224ZM41.7062 7.144L41.2723 5.19163L41.2723 5.19163L41.7062 7.144ZM40.6662 7.464L39.5278 9.10838L40.4238 9.72874L41.4309 9.31203L40.6662 7.464ZM40.3142 7.032L38.5067 7.88817L38.5158 7.9074L38.5253 7.92643L40.3142 7.032ZM40.3622 5.752L38.81 4.49081L38.8052 4.49669L38.8005 4.50261L40.3622 5.752ZM40.9862 5.32L40.2769 3.45L40.2416 3.46338L40.2069 3.47807L40.9862 5.32ZM42.0742 5.064L41.8261 3.07943L41.8199 3.08024L42.0742 5.064ZM43.4022 13.272C43.6994 13.272 43.9971 13.2459 44.2909 13.2019L43.6975 9.24613C43.5646 9.26607 43.4677 9.272 43.4022 9.272V13.272ZM44.3684 13.1887C44.6642 13.1323 45.1071 13.0262 45.5192 12.779L43.4612 9.34901C43.5234 9.31169 43.5743 9.28768 43.607 9.27358C43.6402 9.25925 43.6631 9.25151 43.6722 9.24858C43.688 9.24349 43.6743 9.24897 43.62 9.25932L44.3684 13.1887ZM46.4902 11.064V9.784H42.4902V11.064H46.4902ZM44.3241 7.79091L43.1721 7.88691L43.5043 11.8731L44.6563 11.7771L44.3241 7.79091ZM43.1957 7.88508C42.7059 7.92007 42.1528 8.03372 41.6309 8.32368L43.5735 11.8203C43.5019 11.8601 43.4506 11.8752 43.435 11.8792C43.42 11.8832 43.4324 11.8784 43.4807 11.8749L43.1957 7.88508ZM41.6309 8.32369C41.2829 8.51702 40.9294 8.81269 40.6712 9.24301C40.4112 9.67631 40.3142 10.1358 40.3142 10.552H44.3142C44.3142 10.7549 44.2652 11.0277 44.1012 11.301C43.939 11.5713 43.7295 11.7336 43.5735 11.8203L41.6309 8.32369ZM40.3142 10.552C40.3142 11.3403 40.6422 12.0695 41.2443 12.5914L43.864 9.56862C43.9806 9.66966 44.1049 9.81827 44.1949 10.0164C44.2848 10.2141 44.3142 10.403 44.3142 10.552H40.3142ZM41.3542 12.68C42.0604 13.2097 42.8942 13.272 43.4022 13.272V9.272C43.304 9.272 43.2909 9.26319 43.3358 9.27337C43.3763 9.28253 43.5488 9.32598 43.7542 9.48L41.3542 12.68ZM43.2742 6.984C43.7167 6.984 44.0731 7.02929 44.3571 7.10028L45.3273 3.21972C44.6726 3.05604 43.9837 2.984 43.2742 2.984V6.984ZM44.3673 7.1028C44.6391 7.16923 44.7882 7.25213 44.8665 7.3102L47.2499 4.0978C46.6668 3.6652 46.0053 3.38544 45.3171 3.2172L44.3673 7.1028ZM44.9251 7.35208C44.9806 7.39023 45.0128 7.4272 45.0432 7.48981L48.6412 5.74219C48.3089 5.05813 47.8184 4.4871 47.1912 4.05592L44.9251 7.35208ZM45.0533 7.51043C45.0669 7.53748 45.1142 7.64919 45.1142 7.912H49.1142C49.1142 7.17214 48.9802 6.41986 48.631 5.72157L45.0533 7.51043ZM45.1142 7.912V11.496H49.1142V7.912H45.1142ZM45.1142 11.496C45.1142 11.4417 45.1223 11.3421 45.1658 11.2173C45.2107 11.0884 45.2824 10.9652 45.3745 10.8608L48.3739 13.5072C48.9034 12.9071 49.1142 12.1844 49.1142 11.496H45.1142ZM45.369 10.867C45.3685 10.8676 45.3645 10.8721 45.3548 10.8801C45.3449 10.8883 45.3279 10.901 45.3012 10.917L47.3592 14.347C47.7338 14.1222 48.0803 13.8427 48.3793 13.501L45.369 10.867ZM45.3012 10.917C45.046 11.0701 44.4831 11.256 43.4022 11.256V15.256C44.8386 15.256 46.2277 15.0259 47.3592 14.347L45.3012 10.917ZM43.4022 11.256C42.96 11.256 42.6033 11.214 42.3192 11.148L41.4132 15.044C42.0465 15.1913 42.7137 15.256 43.4022 15.256V11.256ZM42.3294 11.1504C42.0652 11.0875 41.8933 11.0069 41.7824 10.9354L39.6139 14.2966C40.1644 14.6518 40.7712 14.8912 41.4029 15.0416L42.3294 11.1504ZM41.8076 10.9519C41.7503 10.9137 41.723 10.8806 41.6998 10.8383L38.1926 12.7617C38.5321 13.3807 39.0061 13.8916 39.5888 14.2801L41.8076 10.9519ZM41.7234 10.8827C41.7228 10.8814 41.6902 10.822 41.6902 10.648H37.6902C37.6902 11.3486 37.8283 12.0572 38.1689 12.7173L41.7234 10.8827ZM41.6902 10.648C41.6902 10.4754 41.716 10.4026 41.7195 10.3935C41.7211 10.3895 41.7188 10.3961 41.7105 10.4084C41.702 10.4208 41.6927 10.4308 41.6861 10.4368L39.0063 7.46721C38.048 8.33202 37.6902 9.49759 37.6902 10.648H41.6902ZM41.6861 10.4368C41.6752 10.4466 41.7151 10.4061 41.8633 10.3524C42.0137 10.298 42.2466 10.2407 42.5864 10.2051L42.17 6.22686C41.0534 6.34372 39.8907 6.66906 39.0063 7.46721L41.6861 10.4368ZM42.5907 10.2047L44.6867 9.98068L44.2617 6.00332L42.1657 6.22732L42.5907 10.2047ZM46.4742 7.992V7.88H42.4742V7.992H46.4742ZM46.4742 7.88C46.4742 7.4207 46.3683 6.90026 46.0592 6.41292C45.7491 5.92395 45.3205 5.60387 44.8963 5.40808L43.2201 9.03992C43.0732 8.97213 42.8526 8.82538 42.6812 8.55508C42.5108 8.2864 42.4742 8.02997 42.4742 7.88H46.4742ZM44.9809 5.44957C44.2947 5.09275 43.5265 5.016 42.8902 5.016V9.016C43.0609 9.016 43.1646 9.02795 43.2155 9.03702C43.2699 9.04669 43.2283 9.04672 43.1355 8.99843L44.9809 5.44957ZM42.8902 5.016C42.3434 5.016 41.8031 5.07369 41.2723 5.19163L42.14 9.09637C42.3773 9.04365 42.6263 9.016 42.8902 9.016V5.016ZM41.2723 5.19163C40.7943 5.29786 40.3345 5.43679 39.9015 5.61597L41.4309 9.31203C41.6165 9.23521 41.8501 9.16081 42.14 9.09637L41.2723 5.19163ZM41.8046 5.81962C42.0077 5.96024 42.0888 6.10911 42.103 6.13757L38.5253 7.92643C38.7316 8.33889 39.0473 8.77576 39.5278 9.10838L41.8046 5.81962ZM42.1217 6.17583C42.1321 6.19796 42.145 6.23122 42.155 6.27428C42.165 6.31767 42.1702 6.36321 42.1702 6.408H38.1702C38.1702 6.9326 38.2906 7.43192 38.5067 7.88817L42.1217 6.17583ZM42.1702 6.408C42.1702 6.42496 42.1655 6.69937 41.9239 7.00139L38.8005 4.50261C38.3028 5.12463 38.1702 5.83637 38.1702 6.408H42.1702ZM41.9144 7.01319C41.8483 7.09459 41.7891 7.14065 41.7606 7.16038C41.7331 7.17943 41.7299 7.17698 41.7655 7.16193L40.2069 3.47807C39.7342 3.67807 39.2169 3.98995 38.81 4.49081L41.9144 7.01319ZM41.6955 7.18999C41.8252 7.14078 42.0288 7.08619 42.3285 7.04776L41.8199 3.08024C41.2876 3.14848 40.7658 3.26455 40.2769 3.45L41.6955 7.18999ZM42.3223 7.04856C42.6787 7.004 42.9951 6.984 43.2742 6.984V2.984C42.8066 2.984 42.323 3.01733 41.8261 3.07944L42.3223 7.04856ZM57.6284 12.584L58.8329 14.1806L58.8329 14.1806L57.6284 12.584ZM53.6924 13.176L54.0212 11.2032L54.0212 11.2032L53.6924 13.176ZM52.7004 12.888L51.7777 14.6624L51.8195 14.6842L51.8623 14.7039L52.7004 12.888ZM52.0604 12.376L50.4503 13.5624L50.4701 13.5892L50.4907 13.6153L52.0604 12.376ZM51.9964 11.016L53.6924 12.076L53.7067 12.0532L53.7203 12.03L51.9964 11.016ZM52.3804 10.568L53.3466 8.81684L52.1866 8.17683L51.1448 8.99536L52.3804 10.568ZM53.4364 11.032L52.7735 12.9189L52.8037 12.9295L52.8342 12.9392L53.4364 11.032ZM55.5804 11.08L54.6447 9.31242L54.6221 9.32435L54.5999 9.33685L55.5804 11.08ZM55.0204 10.136L54.6282 12.0972L54.6485 12.1012L54.6689 12.1049L55.0204 10.136ZM54.5404 10.04L54.9327 8.07882L54.924 8.07712L54.5404 10.04ZM52.4604 9.192L51.1384 10.6927L51.1573 10.7094L51.1766 10.7255L52.4604 9.192ZM52.0444 6.44L50.2797 5.49882L50.2797 5.49882L52.0444 6.44ZM52.7644 5.64L53.8999 7.28643L53.8999 7.28643L52.7644 5.64ZM53.8684 5.144L53.3502 3.21228L53.3381 3.21559L53.8684 5.144ZM56.4124 5.064L56.0439 7.02974L56.0782 7.03619L56.1128 7.04143L56.4124 5.064ZM57.3244 5.32L56.4911 7.13813L56.4911 7.13813L57.3244 5.32ZM57.9324 5.784L56.3537 7.01188L56.3709 7.03389L56.3886 7.05541L57.9324 5.784ZM58.0124 7.08L56.2449 6.14423L56.234 6.16478L56.2236 6.18557L58.0124 7.08ZM57.6764 7.512L56.6164 9.208L57.8541 9.98155L58.9683 9.03877L57.6764 7.512ZM57.2924 7.352L56.5902 9.22466L56.6425 9.24429L56.6959 9.26096L57.2924 7.352ZM56.7324 7.192L56.2234 9.12615L56.2716 9.13883L56.3204 9.1491L56.7324 7.192ZM56.1084 7.064L55.7965 9.03953L55.8041 9.04073L55.8118 9.04187L56.1084 7.064ZM54.7324 7.144L55.4573 9.00801L55.5015 8.99085L55.5447 8.97162L54.7324 7.144ZM54.6044 7.8L53.4575 9.43846L53.4575 9.43846L54.6044 7.8ZM55.2124 8.008L55.653 6.05712L55.6422 6.0547L55.6315 6.0524L55.2124 8.008ZM55.7084 8.12L56.1552 6.17053L56.149 6.16912L55.7084 8.12ZM57.8844 9.096L56.4882 10.528L56.5064 10.5457L56.5249 10.5629L57.8844 9.096ZM56.5404 10.68C56.5404 10.8317 56.5132 10.8905 56.5087 10.9C56.5061 10.9054 56.494 10.9346 56.424 10.9874L58.8329 14.1806C59.9783 13.3166 60.5404 12.0712 60.5404 10.68H56.5404ZM56.424 10.9874C56.3081 11.0748 55.9158 11.272 54.9404 11.272V15.272C56.3331 15.272 57.7328 15.0106 58.8329 14.1806L56.424 10.9874ZM54.9404 11.272C54.5865 11.272 54.2818 11.2466 54.0212 11.2032L53.3636 15.1488C53.8711 15.2334 54.3983 15.272 54.9404 15.272V11.272ZM54.0212 11.2032C53.7676 11.1609 53.6166 11.1081 53.5386 11.0721L51.8623 14.7039C52.3389 14.9239 52.8493 15.0631 53.3636 15.1488L54.0212 11.2032ZM53.6231 11.1136C53.594 11.0984 53.5852 11.0906 53.5898 11.0943C53.5921 11.0961 53.5974 11.1005 53.6047 11.1078C53.612 11.1151 53.6207 11.1247 53.6302 11.1367L50.4907 13.6153C50.8525 14.0736 51.3008 14.4144 51.7777 14.6624L53.6231 11.1136ZM53.6705 11.1896C53.7278 11.2673 53.7732 11.3568 53.8022 11.4499C53.8305 11.541 53.8364 11.6138 53.8364 11.656H49.8364C49.8364 12.3146 50.0219 12.981 50.4503 13.5624L53.6705 11.1896ZM53.8364 11.656C53.8364 11.6739 53.8319 11.8529 53.6924 12.076L50.3004 9.956C49.9477 10.5204 49.8364 11.1261 49.8364 11.656H53.8364ZM53.7203 12.03C53.7141 12.0406 53.683 12.0881 53.6161 12.1406L51.1448 8.99536C50.7792 9.28258 50.4921 9.62876 50.2726 10.002L53.7203 12.03ZM51.4143 12.3192C51.8365 12.5521 52.2926 12.75 52.7735 12.9189L54.0994 9.14508C53.7909 9.03669 53.543 8.92523 53.3466 8.81684L51.4143 12.3192ZM52.8342 12.9392C53.4731 13.1409 54.1465 13.224 54.8284 13.224V9.224C54.4651 9.224 54.2105 9.17908 54.0387 9.12483L52.8342 12.9392ZM54.8284 13.224C55.2944 13.224 55.9507 13.1664 56.561 12.8232L54.5999 9.33685C54.75 9.25242 54.8623 9.22867 54.8883 9.22369C54.917 9.21819 54.9024 9.224 54.8284 9.224V13.224ZM56.5162 12.8476C57.1353 12.5198 57.8524 11.8137 57.8524 10.696H53.8524C53.8524 10.3707 53.9533 10.0371 54.1524 9.75597C54.335 9.49809 54.5407 9.36748 54.6447 9.31242L56.5162 12.8476ZM57.8524 10.696C57.8524 9.85409 57.4341 9.12273 56.7698 8.6799L54.551 12.0081C54.3865 11.8984 54.1937 11.7196 54.0486 11.4537C53.9023 11.1854 53.8524 10.916 53.8524 10.696H57.8524ZM56.7698 8.6799C56.2838 8.35588 55.7292 8.23093 55.372 8.16714L54.6689 12.1049C54.7571 12.1206 54.7911 12.1316 54.7863 12.1301C54.7823 12.1288 54.7595 12.1212 54.723 12.1047C54.6873 12.0886 54.6262 12.0582 54.551 12.0081L56.7698 8.6799ZM55.4127 8.17484L54.9327 8.07884L54.1482 12.0012L54.6282 12.0972L55.4127 8.17484ZM54.924 8.07712C54.1536 7.9266 53.8355 7.73487 53.7443 7.65848L51.1766 10.7255C52.0027 11.4171 53.0712 11.7907 54.1569 12.0029L54.924 8.07712ZM53.7825 7.69128C53.7856 7.69403 53.7935 7.70181 53.8019 7.71379C53.8103 7.72569 53.8136 7.73374 53.8134 7.73322C53.8129 7.73206 53.7884 7.67054 53.7884 7.512H49.7884C49.7884 8.67739 50.1679 9.83779 51.1384 10.6927L53.7825 7.69128ZM53.7884 7.512C53.7884 7.41597 53.8063 7.38644 53.8091 7.38118L50.2797 5.49882C49.9412 6.13356 49.7884 6.8187 49.7884 7.512H53.7884ZM53.8091 7.38118C53.8239 7.35351 53.8438 7.3251 53.8999 7.28643L51.629 3.99357C51.0664 4.38156 50.6063 4.88649 50.2797 5.49882L53.8091 7.38118ZM53.8999 7.28643C53.9953 7.22066 54.1507 7.14062 54.3988 7.07241L53.3381 3.21559C52.7328 3.38204 52.1523 3.63267 51.629 3.99357L53.8999 7.28643ZM54.3867 7.07569C54.6314 7.01004 54.9345 6.968 55.3084 6.968V2.968C54.6371 2.968 53.9802 3.04329 53.3502 3.21231L54.3867 7.07569ZM55.3084 6.968C55.5959 6.968 55.8392 6.99137 56.0439 7.02974L56.781 3.09826C56.303 3.00863 55.8104 2.968 55.3084 2.968V6.968ZM56.1128 7.04143C56.3266 7.07382 56.4425 7.11586 56.4911 7.13813L58.1577 3.50187C57.6943 3.28947 57.2023 3.16085 56.712 3.08657L56.1128 7.04143ZM56.4911 7.13813C56.4982 7.14139 56.4831 7.13529 56.4551 7.1139C56.4262 7.09182 56.3897 7.05817 56.3537 7.01188L59.5111 4.55612C59.1354 4.07296 58.6598 3.73196 58.1577 3.50187L56.4911 7.13813ZM56.3886 7.05541C56.3129 6.96353 56.2495 6.85245 56.2077 6.73029C56.1668 6.61037 56.1564 6.5083 56.1564 6.44H60.1564C60.1564 5.76472 59.9477 5.08498 59.4763 4.51259L56.3886 7.05541ZM56.1564 6.44C56.1564 6.42265 56.161 6.30255 56.2449 6.14423L59.78 8.01577C60.0558 7.49479 60.1564 6.94802 60.1564 6.44H56.1564ZM56.2236 6.18557C56.2532 6.12643 56.3061 6.05162 56.3846 5.98523L58.9683 9.03877C59.3241 8.73771 59.6011 8.3749 59.8013 7.97443L56.2236 6.18557ZM58.7364 5.816C58.4359 5.62814 58.1175 5.51444 57.889 5.44304L56.6959 9.26096C56.7385 9.27427 56.7532 9.28065 56.7472 9.27815C56.7435 9.27659 56.7304 9.27103 56.71 9.26085C56.6901 9.25088 56.6575 9.23367 56.6164 9.208L58.7364 5.816ZM57.9947 5.47934C57.7178 5.37552 57.4328 5.2956 57.1445 5.2349L56.3204 9.1491C56.4374 9.17373 56.5257 9.20048 56.5902 9.22466L57.9947 5.47934ZM57.2414 5.25785C56.9668 5.18559 56.6879 5.12854 56.4051 5.08613L55.8118 9.04187C55.9557 9.06346 56.0927 9.09175 56.2234 9.12615L57.2414 5.25785ZM56.4204 5.08847C56.1344 5.04333 55.8419 5.016 55.5484 5.016V9.016C55.5963 9.016 55.6771 9.02067 55.7965 9.03953L56.4204 5.08847ZM55.5484 5.016C55.0808 5.016 54.4843 5.06564 53.9202 5.31638L55.5447 8.97162C55.4899 8.99598 55.4476 9.00927 55.4233 9.01599C55.3988 9.02275 55.3868 9.0244 55.3904 9.02384C55.3938 9.02331 55.4083 9.02122 55.4359 9.01934C55.4632 9.01747 55.5004 9.016 55.5484 9.016V5.016ZM54.0075 5.27999C53.6816 5.40675 53.2713 5.63782 52.9414 6.05938C52.5913 6.50674 52.4444 7.02526 52.4444 7.512H56.4444C56.4444 7.82807 56.3456 8.19993 56.0914 8.52462C55.8575 8.82351 55.5913 8.95592 55.4573 9.00801L54.0075 5.27999ZM52.4444 7.512C52.4444 8.3612 52.8846 9.0374 53.4575 9.43846L55.7514 6.16154C55.9008 6.26611 56.0872 6.43878 56.2328 6.70071C56.3824 6.97013 56.4444 7.25478 56.4444 7.512H52.4444ZM53.4575 9.43846C53.9278 9.76767 54.4927 9.89918 54.7934 9.9636L55.6315 6.0524C55.5833 6.04206 55.5468 6.03318 55.5205 6.02619C55.4937 6.01907 55.4825 6.01523 55.4838 6.01567C55.484 6.01574 55.5073 6.0236 55.5465 6.04184C55.5832 6.05891 55.6583 6.09636 55.7514 6.16154L53.4575 9.43846ZM54.7719 9.95888L55.2679 10.0709L56.149 6.16912L55.653 6.05712L54.7719 9.95888ZM55.2617 10.0695C55.6841 10.1663 55.9898 10.2697 56.2019 10.3648C56.4177 10.4616 56.4886 10.5284 56.4882 10.528L59.2806 7.664C58.4588 6.86274 57.2997 6.43282 56.1552 6.17054L55.2617 10.0695ZM56.5249 10.5629C56.5358 10.5729 56.5376 10.5765 56.5352 10.5731C56.5326 10.5694 56.53 10.5646 56.5286 10.5613C56.5245 10.5513 56.5404 10.5811 56.5404 10.68H60.5404C60.5404 9.52915 60.1294 8.4498 59.244 7.62914L56.5249 10.5629ZM64.4954 7.352L63.1722 8.85167L63.2187 8.89267L63.2676 8.9307L64.4954 7.352ZM63.1034 7.192L62.6184 5.25172L62.6064 5.25471L62.5945 5.25785L63.1034 7.192ZM62.5754 7.432L61.413 5.80453L60.5754 6.40276V7.432H62.5754ZM62.5754 12.984L63.1501 14.8997L64.5754 14.4721V12.984H62.5754ZM62.0634 13.08L61.7932 11.0983L61.7806 11.1001L62.0634 13.08ZM60.7194 13.08L60.3719 15.0496L60.3812 15.0512L60.3906 15.0528L60.7194 13.08ZM60.2554 12.888L61.4554 11.288L61.4554 11.288L60.2554 12.888ZM59.9514 12.504L58.0788 13.2062L58.1061 13.2792L58.1391 13.3498L59.9514 12.504ZM60.0314 6.344L58.3975 5.19063L58.3742 5.22361L58.3523 5.2575L60.0314 6.344ZM60.5434 5.848L61.6904 7.48648L61.6968 7.48194L60.5434 5.848ZM61.9034 5.224L61.3491 3.30233L61.3391 3.30527L61.9034 5.224ZM66.5274 5.784L65.2596 7.33078L65.2672 7.33705L65.2749 7.34324L66.5274 5.784ZM67.5034 12.984L68.0781 14.8997L69.5034 14.4721V12.984H67.5034ZM66.9914 13.08L66.7212 11.0983L66.7086 11.1001L66.9914 13.08ZM65.6474 13.08L65.2999 15.0496L65.3092 15.0512L65.3186 15.0528L65.6474 13.08ZM65.1834 12.888L63.9834 14.488L65.1834 12.888ZM64.8794 12.504L63.0068 13.2062L63.0341 13.2792L63.0671 13.3498L64.8794 12.504ZM66.7834 8.072C66.7834 7.36149 66.5634 6.42665 65.7233 5.7733L63.2676 8.9307C63.0657 8.77372 62.9297 8.57485 62.8545 8.38678C62.7857 8.21471 62.7834 8.09313 62.7834 8.072H66.7834ZM65.8187 5.85233C65.1675 5.27771 64.3906 5.112 63.7434 5.112V9.112C63.7363 9.112 63.4608 9.10629 63.1722 8.85167L65.8187 5.85233ZM63.7434 5.112C63.3616 5.112 62.9854 5.15995 62.6184 5.25172L63.5885 9.13228C63.6481 9.11739 63.6986 9.112 63.7434 9.112V5.112ZM62.5945 5.25785C62.1901 5.36426 61.7857 5.53832 61.413 5.80453L63.7379 9.05947C63.6639 9.11234 63.6114 9.12641 63.6124 9.12615L62.5945 5.25785ZM60.5754 7.432V12.984H64.5754V7.432H60.5754ZM62.0007 11.0683C62.0248 11.0611 62.0373 11.0584 62.0337 11.0592C62.0311 11.0598 62.02 11.0623 61.9989 11.0663C61.9555 11.0744 61.8886 11.0853 61.7932 11.0983L62.3337 15.0617C62.5834 15.0276 62.8847 14.9793 63.1501 14.8997L62.0007 11.0683ZM61.7806 11.1001C61.6577 11.1177 61.518 11.128 61.3594 11.128V15.128C61.6916 15.128 62.0211 15.1063 62.3463 15.0599L61.7806 11.1001ZM61.3594 11.128C61.2133 11.128 61.1122 11.1179 61.0482 11.1072L60.3906 15.0528C60.7107 15.1061 61.0362 15.128 61.3594 15.128V11.128ZM61.067 11.1104C61.1481 11.1247 61.2968 11.169 61.4554 11.288L59.0554 14.488C59.4701 14.799 59.9281 14.9713 60.3719 15.0496L61.067 11.1104ZM61.4554 11.288C61.6169 11.4091 61.7141 11.5518 61.7638 11.6582L58.1391 13.3498C58.3381 13.7762 58.638 14.1749 59.0554 14.488L61.4554 11.288ZM61.8241 11.8018C61.838 11.839 61.8464 11.8685 61.8513 11.8882C61.8561 11.9079 61.858 11.9198 61.8584 11.9224C61.8589 11.9262 61.8554 11.9035 61.8554 11.848H57.8554C57.8554 12.2535 57.9012 12.7327 58.0788 13.2062L61.8241 11.8018ZM61.8554 11.848V7.048H57.8554V11.848H61.8554ZM61.8554 7.048C61.8554 7.01992 61.8618 7.19677 61.7106 7.4305L58.3523 5.2575C57.9664 5.8539 57.8554 6.50008 57.8554 7.048H61.8554ZM61.6654 7.49737C61.6394 7.53415 61.6341 7.52586 61.6904 7.48646L59.3965 4.20954C59.0261 4.46881 58.6795 4.79119 58.3975 5.19063L61.6654 7.49737ZM61.6968 7.48194C61.8382 7.38211 62.0789 7.25711 62.4678 7.14273L61.3391 3.30527C60.64 3.51089 59.974 3.80189 59.3901 4.21406L61.6968 7.48194ZM62.4578 7.14565C62.8056 7.04532 63.229 6.984 63.7434 6.984V2.984C62.9139 2.984 62.1106 3.08268 61.3491 3.30235L62.4578 7.14565ZM63.7434 6.984C64.6821 6.984 65.0931 7.1943 65.2596 7.33078L67.7953 4.23722C66.6605 3.30703 65.2154 2.984 63.7434 2.984V6.984ZM65.2749 7.34324C65.3901 7.43573 65.5034 7.55789 65.5034 7.976H69.5034C69.5034 6.51678 68.9661 5.1776 67.7799 4.22476L65.2749 7.34324ZM65.5034 7.976V12.984H69.5034V7.976H65.5034ZM66.9287 11.0683C66.9528 11.0611 66.9653 11.0584 66.9617 11.0592C66.9591 11.0598 66.948 11.0623 66.9269 11.0663C66.8835 11.0744 66.8166 11.0853 66.7212 11.0983L67.2617 15.0617C67.5114 15.0276 67.8127 14.9793 68.0781 14.8997L66.9287 11.0683ZM66.7086 11.1001C66.5857 11.1177 66.446 11.128 66.2874 11.128V15.128C66.6196 15.128 66.9491 15.1063 67.2743 15.0599L66.7086 11.1001ZM66.2874 11.128C66.1413 11.128 66.0402 11.1179 65.9762 11.1072L65.3186 15.0528C65.6387 15.1061 65.9642 15.128 66.2874 15.128V11.128ZM65.995 11.1104C66.0761 11.1247 66.2248 11.169 66.3834 11.288L63.9834 14.488C64.3981 14.799 64.8561 14.9713 65.2999 15.0496L65.995 11.1104ZM66.3834 11.288C66.5449 11.4091 66.6421 11.5518 66.6918 11.6582L63.0671 13.3498C63.2661 13.7762 63.566 14.1749 63.9834 14.488L66.3834 11.288ZM66.7521 11.8018C66.766 11.839 66.7744 11.8685 66.7793 11.8882C66.7841 11.9079 66.786 11.9198 66.7864 11.9224C66.7869 11.9262 66.7834 11.9035 66.7834 11.848H62.7834C62.7834 12.2535 62.8292 12.7327 63.0068 13.2062L66.7521 11.8018ZM66.7834 11.848V8.072H62.7834V11.848H66.7834ZM73.1036 11.224L73.4002 13.2019L73.4391 13.196L73.4778 13.1887L73.1036 11.224ZM73.5996 11.064L74.6286 12.779L75.5996 12.1964V11.064H73.5996ZM73.5996 9.784H75.5996V7.6104L73.4335 7.79091L73.5996 9.784ZM72.4476 9.88L72.5901 11.8749L72.6019 11.8741L72.6137 11.8731L72.4476 9.88ZM71.7116 10.072L70.7403 8.32368L70.7403 8.32369L71.7116 10.072ZM71.6636 11.08L70.3537 12.5914L70.4071 12.6376L70.4636 12.68L71.6636 11.08ZM73.9516 5.16L73.4665 7.10031L73.4767 7.1028L73.9516 5.16ZM75.1676 5.704L73.9759 7.3102L74.0048 7.33167L74.0345 7.35208L75.1676 5.704ZM75.9516 6.616L74.1525 7.48981L74.1576 7.50015L74.1627 7.51043L75.9516 6.616ZM75.9836 12.184L74.4839 10.8607L74.4784 10.867L75.9836 12.184ZM75.4396 12.632L74.4106 10.917L74.4106 10.917L75.4396 12.632ZM70.9756 13.096L70.5123 15.0416L70.5225 15.044L70.9756 13.096ZM69.8076 12.616L68.6982 14.2801L68.7107 14.2884L68.7233 14.2966L69.8076 12.616ZM69.0556 11.8L67.2783 12.7173L67.2899 12.7396L67.3019 12.7617L69.0556 11.8ZM69.4556 8.952L68.1156 7.46721L68.1156 7.46721L69.4556 8.952ZM71.4876 8.216L71.6957 10.2051L71.7001 10.2047L71.4876 8.216ZM73.5836 7.992L73.7961 9.98068L75.5836 9.78965V7.992H73.5836ZM73.1676 7.224L72.2449 8.99843L72.2867 9.02017L72.3294 9.03992L73.1676 7.224ZM70.8156 7.144L70.3817 5.19163L70.3817 5.19163L70.8156 7.144ZM69.7756 7.464L68.6371 9.10838L69.5332 9.72874L70.5403 9.31203L69.7756 7.464ZM69.4236 7.032L67.6161 7.88817L67.6252 7.9074L67.6347 7.92643L69.4236 7.032ZM69.4716 5.752L67.9193 4.49081L67.9146 4.49669L67.9098 4.50261L69.4716 5.752ZM70.0956 5.32L69.3863 3.45L69.351 3.46338L69.3163 3.47807L70.0956 5.32ZM71.1836 5.064L70.9355 3.07943L70.9292 3.08024L71.1836 5.064ZM72.5116 13.272C72.8087 13.272 73.1065 13.2459 73.4002 13.2019L72.8069 9.24613C72.6739 9.26607 72.5771 9.272 72.5116 9.272V13.272ZM73.4778 13.1887C73.7736 13.1323 74.2165 13.0262 74.6286 12.779L72.5706 9.34901C72.6328 9.31169 72.6837 9.28768 72.7164 9.27358C72.7496 9.25925 72.7725 9.25151 72.7816 9.24858C72.7973 9.24349 72.7837 9.24897 72.7293 9.25932L73.4778 13.1887ZM75.5996 11.064V9.784H71.5996V11.064H75.5996ZM73.4335 7.79091L72.2815 7.88691L72.6137 11.8731L73.7657 11.7771L73.4335 7.79091ZM72.3051 7.88508C71.8152 7.92007 71.2622 8.03372 70.7403 8.32368L72.6828 11.8203C72.6113 11.8601 72.56 11.8752 72.5444 11.8792C72.5294 11.8832 72.5418 11.8784 72.5901 11.8749L72.3051 7.88508ZM70.7403 8.32369C70.3923 8.51702 70.0388 8.81269 69.7806 9.24301C69.5206 9.67631 69.4236 10.1358 69.4236 10.552H73.4236C73.4236 10.7549 73.3745 11.0277 73.2105 11.301C73.0484 11.5713 72.8389 11.7336 72.6828 11.8203L70.7403 8.32369ZM69.4236 10.552C69.4236 11.3403 69.7516 12.0695 70.3537 12.5914L72.9734 9.56862C73.09 9.66966 73.2142 9.81827 73.3043 10.0164C73.3942 10.2141 73.4236 10.403 73.4236 10.552H69.4236ZM70.4636 12.68C71.1698 13.2097 72.0036 13.272 72.5116 13.272V9.272C72.4134 9.272 72.4002 9.26319 72.4452 9.27337C72.4857 9.28253 72.6582 9.32598 72.8636 9.48L70.4636 12.68ZM72.3836 6.984C72.8261 6.984 73.1825 7.02929 73.4665 7.10028L74.4366 3.21972C73.782 3.05604 73.0931 2.984 72.3836 2.984V6.984ZM73.4767 7.1028C73.7484 7.16923 73.8976 7.25213 73.9759 7.3102L76.3593 4.0978C75.7762 3.6652 75.1147 3.38544 74.4265 3.2172L73.4767 7.1028ZM74.0345 7.35208C74.09 7.39023 74.1221 7.4272 74.1525 7.48981L77.7506 5.74219C77.4183 5.05813 76.9278 4.4871 76.3006 4.05592L74.0345 7.35208ZM74.1627 7.51043C74.1762 7.53748 74.2236 7.64919 74.2236 7.912H78.2236C78.2236 7.17214 78.0896 6.41986 77.7404 5.72157L74.1627 7.51043ZM74.2236 7.912V11.496H78.2236V7.912H74.2236ZM74.2236 11.496C74.2236 11.4417 74.2316 11.3421 74.2752 11.2173C74.3201 11.0884 74.3917 10.9652 74.4839 10.8608L77.4832 13.5072C78.0127 12.9071 78.2236 12.1844 78.2236 11.496H74.2236ZM74.4784 10.867C74.4779 10.8676 74.4739 10.8721 74.4641 10.8801C74.4543 10.8883 74.4373 10.901 74.4106 10.917L76.4686 14.347C76.8431 14.1222 77.1897 13.8427 77.4887 13.501L74.4784 10.867ZM74.4106 10.917C74.1554 11.0701 73.5924 11.256 72.5116 11.256V15.256C73.948 15.256 75.3371 15.0259 76.4686 14.347L74.4106 10.917ZM72.5116 11.256C72.0694 11.256 71.7126 11.214 71.4286 11.148L70.5225 15.044C71.1558 15.1913 71.8231 15.256 72.5116 15.256V11.256ZM71.4388 11.1504C71.1746 11.0875 71.0026 11.0069 70.8918 10.9354L68.7233 14.2966C69.2738 14.6518 69.8805 14.8912 70.5123 15.0416L71.4388 11.1504ZM70.917 10.9519C70.8597 10.9137 70.8324 10.8806 70.8092 10.8383L67.3019 12.7617C67.6414 13.3807 68.1155 13.8916 68.6982 14.2801L70.917 10.9519ZM70.8328 10.8827C70.8321 10.8814 70.7996 10.822 70.7996 10.648H66.7996C66.7996 11.3486 66.9376 12.0572 67.2783 12.7173L70.8328 10.8827ZM70.7996 10.648C70.7996 10.4754 70.8254 10.4026 70.8289 10.3935C70.8305 10.3895 70.8282 10.3961 70.8199 10.4084C70.8113 10.4208 70.8021 10.4308 70.7955 10.4368L68.1156 7.46721C67.1573 8.33202 66.7996 9.49759 66.7996 10.648H70.7996ZM70.7955 10.4368C70.7846 10.4466 70.8245 10.4061 70.9727 10.3524C71.1231 10.298 71.3559 10.2407 71.6957 10.2051L71.2794 6.22686C70.1628 6.34372 69.0001 6.66906 68.1156 7.46721L70.7955 10.4368ZM71.7001 10.2047L73.7961 9.98068L73.371 6.00332L71.275 6.22732L71.7001 10.2047ZM75.5836 7.992V7.88H71.5836V7.992H75.5836ZM75.5836 7.88C75.5836 7.4207 75.4776 6.90026 75.1686 6.41292C74.8585 5.92395 74.4299 5.60387 74.0057 5.40808L72.3294 9.03992C72.1826 8.97213 71.962 8.82538 71.7905 8.55508C71.6202 8.2864 71.5836 8.02997 71.5836 7.88H75.5836ZM74.0903 5.44957C73.4041 5.09275 72.6359 5.016 71.9996 5.016V9.016C72.1703 9.016 72.274 9.02795 72.3249 9.03702C72.3792 9.04669 72.3377 9.04672 72.2449 8.99843L74.0903 5.44957ZM71.9996 5.016C71.4527 5.016 70.9124 5.07369 70.3817 5.19163L71.2494 9.09637C71.4867 9.04365 71.7357 9.016 71.9996 9.016V5.016ZM70.3817 5.19163C69.9036 5.29786 69.4439 5.43679 69.0109 5.61597L70.5403 9.31203C70.7259 9.23521 70.9595 9.16081 71.2494 9.09637L70.3817 5.19163ZM70.914 5.81962C71.1171 5.96024 71.1982 6.10911 71.2124 6.13757L67.6347 7.92643C67.8409 8.33889 68.1567 8.77576 68.6371 9.10838L70.914 5.81962ZM71.231 6.17583C71.2415 6.19796 71.2544 6.23122 71.2643 6.27428C71.2744 6.31767 71.2796 6.36321 71.2796 6.408H67.2796C67.2796 6.9326 67.4 7.43192 67.6161 7.88817L71.231 6.17583ZM71.2796 6.408C71.2796 6.42496 71.2749 6.69937 71.0333 7.00139L67.9098 4.50261C67.4122 5.12463 67.2796 5.83637 67.2796 6.408H71.2796ZM71.0238 7.01319C70.9576 7.09459 70.8985 7.14065 70.87 7.16038C70.8425 7.17943 70.8393 7.17698 70.8748 7.16193L69.3163 3.47807C68.8436 3.67807 68.3263 3.98995 67.9193 4.49081L71.0238 7.01319ZM70.8049 7.18999C70.9346 7.14078 71.1382 7.08619 71.4379 7.04776L70.9292 3.08024C70.3969 3.14848 69.8752 3.26455 69.3863 3.45L70.8049 7.18999ZM71.4316 7.04856C71.7881 7.004 72.1045 6.984 72.3836 6.984V2.984C71.916 2.984 71.4324 3.01733 70.9355 3.07944L71.4316 7.04856ZM81.5027 7.256L80.8456 5.36701L80.8324 5.37162L80.8192 5.37641L81.5027 7.256ZM80.8787 7.64L82.2466 9.09908L82.2494 9.0964L80.8787 7.64ZM80.4627 8.248L82.2968 9.04545L82.2968 9.04545L80.4627 8.248ZM80.8627 10.6L79.5366 12.0972L79.5471 12.1064L79.5576 12.1155L80.8627 10.6ZM83.0867 10.984L82.4803 9.07815L82.4803 9.07815L83.0867 10.984ZM83.7107 10.744L84.8576 9.10554L83.908 8.44078L82.8591 8.93436L83.7107 10.744ZM84.1907 11.24L82.4668 12.254L82.4804 12.2772L82.4947 12.3L84.1907 11.24ZM83.7267 12.888L84.7093 14.63L84.7261 14.6205L84.7427 14.6107L83.7267 12.888ZM80.1747 12.952L79.4765 14.8262L79.4927 14.8322L79.509 14.838L80.1747 12.952ZM78.7667 12.12L77.3934 13.574L77.4142 13.5936L77.4355 13.6126L78.7667 12.12ZM77.8707 10.824L79.711 10.0409L79.711 10.0409L77.8707 10.824ZM77.8867 7.32L76.0561 6.51452L76.0522 6.52332L76.0484 6.53216L77.8867 7.32ZM78.8307 6.008L80.139 7.52073L80.139 7.52073L78.8307 6.008ZM80.1907 5.24L79.5699 3.33875L79.5582 3.34263L80.1907 5.24ZM83.6147 5.4L82.5053 7.0641L82.5053 7.0641L83.6147 5.4ZM84.0947 7.048L85.8378 8.02852L85.8503 8.0063L85.8623 7.98377L84.0947 7.048ZM83.7587 7.496L82.9071 9.30564L84.179 9.90416L85.1729 8.91021L83.7587 7.496ZM83.1027 7.256L82.4702 9.15337L82.5062 9.16537L82.5427 9.176L83.1027 7.256ZM82.2707 5.128C81.7864 5.128 81.3079 5.20623 80.8456 5.36701L82.1597 9.14499C82.1882 9.1351 82.2217 9.128 82.2707 9.128V5.128ZM80.8192 5.37641C80.3298 5.55438 79.8878 5.82611 79.508 6.1836L82.2494 9.0964C82.2432 9.10228 82.2327 9.11079 82.2189 9.11932C82.205 9.12784 82.1932 9.13303 82.1862 9.13559L80.8192 5.37641ZM79.5108 6.18092C79.1147 6.55229 78.8284 6.99091 78.6285 7.45055L82.2968 9.04545C82.3041 9.02876 82.3056 9.02931 82.2973 9.04137C82.2887 9.05394 82.2723 9.07496 82.2466 9.09908L79.5108 6.18092ZM78.6285 7.45055C78.3899 7.99944 78.3027 8.5699 78.3027 9.112H82.3027C82.3027 8.99277 82.3221 8.98722 82.2968 9.04545L78.6285 7.45055ZM78.3027 9.112C78.3027 10.1488 78.6065 11.2734 79.5366 12.0972L82.1888 9.10282C82.2207 9.13116 82.2498 9.16433 82.2735 9.1993C82.2969 9.23381 82.3092 9.26147 82.3145 9.27555C82.324 9.30082 82.3027 9.25942 82.3027 9.112H78.3027ZM79.5576 12.1155C80.3325 12.7827 81.2698 13.096 82.2547 13.096V9.096C82.1877 9.096 82.1652 9.08632 82.17 9.08803C82.1711 9.08844 82.1735 9.08948 82.1755 9.09062C82.1773 9.09172 82.1748 9.09055 82.1677 9.08446L79.5576 12.1155ZM82.2547 13.096C82.7224 13.096 83.2137 13.0424 83.6931 12.8899L82.4803 9.07815C82.4903 9.07496 82.427 9.096 82.2547 9.096V13.096ZM83.6931 12.8899C83.9934 12.7943 84.2859 12.6837 84.5623 12.5536L82.8591 8.93436C82.7728 8.97496 82.6493 9.02436 82.4803 9.07815L83.6931 12.8899ZM82.5638 12.3825C82.5967 12.4055 82.5358 12.3713 82.4668 12.254L85.9146 10.226C85.6323 9.74608 85.2514 9.38118 84.8576 9.10554L82.5638 12.3825ZM82.4947 12.3C82.3631 12.0895 82.3507 11.9111 82.3507 11.864H86.3507C86.3507 11.3262 86.2316 10.7318 85.8867 10.18L82.4947 12.3ZM82.3507 11.864C82.3507 11.7512 82.382 11.5793 82.4868 11.4073C82.5861 11.2444 82.6941 11.1751 82.7107 11.1653L84.7427 14.6107C85.6917 14.051 86.3507 13.094 86.3507 11.864H82.3507ZM82.744 11.146C82.7543 11.1403 82.7122 11.166 82.5835 11.1922C82.4548 11.2185 82.2645 11.24 81.9987 11.24V15.24C82.9087 15.24 83.8737 15.1014 84.7093 14.63L82.744 11.146ZM81.9987 11.24C81.5168 11.24 81.1385 11.1713 80.8403 11.066L79.509 14.838C80.2989 15.1167 81.1366 15.24 81.9987 15.24V11.24ZM80.8729 11.0778C80.539 10.9534 80.2898 10.7985 80.0979 10.6274L77.4355 13.6126C78.0329 14.1455 78.7224 14.5452 79.4765 14.8262L80.8729 11.0778ZM80.1399 10.666C79.9625 10.4984 79.82 10.297 79.711 10.0409L76.0304 11.6071C76.3481 12.3537 76.8029 13.0163 77.3934 13.574L80.1399 10.666ZM79.711 10.0409C79.6146 9.8144 79.5507 9.53012 79.5507 9.16H75.5507C75.5507 10.0059 75.7001 10.8309 76.0304 11.6071L79.711 10.0409ZM79.5507 9.16C79.5507 8.66428 79.6298 8.32984 79.725 8.10784L76.0484 6.53216C75.6955 7.35549 75.5507 8.24772 75.5507 9.16H79.5507ZM79.7173 8.12548C79.8465 7.83179 79.9937 7.64638 80.139 7.52073L77.5224 4.49527C76.8783 5.05229 76.3962 5.74154 76.0561 6.51452L79.7173 8.12548ZM80.139 7.52073C80.3289 7.35648 80.5507 7.22817 80.8231 7.13737L79.5582 3.34263C78.8066 3.59316 78.1218 3.97685 77.5224 4.49527L80.139 7.52073ZM80.8115 7.14121C81.1243 7.03906 81.4634 6.984 81.8387 6.984V2.984C81.0619 2.984 80.3024 3.09961 79.5699 3.33879L80.8115 7.14121ZM81.8387 6.984C82.1073 6.984 82.2891 7.00873 82.4026 7.03529C82.5144 7.0615 82.5342 7.08337 82.5053 7.0641L84.7241 3.7359C83.8471 3.15125 82.8048 2.984 81.8387 2.984V6.984ZM82.5053 7.0641C82.5118 7.06845 82.4325 7.01662 82.3542 6.88214C82.27 6.73749 82.2387 6.58561 82.2387 6.472H86.2387C86.2387 5.26147 85.6035 4.3222 84.7241 3.7359L82.5053 7.0641ZM82.2387 6.472C82.2387 6.41376 82.2458 6.34936 82.2624 6.28293C82.279 6.21661 82.3023 6.15902 82.3271 6.11222L85.8623 7.98377C86.1089 7.51786 86.2387 7.00507 86.2387 6.472H82.2387ZM82.3515 6.06748C82.3443 6.0803 82.3397 6.0866 82.3387 6.088C82.3377 6.08931 82.3395 6.08675 82.3445 6.08179L85.1729 8.91021C85.4399 8.64325 85.6597 8.34517 85.8378 8.02852L82.3515 6.06748ZM84.6103 5.68636C84.3098 5.54497 83.9881 5.43092 83.6627 5.336L82.5427 9.176C82.7293 9.23042 82.8449 9.27636 82.9071 9.30564L84.6103 5.68636ZM83.7351 5.35863C83.2547 5.19847 82.7615 5.128 82.2707 5.128V9.128C82.3772 9.128 82.4387 9.14286 82.4702 9.15337L83.7351 5.35863ZM93.3148 11.592L95.3036 11.8036L95.4047 10.8534L94.729 10.1778L93.3148 11.592ZM92.8668 12.744L91.395 11.3899L91.38 11.4062L91.3654 11.4227L92.8668 12.744ZM90.9148 12.904L89.8367 14.5885L89.861 14.6041L89.8858 14.619L90.9148 12.904ZM90.0508 12.056L91.6249 10.8222L91.6194 10.8152L91.6138 10.8081L90.0508 12.056ZM88.4668 10.072L90.0298 8.82415L86.4668 4.36144V10.072H88.4668ZM88.4668 12.984L88.8246 14.9517L90.4668 14.6532V12.984H88.4668ZM87.9388 13.064L87.6686 11.0823L87.6164 11.0895L87.5646 11.0993L87.9388 13.064ZM86.6108 13.08L86.2632 15.0496L86.2726 15.0512L86.282 15.0528L86.6108 13.08ZM86.1468 12.888L84.9468 14.488L86.1468 12.888ZM85.8428 12.504L83.9702 13.2062L83.9975 13.2792L84.0304 13.3498L85.8428 12.504ZM85.7468 2.584L85.2206 0.654473L83.7468 1.05641V2.584H85.7468ZM86.2588 2.488L86.5417 4.4679L86.5792 4.46253L86.6166 4.45574L86.2588 2.488ZM87.5868 2.472L87.2392 4.44157L87.2486 4.44322L87.258 4.44479L87.5868 2.472ZM88.0668 2.664L89.2668 1.064L89.2668 1.064L88.0668 2.664ZM88.3548 3.064L86.4822 3.76625L86.5095 3.83918L86.5424 3.90977L88.3548 3.064ZM88.4668 7.928H86.4668V12.836L89.8972 9.32587L88.4668 7.928ZM91.2188 5.112V3.112H90.3769L89.7884 3.71413L91.2188 5.112ZM92.5468 5.48L91.3551 7.0862L91.3673 7.09521L91.3795 7.10403L92.5468 5.48ZM92.9788 6.856L94.825 7.62523L94.8356 7.59974L94.8455 7.57396L92.9788 6.856ZM92.7228 7.256L91.196 5.96411L91.166 5.99966L91.1376 6.03658L92.7228 7.256ZM92.2908 7.704L93.6078 9.20916L93.6141 9.20368L92.2908 7.704ZM91.6828 8.232L92.9887 9.74682L92.9901 9.74565L91.6828 8.232ZM90.7548 9.032L89.4489 7.51718L87.8178 8.92337L89.3406 10.4462L90.7548 9.032ZM91.326 11.3804C91.3202 11.4353 91.3131 11.4743 91.3072 11.4997C91.3014 11.525 91.2975 11.5344 91.2988 11.5311C91.3002 11.5276 91.3071 11.5107 91.3228 11.4848C91.3387 11.4585 91.3622 11.4254 91.395 11.3899L94.3387 14.0981C94.9685 13.4135 95.2222 12.5683 95.3036 11.8036L91.326 11.3804ZM91.3654 11.4227C91.4712 11.3025 91.599 11.2211 91.7129 11.1773C91.8154 11.1379 91.8664 11.144 91.8268 11.144V15.144C92.6817 15.144 93.65 14.8814 94.3682 14.0653L91.3654 11.4227ZM91.8268 11.144C91.8133 11.144 91.8241 11.1426 91.8518 11.1499C91.8806 11.1574 91.9133 11.1707 91.9438 11.189L89.8858 14.619C90.4932 14.9834 91.1595 15.144 91.8268 15.144V11.144ZM91.9929 11.2195C92.0023 11.2255 91.9707 11.2063 91.8997 11.1366C91.8303 11.0685 91.7384 10.967 91.6249 10.8222L88.4767 13.2898C88.8536 13.7706 89.303 14.247 89.8367 14.5885L91.9929 11.2195ZM91.6138 10.8081L90.0298 8.82415L86.9038 11.3199L88.4878 13.3039L91.6138 10.8081ZM86.4668 10.072V12.984H90.4668V10.072H86.4668ZM88.109 11.0163C88.0368 11.0294 87.8965 11.0513 87.6686 11.0823L88.209 15.0457C88.4504 15.0127 88.6621 14.9813 88.8246 14.9517L88.109 11.0163ZM87.5646 11.0993C87.4675 11.1178 87.3636 11.128 87.2508 11.128V15.128C87.6074 15.128 87.9621 15.0955 88.313 15.0287L87.5646 11.0993ZM87.2508 11.128C87.1047 11.128 87.0035 11.1179 86.9396 11.1072L86.282 15.0528C86.6021 15.1061 86.9276 15.128 87.2508 15.128V11.128ZM86.9584 11.1104C87.0395 11.1247 87.1882 11.169 87.3468 11.288L84.9468 14.488C85.3614 14.799 85.8195 14.9713 86.2632 15.0496L86.9584 11.1104ZM87.3468 11.288C87.5083 11.4091 87.6055 11.5518 87.6552 11.6582L84.0304 13.3498C84.2295 13.7762 84.5294 14.1749 84.9468 14.488L87.3468 11.288ZM87.7155 11.8018C87.7294 11.839 87.7378 11.8685 87.7427 11.8882C87.7475 11.9079 87.7494 11.9198 87.7497 11.9224C87.7503 11.9262 87.7468 11.9035 87.7468 11.848H83.7468C83.7468 12.2535 83.7926 12.7327 83.9702 13.2062L87.7155 11.8018ZM87.7468 11.848V2.584H83.7468V11.848H87.7468ZM86.2731 4.51353C86.2629 4.51629 86.2787 4.51162 86.3314 4.50174C86.3812 4.4924 86.4503 4.48095 86.5417 4.4679L85.976 0.5081C85.7269 0.543689 85.4589 0.589467 85.2206 0.654473L86.2731 4.51353ZM86.6166 4.45574C86.7351 4.43418 86.8501 4.424 86.9628 4.424V0.424C86.6062 0.424 86.2518 0.456483 85.901 0.52026L86.6166 4.45574ZM86.9628 4.424C87.1109 4.424 87.1988 4.43443 87.2392 4.44157L87.9344 0.502431C87.6121 0.445565 87.284 0.424 86.9628 0.424V4.424ZM87.258 4.44479C87.2016 4.43538 87.0449 4.39756 86.8668 4.264L89.2668 1.064C88.8327 0.738435 88.3561 0.572619 87.9156 0.499212L87.258 4.44479ZM86.8668 4.264C86.6487 4.10039 86.533 3.90182 86.4822 3.76625L90.2275 2.36175C90.0486 1.88485 89.741 1.41961 89.2668 1.064L86.8668 4.264ZM86.5424 3.90977C86.4909 3.79924 86.4738 3.71777 86.4688 3.68876C86.4636 3.65908 86.4668 3.66089 86.4668 3.704H90.4668C90.4668 3.28065 90.4122 2.74325 90.1672 2.21823L86.5424 3.90977ZM86.4668 3.704V7.928H90.4668V3.704H86.4668ZM89.8972 9.32587L92.6492 6.50987L89.7884 3.71413L87.0364 6.53013L89.8972 9.32587ZM91.2188 7.112C91.3517 7.112 91.4169 7.12699 91.4327 7.13137C91.4443 7.13457 91.4089 7.12611 91.3551 7.0862L93.7385 3.8738C92.9612 3.29708 92.0554 3.112 91.2188 3.112V7.112ZM91.3795 7.10403C91.3544 7.08597 91.2624 7.01213 91.1797 6.86215C91.0924 6.70407 91.0588 6.5394 91.0588 6.408H95.0588C95.0588 5.30255 94.5021 4.42238 93.7141 3.85597L91.3795 7.10403ZM91.0588 6.408C91.0588 6.34153 91.0708 6.24558 91.1121 6.13804L94.8455 7.57396C94.9935 7.18909 95.0588 6.79447 95.0588 6.408H91.0588ZM91.1327 6.08677C91.1565 6.02948 91.1788 5.99181 91.1903 5.97389C91.2018 5.95594 91.2056 5.95281 91.196 5.96411L94.2496 8.54789C94.4609 8.29813 94.6725 7.99112 94.825 7.62523L91.1327 6.08677ZM91.1376 6.03658C91.1376 6.03654 91.1344 6.04067 91.1272 6.04895C91.12 6.05721 91.1095 6.0688 91.0951 6.08373C91.0659 6.11401 91.0244 6.15422 90.9676 6.20432L93.6141 9.20368C93.858 8.98847 94.1 8.74588 94.3081 8.47542L91.1376 6.03658ZM90.9738 6.19885C90.8073 6.34453 90.6081 6.51756 90.3756 6.71835L92.9901 9.74565C93.2269 9.5411 93.433 9.36214 93.6078 9.20915L90.9738 6.19885ZM90.3769 6.71718L89.4489 7.51718L92.0607 10.5468L92.9887 9.74682L90.3769 6.71718ZM89.3406 10.4462L91.9006 13.0062L94.729 10.1778L92.169 7.61779L89.3406 10.4462ZM97.5338 4.792L99.5333 4.8385L99.5333 4.83744L97.5338 4.792ZM97.4698 6.296L99.4662 6.41578L99.4664 6.41344L97.4698 6.296ZM97.3418 7.912L99.3319 8.11101L99.3323 8.10714L97.3418 7.912ZM97.1498 9.304L98.3498 10.904L98.9707 10.4383L99.115 9.67578L97.1498 9.304ZM96.9578 9.4L97.6601 11.2727L97.6601 11.2727L96.9578 9.4ZM96.6858 9.48L97.1197 11.4324L97.1197 11.4324L96.6858 9.48ZM95.3578 9.4L94.5016 11.2075L94.5193 11.2158L94.5371 11.2238L95.3578 9.4ZM94.9738 8.84L96.9378 8.46231L96.9333 8.43866L96.9282 8.41514L94.9738 8.84ZM94.8298 7.72L92.8339 7.8474L92.8352 7.86852L92.837 7.8896L94.8298 7.72ZM94.7338 6.088L96.7308 5.97907L96.7308 5.97907L94.7338 6.088ZM94.6538 4.344L92.6542 4.38103L92.6545 4.39953L92.6552 4.41802L94.6538 4.344ZM94.6378 2.872L93.674 1.11957L92.6378 1.68946V2.872H94.6378ZM95.3578 2.6L95.8246 4.54477L95.8513 4.53837L95.8778 4.53123L95.3578 2.6ZM97.1818 2.792L95.8746 4.30565L95.8912 4.31997L95.9081 4.33392L97.1818 2.792ZM95.0058 10.712L93.5652 9.32472L93.5641 9.32578L95.0058 10.712ZM97.2618 10.712L95.7943 12.0708L95.8204 12.099L95.8476 12.1262L97.2618 10.712ZM97.2618 12.872L95.8212 11.4847L95.8201 11.4858L97.2618 12.872ZM95.0058 12.872L93.5383 14.2308L93.5644 14.259L93.5916 14.2862L95.0058 12.872ZM95.5498 3.72C95.5498 3.94217 95.5449 4.28138 95.5343 4.74656L99.5333 4.83744C99.5441 4.36395 99.5498 3.98849 99.5498 3.72H95.5498ZM95.5344 4.7455C95.5243 5.17661 95.5041 5.65395 95.4733 6.17856L99.4664 6.41344C99.4995 5.85005 99.522 5.32472 99.5333 4.8385L95.5344 4.7455ZM95.4734 6.17622C95.4429 6.68382 95.4023 7.19736 95.3514 7.71686L99.3323 8.10714C99.388 7.53864 99.4327 6.97484 99.4662 6.41578L95.4734 6.17622ZM95.3517 7.71299C95.3024 8.20621 95.2456 8.60999 95.1847 8.93222L99.115 9.67578C99.2033 9.20868 99.2745 8.68446 99.3319 8.11101L95.3517 7.71299ZM95.9498 7.704C96.0506 7.62842 96.1339 7.5839 96.1754 7.56314C96.2201 7.54078 96.2495 7.52962 96.2556 7.52734L97.6601 11.2727C97.8165 11.214 98.0848 11.1027 98.3498 10.904L95.9498 7.704ZM96.2556 7.52734C96.2643 7.52408 96.2638 7.52499 96.252 7.52763L97.1197 11.4324C97.2998 11.3923 97.4807 11.3399 97.6601 11.2727L96.2556 7.52734ZM96.252 7.52763C96.225 7.53362 96.2001 7.53766 96.1769 7.54023L96.6187 11.5158C96.7875 11.497 96.9546 11.469 97.1197 11.4324L96.252 7.52763ZM96.1769 7.54023C96.1569 7.54246 96.1438 7.54347 96.1371 7.54389C96.1301 7.54433 96.1321 7.544 96.1418 7.544V11.544C96.308 11.544 96.4694 11.5324 96.6187 11.5158L96.1769 7.54023ZM96.1418 7.544C96.0891 7.544 96.0691 7.5398 96.0751 7.54091C96.0818 7.54213 96.1201 7.54987 96.1785 7.57616L94.5371 11.2238C95.0774 11.467 95.6364 11.544 96.1418 11.544V7.544ZM96.214 7.59252C96.4353 7.69738 96.6252 7.86149 96.7593 8.05694C96.8842 8.2392 96.925 8.39574 96.9378 8.46231L93.0098 9.21769C93.1488 9.94056 93.575 10.7685 94.5016 11.2075L96.214 7.59252ZM96.9282 8.41514C96.9033 8.30098 96.8637 8.03306 96.8226 7.5504L92.837 7.8896C92.8813 8.40961 92.9376 8.88836 93.0195 9.26486L96.9282 8.41514ZM96.8258 7.5926C96.7942 7.09835 96.7626 6.56058 96.7308 5.97907L92.7368 6.19693C92.7691 6.78875 92.8014 7.33899 92.8339 7.8474L96.8258 7.5926ZM96.7308 5.97907C96.6995 5.40381 96.6733 4.83411 96.6524 4.26998L92.6552 4.41802C92.677 5.00588 92.7042 5.59886 92.7368 6.19693L96.7308 5.97907ZM96.6535 4.30697C96.6429 3.73864 96.6378 3.26107 96.6378 2.872H92.6378C92.6378 3.2936 92.6433 3.79736 92.6542 4.38103L96.6535 4.30697ZM95.6017 4.62443C95.6403 4.60316 95.7099 4.57229 95.8246 4.54477L94.8911 0.655225C94.4724 0.755707 94.062 0.906176 93.674 1.11957L95.6017 4.62443ZM95.8778 4.53123C95.9985 4.49872 96.0957 4.488 96.1738 4.488V0.488C95.7186 0.488 95.2718 0.551948 94.8379 0.668767L95.8778 4.53123ZM96.1738 4.488C96.2428 4.488 96.235 4.49652 96.1763 4.47881C96.111 4.45912 95.996 4.41049 95.8746 4.30565L98.4891 1.27835C97.7666 0.654378 96.8959 0.488 96.1738 0.488V4.488ZM95.9081 4.33392C95.7589 4.21068 95.6557 4.05699 95.5987 3.91325C95.5469 3.78266 95.5498 3.70359 95.5498 3.72H99.5498C99.5498 2.90425 99.2936 1.94239 98.4556 1.25008L95.9081 4.33392ZM96.6058 11.784C96.6058 11.7695 96.6077 11.812 96.5796 11.8872C96.5499 11.967 96.5019 12.0416 96.4475 12.0982L93.5641 9.32578C92.8896 10.0274 92.6058 10.9062 92.6058 11.784H96.6058ZM96.4465 12.0993C96.3776 12.1708 96.2914 12.2259 96.2087 12.2574C96.1333 12.2861 96.1008 12.28 96.1418 12.28V8.28C95.2356 8.28 94.2938 8.56805 93.5652 9.32472L96.4465 12.0993ZM96.1418 12.28C96.1836 12.28 96.1458 12.2863 96.0621 12.254C95.9698 12.2184 95.8724 12.1552 95.7943 12.0708L98.7293 9.35318C98.0019 8.5676 97.0452 8.28 96.1418 8.28V12.28ZM95.8476 12.1262C95.7945 12.0731 95.7428 11.998 95.7093 11.9115C95.6774 11.8293 95.6778 11.7783 95.6778 11.784H99.6778C99.6778 10.883 99.3732 9.99492 98.676 9.29779L95.8476 12.1262ZM95.6778 11.784C95.6778 11.7892 95.6775 11.7434 95.7057 11.6697C95.7351 11.5928 95.7793 11.5282 95.8212 11.4847L98.7025 14.2593C99.3739 13.562 99.6778 12.6856 99.6778 11.784H95.6778ZM95.8201 11.4858C95.9027 11.3999 96.0003 11.3408 96.0854 11.3091C96.1621 11.2807 96.1915 11.288 96.1418 11.288V15.288C97.0226 15.288 97.9708 15.0202 98.7035 14.2582L95.8201 11.4858ZM96.1418 11.288C96.0929 11.288 96.1171 11.2809 96.1855 11.306C96.2613 11.3337 96.3472 11.385 96.42 11.4578L93.5916 14.2862C94.3247 15.0194 95.2577 15.288 96.1418 15.288V11.288ZM96.4733 11.5132C96.5164 11.5597 96.5571 11.6235 96.583 11.6939C96.6075 11.7607 96.6058 11.7979 96.6058 11.784H92.6058C92.6058 12.6629 92.8892 13.5298 93.5383 14.2308L96.4733 11.5132Z" fill="#76B1FF" mask="url(#path-1-outside-1_34_346)"/>
</svg>
