<svg width="132" height="39" viewBox="0 0 132 39" fill="none" xmlns="http://www.w3.org/2000/svg">
<rect width="132" height="39" rx="10" fill="white"/>
<path d="M22.0278 21.216C21.3238 20.976 20.6838 20.736 20.1078 20.496C19.5318 20.24 19.0358 19.936 18.6198 19.584C18.2038 19.232 17.8758 18.816 17.6358 18.336C17.4118 17.84 17.2998 17.24 17.2998 16.536C17.2998 15.176 17.8198 14.088 18.8598 13.272C19.9158 12.456 21.3878 12.048 23.2758 12.048C23.9638 12.048 24.6038 12.096 25.1958 12.192C25.7878 12.288 26.2918 12.44 26.7078 12.648C27.1398 12.84 27.4758 13.096 27.7158 13.416C27.9558 13.72 28.0758 14.08 28.0758 14.496C28.0758 14.912 27.9798 15.272 27.7878 15.576C27.5958 15.864 27.3638 16.112 27.0918 16.32C26.7398 16.096 26.2678 15.904 25.6758 15.744C25.0838 15.568 24.4358 15.48 23.7318 15.48C23.0118 15.48 22.4838 15.584 22.1478 15.792C21.8118 15.984 21.6438 16.232 21.6438 16.536C21.6438 16.776 21.7478 16.976 21.9558 17.136C22.1638 17.28 22.4758 17.416 22.8918 17.544L24.1638 17.952C25.6678 18.432 26.8198 19.048 27.6198 19.8C28.4358 20.536 28.8438 21.544 28.8438 22.824C28.8438 24.184 28.3078 25.288 27.2358 26.136C26.1638 26.968 24.5878 27.384 22.5078 27.384C21.7718 27.384 21.0838 27.32 20.4438 27.192C19.8198 27.08 19.2678 26.912 18.7878 26.688C18.3238 26.448 17.9558 26.16 17.6838 25.824C17.4278 25.472 17.2998 25.072 17.2998 24.624C17.2998 24.16 17.4358 23.768 17.7078 23.448C17.9798 23.112 18.2758 22.856 18.5958 22.68C19.0438 23.032 19.5878 23.336 20.2278 23.592C20.8838 23.848 21.5958 23.976 22.3638 23.976C23.1478 23.976 23.6998 23.856 24.0198 23.616C24.3398 23.376 24.4998 23.096 24.4998 22.776C24.4998 22.456 24.3718 22.216 24.1158 22.056C23.8598 21.88 23.4998 21.712 23.0358 21.552L22.0278 21.216ZM34.8866 22.992C34.8866 23.408 35.0146 23.704 35.2706 23.88C35.5426 24.056 35.9186 24.144 36.3986 24.144C36.6386 24.144 36.8866 24.128 37.1426 24.096C37.3986 24.048 37.6226 23.992 37.8146 23.928C37.9586 24.104 38.0786 24.304 38.1746 24.528C38.2866 24.736 38.3426 24.992 38.3426 25.296C38.3426 25.904 38.1106 26.4 37.6466 26.784C37.1986 27.168 36.3986 27.36 35.2466 27.36C33.8386 27.36 32.7506 27.04 31.9826 26.4C31.2306 25.76 30.8546 24.72 30.8546 23.28V13.008C31.0306 12.96 31.2786 12.912 31.5986 12.864C31.9346 12.8 32.2866 12.768 32.6546 12.768C33.3586 12.768 33.9026 12.896 34.2866 13.152C34.6866 13.392 34.8866 13.912 34.8866 14.712V16.248H38.0306C38.1266 16.424 38.2146 16.648 38.2946 16.92C38.3906 17.176 38.4386 17.464 38.4386 17.784C38.4386 18.344 38.3106 18.752 38.0546 19.008C37.8146 19.248 37.4866 19.368 37.0706 19.368H34.8866V22.992ZM45.408 24.408C45.68 24.408 45.976 24.384 46.296 24.336C46.632 24.272 46.88 24.192 47.04 24.096V22.176L45.312 22.32C44.864 22.352 44.496 22.448 44.208 22.608C43.92 22.768 43.776 23.008 43.776 23.328C43.776 23.648 43.896 23.912 44.136 24.12C44.392 24.312 44.816 24.408 45.408 24.408ZM45.216 14.976C46.08 14.976 46.864 15.064 47.568 15.24C48.288 15.416 48.896 15.688 49.392 16.056C49.904 16.408 50.296 16.864 50.568 17.424C50.84 17.968 50.976 18.616 50.976 19.368V24.744C50.976 25.16 50.856 25.504 50.616 25.776C50.392 26.032 50.12 26.256 49.8 26.448C48.76 27.072 47.296 27.384 45.408 27.384C44.56 27.384 43.792 27.304 43.104 27.144C42.432 26.984 41.848 26.744 41.352 26.424C40.872 26.104 40.496 25.696 40.224 25.2C39.968 24.704 39.84 24.128 39.84 23.472C39.84 22.368 40.168 21.52 40.824 20.928C41.48 20.336 42.496 19.968 43.872 19.824L47.016 19.488V19.32C47.016 18.856 46.808 18.528 46.392 18.336C45.992 18.128 45.408 18.024 44.64 18.024C44.032 18.024 43.44 18.088 42.864 18.216C42.288 18.344 41.768 18.504 41.304 18.696C41.096 18.552 40.92 18.336 40.776 18.048C40.632 17.744 40.56 17.432 40.56 17.112C40.56 16.696 40.656 16.368 40.848 16.128C41.056 15.872 41.368 15.656 41.784 15.48C42.248 15.304 42.792 15.176 43.416 15.096C44.056 15.016 44.656 14.976 45.216 14.976ZM60.8627 19.608C60.8627 19.112 60.7187 18.752 60.4307 18.528C60.1587 18.288 59.7827 18.168 59.3027 18.168C58.9827 18.168 58.6627 18.208 58.3427 18.288C58.0387 18.368 57.7747 18.488 57.5507 18.648V26.976C57.3907 27.024 57.1347 27.072 56.7827 27.12C56.4467 27.168 56.0947 27.192 55.7267 27.192C55.3747 27.192 55.0547 27.168 54.7667 27.12C54.4947 27.072 54.2627 26.976 54.0707 26.832C53.8787 26.688 53.7267 26.496 53.6147 26.256C53.5187 26 53.4707 25.672 53.4707 25.272V18.072C53.4707 17.64 53.5587 17.288 53.7347 17.016C53.9267 16.744 54.1827 16.496 54.5027 16.272C55.0467 15.888 55.7267 15.576 56.5427 15.336C57.3747 15.096 58.2947 14.976 59.3027 14.976C61.1107 14.976 62.5027 15.376 63.4787 16.176C64.4547 16.96 64.9427 18.056 64.9427 19.464V26.976C64.7827 27.024 64.5267 27.072 64.1747 27.12C63.8387 27.168 63.4867 27.192 63.1187 27.192C62.7667 27.192 62.4467 27.168 62.1587 27.12C61.8867 27.072 61.6547 26.976 61.4627 26.832C61.2707 26.688 61.1187 26.496 61.0067 26.256C60.9107 26 60.8627 25.672 60.8627 25.272V19.608ZM66.9588 21.168C66.9588 20.112 67.1188 19.2 67.4388 18.432C67.7588 17.648 68.1988 17 68.7588 16.488C69.3348 15.976 69.9988 15.6 70.7508 15.36C71.5188 15.104 72.3428 14.976 73.2228 14.976C73.5428 14.976 73.8548 15.008 74.1588 15.072C74.4628 15.12 74.7108 15.184 74.9028 15.264V11.376C75.0628 11.328 75.3188 11.28 75.6708 11.232C76.0228 11.168 76.3828 11.136 76.7508 11.136C77.1028 11.136 77.4148 11.16 77.6868 11.208C77.9748 11.256 78.2148 11.352 78.4068 11.496C78.5988 11.64 78.7428 11.84 78.8388 12.096C78.9348 12.336 78.9828 12.656 78.9828 13.056V24.432C78.9828 25.184 78.6308 25.784 77.9268 26.232C77.4628 26.536 76.8628 26.8 76.1268 27.024C75.3908 27.264 74.5428 27.384 73.5828 27.384C72.5428 27.384 71.6068 27.24 70.7748 26.952C69.9588 26.664 69.2628 26.248 68.6868 25.704C68.1268 25.16 67.6948 24.512 67.3908 23.76C67.1028 22.992 66.9588 22.128 66.9588 21.168ZM73.7748 18.168C72.9108 18.168 72.2468 18.416 71.7828 18.912C71.3188 19.408 71.0868 20.16 71.0868 21.168C71.0868 22.16 71.3028 22.912 71.7348 23.424C72.1668 23.92 72.7908 24.168 73.6068 24.168C73.8948 24.168 74.1508 24.128 74.3748 24.048C74.6148 23.952 74.7988 23.848 74.9268 23.736V18.456C74.6068 18.264 74.2228 18.168 73.7748 18.168ZM81.4293 12.096C81.4293 11.488 81.6293 10.976 82.0293 10.56C82.4453 10.144 82.9893 9.936 83.6613 9.936C84.3333 9.936 84.8693 10.144 85.2693 10.56C85.6853 10.976 85.8933 11.488 85.8933 12.096C85.8933 12.704 85.6853 13.216 85.2693 13.632C84.8693 14.048 84.3333 14.256 83.6613 14.256C82.9893 14.256 82.4453 14.048 82.0293 13.632C81.6293 13.216 81.4293 12.704 81.4293 12.096ZM85.7013 26.976C85.5253 27.008 85.2613 27.048 84.9093 27.096C84.5733 27.16 84.2293 27.192 83.8773 27.192C83.5253 27.192 83.2053 27.168 82.9173 27.12C82.6453 27.072 82.4133 26.976 82.2213 26.832C82.0293 26.688 81.8773 26.496 81.7653 26.256C81.6693 26 81.6213 25.672 81.6213 25.272V15.504C81.7973 15.472 82.0533 15.432 82.3893 15.384C82.7413 15.32 83.0933 15.288 83.4453 15.288C83.7973 15.288 84.1093 15.312 84.3813 15.36C84.6693 15.408 84.9093 15.504 85.1013 15.648C85.2933 15.792 85.4373 15.992 85.5333 16.248C85.6453 16.488 85.7013 16.808 85.7013 17.208V26.976ZM95.6908 19.608C95.6908 19.112 95.5468 18.752 95.2588 18.528C94.9868 18.288 94.6108 18.168 94.1308 18.168C93.8108 18.168 93.4908 18.208 93.1708 18.288C92.8668 18.368 92.6028 18.488 92.3788 18.648V26.976C92.2188 27.024 91.9628 27.072 91.6108 27.12C91.2748 27.168 90.9228 27.192 90.5548 27.192C90.2028 27.192 89.8828 27.168 89.5948 27.12C89.3228 27.072 89.0908 26.976 88.8988 26.832C88.7068 26.688 88.5548 26.496 88.4428 26.256C88.3468 26 88.2988 25.672 88.2988 25.272V18.072C88.2988 17.64 88.3868 17.288 88.5628 17.016C88.7548 16.744 89.0108 16.496 89.3308 16.272C89.8748 15.888 90.5548 15.576 91.3708 15.336C92.2028 15.096 93.1228 14.976 94.1308 14.976C95.9388 14.976 97.3308 15.376 98.3068 16.176C99.2828 16.96 99.7708 18.056 99.7708 19.464V26.976C99.6108 27.024 99.3548 27.072 99.0028 27.12C98.6668 27.168 98.3148 27.192 97.9468 27.192C97.5948 27.192 97.2748 27.168 96.9868 27.12C96.7148 27.072 96.4828 26.976 96.2908 26.832C96.0988 26.688 95.9468 26.496 95.8348 26.256C95.7388 26 95.6908 25.672 95.6908 25.272V19.608ZM107.979 14.976C108.891 14.976 109.715 15.096 110.451 15.336C111.203 15.56 111.835 15.856 112.347 16.224C112.667 16.448 112.915 16.696 113.091 16.968C113.283 17.24 113.379 17.592 113.379 18.024V26.424C113.379 27.272 113.219 28 112.899 28.608C112.579 29.232 112.139 29.744 111.579 30.144C111.035 30.56 110.387 30.864 109.635 31.056C108.899 31.248 108.107 31.344 107.259 31.344C105.803 31.344 104.659 31.144 103.827 30.744C102.995 30.36 102.579 29.728 102.579 28.848C102.579 28.48 102.651 28.152 102.795 27.864C102.955 27.592 103.131 27.384 103.323 27.24C103.787 27.496 104.307 27.712 104.883 27.888C105.475 28.064 106.083 28.152 106.707 28.152C107.571 28.152 108.259 28.008 108.771 27.72C109.283 27.432 109.539 26.968 109.539 26.328V25.944C108.883 26.232 108.083 26.376 107.139 26.376C106.419 26.376 105.731 26.272 105.075 26.064C104.435 25.84 103.867 25.504 103.371 25.056C102.891 24.592 102.499 24 102.195 23.28C101.907 22.56 101.763 21.704 101.763 20.712C101.763 19.736 101.915 18.888 102.219 18.168C102.539 17.448 102.971 16.856 103.515 16.392C104.075 15.912 104.731 15.56 105.483 15.336C106.251 15.096 107.083 14.976 107.979 14.976ZM109.467 18.456C109.355 18.392 109.187 18.328 108.963 18.264C108.755 18.2 108.491 18.168 108.171 18.168C107.387 18.168 106.795 18.392 106.395 18.84C106.011 19.272 105.819 19.896 105.819 20.712C105.819 21.64 106.011 22.312 106.395 22.728C106.795 23.128 107.299 23.328 107.907 23.328C108.563 23.328 109.083 23.176 109.467 22.872V18.456Z" fill="#4294FF"/>
</svg>
