<svg width="132" height="39" viewBox="0 0 132 39" fill="none" xmlns="http://www.w3.org/2000/svg">
<rect width="132" height="39" rx="10" fill="white"/>
<path d="M27.7253 16.008C27.9013 15.928 28.1733 15.84 28.5413 15.744C28.9253 15.632 29.3093 15.576 29.6933 15.576C30.3653 15.576 30.9253 15.68 31.3733 15.888C31.8213 16.08 32.0933 16.368 32.1893 16.752C32.3653 17.408 32.5253 18.024 32.6693 18.6C32.8293 19.16 32.9813 19.704 33.1253 20.232C33.2693 20.744 33.4053 21.256 33.5333 21.768C33.6773 22.28 33.8133 22.816 33.9413 23.376H34.0613C34.2053 22.4 34.3333 21.472 34.4453 20.592C34.5573 19.696 34.6613 18.824 34.7573 17.976C34.8533 17.112 34.9493 16.264 35.0453 15.432C35.1413 14.584 35.2373 13.728 35.3333 12.864C35.9253 12.528 36.5573 12.36 37.2293 12.36C37.8213 12.36 38.3333 12.488 38.7653 12.744C39.1973 13 39.4133 13.432 39.4133 14.04C39.4133 14.392 39.3733 14.896 39.2933 15.552C39.2293 16.192 39.1333 16.912 39.0053 17.712C38.8933 18.512 38.7573 19.352 38.5973 20.232C38.4373 21.112 38.2693 21.952 38.0933 22.752C37.9173 23.552 37.7333 24.28 37.5413 24.936C37.3653 25.576 37.1973 26.072 37.0373 26.424C36.7973 26.648 36.4053 26.832 35.8613 26.976C35.3173 27.12 34.7573 27.192 34.1813 27.192C33.4293 27.192 32.7893 27.096 32.2613 26.904C31.7493 26.696 31.4373 26.408 31.3253 26.04C31.1173 25.4 30.8933 24.64 30.6533 23.76C30.4133 22.88 30.1573 21.912 29.8853 20.856C29.6613 21.896 29.4293 22.912 29.1893 23.904C28.9493 24.896 28.7333 25.736 28.5413 26.424C28.3013 26.648 27.9413 26.832 27.4613 26.976C26.9813 27.12 26.4533 27.192 25.8773 27.192C25.1573 27.192 24.5013 27.096 23.9093 26.904C23.3333 26.696 22.9573 26.408 22.7813 26.04C22.6373 25.752 22.4773 25.328 22.3013 24.768C22.1413 24.192 21.9733 23.544 21.7973 22.824C21.6213 22.088 21.4373 21.296 21.2453 20.448C21.0693 19.6 20.9013 18.752 20.7413 17.904C20.5973 17.056 20.4613 16.232 20.3333 15.432C20.2053 14.616 20.1093 13.872 20.0453 13.2C20.2693 12.992 20.5813 12.8 20.9813 12.624C21.3813 12.448 21.8133 12.36 22.2773 12.36C22.8853 12.36 23.3813 12.496 23.7653 12.768C24.1653 13.024 24.4133 13.464 24.5093 14.088C24.7653 15.72 24.9733 17.08 25.1333 18.168C25.3093 19.256 25.4453 20.152 25.5413 20.856C25.6533 21.544 25.7333 22.08 25.7813 22.464C25.8293 22.848 25.8773 23.152 25.9253 23.376H26.0453C26.1893 22.736 26.3253 22.144 26.4533 21.6C26.5813 21.056 26.7093 20.512 26.8373 19.968C26.9813 19.408 27.1253 18.816 27.2693 18.192C27.4133 17.552 27.5653 16.824 27.7253 16.008ZM53.2497 21.168C53.2497 22.16 53.0977 23.048 52.7937 23.832C52.4897 24.6 52.0577 25.248 51.4977 25.776C50.9537 26.304 50.2977 26.704 49.5297 26.976C48.7617 27.248 47.9057 27.384 46.9617 27.384C46.0177 27.384 45.1617 27.24 44.3937 26.952C43.6257 26.664 42.9617 26.256 42.4017 25.728C41.8577 25.184 41.4337 24.528 41.1297 23.76C40.8257 22.992 40.6737 22.128 40.6737 21.168C40.6737 20.224 40.8257 19.368 41.1297 18.6C41.4337 17.832 41.8577 17.184 42.4017 16.656C42.9617 16.112 43.6257 15.696 44.3937 15.408C45.1617 15.12 46.0177 14.976 46.9617 14.976C47.9057 14.976 48.7617 15.128 49.5297 15.432C50.2977 15.72 50.9537 16.136 51.4977 16.68C52.0577 17.208 52.4897 17.856 52.7937 18.624C53.0977 19.392 53.2497 20.24 53.2497 21.168ZM44.8497 21.168C44.8497 22.144 45.0337 22.896 45.4017 23.424C45.7857 23.936 46.3137 24.192 46.9857 24.192C47.6577 24.192 48.1697 23.928 48.5217 23.4C48.8897 22.872 49.0737 22.128 49.0737 21.168C49.0737 20.208 48.8897 19.472 48.5217 18.96C48.1537 18.432 47.6337 18.168 46.9617 18.168C46.2897 18.168 45.7697 18.432 45.4017 18.96C45.0337 19.472 44.8497 20.208 44.8497 21.168ZM59.3202 26.976C59.1602 27.024 58.9042 27.072 58.5522 27.12C58.2162 27.168 57.8642 27.192 57.4962 27.192C57.1442 27.192 56.8242 27.168 56.5362 27.12C56.2642 27.072 56.0322 26.976 55.8402 26.832C55.6482 26.688 55.4962 26.496 55.3842 26.256C55.2882 26 55.2402 25.672 55.2402 25.272V18.072C55.2402 17.704 55.3042 17.392 55.4322 17.136C55.5762 16.864 55.7762 16.624 56.0322 16.416C56.2882 16.208 56.6002 16.024 56.9682 15.864C57.3522 15.688 57.7602 15.536 58.1922 15.408C58.6242 15.28 59.0722 15.184 59.5362 15.12C60.0002 15.04 60.4642 15 60.9282 15C61.6962 15 62.3042 15.152 62.7522 15.456C63.2002 15.744 63.4242 16.224 63.4242 16.896C63.4242 17.12 63.3922 17.344 63.3282 17.568C63.2642 17.776 63.1842 17.968 63.0882 18.144C62.7522 18.144 62.4082 18.16 62.0562 18.192C61.7042 18.224 61.3602 18.272 61.0242 18.336C60.6882 18.4 60.3682 18.472 60.0642 18.552C59.7762 18.616 59.5282 18.696 59.3202 18.792V26.976ZM76.5074 24.888C76.4274 25.64 76.2034 26.216 75.8354 26.616C75.4834 27.016 74.9634 27.216 74.2754 27.216C73.7634 27.216 73.3074 27.096 72.9074 26.856C72.5074 26.6 72.0754 26.176 71.6114 25.584L69.2354 22.608V26.976C69.0594 27.008 68.7954 27.048 68.4434 27.096C68.1074 27.16 67.7634 27.192 67.4114 27.192C67.0594 27.192 66.7394 27.168 66.4514 27.12C66.1794 27.072 65.9474 26.976 65.7554 26.832C65.5634 26.688 65.4114 26.496 65.2994 26.256C65.2034 26 65.1554 25.672 65.1554 25.272V11.376C65.3314 11.328 65.5874 11.28 65.9234 11.232C66.2754 11.168 66.6274 11.136 66.9794 11.136C67.3314 11.136 67.6434 11.16 67.9154 11.208C68.2034 11.256 68.4434 11.352 68.6354 11.496C68.8274 11.64 68.9714 11.84 69.0674 12.096C69.1794 12.336 69.2354 12.656 69.2354 13.056V19.392L73.3634 15.168C74.1954 15.168 74.8594 15.352 75.3554 15.72C75.8674 16.088 76.1234 16.552 76.1234 17.112C76.1234 17.352 76.0834 17.576 76.0034 17.784C75.9234 17.976 75.7954 18.176 75.6194 18.384C75.4594 18.592 75.2434 18.816 74.9714 19.056C74.7154 19.28 74.4114 19.544 74.0594 19.848L72.6674 21.048L76.5074 24.888ZM78.3239 12.096C78.3239 11.488 78.5239 10.976 78.9239 10.56C79.3399 10.144 79.8839 9.936 80.5559 9.936C81.2279 9.936 81.7639 10.144 82.1639 10.56C82.5799 10.976 82.7879 11.488 82.7879 12.096C82.7879 12.704 82.5799 13.216 82.1639 13.632C81.7639 14.048 81.2279 14.256 80.5559 14.256C79.8839 14.256 79.3399 14.048 78.9239 13.632C78.5239 13.216 78.3239 12.704 78.3239 12.096ZM82.5959 26.976C82.4199 27.008 82.1559 27.048 81.8039 27.096C81.4679 27.16 81.1239 27.192 80.7719 27.192C80.4199 27.192 80.0999 27.168 79.8119 27.12C79.5399 27.072 79.3079 26.976 79.1159 26.832C78.9239 26.688 78.7719 26.496 78.6599 26.256C78.5639 26 78.5159 25.672 78.5159 25.272V15.504C78.6919 15.472 78.9479 15.432 79.2839 15.384C79.6359 15.32 79.9879 15.288 80.3399 15.288C80.6919 15.288 81.0039 15.312 81.2759 15.36C81.5639 15.408 81.8039 15.504 81.9959 15.648C82.1879 15.792 82.3319 15.992 82.4279 16.248C82.5399 16.488 82.5959 16.808 82.5959 17.208V26.976ZM92.5853 19.608C92.5853 19.112 92.4413 18.752 92.1533 18.528C91.8813 18.288 91.5053 18.168 91.0253 18.168C90.7053 18.168 90.3853 18.208 90.0653 18.288C89.7613 18.368 89.4973 18.488 89.2733 18.648V26.976C89.1133 27.024 88.8573 27.072 88.5053 27.12C88.1693 27.168 87.8173 27.192 87.4493 27.192C87.0973 27.192 86.7773 27.168 86.4893 27.12C86.2173 27.072 85.9853 26.976 85.7933 26.832C85.6013 26.688 85.4493 26.496 85.3373 26.256C85.2413 26 85.1933 25.672 85.1933 25.272V18.072C85.1933 17.64 85.2813 17.288 85.4573 17.016C85.6493 16.744 85.9053 16.496 86.2253 16.272C86.7693 15.888 87.4493 15.576 88.2653 15.336C89.0973 15.096 90.0173 14.976 91.0253 14.976C92.8333 14.976 94.2253 15.376 95.2013 16.176C96.1773 16.96 96.6653 18.056 96.6653 19.464V26.976C96.5053 27.024 96.2493 27.072 95.8973 27.12C95.5613 27.168 95.2093 27.192 94.8413 27.192C94.4893 27.192 94.1693 27.168 93.8813 27.12C93.6093 27.072 93.3773 26.976 93.1853 26.832C92.9933 26.688 92.8413 26.496 92.7293 26.256C92.6333 26 92.5853 25.672 92.5853 25.272V19.608ZM104.874 14.976C105.786 14.976 106.61 15.096 107.346 15.336C108.098 15.56 108.73 15.856 109.242 16.224C109.562 16.448 109.81 16.696 109.986 16.968C110.178 17.24 110.273 17.592 110.273 18.024V26.424C110.273 27.272 110.114 28 109.794 28.608C109.474 29.232 109.034 29.744 108.474 30.144C107.93 30.56 107.282 30.864 106.53 31.056C105.794 31.248 105.002 31.344 104.154 31.344C102.698 31.344 101.554 31.144 100.722 30.744C99.8895 30.36 99.4735 29.728 99.4735 28.848C99.4735 28.48 99.5455 28.152 99.6895 27.864C99.8495 27.592 100.026 27.384 100.218 27.24C100.682 27.496 101.202 27.712 101.778 27.888C102.37 28.064 102.978 28.152 103.602 28.152C104.466 28.152 105.154 28.008 105.666 27.72C106.178 27.432 106.434 26.968 106.434 26.328V25.944C105.778 26.232 104.978 26.376 104.034 26.376C103.314 26.376 102.626 26.272 101.97 26.064C101.33 25.84 100.762 25.504 100.266 25.056C99.7855 24.592 99.3935 24 99.0895 23.28C98.8015 22.56 98.6575 21.704 98.6575 20.712C98.6575 19.736 98.8095 18.888 99.1135 18.168C99.4335 17.448 99.8655 16.856 100.41 16.392C100.97 15.912 101.626 15.56 102.378 15.336C103.146 15.096 103.978 14.976 104.874 14.976ZM106.362 18.456C106.25 18.392 106.082 18.328 105.858 18.264C105.65 18.2 105.386 18.168 105.066 18.168C104.282 18.168 103.69 18.392 103.29 18.84C102.906 19.272 102.714 19.896 102.714 20.712C102.714 21.64 102.906 22.312 103.29 22.728C103.69 23.128 104.194 23.328 104.802 23.328C105.458 23.328 105.978 23.176 106.362 22.872V18.456Z" fill="#4294FF"/>
</svg>
