<svg width="67" height="32" viewBox="0 0 67 32" fill="none" xmlns="http://www.w3.org/2000/svg">
<rect x="0.5" y="0.5" width="66" height="31" fill="#D5E7FF" stroke="#1257B4"/>
<path d="M27.64 15.608C27.64 15.112 27.496 14.752 27.208 14.528C26.936 14.288 26.56 14.168 26.08 14.168C25.76 14.168 25.44 14.208 25.12 14.288C24.816 14.368 24.552 14.488 24.328 14.648V22.976C24.168 23.024 23.912 23.072 23.56 23.12C23.224 23.168 22.872 23.192 22.504 23.192C22.152 23.192 21.832 23.168 21.544 23.12C21.272 23.072 21.04 22.976 20.848 22.832C20.656 22.688 20.504 22.496 20.392 22.256C20.296 22 20.248 21.672 20.248 21.272V14.072C20.248 13.64 20.336 13.288 20.512 13.016C20.704 12.744 20.96 12.496 21.28 12.272C21.824 11.888 22.504 11.576 23.32 11.336C24.152 11.096 25.072 10.976 26.08 10.976C27.888 10.976 29.28 11.376 30.256 12.176C31.232 12.96 31.72 14.056 31.72 15.464V22.976C31.56 23.024 31.304 23.072 30.952 23.12C30.616 23.168 30.264 23.192 29.896 23.192C29.544 23.192 29.224 23.168 28.936 23.12C28.664 23.072 28.432 22.976 28.24 22.832C28.048 22.688 27.896 22.496 27.784 22.256C27.688 22 27.64 21.672 27.64 21.272V15.608ZM46.3122 17.168C46.3122 18.16 46.1602 19.048 45.8562 19.832C45.5522 20.6 45.1202 21.248 44.5602 21.776C44.0162 22.304 43.3602 22.704 42.5922 22.976C41.8242 23.248 40.9682 23.384 40.0242 23.384C39.0802 23.384 38.2242 23.24 37.4562 22.952C36.6882 22.664 36.0242 22.256 35.4642 21.728C34.9202 21.184 34.4962 20.528 34.1922 19.76C33.8882 18.992 33.7362 18.128 33.7362 17.168C33.7362 16.224 33.8882 15.368 34.1922 14.6C34.4962 13.832 34.9202 13.184 35.4642 12.656C36.0242 12.112 36.6882 11.696 37.4562 11.408C38.2242 11.12 39.0802 10.976 40.0242 10.976C40.9682 10.976 41.8242 11.128 42.5922 11.432C43.3602 11.72 44.0162 12.136 44.5602 12.68C45.1202 13.208 45.5522 13.856 45.8562 14.624C46.1602 15.392 46.3122 16.24 46.3122 17.168ZM37.9122 17.168C37.9122 18.144 38.0962 18.896 38.4642 19.424C38.8482 19.936 39.3762 20.192 40.0482 20.192C40.7202 20.192 41.2322 19.928 41.5842 19.4C41.9522 18.872 42.1362 18.128 42.1362 17.168C42.1362 16.208 41.9522 15.472 41.5842 14.96C41.2162 14.432 40.6962 14.168 40.0242 14.168C39.3522 14.168 38.8322 14.432 38.4642 14.96C38.0962 15.472 37.9122 16.208 37.9122 17.168Z" fill="#1257B4"/>
</svg>
