<svg width="76" height="15" viewBox="0 0 76 15" fill="none" xmlns="http://www.w3.org/2000/svg">
<mask id="path-1-outside-1_35_15" maskUnits="userSpaceOnUse" x="0" y="0" width="76" height="15" fill="black">
<rect fill="white" width="76" height="15"/>
<path d="M7.17406 7.072C7.17406 6.74133 7.07806 6.50133 6.88606 6.352C6.70473 6.192 6.45406 6.112 6.13406 6.112C5.92073 6.112 5.7074 6.13867 5.49406 6.192C5.2914 6.24533 5.1154 6.32533 4.96606 6.432V11.984C4.8594 12.016 4.68873 12.048 4.45406 12.08C4.23006 12.112 3.9954 12.128 3.75006 12.128C3.5154 12.128 3.30206 12.112 3.11006 12.08C2.92873 12.048 2.77406 11.984 2.64606 11.888C2.51806 11.792 2.41673 11.664 2.34206 11.504C2.27806 11.3333 2.24606 11.1147 2.24606 10.848V6.048C2.24606 5.76 2.30473 5.52533 2.42206 5.344C2.55006 5.16267 2.72073 4.99733 2.93406 4.848C3.29673 4.592 3.75006 4.384 4.29406 4.224C4.84873 4.064 5.46206 3.984 6.13406 3.984C7.3394 3.984 8.2674 4.25067 8.91806 4.784C9.56873 5.30667 9.89406 6.03733 9.89406 6.976V11.984C9.7874 12.016 9.61673 12.048 9.38206 12.08C9.15806 12.112 8.9234 12.128 8.67806 12.128C8.4434 12.128 8.23006 12.112 8.03806 12.08C7.85673 12.048 7.70206 11.984 7.57406 11.888C7.44606 11.792 7.34473 11.664 7.27006 11.504C7.20606 11.3333 7.17406 11.1147 7.17406 10.848V7.072ZM19.6222 8.112C19.6222 8.77333 19.5209 9.36533 19.3182 9.888C19.1155 10.4 18.8275 10.832 18.4542 11.184C18.0915 11.536 17.6542 11.8027 17.1422 11.984C16.6302 12.1653 16.0595 12.256 15.4302 12.256C14.8009 12.256 14.2302 12.16 13.7182 11.968C13.2062 11.776 12.7635 11.504 12.3902 11.152C12.0275 10.7893 11.7449 10.352 11.5422 9.84C11.3395 9.328 11.2382 8.752 11.2382 8.112C11.2382 7.48267 11.3395 6.912 11.5422 6.4C11.7449 5.888 12.0275 5.456 12.3902 5.104C12.7635 4.74133 13.2062 4.464 13.7182 4.272C14.2302 4.08 14.8009 3.984 15.4302 3.984C16.0595 3.984 16.6302 4.08533 17.1422 4.288C17.6542 4.48 18.0915 4.75733 18.4542 5.12C18.8275 5.472 19.1155 5.904 19.3182 6.416C19.5209 6.928 19.6222 7.49333 19.6222 8.112ZM14.0222 8.112C14.0222 8.76267 14.1449 9.264 14.3902 9.616C14.6462 9.95733 14.9982 10.128 15.4462 10.128C15.8942 10.128 16.2355 9.952 16.4702 9.6C16.7155 9.248 16.8382 8.752 16.8382 8.112C16.8382 7.472 16.7155 6.98133 16.4702 6.64C16.2249 6.288 15.8782 6.112 15.4302 6.112C14.9822 6.112 14.6355 6.288 14.3902 6.64C14.1449 6.98133 14.0222 7.472 14.0222 8.112ZM28.9972 8.112C28.9972 8.77333 28.8959 9.36533 28.6932 9.888C28.4905 10.4 28.2025 10.832 27.8292 11.184C27.4665 11.536 27.0292 11.8027 26.5172 11.984C26.0052 12.1653 25.4345 12.256 24.8052 12.256C24.1759 12.256 23.6052 12.16 23.0932 11.968C22.5812 11.776 22.1385 11.504 21.7652 11.152C21.4025 10.7893 21.1199 10.352 20.9172 9.84C20.7145 9.328 20.6132 8.752 20.6132 8.112C20.6132 7.48267 20.7145 6.912 20.9172 6.4C21.1199 5.888 21.4025 5.456 21.7652 5.104C22.1385 4.74133 22.5812 4.464 23.0932 4.272C23.6052 4.08 24.1759 3.984 24.8052 3.984C25.4345 3.984 26.0052 4.08533 26.5172 4.288C27.0292 4.48 27.4665 4.75733 27.8292 5.12C28.2025 5.472 28.4905 5.904 28.6932 6.416C28.8959 6.928 28.9972 7.49333 28.9972 8.112ZM23.3972 8.112C23.3972 8.76267 23.5199 9.264 23.7652 9.616C24.0212 9.95733 24.3732 10.128 24.8212 10.128C25.2692 10.128 25.6105 9.952 25.8452 9.6C26.0905 9.248 26.2132 8.752 26.2132 8.112C26.2132 7.472 26.0905 6.98133 25.8452 6.64C25.5999 6.288 25.2532 6.112 24.8052 6.112C24.3572 6.112 24.0105 6.288 23.7652 6.64C23.5199 6.98133 23.3972 7.472 23.3972 8.112ZM33.0442 9.328C33.0442 9.60533 33.1295 9.80267 33.3002 9.92C33.4815 10.0373 33.7322 10.096 34.0522 10.096C34.2122 10.096 34.3775 10.0853 34.5482 10.064C34.7189 10.032 34.8682 9.99467 34.9962 9.952C35.0922 10.0693 35.1722 10.2027 35.2362 10.352C35.3109 10.4907 35.3482 10.6613 35.3482 10.864C35.3482 11.2693 35.1935 11.6 34.8842 11.856C34.5855 12.112 34.0522 12.24 33.2842 12.24C32.3455 12.24 31.6202 12.0267 31.1082 11.6C30.6069 11.1733 30.3562 10.48 30.3562 9.52V2.672C30.4735 2.64 30.6389 2.608 30.8522 2.576C31.0762 2.53333 31.3109 2.512 31.5562 2.512C32.0255 2.512 32.3882 2.59733 32.6442 2.768C32.9109 2.928 33.0442 3.27467 33.0442 3.808V4.832H35.1402C35.2042 4.94933 35.2629 5.09867 35.3162 5.28C35.3802 5.45067 35.4122 5.64267 35.4122 5.856C35.4122 6.22933 35.3269 6.50133 35.1562 6.672C34.9962 6.832 34.7775 6.912 34.5002 6.912H33.0442V9.328ZM44.8616 7.072C44.8616 6.74133 44.7656 6.50133 44.5736 6.352C44.3922 6.192 44.1416 6.112 43.8216 6.112C43.6082 6.112 43.3949 6.13867 43.1816 6.192C42.9789 6.24533 42.8029 6.32533 42.6536 6.432V11.984C42.5469 12.016 42.3762 12.048 42.1416 12.08C41.9176 12.112 41.6829 12.128 41.4376 12.128C41.2029 12.128 40.9896 12.112 40.7976 12.08C40.6162 12.048 40.4616 11.984 40.3336 11.888C40.2056 11.792 40.1042 11.664 40.0296 11.504C39.9656 11.3333 39.9336 11.1147 39.9336 10.848V6.048C39.9336 5.76 39.9922 5.52533 40.1096 5.344C40.2376 5.16267 40.4082 4.99733 40.6216 4.848C40.9842 4.592 41.4376 4.384 41.9816 4.224C42.5362 4.064 43.1496 3.984 43.8216 3.984C45.0269 3.984 45.9549 4.25067 46.6056 4.784C47.2562 5.30667 47.5816 6.03733 47.5816 6.976V11.984C47.4749 12.016 47.3042 12.048 47.0696 12.08C46.8456 12.112 46.6109 12.128 46.3656 12.128C46.1309 12.128 45.9176 12.112 45.7256 12.08C45.5442 12.048 45.3896 11.984 45.2616 11.888C45.1336 11.792 45.0322 11.664 44.9576 11.504C44.8936 11.3333 44.8616 11.1147 44.8616 10.848V7.072ZM57.3097 8.112C57.3097 8.77333 57.2084 9.36533 57.0057 9.888C56.803 10.4 56.515 10.832 56.1417 11.184C55.779 11.536 55.3417 11.8027 54.8297 11.984C54.3177 12.1653 53.747 12.256 53.1177 12.256C52.4884 12.256 51.9177 12.16 51.4057 11.968C50.8937 11.776 50.451 11.504 50.0777 11.152C49.715 10.7893 49.4324 10.352 49.2297 9.84C49.027 9.328 48.9257 8.752 48.9257 8.112C48.9257 7.48267 49.027 6.912 49.2297 6.4C49.4324 5.888 49.715 5.456 50.0777 5.104C50.451 4.74133 50.8937 4.464 51.4057 4.272C51.9177 4.08 52.4884 3.984 53.1177 3.984C53.747 3.984 54.3177 4.08533 54.8297 4.288C55.3417 4.48 55.779 4.75733 56.1417 5.12C56.515 5.472 56.803 5.904 57.0057 6.416C57.2084 6.928 57.3097 7.49333 57.3097 8.112ZM51.7097 8.112C51.7097 8.76267 51.8324 9.264 52.0777 9.616C52.3337 9.95733 52.6857 10.128 53.1337 10.128C53.5817 10.128 53.923 9.952 54.1577 9.6C54.403 9.248 54.5257 8.752 54.5257 8.112C54.5257 7.472 54.403 6.98133 54.1577 6.64C53.9124 6.288 53.5657 6.112 53.1177 6.112C52.6697 6.112 52.323 6.288 52.0777 6.64C51.8324 6.98133 51.7097 7.472 51.7097 8.112ZM66.6847 8.112C66.6847 8.77333 66.5834 9.36533 66.3807 9.888C66.178 10.4 65.89 10.832 65.5167 11.184C65.154 11.536 64.7167 11.8027 64.2047 11.984C63.6927 12.1653 63.122 12.256 62.4927 12.256C61.8634 12.256 61.2927 12.16 60.7807 11.968C60.2687 11.776 59.826 11.504 59.4527 11.152C59.09 10.7893 58.8074 10.352 58.6047 9.84C58.402 9.328 58.3007 8.752 58.3007 8.112C58.3007 7.48267 58.402 6.912 58.6047 6.4C58.8074 5.888 59.09 5.456 59.4527 5.104C59.826 4.74133 60.2687 4.464 60.7807 4.272C61.2927 4.08 61.8634 3.984 62.4927 3.984C63.122 3.984 63.6927 4.08533 64.2047 4.288C64.7167 4.48 65.154 4.75733 65.5167 5.12C65.89 5.472 66.178 5.904 66.3807 6.416C66.5834 6.928 66.6847 7.49333 66.6847 8.112ZM61.0847 8.112C61.0847 8.76267 61.2074 9.264 61.4527 9.616C61.7087 9.95733 62.0607 10.128 62.5087 10.128C62.9567 10.128 63.298 9.952 63.5327 9.6C63.778 9.248 63.9007 8.752 63.9007 8.112C63.9007 7.472 63.778 6.98133 63.5327 6.64C63.2874 6.288 62.9407 6.112 62.4927 6.112C62.0447 6.112 61.698 6.288 61.4527 6.64C61.2074 6.98133 61.0847 7.472 61.0847 8.112ZM70.7317 9.328C70.7317 9.60533 70.817 9.80267 70.9877 9.92C71.169 10.0373 71.4197 10.096 71.7397 10.096C71.8997 10.096 72.065 10.0853 72.2357 10.064C72.4064 10.032 72.5557 9.99467 72.6837 9.952C72.7797 10.0693 72.8597 10.2027 72.9237 10.352C72.9984 10.4907 73.0357 10.6613 73.0357 10.864C73.0357 11.2693 72.881 11.6 72.5717 11.856C72.273 12.112 71.7397 12.24 70.9717 12.24C70.033 12.24 69.3077 12.0267 68.7957 11.6C68.2944 11.1733 68.0437 10.48 68.0437 9.52V2.672C68.161 2.64 68.3264 2.608 68.5397 2.576C68.7637 2.53333 68.9984 2.512 69.2437 2.512C69.713 2.512 70.0757 2.59733 70.3317 2.768C70.5984 2.928 70.7317 3.27467 70.7317 3.808V4.832H72.8277C72.8917 4.94933 72.9504 5.09867 73.0037 5.28C73.0677 5.45067 73.0997 5.64267 73.0997 5.856C73.0997 6.22933 73.0144 6.50133 72.8437 6.672C72.6837 6.832 72.465 6.912 72.1877 6.912H70.7317V9.328Z"/>
</mask>
<path d="M7.17406 7.072C7.17406 6.74133 7.07806 6.50133 6.88606 6.352C6.70473 6.192 6.45406 6.112 6.13406 6.112C5.92073 6.112 5.7074 6.13867 5.49406 6.192C5.2914 6.24533 5.1154 6.32533 4.96606 6.432V11.984C4.8594 12.016 4.68873 12.048 4.45406 12.08C4.23006 12.112 3.9954 12.128 3.75006 12.128C3.5154 12.128 3.30206 12.112 3.11006 12.08C2.92873 12.048 2.77406 11.984 2.64606 11.888C2.51806 11.792 2.41673 11.664 2.34206 11.504C2.27806 11.3333 2.24606 11.1147 2.24606 10.848V6.048C2.24606 5.76 2.30473 5.52533 2.42206 5.344C2.55006 5.16267 2.72073 4.99733 2.93406 4.848C3.29673 4.592 3.75006 4.384 4.29406 4.224C4.84873 4.064 5.46206 3.984 6.13406 3.984C7.3394 3.984 8.2674 4.25067 8.91806 4.784C9.56873 5.30667 9.89406 6.03733 9.89406 6.976V11.984C9.7874 12.016 9.61673 12.048 9.38206 12.08C9.15806 12.112 8.9234 12.128 8.67806 12.128C8.4434 12.128 8.23006 12.112 8.03806 12.08C7.85673 12.048 7.70206 11.984 7.57406 11.888C7.44606 11.792 7.34473 11.664 7.27006 11.504C7.20606 11.3333 7.17406 11.1147 7.17406 10.848V7.072ZM19.6222 8.112C19.6222 8.77333 19.5209 9.36533 19.3182 9.888C19.1155 10.4 18.8275 10.832 18.4542 11.184C18.0915 11.536 17.6542 11.8027 17.1422 11.984C16.6302 12.1653 16.0595 12.256 15.4302 12.256C14.8009 12.256 14.2302 12.16 13.7182 11.968C13.2062 11.776 12.7635 11.504 12.3902 11.152C12.0275 10.7893 11.7449 10.352 11.5422 9.84C11.3395 9.328 11.2382 8.752 11.2382 8.112C11.2382 7.48267 11.3395 6.912 11.5422 6.4C11.7449 5.888 12.0275 5.456 12.3902 5.104C12.7635 4.74133 13.2062 4.464 13.7182 4.272C14.2302 4.08 14.8009 3.984 15.4302 3.984C16.0595 3.984 16.6302 4.08533 17.1422 4.288C17.6542 4.48 18.0915 4.75733 18.4542 5.12C18.8275 5.472 19.1155 5.904 19.3182 6.416C19.5209 6.928 19.6222 7.49333 19.6222 8.112ZM14.0222 8.112C14.0222 8.76267 14.1449 9.264 14.3902 9.616C14.6462 9.95733 14.9982 10.128 15.4462 10.128C15.8942 10.128 16.2355 9.952 16.4702 9.6C16.7155 9.248 16.8382 8.752 16.8382 8.112C16.8382 7.472 16.7155 6.98133 16.4702 6.64C16.2249 6.288 15.8782 6.112 15.4302 6.112C14.9822 6.112 14.6355 6.288 14.3902 6.64C14.1449 6.98133 14.0222 7.472 14.0222 8.112ZM28.9972 8.112C28.9972 8.77333 28.8959 9.36533 28.6932 9.888C28.4905 10.4 28.2025 10.832 27.8292 11.184C27.4665 11.536 27.0292 11.8027 26.5172 11.984C26.0052 12.1653 25.4345 12.256 24.8052 12.256C24.1759 12.256 23.6052 12.16 23.0932 11.968C22.5812 11.776 22.1385 11.504 21.7652 11.152C21.4025 10.7893 21.1199 10.352 20.9172 9.84C20.7145 9.328 20.6132 8.752 20.6132 8.112C20.6132 7.48267 20.7145 6.912 20.9172 6.4C21.1199 5.888 21.4025 5.456 21.7652 5.104C22.1385 4.74133 22.5812 4.464 23.0932 4.272C23.6052 4.08 24.1759 3.984 24.8052 3.984C25.4345 3.984 26.0052 4.08533 26.5172 4.288C27.0292 4.48 27.4665 4.75733 27.8292 5.12C28.2025 5.472 28.4905 5.904 28.6932 6.416C28.8959 6.928 28.9972 7.49333 28.9972 8.112ZM23.3972 8.112C23.3972 8.76267 23.5199 9.264 23.7652 9.616C24.0212 9.95733 24.3732 10.128 24.8212 10.128C25.2692 10.128 25.6105 9.952 25.8452 9.6C26.0905 9.248 26.2132 8.752 26.2132 8.112C26.2132 7.472 26.0905 6.98133 25.8452 6.64C25.5999 6.288 25.2532 6.112 24.8052 6.112C24.3572 6.112 24.0105 6.288 23.7652 6.64C23.5199 6.98133 23.3972 7.472 23.3972 8.112ZM33.0442 9.328C33.0442 9.60533 33.1295 9.80267 33.3002 9.92C33.4815 10.0373 33.7322 10.096 34.0522 10.096C34.2122 10.096 34.3775 10.0853 34.5482 10.064C34.7189 10.032 34.8682 9.99467 34.9962 9.952C35.0922 10.0693 35.1722 10.2027 35.2362 10.352C35.3109 10.4907 35.3482 10.6613 35.3482 10.864C35.3482 11.2693 35.1935 11.6 34.8842 11.856C34.5855 12.112 34.0522 12.24 33.2842 12.24C32.3455 12.24 31.6202 12.0267 31.1082 11.6C30.6069 11.1733 30.3562 10.48 30.3562 9.52V2.672C30.4735 2.64 30.6389 2.608 30.8522 2.576C31.0762 2.53333 31.3109 2.512 31.5562 2.512C32.0255 2.512 32.3882 2.59733 32.6442 2.768C32.9109 2.928 33.0442 3.27467 33.0442 3.808V4.832H35.1402C35.2042 4.94933 35.2629 5.09867 35.3162 5.28C35.3802 5.45067 35.4122 5.64267 35.4122 5.856C35.4122 6.22933 35.3269 6.50133 35.1562 6.672C34.9962 6.832 34.7775 6.912 34.5002 6.912H33.0442V9.328ZM44.8616 7.072C44.8616 6.74133 44.7656 6.50133 44.5736 6.352C44.3922 6.192 44.1416 6.112 43.8216 6.112C43.6082 6.112 43.3949 6.13867 43.1816 6.192C42.9789 6.24533 42.8029 6.32533 42.6536 6.432V11.984C42.5469 12.016 42.3762 12.048 42.1416 12.08C41.9176 12.112 41.6829 12.128 41.4376 12.128C41.2029 12.128 40.9896 12.112 40.7976 12.08C40.6162 12.048 40.4616 11.984 40.3336 11.888C40.2056 11.792 40.1042 11.664 40.0296 11.504C39.9656 11.3333 39.9336 11.1147 39.9336 10.848V6.048C39.9336 5.76 39.9922 5.52533 40.1096 5.344C40.2376 5.16267 40.4082 4.99733 40.6216 4.848C40.9842 4.592 41.4376 4.384 41.9816 4.224C42.5362 4.064 43.1496 3.984 43.8216 3.984C45.0269 3.984 45.9549 4.25067 46.6056 4.784C47.2562 5.30667 47.5816 6.03733 47.5816 6.976V11.984C47.4749 12.016 47.3042 12.048 47.0696 12.08C46.8456 12.112 46.6109 12.128 46.3656 12.128C46.1309 12.128 45.9176 12.112 45.7256 12.08C45.5442 12.048 45.3896 11.984 45.2616 11.888C45.1336 11.792 45.0322 11.664 44.9576 11.504C44.8936 11.3333 44.8616 11.1147 44.8616 10.848V7.072ZM57.3097 8.112C57.3097 8.77333 57.2084 9.36533 57.0057 9.888C56.803 10.4 56.515 10.832 56.1417 11.184C55.779 11.536 55.3417 11.8027 54.8297 11.984C54.3177 12.1653 53.747 12.256 53.1177 12.256C52.4884 12.256 51.9177 12.16 51.4057 11.968C50.8937 11.776 50.451 11.504 50.0777 11.152C49.715 10.7893 49.4324 10.352 49.2297 9.84C49.027 9.328 48.9257 8.752 48.9257 8.112C48.9257 7.48267 49.027 6.912 49.2297 6.4C49.4324 5.888 49.715 5.456 50.0777 5.104C50.451 4.74133 50.8937 4.464 51.4057 4.272C51.9177 4.08 52.4884 3.984 53.1177 3.984C53.747 3.984 54.3177 4.08533 54.8297 4.288C55.3417 4.48 55.779 4.75733 56.1417 5.12C56.515 5.472 56.803 5.904 57.0057 6.416C57.2084 6.928 57.3097 7.49333 57.3097 8.112ZM51.7097 8.112C51.7097 8.76267 51.8324 9.264 52.0777 9.616C52.3337 9.95733 52.6857 10.128 53.1337 10.128C53.5817 10.128 53.923 9.952 54.1577 9.6C54.403 9.248 54.5257 8.752 54.5257 8.112C54.5257 7.472 54.403 6.98133 54.1577 6.64C53.9124 6.288 53.5657 6.112 53.1177 6.112C52.6697 6.112 52.323 6.288 52.0777 6.64C51.8324 6.98133 51.7097 7.472 51.7097 8.112ZM66.6847 8.112C66.6847 8.77333 66.5834 9.36533 66.3807 9.888C66.178 10.4 65.89 10.832 65.5167 11.184C65.154 11.536 64.7167 11.8027 64.2047 11.984C63.6927 12.1653 63.122 12.256 62.4927 12.256C61.8634 12.256 61.2927 12.16 60.7807 11.968C60.2687 11.776 59.826 11.504 59.4527 11.152C59.09 10.7893 58.8074 10.352 58.6047 9.84C58.402 9.328 58.3007 8.752 58.3007 8.112C58.3007 7.48267 58.402 6.912 58.6047 6.4C58.8074 5.888 59.09 5.456 59.4527 5.104C59.826 4.74133 60.2687 4.464 60.7807 4.272C61.2927 4.08 61.8634 3.984 62.4927 3.984C63.122 3.984 63.6927 4.08533 64.2047 4.288C64.7167 4.48 65.154 4.75733 65.5167 5.12C65.89 5.472 66.178 5.904 66.3807 6.416C66.5834 6.928 66.6847 7.49333 66.6847 8.112ZM61.0847 8.112C61.0847 8.76267 61.2074 9.264 61.4527 9.616C61.7087 9.95733 62.0607 10.128 62.5087 10.128C62.9567 10.128 63.298 9.952 63.5327 9.6C63.778 9.248 63.9007 8.752 63.9007 8.112C63.9007 7.472 63.778 6.98133 63.5327 6.64C63.2874 6.288 62.9407 6.112 62.4927 6.112C62.0447 6.112 61.698 6.288 61.4527 6.64C61.2074 6.98133 61.0847 7.472 61.0847 8.112ZM70.7317 9.328C70.7317 9.60533 70.817 9.80267 70.9877 9.92C71.169 10.0373 71.4197 10.096 71.7397 10.096C71.8997 10.096 72.065 10.0853 72.2357 10.064C72.4064 10.032 72.5557 9.99467 72.6837 9.952C72.7797 10.0693 72.8597 10.2027 72.9237 10.352C72.9984 10.4907 73.0357 10.6613 73.0357 10.864C73.0357 11.2693 72.881 11.6 72.5717 11.856C72.273 12.112 71.7397 12.24 70.9717 12.24C70.033 12.24 69.3077 12.0267 68.7957 11.6C68.2944 11.1733 68.0437 10.48 68.0437 9.52V2.672C68.161 2.64 68.3264 2.608 68.5397 2.576C68.7637 2.53333 68.9984 2.512 69.2437 2.512C69.713 2.512 70.0757 2.59733 70.3317 2.768C70.5984 2.928 70.7317 3.27467 70.7317 3.808V4.832H72.8277C72.8917 4.94933 72.9504 5.09867 73.0037 5.28C73.0677 5.45067 73.0997 5.64267 73.0997 5.856C73.0997 6.22933 73.0144 6.50133 72.8437 6.672C72.6837 6.832 72.465 6.912 72.1877 6.912H70.7317V9.328Z" fill="white"/>
<path d="M6.88606 6.352L5.56282 7.85167L5.60928 7.89267L5.65818 7.9307L6.88606 6.352ZM5.49406 6.192L5.00899 4.25172L4.99701 4.25471L4.98508 4.25785L5.49406 6.192ZM4.96606 6.432L3.80359 4.80453L2.96606 5.40276V6.432H4.96606ZM4.96606 11.984L5.54076 13.8997L6.96606 13.4721V11.984H4.96606ZM4.45406 12.08L4.18383 10.0983L4.17122 10.1001L4.45406 12.08ZM3.11006 12.08L2.76249 14.0496L2.77187 14.0512L2.78126 14.0528L3.11006 12.08ZM2.64606 11.888L3.84606 10.288L3.84606 10.288L2.64606 11.888ZM2.34206 11.504L0.469404 12.2062L0.496755 12.2792L0.529696 12.3498L2.34206 11.504ZM2.42206 5.344L0.788126 4.19063L0.76485 4.22361L0.742922 4.2575L2.42206 5.344ZM2.93406 4.848L4.081 6.48648L4.08743 6.48194L2.93406 4.848ZM4.29406 4.224L3.73973 2.30233L3.72973 2.30527L4.29406 4.224ZM8.91806 4.784L7.65021 6.33078L7.65785 6.33705L7.66556 6.34324L8.91806 4.784ZM9.89406 11.984L10.4688 13.8997L11.8941 13.4721V11.984H9.89406ZM9.38206 12.08L9.11183 10.0983L9.09922 10.1001L9.38206 12.08ZM8.03806 12.08L7.69049 14.0496L7.69987 14.0512L7.70926 14.0528L8.03806 12.08ZM7.57406 11.888L6.37406 13.488L7.57406 11.888ZM7.27006 11.504L5.39741 12.2062L5.42476 12.2792L5.4577 12.3498L7.27006 11.504ZM9.17406 7.072C9.17406 6.36149 8.95398 5.42665 8.11394 4.7733L5.65818 7.9307C5.45635 7.77372 5.32034 7.57485 5.24511 7.38678C5.17628 7.21471 5.17406 7.09313 5.17406 7.072H9.17406ZM8.20931 4.85233C7.55808 4.27771 6.78118 4.112 6.13406 4.112V8.112C6.12694 8.112 5.85138 8.10629 5.56282 7.85167L8.20931 4.85233ZM6.13406 4.112C5.75223 4.112 5.37606 4.15995 5.00899 4.25172L5.97914 8.13228C6.03873 8.11739 6.08923 8.112 6.13406 8.112V4.112ZM4.98508 4.25785C4.58072 4.36426 4.17628 4.53832 3.80359 4.80453L6.12854 8.05947C6.05451 8.11234 6.00207 8.12641 6.00305 8.12615L4.98508 4.25785ZM2.96606 6.432V11.984H6.96606V6.432H2.96606ZM4.39137 10.0683C4.41546 10.0611 4.42789 10.0584 4.42434 10.0592C4.42168 10.0598 4.41065 10.0623 4.38949 10.0663C4.34608 10.0744 4.27918 10.0853 4.18384 10.0983L4.72429 14.0617C4.97399 14.0276 5.27536 13.9793 5.54076 13.8997L4.39137 10.0683ZM4.17122 10.1001C4.04835 10.1177 3.90859 10.128 3.75006 10.128V14.128C4.0822 14.128 4.41177 14.1063 4.73691 14.0599L4.17122 10.1001ZM3.75006 10.128C3.60395 10.128 3.50279 10.1179 3.43886 10.1072L2.78126 14.0528C3.10134 14.1061 3.42684 14.128 3.75006 14.128V10.128ZM3.45763 10.1104C3.53872 10.1247 3.68743 10.169 3.84606 10.288L1.44606 13.488C1.8607 13.799 2.31874 13.9713 2.76249 14.0496L3.45763 10.1104ZM3.84606 10.288C4.0075 10.4091 4.10474 10.5518 4.15443 10.6582L0.529696 12.3498C0.728715 12.7762 1.02862 13.1749 1.44606 13.488L3.84606 10.288ZM4.21472 10.8018C4.22867 10.839 4.23705 10.8685 4.2419 10.8882C4.24676 10.9079 4.2486 10.9198 4.24898 10.9224C4.24953 10.9262 4.24606 10.9035 4.24606 10.848H0.246063C0.246063 11.2535 0.291823 11.7327 0.469404 12.2062L4.21472 10.8018ZM4.24606 10.848V6.048H0.246063V10.848H4.24606ZM4.24606 6.048C4.24606 6.01992 4.25244 6.19677 4.1012 6.4305L0.742922 4.2575C0.357016 4.8539 0.246063 5.50008 0.246063 6.048H4.24606ZM4.056 6.49737C4.03004 6.53415 4.02471 6.52586 4.08099 6.48646L1.78714 3.20954C1.41675 3.46881 1.07009 3.79119 0.788126 4.19063L4.056 6.49737ZM4.08743 6.48194C4.22885 6.38211 4.4695 6.25711 4.8584 6.14273L3.72973 2.30527C3.03062 2.51089 2.36461 2.80189 1.7807 3.21406L4.08743 6.48194ZM4.84838 6.14565C5.19619 6.04532 5.61964 5.984 6.13406 5.984V1.984C5.30448 1.984 4.50127 2.08268 3.73974 2.30235L4.84838 6.14565ZM6.13406 5.984C7.07275 5.984 7.4837 6.1943 7.65021 6.33078L10.1859 3.23722C9.05109 2.30703 7.60604 1.984 6.13406 1.984V5.984ZM7.66556 6.34324C7.7807 6.43573 7.89406 6.55789 7.89406 6.976H11.8941C11.8941 5.51678 11.3568 4.1776 10.1706 3.22476L7.66556 6.34324ZM7.89406 6.976V11.984H11.8941V6.976H7.89406ZM9.31937 10.0683C9.34346 10.0611 9.35589 10.0584 9.35234 10.0592C9.34968 10.0598 9.33865 10.0623 9.31749 10.0663C9.27408 10.0744 9.20718 10.0853 9.11184 10.0983L9.65229 14.0617C9.90199 14.0276 10.2034 13.9793 10.4688 13.8997L9.31937 10.0683ZM9.09922 10.1001C8.97635 10.1177 8.83659 10.128 8.67806 10.128V14.128C9.0102 14.128 9.33977 14.1063 9.66491 14.0599L9.09922 10.1001ZM8.67806 10.128C8.53195 10.128 8.43079 10.1179 8.36686 10.1072L7.70926 14.0528C8.02934 14.1061 8.35484 14.128 8.67806 14.128V10.128ZM8.38563 10.1104C8.46672 10.1247 8.61543 10.169 8.77406 10.288L6.37406 13.488C6.7887 13.799 7.24674 13.9713 7.69049 14.0496L8.38563 10.1104ZM8.77406 10.288C8.9355 10.4091 9.03274 10.5518 9.08243 10.6582L5.4577 12.3498C5.65672 12.7762 5.95662 13.1749 6.37406 13.488L8.77406 10.288ZM9.14272 10.8018C9.15667 10.839 9.16505 10.8685 9.1699 10.8882C9.17476 10.9079 9.1766 10.9198 9.17698 10.9224C9.17753 10.9262 9.17406 10.9035 9.17406 10.848H5.17406C5.17406 11.2535 5.21982 11.7327 5.39741 12.2062L9.14272 10.8018ZM9.17406 10.848V7.072H5.17406V10.848H9.17406ZM19.3182 9.888L21.1778 10.6241L21.1829 10.6111L19.3182 9.888ZM18.4542 11.184L17.0822 9.72882L17.0716 9.73875L17.0612 9.74884L18.4542 11.184ZM17.1422 11.984L16.4745 10.0987L16.4745 10.0987L17.1422 11.984ZM13.7182 11.968L13.0159 13.8407L13.0159 13.8407L13.7182 11.968ZM12.3902 11.152L10.976 12.5662L10.9968 12.587L11.0182 12.6072L12.3902 11.152ZM11.5422 9.84L9.68257 10.5761L9.68257 10.5761L11.5422 9.84ZM11.5422 6.4L9.68257 5.6639L9.68257 5.6639L11.5422 6.4ZM12.3902 5.104L13.7831 6.53916L13.7838 6.53856L12.3902 5.104ZM13.7182 4.272L14.4204 6.14466L14.4204 6.14466L13.7182 4.272ZM17.1422 4.288L16.4061 6.14761L16.423 6.15429L16.4399 6.16066L17.1422 4.288ZM18.4542 5.12L17.04 6.53421L17.0608 6.55501L17.0822 6.57518L18.4542 5.12ZM19.3182 6.416L17.4586 7.1521L17.4586 7.1521L19.3182 6.416ZM14.3902 9.616L12.7494 10.7596L12.7693 10.7881L12.7902 10.816L14.3902 9.616ZM16.4702 9.6L14.8294 8.45641L14.8176 8.47339L14.8061 8.4906L16.4702 9.6ZM16.4702 6.64L14.8294 7.78358L14.8377 7.79549L14.8462 7.80727L16.4702 6.64ZM14.3902 6.64L16.0142 7.80727L16.0227 7.79549L16.031 7.78358L14.3902 6.64ZM17.6222 8.112C17.6222 8.56959 17.5522 8.91027 17.4535 9.16494L21.1829 10.6111C21.4895 9.8204 21.6222 8.97707 21.6222 8.112H17.6222ZM17.4586 9.1519C17.3557 9.41168 17.2269 9.59235 17.0822 9.72882L19.8262 12.6392C20.4281 12.0717 20.8753 11.3883 21.1778 10.6241L17.4586 9.1519ZM17.0612 9.74884C16.9202 9.88568 16.7358 10.0062 16.4745 10.0987L17.8099 13.8693C18.5726 13.5991 19.2628 13.1863 19.8471 12.6192L17.0612 9.74884ZM16.4745 10.0987C16.2079 10.1931 15.8675 10.256 15.4302 10.256V14.256C16.2516 14.256 17.0524 14.1375 17.8099 13.8693L16.4745 10.0987ZM15.4302 10.256C15.005 10.256 14.6767 10.1915 14.4204 10.0953L13.0159 13.8407C13.7836 14.1285 14.5967 14.256 15.4302 14.256V10.256ZM14.4204 10.0953C14.1406 9.99042 13.9298 9.8548 13.7622 9.69682L11.0182 12.6072C11.5973 13.1532 12.2717 13.5616 13.0159 13.8407L14.4204 10.0953ZM13.8044 9.73779C13.6489 9.58227 13.5114 9.38076 13.4018 9.1039L9.68257 10.5761C9.97832 11.3232 10.4062 11.9964 10.976 12.5662L13.8044 9.73779ZM13.4018 9.1039C13.3057 8.861 13.2382 8.54029 13.2382 8.112H9.23819C9.23819 8.96371 9.37339 9.795 9.68257 10.5761L13.4018 9.1039ZM13.2382 8.112C13.2382 7.69901 13.3042 7.38274 13.4018 7.1361L9.68257 5.6639C9.37487 6.44126 9.23819 7.26632 9.23819 8.112H13.2382ZM13.4018 7.1361C13.5096 6.86369 13.6414 6.67671 13.7831 6.53916L10.9972 3.66884C10.4136 4.23529 9.98008 4.91231 9.68257 5.6639L13.4018 7.1361ZM13.7838 6.53856C13.9494 6.37769 14.1533 6.24484 14.4204 6.14466L13.0159 2.39934C12.2591 2.68316 11.5777 3.10498 10.9966 3.66944L13.7838 6.53856ZM14.4204 6.14466C14.6767 6.04855 15.005 5.984 15.4302 5.984V1.984C14.5967 1.984 13.7836 2.11145 13.0159 2.39934L14.4204 6.14466ZM15.4302 5.984C15.8432 5.984 16.1594 6.04998 16.4061 6.14761L17.8783 2.42839C17.1009 2.12068 16.2759 1.984 15.4302 1.984V5.984ZM16.4399 6.16066C16.7026 6.25916 16.8924 6.38659 17.04 6.53421L19.8684 3.70579C19.2907 3.12807 18.6058 2.70084 17.8444 2.41534L16.4399 6.16066ZM17.0822 6.57518C17.2269 6.71165 17.3557 6.89232 17.4586 7.1521L21.1778 5.6799C20.8753 4.91568 20.4281 4.23235 19.8262 3.66482L17.0822 6.57518ZM17.4586 7.1521C17.5577 7.40258 17.6222 7.71436 17.6222 8.112H21.6222C21.6222 7.2723 21.484 6.45342 21.1778 5.6799L17.4586 7.1521ZM12.0222 8.112C12.0222 8.97337 12.1779 9.93968 12.7494 10.7596L16.031 8.47241C16.0747 8.53511 16.0712 8.55921 16.0569 8.50066C16.042 8.43975 16.0222 8.31665 16.0222 8.112H12.0222ZM12.7902 10.816C13.4454 11.6897 14.4055 12.128 15.4462 12.128V8.128C15.4805 8.128 15.5858 8.13591 15.7187 8.20037C15.8549 8.26641 15.9446 8.35527 15.9902 8.416L12.7902 10.816ZM15.4462 12.128C16.5159 12.128 17.5033 11.6558 18.1343 10.7094L14.8061 8.4906C14.8576 8.41338 14.9605 8.30146 15.1216 8.21839C15.2781 8.1377 15.4044 8.128 15.4462 8.128V12.128ZM18.111 10.7436C18.6793 9.92821 18.8382 8.97101 18.8382 8.112H14.8382C14.8382 8.30892 14.8188 8.42656 14.8047 8.48384C14.7912 8.53847 14.7881 8.51561 14.8294 8.45641L18.111 10.7436ZM18.8382 8.112C18.8382 7.25894 18.6816 6.28996 18.0942 5.47273L14.8462 7.80727C14.7945 7.73546 14.7937 7.70046 14.8059 7.74907C14.8187 7.80038 14.8382 7.91451 14.8382 8.112H18.8382ZM18.111 5.49641C17.4725 4.58031 16.498 4.112 15.4302 4.112V8.112C15.3876 8.112 15.268 8.10204 15.1208 8.02733C14.9704 7.95098 14.8754 7.84962 14.8294 7.78358L18.111 5.49641ZM15.4302 4.112C14.3624 4.112 13.3879 4.58031 12.7494 5.49641L16.031 7.78358C15.985 7.84962 15.89 7.95098 15.7396 8.02733C15.5924 8.10204 15.4728 8.112 15.4302 8.112V4.112ZM12.7662 5.47273C12.1788 6.28996 12.0222 7.25894 12.0222 8.112H16.0222C16.0222 7.91451 16.0416 7.80038 16.0545 7.74907C16.0666 7.70046 16.0658 7.73546 16.0142 7.80727L12.7662 5.47273ZM28.6932 9.888L30.5528 10.6241L30.5579 10.6111L28.6932 9.888ZM27.8292 11.184L26.4572 9.72882L26.4466 9.73875L26.4362 9.74884L27.8292 11.184ZM26.5172 11.984L25.8495 10.0987L25.8495 10.0987L26.5172 11.984ZM23.0932 11.968L22.3909 13.8407L22.3909 13.8407L23.0932 11.968ZM21.7652 11.152L20.351 12.5662L20.3718 12.587L20.3932 12.6072L21.7652 11.152ZM20.9172 9.84L19.0576 10.5761L19.0576 10.5761L20.9172 9.84ZM20.9172 6.4L19.0576 5.6639L19.0576 5.6639L20.9172 6.4ZM21.7652 5.104L23.1581 6.53916L23.1588 6.53856L21.7652 5.104ZM23.0932 4.272L23.7954 6.14466L23.7954 6.14466L23.0932 4.272ZM26.5172 4.288L25.7811 6.14761L25.798 6.15429L25.8149 6.16066L26.5172 4.288ZM27.8292 5.12L26.415 6.53421L26.4358 6.55501L26.4572 6.57518L27.8292 5.12ZM28.6932 6.416L26.8336 7.1521L26.8336 7.1521L28.6932 6.416ZM23.7652 9.616L22.1244 10.7596L22.1443 10.7881L22.1652 10.816L23.7652 9.616ZM25.8452 9.6L24.2044 8.45641L24.1926 8.47339L24.1811 8.4906L25.8452 9.6ZM25.8452 6.64L24.2044 7.78358L24.2127 7.79549L24.2212 7.80727L25.8452 6.64ZM23.7652 6.64L25.3892 7.80727L25.3977 7.79549L25.406 7.78358L23.7652 6.64ZM26.9972 8.112C26.9972 8.56959 26.9272 8.91027 26.8285 9.16494L30.5579 10.6111C30.8645 9.8204 30.9972 8.97707 30.9972 8.112H26.9972ZM26.8336 9.1519C26.7307 9.41168 26.6019 9.59235 26.4572 9.72882L29.2012 12.6392C29.8031 12.0717 30.2503 11.3883 30.5528 10.6241L26.8336 9.1519ZM26.4362 9.74884C26.2952 9.88568 26.1108 10.0062 25.8495 10.0987L27.1849 13.8693C27.9476 13.5991 28.6378 13.1863 29.2221 12.6192L26.4362 9.74884ZM25.8495 10.0987C25.5829 10.1931 25.2425 10.256 24.8052 10.256V14.256C25.6266 14.256 26.4274 14.1375 27.1849 13.8693L25.8495 10.0987ZM24.8052 10.256C24.38 10.256 24.0517 10.1915 23.7954 10.0953L22.3909 13.8407C23.1586 14.1285 23.9717 14.256 24.8052 14.256V10.256ZM23.7954 10.0953C23.5156 9.99042 23.3048 9.8548 23.1372 9.69682L20.3932 12.6072C20.9723 13.1532 21.6467 13.5616 22.3909 13.8407L23.7954 10.0953ZM23.1794 9.73779C23.0239 9.58227 22.8864 9.38076 22.7768 9.1039L19.0576 10.5761C19.3533 11.3232 19.7812 11.9964 20.351 12.5662L23.1794 9.73779ZM22.7768 9.1039C22.6807 8.861 22.6132 8.54029 22.6132 8.112H18.6132C18.6132 8.96371 18.7484 9.795 19.0576 10.5761L22.7768 9.1039ZM22.6132 8.112C22.6132 7.69901 22.6792 7.38274 22.7768 7.1361L19.0576 5.6639C18.7499 6.44126 18.6132 7.26632 18.6132 8.112H22.6132ZM22.7768 7.1361C22.8846 6.86369 23.0164 6.67671 23.1581 6.53916L20.3722 3.66884C19.7886 4.23529 19.3551 4.91231 19.0576 5.6639L22.7768 7.1361ZM23.1588 6.53856C23.3244 6.37769 23.5283 6.24484 23.7954 6.14466L22.3909 2.39934C21.6341 2.68316 20.9527 3.10498 20.3716 3.66944L23.1588 6.53856ZM23.7954 6.14466C24.0517 6.04855 24.38 5.984 24.8052 5.984V1.984C23.9717 1.984 23.1586 2.11145 22.3909 2.39934L23.7954 6.14466ZM24.8052 5.984C25.2182 5.984 25.5344 6.04998 25.7811 6.14761L27.2533 2.42839C26.4759 2.12068 25.6509 1.984 24.8052 1.984V5.984ZM25.8149 6.16066C26.0776 6.25916 26.2674 6.38659 26.415 6.53421L29.2434 3.70579C28.6657 3.12807 27.9808 2.70084 27.2194 2.41534L25.8149 6.16066ZM26.4572 6.57518C26.6019 6.71165 26.7307 6.89232 26.8336 7.1521L30.5528 5.6799C30.2503 4.91568 29.8031 4.23235 29.2012 3.66482L26.4572 6.57518ZM26.8336 7.1521C26.9327 7.40258 26.9972 7.71436 26.9972 8.112H30.9972C30.9972 7.2723 30.859 6.45342 30.5528 5.6799L26.8336 7.1521ZM21.3972 8.112C21.3972 8.97337 21.5529 9.93968 22.1244 10.7596L25.406 8.47241C25.4497 8.53511 25.4462 8.55921 25.4319 8.50066C25.417 8.43975 25.3972 8.31665 25.3972 8.112H21.3972ZM22.1652 10.816C22.8204 11.6897 23.7805 12.128 24.8212 12.128V8.128C24.8555 8.128 24.9608 8.13591 25.0937 8.20037C25.2299 8.26641 25.3196 8.35527 25.3652 8.416L22.1652 10.816ZM24.8212 12.128C25.8909 12.128 26.8783 11.6558 27.5093 10.7094L24.1811 8.4906C24.2326 8.41338 24.3355 8.30146 24.4966 8.21839C24.6531 8.1377 24.7794 8.128 24.8212 8.128V12.128ZM27.486 10.7436C28.0543 9.92821 28.2132 8.97101 28.2132 8.112H24.2132C24.2132 8.30892 24.1938 8.42656 24.1797 8.48384C24.1662 8.53847 24.1631 8.51561 24.2044 8.45641L27.486 10.7436ZM28.2132 8.112C28.2132 7.25894 28.0566 6.28996 27.4692 5.47273L24.2212 7.80727C24.1695 7.73546 24.1687 7.70046 24.1809 7.74907C24.1937 7.80038 24.2132 7.91451 24.2132 8.112H28.2132ZM27.486 5.49641C26.8475 4.58031 25.873 4.112 24.8052 4.112V8.112C24.7626 8.112 24.643 8.10204 24.4958 8.02733C24.3454 7.95098 24.2504 7.84962 24.2044 7.78358L27.486 5.49641ZM24.8052 4.112C23.7374 4.112 22.7629 4.58031 22.1244 5.49641L25.406 7.78358C25.36 7.84962 25.265 7.95098 25.1146 8.02733C24.9674 8.10204 24.8478 8.112 24.8052 8.112V4.112ZM22.1412 5.47273C21.5538 6.28996 21.3972 7.25894 21.3972 8.112H25.3972C25.3972 7.91451 25.4166 7.80038 25.4295 7.74907C25.4416 7.70046 25.4408 7.73546 25.3892 7.80727L22.1412 5.47273ZM33.3002 9.92L32.1671 11.5681L32.1902 11.5839L32.2137 11.5991L33.3002 9.92ZM34.5482 10.064L34.7963 12.0486L34.8568 12.041L34.9168 12.0297L34.5482 10.064ZM34.9962 9.952L36.5441 8.68552L35.6713 7.61877L34.3637 8.05463L34.9962 9.952ZM35.2362 10.352L33.3979 11.1398L33.433 11.2217L33.4752 11.3002L35.2362 10.352ZM34.8842 11.856L33.6091 10.3152L33.5957 10.3262L33.5826 10.3375L34.8842 11.856ZM31.1082 11.6L29.812 13.1231L29.8198 13.1298L29.8278 13.1364L31.1082 11.6ZM30.3562 2.672L29.8299 0.742473L28.3562 1.14441V2.672H30.3562ZM30.8522 2.576L31.1489 4.55387L31.1878 4.54804L31.2264 4.54068L30.8522 2.576ZM32.6442 2.768L31.5348 4.4321L31.5744 4.4585L31.6152 4.48299L32.6442 2.768ZM33.0442 4.832H31.0442V6.832H33.0442V4.832ZM35.1402 4.832L36.896 3.87429L36.3275 2.832H35.1402V4.832ZM35.3162 5.28L33.3975 5.84433L33.418 5.91413L33.4435 5.98224L35.3162 5.28ZM33.0442 6.912V4.912H31.0442V6.912H33.0442ZM31.0442 9.328C31.0442 10.0183 31.2786 10.9572 32.1671 11.5681L34.4332 8.27192C34.67 8.43466 34.8433 8.65751 34.9439 8.89018C35.0361 9.10346 35.0442 9.26947 35.0442 9.328H31.0442ZM32.2137 11.5991C32.8393 12.004 33.5212 12.096 34.0522 12.096V8.096C34.0102 8.096 34.025 8.09175 34.08 8.10462C34.1368 8.11794 34.251 8.15307 34.3867 8.24086L32.2137 11.5991ZM34.0522 12.096C34.301 12.096 34.5494 12.0794 34.7963 12.0486L34.3001 8.07944C34.2057 8.09125 34.1234 8.096 34.0522 8.096V12.096ZM34.9168 12.0297C35.1529 11.9855 35.394 11.9276 35.6286 11.8494L34.3637 8.05463C34.3424 8.06174 34.2848 8.07853 34.1796 8.09826L34.9168 12.0297ZM33.4483 11.2185C33.4173 11.1806 33.4025 11.1506 33.3979 11.1398L37.0745 9.56416C36.9419 9.25477 36.7671 8.95802 36.5441 8.68552L33.4483 11.2185ZM33.4752 11.3002C33.3544 11.0757 33.3482 10.8999 33.3482 10.864H37.3482C37.3482 10.4227 37.2673 9.90562 36.9971 9.4038L33.4752 11.3002ZM33.3482 10.864C33.3482 10.8064 33.3607 10.6966 33.4206 10.5686C33.4807 10.4402 33.5588 10.3568 33.6091 10.3152L36.1593 13.3968C36.9328 12.7567 37.3482 11.8587 37.3482 10.864H33.3482ZM33.5826 10.3375C33.6688 10.2636 33.7414 10.225 33.7781 10.2081C33.8139 10.1915 33.8232 10.1921 33.7934 10.1992C33.7269 10.2152 33.5684 10.24 33.2842 10.24V14.24C34.1386 14.24 35.3099 14.1252 36.1858 13.3745L33.5826 10.3375ZM33.2842 10.24C32.6249 10.24 32.4189 10.0889 32.3886 10.0636L29.8278 13.1364C30.8214 13.9645 32.0662 14.24 33.2842 14.24V10.24ZM32.4044 10.0769C32.4493 10.1151 32.4466 10.1396 32.425 10.08C32.3983 10.0061 32.3562 9.83446 32.3562 9.52H28.3562C28.3562 10.7907 28.69 12.1682 29.812 13.1231L32.4044 10.0769ZM32.3562 9.52V2.672H28.3562V9.52H32.3562ZM30.8824 4.60153C30.8785 4.60261 30.8976 4.59737 30.9482 4.58756C30.9968 4.57816 31.0628 4.56678 31.1489 4.55387L30.5555 0.598127C30.3141 0.634338 30.0591 0.679969 29.8299 0.742473L30.8824 4.60153ZM31.2264 4.54068C31.3181 4.5232 31.427 4.512 31.5562 4.512V0.511999C31.1947 0.511999 30.8342 0.543461 30.478 0.611322L31.2264 4.54068ZM31.5562 4.512C31.6135 4.512 31.6555 4.51463 31.6841 4.51756C31.7128 4.5205 31.7245 4.5234 31.7221 4.52283C31.7188 4.52204 31.6422 4.50373 31.5348 4.4321L33.7536 1.1039C33.0385 0.627141 32.227 0.511999 31.5562 0.511999V4.512ZM31.6152 4.48299C31.2954 4.29113 31.1388 4.02532 31.0775 3.86596C31.0266 3.73363 31.0442 3.68868 31.0442 3.808H35.0442C35.0442 3.08325 34.879 1.77653 33.6732 1.05301L31.6152 4.48299ZM31.0442 3.808V4.832H35.0442V3.808H31.0442ZM33.0442 6.832H35.1402V2.832H33.0442V6.832ZM33.3844 5.78971C33.3695 5.76242 33.366 5.75141 33.3707 5.76331C33.3751 5.77458 33.3846 5.80051 33.3975 5.84433L37.2349 4.71567C37.1565 4.44909 37.0497 4.15611 36.896 3.87429L33.3844 5.78971ZM33.4435 5.98224C33.4103 5.89365 33.4122 5.84239 33.4122 5.856H37.4122C37.4122 5.44294 37.3501 5.00768 37.1888 4.57775L33.4435 5.98224ZM33.4122 5.856C33.4122 5.89871 33.4063 5.84837 33.4399 5.74132C33.4763 5.62522 33.5614 5.43841 33.742 5.25779L36.5704 8.08621C37.2776 7.37905 37.4122 6.47669 37.4122 5.856H33.4122ZM33.742 5.25779C33.8737 5.12601 34.0293 5.03073 34.185 4.97375C34.3334 4.91946 34.4481 4.912 34.5002 4.912V8.912C35.1807 8.912 35.954 8.70258 36.5704 8.08621L33.742 5.25779ZM34.5002 4.912H33.0442V8.912H34.5002V4.912ZM31.0442 6.912V9.328H35.0442V6.912H31.0442ZM44.5736 6.352L43.2503 7.85167L43.2968 7.89267L43.3457 7.9307L44.5736 6.352ZM43.1816 6.192L42.6965 4.25172L42.6845 4.25471L42.6726 4.25785L43.1816 6.192ZM42.6536 6.432L41.4911 4.80453L40.6536 5.40276V6.432H42.6536ZM42.6536 11.984L43.2283 13.8997L44.6536 13.4721V11.984H42.6536ZM42.1416 12.08L41.8713 10.0983L41.8587 10.1001L42.1416 12.08ZM40.7976 12.08L40.45 14.0496L40.4594 14.0512L40.4688 14.0528L40.7976 12.08ZM40.3336 11.888L41.5336 10.288L41.5336 10.288L40.3336 11.888ZM40.0296 11.504L38.1569 12.2062L38.1843 12.2792L38.2172 12.3498L40.0296 11.504ZM40.1096 5.344L38.4756 4.19063L38.4523 4.22361L38.4304 4.2575L40.1096 5.344ZM40.6216 4.848L41.7685 6.48648L41.7749 6.48194L40.6216 4.848ZM41.9816 4.224L41.4272 2.30233L41.4172 2.30527L41.9816 4.224ZM46.6056 4.784L45.3377 6.33078L45.3454 6.33705L45.3531 6.34324L46.6056 4.784ZM47.5816 11.984L48.1563 13.8997L49.5816 13.4721V11.984H47.5816ZM47.0696 12.08L46.7993 10.0983L46.7867 10.1001L47.0696 12.08ZM45.7256 12.08L45.378 14.0496L45.3874 14.0512L45.3968 14.0528L45.7256 12.08ZM45.2616 11.888L44.0616 13.488L45.2616 11.888ZM44.9576 11.504L43.0849 12.2062L43.1123 12.2792L43.1452 12.3498L44.9576 11.504ZM46.8616 7.072C46.8616 6.36149 46.6415 5.42665 45.8014 4.7733L43.3457 7.9307C43.1438 7.77372 43.0078 7.57485 42.9326 7.38678C42.8638 7.21471 42.8616 7.09313 42.8616 7.072H46.8616ZM45.8968 4.85233C45.2456 4.27771 44.4687 4.112 43.8216 4.112V8.112C43.8144 8.112 43.5389 8.10629 43.2503 7.85167L45.8968 4.85233ZM43.8216 4.112C43.4397 4.112 43.0636 4.15995 42.6965 4.25172L43.6666 8.13228C43.7262 8.11739 43.7767 8.112 43.8216 8.112V4.112ZM42.6726 4.25785C42.2682 4.36426 41.8638 4.53832 41.4911 4.80453L43.816 8.05947C43.742 8.11234 43.6896 8.12641 43.6905 8.12615L42.6726 4.25785ZM40.6536 6.432V11.984H44.6536V6.432H40.6536ZM42.0789 10.0683C42.103 10.0611 42.1154 10.0584 42.1118 10.0592C42.1092 10.0598 42.0981 10.0623 42.077 10.0663C42.0336 10.0744 41.9667 10.0853 41.8713 10.0983L42.4118 14.0617C42.6615 14.0276 42.9629 13.9793 43.2283 13.8997L42.0789 10.0683ZM41.8587 10.1001C41.7359 10.1177 41.5961 10.128 41.4376 10.128V14.128C41.7697 14.128 42.0993 14.1063 42.4244 14.0599L41.8587 10.1001ZM41.4376 10.128C41.2915 10.128 41.1903 10.1179 41.1264 10.1072L40.4688 14.0528C40.7888 14.1061 41.1143 14.128 41.4376 14.128V10.128ZM41.1451 10.1104C41.2262 10.1247 41.3749 10.169 41.5336 10.288L39.1336 13.488C39.5482 13.799 40.0062 13.9713 40.45 14.0496L41.1451 10.1104ZM41.5336 10.288C41.695 10.4091 41.7922 10.5518 41.8419 10.6582L38.2172 12.3498C38.4162 12.7762 38.7161 13.1749 39.1336 13.488L41.5336 10.288ZM41.9022 10.8018C41.9162 10.839 41.9245 10.8685 41.9294 10.8882C41.9343 10.9079 41.9361 10.9198 41.9365 10.9224C41.937 10.9262 41.9336 10.9035 41.9336 10.848H37.9336C37.9336 11.2535 37.9793 11.7327 38.1569 12.2062L41.9022 10.8018ZM41.9336 10.848V6.048H37.9336V10.848H41.9336ZM41.9336 6.048C41.9336 6.01992 41.9399 6.19677 41.7887 6.4305L38.4304 4.2575C38.0445 4.8539 37.9336 5.50008 37.9336 6.048H41.9336ZM41.7435 6.49737C41.7175 6.53415 41.7122 6.52586 41.7685 6.48646L39.4746 3.20954C39.1042 3.46881 38.7576 3.79119 38.4756 4.19063L41.7435 6.49737ZM41.7749 6.48194C41.9163 6.38211 42.157 6.25711 42.5459 6.14273L41.4172 2.30527C40.7181 2.51089 40.0521 2.80189 39.4682 3.21406L41.7749 6.48194ZM42.5359 6.14565C42.8837 6.04532 43.3071 5.984 43.8216 5.984V1.984C42.992 1.984 42.1888 2.08268 41.4272 2.30235L42.5359 6.14565ZM43.8216 5.984C44.7603 5.984 45.1712 6.1943 45.3377 6.33078L47.8734 3.23722C46.7386 2.30703 45.2935 1.984 43.8216 1.984V5.984ZM45.3531 6.34324C45.4682 6.43573 45.5816 6.55789 45.5816 6.976H49.5816C49.5816 5.51678 49.0443 4.1776 47.8581 3.22476L45.3531 6.34324ZM45.5816 6.976V11.984H49.5816V6.976H45.5816ZM47.0069 10.0683C47.031 10.0611 47.0434 10.0584 47.0398 10.0592C47.0372 10.0598 47.0261 10.0623 47.005 10.0663C46.9616 10.0744 46.8947 10.0853 46.7993 10.0983L47.3398 14.0617C47.5895 14.0276 47.8909 13.9793 48.1563 13.8997L47.0069 10.0683ZM46.7867 10.1001C46.6639 10.1177 46.5241 10.128 46.3656 10.128V14.128C46.6977 14.128 47.0273 14.1063 47.3524 14.0599L46.7867 10.1001ZM46.3656 10.128C46.2195 10.128 46.1183 10.1179 46.0544 10.1072L45.3968 14.0528C45.7168 14.1061 46.0423 14.128 46.3656 14.128V10.128ZM46.0731 10.1104C46.1542 10.1247 46.3029 10.169 46.4616 10.288L44.0616 13.488C44.4762 13.799 44.9342 13.9713 45.378 14.0496L46.0731 10.1104ZM46.4616 10.288C46.623 10.4091 46.7202 10.5518 46.7699 10.6582L43.1452 12.3498C43.3442 12.7762 43.6441 13.1749 44.0616 13.488L46.4616 10.288ZM46.8302 10.8018C46.8442 10.839 46.8525 10.8685 46.8574 10.8882C46.8623 10.9079 46.8641 10.9198 46.8645 10.9224C46.865 10.9262 46.8616 10.9035 46.8616 10.848H42.8616C42.8616 11.2535 42.9073 11.7327 43.0849 12.2062L46.8302 10.8018ZM46.8616 10.848V7.072H42.8616V10.848H46.8616ZM57.0057 9.888L58.8653 10.6241L58.8704 10.6111L57.0057 9.888ZM56.1417 11.184L54.7697 9.72882L54.7591 9.73875L54.7487 9.74884L56.1417 11.184ZM54.8297 11.984L54.162 10.0987L54.162 10.0987L54.8297 11.984ZM51.4057 11.968L50.7034 13.8407L50.7034 13.8407L51.4057 11.968ZM50.0777 11.152L48.6635 12.5662L48.6843 12.587L48.7057 12.6072L50.0777 11.152ZM49.2297 9.84L47.3701 10.5761L47.3701 10.5761L49.2297 9.84ZM49.2297 6.4L47.3701 5.6639L47.3701 5.6639L49.2297 6.4ZM50.0777 5.104L51.4706 6.53916L51.4713 6.53856L50.0777 5.104ZM51.4057 4.272L52.1079 6.14466L52.1079 6.14466L51.4057 4.272ZM54.8297 4.288L54.0936 6.14761L54.1105 6.15429L54.1274 6.16066L54.8297 4.288ZM56.1417 5.12L54.7275 6.53421L54.7483 6.55501L54.7697 6.57518L56.1417 5.12ZM57.0057 6.416L55.1461 7.1521L55.1461 7.1521L57.0057 6.416ZM52.0777 9.616L50.4369 10.7596L50.4568 10.7881L50.4777 10.816L52.0777 9.616ZM54.1577 9.6L52.5169 8.45641L52.5051 8.47339L52.4936 8.4906L54.1577 9.6ZM54.1577 6.64L52.5169 7.78358L52.5252 7.79549L52.5337 7.80727L54.1577 6.64ZM52.0777 6.64L53.7017 7.80727L53.7102 7.79549L53.7185 7.78358L52.0777 6.64ZM55.3097 8.112C55.3097 8.56959 55.2397 8.91027 55.141 9.16494L58.8704 10.6111C59.177 9.8204 59.3097 8.97707 59.3097 8.112H55.3097ZM55.1461 9.1519C55.0432 9.41168 54.9144 9.59235 54.7697 9.72882L57.5137 12.6392C58.1156 12.0717 58.5628 11.3883 58.8653 10.6241L55.1461 9.1519ZM54.7487 9.74884C54.6077 9.88568 54.4233 10.0062 54.162 10.0987L55.4974 13.8693C56.2601 13.5991 56.9503 13.1863 57.5346 12.6192L54.7487 9.74884ZM54.162 10.0987C53.8954 10.1931 53.555 10.256 53.1177 10.256V14.256C53.9391 14.256 54.7399 14.1375 55.4974 13.8693L54.162 10.0987ZM53.1177 10.256C52.6925 10.256 52.3642 10.1915 52.1079 10.0953L50.7034 13.8407C51.4711 14.1285 52.2842 14.256 53.1177 14.256V10.256ZM52.1079 10.0953C51.8281 9.99042 51.6173 9.8548 51.4497 9.69682L48.7057 12.6072C49.2848 13.1532 49.9592 13.5616 50.7034 13.8407L52.1079 10.0953ZM51.4919 9.73779C51.3364 9.58227 51.1989 9.38076 51.0893 9.1039L47.3701 10.5761C47.6658 11.3232 48.0937 11.9964 48.6635 12.5662L51.4919 9.73779ZM51.0893 9.1039C50.9932 8.861 50.9257 8.54029 50.9257 8.112H46.9257C46.9257 8.96371 47.0609 9.795 47.3701 10.5761L51.0893 9.1039ZM50.9257 8.112C50.9257 7.69901 50.9917 7.38274 51.0893 7.1361L47.3701 5.6639C47.0624 6.44126 46.9257 7.26632 46.9257 8.112H50.9257ZM51.0893 7.1361C51.1971 6.86369 51.3289 6.67671 51.4706 6.53916L48.6847 3.66884C48.1011 4.23529 47.6676 4.91231 47.3701 5.6639L51.0893 7.1361ZM51.4713 6.53856C51.6369 6.37769 51.8408 6.24484 52.1079 6.14466L50.7034 2.39934C49.9466 2.68316 49.2652 3.10498 48.6841 3.66944L51.4713 6.53856ZM52.1079 6.14466C52.3642 6.04855 52.6925 5.984 53.1177 5.984V1.984C52.2842 1.984 51.4711 2.11145 50.7034 2.39934L52.1079 6.14466ZM53.1177 5.984C53.5307 5.984 53.8469 6.04998 54.0936 6.14761L55.5658 2.42839C54.7884 2.12068 53.9634 1.984 53.1177 1.984V5.984ZM54.1274 6.16066C54.3901 6.25916 54.5799 6.38659 54.7275 6.53421L57.5559 3.70579C56.9782 3.12807 56.2933 2.70084 55.5319 2.41534L54.1274 6.16066ZM54.7697 6.57518C54.9144 6.71165 55.0432 6.89232 55.1461 7.1521L58.8653 5.6799C58.5628 4.91568 58.1156 4.23235 57.5137 3.66482L54.7697 6.57518ZM55.1461 7.1521C55.2452 7.40258 55.3097 7.71436 55.3097 8.112H59.3097C59.3097 7.2723 59.1715 6.45342 58.8653 5.6799L55.1461 7.1521ZM49.7097 8.112C49.7097 8.97337 49.8654 9.93968 50.4369 10.7596L53.7185 8.47241C53.7622 8.53511 53.7587 8.55921 53.7444 8.50066C53.7295 8.43975 53.7097 8.31665 53.7097 8.112H49.7097ZM50.4777 10.816C51.1329 11.6897 52.093 12.128 53.1337 12.128V8.128C53.168 8.128 53.2733 8.13591 53.4062 8.20037C53.5424 8.26641 53.6321 8.35527 53.6777 8.416L50.4777 10.816ZM53.1337 12.128C54.2034 12.128 55.1908 11.6558 55.8218 10.7094L52.4936 8.4906C52.5451 8.41338 52.648 8.30146 52.8091 8.21839C52.9656 8.1377 53.0919 8.128 53.1337 8.128V12.128ZM55.7985 10.7436C56.3668 9.92821 56.5257 8.97101 56.5257 8.112H52.5257C52.5257 8.30892 52.5063 8.42656 52.4922 8.48384C52.4787 8.53847 52.4756 8.51561 52.5169 8.45641L55.7985 10.7436ZM56.5257 8.112C56.5257 7.25894 56.3691 6.28996 55.7817 5.47273L52.5337 7.80727C52.482 7.73546 52.4812 7.70046 52.4934 7.74907C52.5062 7.80038 52.5257 7.91451 52.5257 8.112H56.5257ZM55.7985 5.49641C55.16 4.58031 54.1855 4.112 53.1177 4.112V8.112C53.0751 8.112 52.9555 8.10204 52.8083 8.02733C52.6579 7.95098 52.5629 7.84962 52.5169 7.78358L55.7985 5.49641ZM53.1177 4.112C52.0499 4.112 51.0754 4.58031 50.4369 5.49641L53.7185 7.78358C53.6725 7.84962 53.5775 7.95098 53.4271 8.02733C53.2799 8.10204 53.1603 8.112 53.1177 8.112V4.112ZM50.4537 5.47273C49.8663 6.28996 49.7097 7.25894 49.7097 8.112H53.7097C53.7097 7.91451 53.7291 7.80038 53.742 7.74907C53.7541 7.70046 53.7533 7.73546 53.7017 7.80727L50.4537 5.47273ZM66.3807 9.888L68.2403 10.6241L68.2454 10.6111L66.3807 9.888ZM65.5167 11.184L64.1447 9.72882L64.1341 9.73875L64.1237 9.74884L65.5167 11.184ZM64.2047 11.984L63.537 10.0987L63.537 10.0987L64.2047 11.984ZM60.7807 11.968L60.0784 13.8407L60.0784 13.8407L60.7807 11.968ZM59.4527 11.152L58.0385 12.5662L58.0593 12.587L58.0807 12.6072L59.4527 11.152ZM58.6047 9.84L56.7451 10.5761L56.7451 10.5761L58.6047 9.84ZM58.6047 6.4L56.7451 5.6639L56.7451 5.6639L58.6047 6.4ZM59.4527 5.104L60.8456 6.53916L60.8463 6.53856L59.4527 5.104ZM60.7807 4.272L61.4829 6.14466L61.4829 6.14466L60.7807 4.272ZM64.2047 4.288L63.4686 6.14761L63.4855 6.15429L63.5024 6.16066L64.2047 4.288ZM65.5167 5.12L64.1025 6.53421L64.1233 6.55501L64.1447 6.57518L65.5167 5.12ZM66.3807 6.416L64.5211 7.1521L64.5211 7.1521L66.3807 6.416ZM61.4527 9.616L59.8119 10.7596L59.8318 10.7881L59.8527 10.816L61.4527 9.616ZM63.5327 9.6L61.8919 8.45641L61.8801 8.47339L61.8686 8.4906L63.5327 9.6ZM63.5327 6.64L61.8919 7.78358L61.9002 7.79549L61.9087 7.80727L63.5327 6.64ZM61.4527 6.64L63.0767 7.80727L63.0852 7.79549L63.0935 7.78358L61.4527 6.64ZM64.6847 8.112C64.6847 8.56959 64.6147 8.91027 64.516 9.16494L68.2454 10.6111C68.552 9.8204 68.6847 8.97707 68.6847 8.112H64.6847ZM64.5211 9.1519C64.4182 9.41168 64.2894 9.59235 64.1447 9.72882L66.8887 12.6392C67.4906 12.0717 67.9378 11.3883 68.2403 10.6241L64.5211 9.1519ZM64.1237 9.74884C63.9827 9.88568 63.7983 10.0062 63.537 10.0987L64.8724 13.8693C65.6351 13.5991 66.3253 13.1863 66.9096 12.6192L64.1237 9.74884ZM63.537 10.0987C63.2704 10.1931 62.93 10.256 62.4927 10.256V14.256C63.3141 14.256 64.1149 14.1375 64.8724 13.8693L63.537 10.0987ZM62.4927 10.256C62.0675 10.256 61.7392 10.1915 61.4829 10.0953L60.0784 13.8407C60.8461 14.1285 61.6592 14.256 62.4927 14.256V10.256ZM61.4829 10.0953C61.2031 9.99042 60.9923 9.8548 60.8247 9.69682L58.0807 12.6072C58.6598 13.1532 59.3342 13.5616 60.0784 13.8407L61.4829 10.0953ZM60.8669 9.73779C60.7114 9.58227 60.5739 9.38076 60.4643 9.1039L56.7451 10.5761C57.0408 11.3232 57.4687 11.9964 58.0385 12.5662L60.8669 9.73779ZM60.4643 9.1039C60.3682 8.861 60.3007 8.54029 60.3007 8.112H56.3007C56.3007 8.96371 56.4359 9.795 56.7451 10.5761L60.4643 9.1039ZM60.3007 8.112C60.3007 7.69901 60.3667 7.38274 60.4643 7.1361L56.7451 5.6639C56.4374 6.44126 56.3007 7.26632 56.3007 8.112H60.3007ZM60.4643 7.1361C60.5721 6.86369 60.7039 6.67671 60.8456 6.53916L58.0597 3.66884C57.4761 4.23529 57.0426 4.91231 56.7451 5.6639L60.4643 7.1361ZM60.8463 6.53856C61.0119 6.37769 61.2158 6.24484 61.4829 6.14466L60.0784 2.39934C59.3216 2.68316 58.6402 3.10498 58.0591 3.66944L60.8463 6.53856ZM61.4829 6.14466C61.7392 6.04855 62.0675 5.984 62.4927 5.984V1.984C61.6592 1.984 60.8461 2.11145 60.0784 2.39934L61.4829 6.14466ZM62.4927 5.984C62.9057 5.984 63.2219 6.04998 63.4686 6.14761L64.9408 2.42839C64.1634 2.12068 63.3384 1.984 62.4927 1.984V5.984ZM63.5024 6.16066C63.7651 6.25916 63.9549 6.38659 64.1025 6.53421L66.9309 3.70579C66.3532 3.12807 65.6683 2.70084 64.9069 2.41534L63.5024 6.16066ZM64.1447 6.57518C64.2894 6.71165 64.4182 6.89232 64.5211 7.1521L68.2403 5.6799C67.9378 4.91568 67.4906 4.23235 66.8887 3.66482L64.1447 6.57518ZM64.5211 7.1521C64.6202 7.40258 64.6847 7.71436 64.6847 8.112H68.6847C68.6847 7.2723 68.5465 6.45342 68.2403 5.6799L64.5211 7.1521ZM59.0847 8.112C59.0847 8.97337 59.2404 9.93968 59.8119 10.7596L63.0935 8.47241C63.1372 8.53511 63.1337 8.55921 63.1194 8.50066C63.1045 8.43975 63.0847 8.31665 63.0847 8.112H59.0847ZM59.8527 10.816C60.5079 11.6897 61.468 12.128 62.5087 12.128V8.128C62.543 8.128 62.6483 8.13591 62.7812 8.20037C62.9174 8.26641 63.0071 8.35527 63.0527 8.416L59.8527 10.816ZM62.5087 12.128C63.5784 12.128 64.5658 11.6558 65.1968 10.7094L61.8686 8.4906C61.9201 8.41338 62.023 8.30146 62.1841 8.21839C62.3406 8.1377 62.4669 8.128 62.5087 8.128V12.128ZM65.1735 10.7436C65.7418 9.92821 65.9007 8.97101 65.9007 8.112H61.9007C61.9007 8.30892 61.8813 8.42656 61.8672 8.48384C61.8537 8.53847 61.8506 8.51561 61.8919 8.45641L65.1735 10.7436ZM65.9007 8.112C65.9007 7.25894 65.7441 6.28996 65.1567 5.47273L61.9087 7.80727C61.857 7.73546 61.8562 7.70046 61.8684 7.74907C61.8812 7.80038 61.9007 7.91451 61.9007 8.112H65.9007ZM65.1735 5.49641C64.535 4.58031 63.5605 4.112 62.4927 4.112V8.112C62.4501 8.112 62.3305 8.10204 62.1833 8.02733C62.0329 7.95098 61.9379 7.84962 61.8919 7.78358L65.1735 5.49641ZM62.4927 4.112C61.4249 4.112 60.4504 4.58031 59.8119 5.49641L63.0935 7.78358C63.0475 7.84962 62.9525 7.95098 62.8021 8.02733C62.6549 8.10204 62.5353 8.112 62.4927 8.112V4.112ZM59.8287 5.47273C59.2413 6.28996 59.0847 7.25894 59.0847 8.112H63.0847C63.0847 7.91451 63.1041 7.80038 63.117 7.74907C63.1291 7.70046 63.1283 7.73546 63.0767 7.80727L59.8287 5.47273ZM70.9877 9.92L69.8546 11.5681L69.8777 11.5839L69.9012 11.5991L70.9877 9.92ZM72.2357 10.064L72.4838 12.0486L72.5443 12.041L72.6043 12.0297L72.2357 10.064ZM72.6837 9.952L74.2316 8.68552L73.3588 7.61877L72.0512 8.05463L72.6837 9.952ZM72.9237 10.352L71.0854 11.1398L71.1205 11.2217L71.1627 11.3002L72.9237 10.352ZM72.5717 11.856L71.2966 10.3152L71.2832 10.3262L71.2701 10.3375L72.5717 11.856ZM68.7957 11.6L67.4995 13.1231L67.5073 13.1298L67.5153 13.1364L68.7957 11.6ZM68.0437 2.672L67.5174 0.742473L66.0437 1.14441V2.672H68.0437ZM68.5397 2.576L68.8364 4.55387L68.8753 4.54804L68.9139 4.54068L68.5397 2.576ZM70.3317 2.768L69.2223 4.4321L69.2619 4.4585L69.3027 4.48299L70.3317 2.768ZM70.7317 4.832H68.7317V6.832H70.7317V4.832ZM72.8277 4.832L74.5835 3.87429L74.015 2.832H72.8277V4.832ZM73.0037 5.28L71.085 5.84433L71.1055 5.91413L71.131 5.98224L73.0037 5.28ZM70.7317 6.912V4.912H68.7317V6.912H70.7317ZM68.7317 9.328C68.7317 10.0183 68.9661 10.9572 69.8546 11.5681L72.1207 8.27192C72.3575 8.43466 72.5308 8.65751 72.6314 8.89018C72.7236 9.10346 72.7317 9.26947 72.7317 9.328H68.7317ZM69.9012 11.5991C70.5268 12.004 71.2087 12.096 71.7397 12.096V8.096C71.6977 8.096 71.7125 8.09175 71.7675 8.10462C71.8243 8.11794 71.9385 8.15307 72.0742 8.24086L69.9012 11.5991ZM71.7397 12.096C71.9885 12.096 72.2369 12.0794 72.4838 12.0486L71.9876 8.07944C71.8932 8.09125 71.8109 8.096 71.7397 8.096V12.096ZM72.6043 12.0297C72.8404 11.9855 73.0815 11.9276 73.3161 11.8494L72.0512 8.05463C72.0299 8.06174 71.9723 8.07853 71.8671 8.09826L72.6043 12.0297ZM71.1358 11.2185C71.1048 11.1806 71.09 11.1506 71.0854 11.1398L74.762 9.56416C74.6294 9.25477 74.4546 8.95802 74.2316 8.68552L71.1358 11.2185ZM71.1627 11.3002C71.0419 11.0757 71.0357 10.8999 71.0357 10.864H75.0357C75.0357 10.4227 74.9548 9.90562 74.6846 9.4038L71.1627 11.3002ZM71.0357 10.864C71.0357 10.8064 71.0482 10.6966 71.1081 10.5686C71.1682 10.4402 71.2463 10.3568 71.2966 10.3152L73.8468 13.3968C74.6203 12.7567 75.0357 11.8587 75.0357 10.864H71.0357ZM71.2701 10.3375C71.3563 10.2636 71.4289 10.225 71.4656 10.2081C71.5014 10.1915 71.5107 10.1921 71.4809 10.1992C71.4144 10.2152 71.2559 10.24 70.9717 10.24V14.24C71.8261 14.24 72.9974 14.1252 73.8733 13.3745L71.2701 10.3375ZM70.9717 10.24C70.3124 10.24 70.1064 10.0889 70.0761 10.0636L67.5153 13.1364C68.5089 13.9645 69.7537 14.24 70.9717 14.24V10.24ZM70.0919 10.0769C70.1368 10.1151 70.1341 10.1396 70.1125 10.08C70.0858 10.0061 70.0437 9.83446 70.0437 9.52H66.0437C66.0437 10.7907 66.3775 12.1682 67.4995 13.1231L70.0919 10.0769ZM70.0437 9.52V2.672H66.0437V9.52H70.0437ZM68.5699 4.60153C68.566 4.60261 68.5851 4.59737 68.6357 4.58756C68.6843 4.57816 68.7503 4.56678 68.8364 4.55387L68.243 0.598127C68.0016 0.634338 67.7466 0.679969 67.5174 0.742473L68.5699 4.60153ZM68.9139 4.54068C69.0056 4.5232 69.1145 4.512 69.2437 4.512V0.511999C68.8822 0.511999 68.5217 0.543461 68.1655 0.611322L68.9139 4.54068ZM69.2437 4.512C69.301 4.512 69.343 4.51463 69.3716 4.51756C69.4003 4.5205 69.412 4.5234 69.4096 4.52283C69.4063 4.52204 69.3297 4.50373 69.2223 4.4321L71.4411 1.1039C70.726 0.627141 69.9145 0.511999 69.2437 0.511999V4.512ZM69.3027 4.48299C68.9829 4.29113 68.8263 4.02532 68.765 3.86596C68.7141 3.73363 68.7317 3.68868 68.7317 3.808H72.7317C72.7317 3.08325 72.5665 1.77653 71.3607 1.05301L69.3027 4.48299ZM68.7317 3.808V4.832H72.7317V3.808H68.7317ZM70.7317 6.832H72.8277V2.832H70.7317V6.832ZM71.0719 5.78971C71.057 5.76242 71.0535 5.75141 71.0582 5.76331C71.0626 5.77458 71.0721 5.80051 71.085 5.84433L74.9224 4.71567C74.844 4.44909 74.7372 4.15611 74.5835 3.87429L71.0719 5.78971ZM71.131 5.98224C71.0978 5.89365 71.0997 5.84239 71.0997 5.856H75.0997C75.0997 5.44294 75.0376 5.00768 74.8763 4.57775L71.131 5.98224ZM71.0997 5.856C71.0997 5.89871 71.0938 5.84837 71.1274 5.74132C71.1638 5.62522 71.2489 5.43841 71.4295 5.25779L74.2579 8.08621C74.9651 7.37905 75.0997 6.47669 75.0997 5.856H71.0997ZM71.4295 5.25779C71.5612 5.12601 71.7168 5.03073 71.8725 4.97375C72.0209 4.91946 72.1356 4.912 72.1877 4.912V8.912C72.8682 8.912 73.6415 8.70258 74.2579 8.08621L71.4295 5.25779ZM72.1877 4.912H70.7317V8.912H72.1877V4.912ZM68.7317 6.912V9.328H72.7317V6.912H68.7317Z" fill="#76B1FF" mask="url(#path-1-outside-1_35_15)"/>
</svg>
