<svg width="64" height="31" viewBox="0 0 64 31" fill="none" xmlns="http://www.w3.org/2000/svg">
<rect x="0.804382" y="0.641113" width="61.931" height="29.0566" fill="#D5E7FF" stroke="#1257B4"/>
<path d="M21.56 15.136C21.56 14.304 21.688 13.568 21.944 12.928C22.2107 12.288 22.568 11.7547 23.016 11.328C23.4747 10.8907 24.008 10.56 24.616 10.336C25.2347 10.112 25.9013 10 26.616 10C27.3307 10 27.992 10.112 28.6 10.336C29.2187 10.56 29.7573 10.8907 30.216 11.328C30.6747 11.7547 31.032 12.288 31.288 12.928C31.5547 13.568 31.688 14.304 31.688 15.136C31.688 15.968 31.56 16.7093 31.304 17.36C31.048 18 30.6907 18.5387 30.232 18.976C29.784 19.4027 29.2507 19.728 28.632 19.952C28.0133 20.176 27.3413 20.288 26.616 20.288C25.8907 20.288 25.2187 20.176 24.6 19.952C23.9813 19.7173 23.448 19.3813 23 18.944C22.552 18.5067 22.2 17.968 21.944 17.328C21.688 16.688 21.56 15.9573 21.56 15.136ZM24.44 15.136C24.44 16.1067 24.6373 16.832 25.032 17.312C25.4267 17.792 25.9547 18.032 26.616 18.032C27.288 18.032 27.8213 17.792 28.216 17.312C28.6107 16.832 28.808 16.1067 28.808 15.136C28.808 14.176 28.6107 13.456 28.216 12.976C27.832 12.496 27.304 12.256 26.632 12.256C25.9707 12.256 25.4373 12.496 25.032 12.976C24.6373 13.4453 24.44 14.1653 24.44 15.136ZM36.106 16.4V19.936C35.9887 19.968 35.802 20 35.546 20.032C35.29 20.064 35.0393 20.08 34.794 20.08C34.5487 20.08 34.33 20.0587 34.138 20.016C33.9567 19.984 33.802 19.92 33.674 19.824C33.546 19.728 33.45 19.5947 33.386 19.424C33.322 19.2533 33.29 19.0293 33.29 18.752V10.304C33.4073 10.2827 33.594 10.256 33.85 10.224C34.106 10.1813 34.3513 10.16 34.586 10.16C34.8313 10.16 35.0447 10.1813 35.226 10.224C35.418 10.256 35.578 10.32 35.706 10.416C35.834 10.512 35.93 10.6453 35.994 10.816C36.058 10.9867 36.09 11.2107 36.09 11.488V14.032L39.418 10.208C40.1433 10.208 40.6607 10.3467 40.97 10.624C41.29 10.8907 41.45 11.2107 41.45 11.584C41.45 11.8613 41.3807 12.1227 41.242 12.368C41.1033 12.6133 40.8793 12.8907 40.57 13.2L38.57 15.2C38.8367 15.4987 39.114 15.808 39.402 16.128C39.7007 16.448 39.9887 16.7627 40.266 17.072C40.554 17.3707 40.826 17.6587 41.082 17.936C41.3487 18.2133 41.578 18.4533 41.77 18.656C41.77 18.8907 41.7273 19.0987 41.642 19.28C41.5567 19.4613 41.4393 19.616 41.29 19.744C41.1513 19.872 40.9913 19.968 40.81 20.032C40.6287 20.096 40.4367 20.128 40.234 20.128C39.7967 20.128 39.4393 20.0213 39.162 19.808C38.8847 19.584 38.618 19.3227 38.362 19.024L36.106 16.4Z" fill="#1257B4"/>
</svg>
