<svg width="76" height="37" viewBox="0 0 76 37" fill="none" xmlns="http://www.w3.org/2000/svg">
<rect x="0.678467" y="1.08594" width="74.3699" height="34.9976" fill="#D5E7FF" stroke="#1257B4"/>
<path d="M23.1 19.14C23.1 19.9667 22.9733 20.7067 22.72 21.36C22.4667 22 22.1067 22.54 21.64 22.98C21.1867 23.42 20.64 23.7533 20 23.98C19.36 24.2067 18.6467 24.32 17.86 24.32C17.0733 24.32 16.36 24.2 15.72 23.96C15.08 23.72 14.5267 23.38 14.06 22.94C13.6067 22.4867 13.2533 21.94 13 21.3C12.7467 20.66 12.62 19.94 12.62 19.14C12.62 18.3533 12.7467 17.64 13 17C13.2533 16.36 13.6067 15.82 14.06 15.38C14.5267 14.9267 15.08 14.58 15.72 14.34C16.36 14.1 17.0733 13.98 17.86 13.98C18.6467 13.98 19.36 14.1067 20 14.36C20.64 14.6 21.1867 14.9467 21.64 15.4C22.1067 15.84 22.4667 16.38 22.72 17.02C22.9733 17.66 23.1 18.3667 23.1 19.14ZM16.1 19.14C16.1 19.9533 16.2533 20.58 16.56 21.02C16.88 21.4467 17.32 21.66 17.88 21.66C18.44 21.66 18.8667 21.44 19.16 21C19.4667 20.56 19.62 19.94 19.62 19.14C19.62 18.34 19.4667 17.7267 19.16 17.3C18.8533 16.86 18.42 16.64 17.86 16.64C17.3 16.64 16.8667 16.86 16.56 17.3C16.2533 17.7267 16.1 18.34 16.1 19.14ZM34.8188 19.14C34.8188 19.9667 34.6921 20.7067 34.4388 21.36C34.1854 22 33.8254 22.54 33.3588 22.98C32.9054 23.42 32.3588 23.7533 31.7188 23.98C31.0788 24.2067 30.3654 24.32 29.5788 24.32C28.7921 24.32 28.0788 24.2 27.4388 23.96C26.7988 23.72 26.2454 23.38 25.7788 22.94C25.3254 22.4867 24.9721 21.94 24.7188 21.3C24.4654 20.66 24.3388 19.94 24.3388 19.14C24.3388 18.3533 24.4654 17.64 24.7188 17C24.9721 16.36 25.3254 15.82 25.7788 15.38C26.2454 14.9267 26.7988 14.58 27.4388 14.34C28.0788 14.1 28.7921 13.98 29.5788 13.98C30.3654 13.98 31.0788 14.1067 31.7188 14.36C32.3588 14.6 32.9054 14.9467 33.3588 15.4C33.8254 15.84 34.1854 16.38 34.4388 17.02C34.6921 17.66 34.8188 18.3667 34.8188 19.14ZM27.8188 19.14C27.8188 19.9533 27.9721 20.58 28.2788 21.02C28.5988 21.4467 29.0388 21.66 29.5987 21.66C30.1588 21.66 30.5854 21.44 30.8788 21C31.1854 20.56 31.3388 19.94 31.3388 19.14C31.3388 18.34 31.1854 17.7267 30.8788 17.3C30.5721 16.86 30.1388 16.64 29.5788 16.64C29.0188 16.64 28.5854 16.86 28.2788 17.3C27.9721 17.7267 27.8188 18.34 27.8188 19.14ZM40.9375 13.98C41.7375 13.98 42.4775 14.0867 43.1575 14.3C43.8508 14.5 44.4442 14.8133 44.9375 15.24C45.4308 15.6667 45.8175 16.2067 46.0975 16.86C46.3775 17.5 46.5175 18.2667 46.5175 19.16C46.5175 20.0133 46.3975 20.76 46.1575 21.4C45.9175 22.04 45.5775 22.58 45.1375 23.02C44.6975 23.4467 44.1642 23.7667 43.5375 23.98C42.9242 24.1933 42.2375 24.3 41.4775 24.3C40.9042 24.3 40.3708 24.2133 39.8775 24.04V27.36C39.7442 27.4 39.5308 27.44 39.2375 27.48C38.9442 27.5333 38.6442 27.56 38.3375 27.56C38.0442 27.56 37.7775 27.54 37.5375 27.5C37.3108 27.46 37.1175 27.38 36.9575 27.26C36.7975 27.14 36.6775 26.9733 36.5975 26.76C36.5175 26.56 36.4775 26.2933 36.4775 25.96V16.36C36.4775 16 36.5508 15.7067 36.6975 15.48C36.8575 15.2533 37.0708 15.0467 37.3375 14.86C37.7508 14.5933 38.2642 14.38 38.8775 14.22C39.4908 14.06 40.1775 13.98 40.9375 13.98ZM40.9775 21.62C42.3508 21.62 43.0375 20.8 43.0375 19.16C43.0375 18.3067 42.8642 17.6733 42.5175 17.26C42.1842 16.8467 41.6975 16.64 41.0575 16.64C40.8042 16.64 40.5775 16.6733 40.3775 16.74C40.1775 16.7933 40.0042 16.86 39.8575 16.94V21.34C40.0175 21.42 40.1908 21.4867 40.3775 21.54C40.5642 21.5933 40.7642 21.62 40.9775 21.62ZM56.3767 21.1C56.3767 22.1133 55.9967 22.9067 55.2367 23.48C54.4767 24.0533 53.3567 24.34 51.8767 24.34C51.3167 24.34 50.7967 24.3 50.3167 24.22C49.8367 24.14 49.4234 24.02 49.0767 23.86C48.7434 23.6867 48.4767 23.4733 48.2767 23.22C48.0901 22.9667 47.9967 22.6667 47.9967 22.32C47.9967 22 48.0634 21.7333 48.1967 21.52C48.3301 21.2933 48.4901 21.1067 48.6767 20.96C49.0634 21.1733 49.5034 21.3667 49.9967 21.54C50.5034 21.7 51.0834 21.78 51.7367 21.78C52.1501 21.78 52.4634 21.72 52.6767 21.6C52.9034 21.48 53.0167 21.32 53.0167 21.12C53.0167 20.9333 52.9367 20.7867 52.7767 20.68C52.6167 20.5733 52.3501 20.4867 51.9767 20.42L51.3767 20.3C50.2167 20.0733 49.3501 19.72 48.7767 19.24C48.2167 18.7467 47.9367 18.0467 47.9367 17.14C47.9367 16.6467 48.0434 16.2 48.2567 15.8C48.4701 15.4 48.7701 15.0667 49.1567 14.8C49.5434 14.5333 50.0034 14.3267 50.5367 14.18C51.0834 14.0333 51.6834 13.96 52.3367 13.96C52.8301 13.96 53.2901 14 53.7167 14.08C54.1567 14.1467 54.5367 14.2533 54.8567 14.4C55.1767 14.5467 55.4301 14.74 55.6167 14.98C55.8034 15.2067 55.8967 15.48 55.8967 15.8C55.8967 16.1067 55.8367 16.3733 55.7167 16.6C55.6101 16.8133 55.4701 16.9933 55.2967 17.14C55.1901 17.0733 55.0301 17.0067 54.8167 16.94C54.6034 16.86 54.3701 16.7933 54.1167 16.74C53.8634 16.6733 53.6034 16.62 53.3367 16.58C53.0834 16.54 52.8501 16.52 52.6367 16.52C52.1967 16.52 51.8567 16.5733 51.6167 16.68C51.3767 16.7733 51.2567 16.9267 51.2567 17.14C51.2567 17.2867 51.3234 17.4067 51.4567 17.5C51.5901 17.5933 51.8434 17.68 52.2167 17.76L52.8367 17.9C54.1167 18.1933 55.0234 18.6 55.5567 19.12C56.1034 19.6267 56.3767 20.2867 56.3767 21.1ZM57.5181 22.38C57.5181 21.82 57.6915 21.3533 58.0381 20.98C58.3848 20.6067 58.8581 20.42 59.4581 20.42C60.0581 20.42 60.5315 20.6067 60.8781 20.98C61.2248 21.3533 61.3981 21.82 61.3981 22.38C61.3981 22.94 61.2248 23.4067 60.8781 23.78C60.5315 24.1533 60.0581 24.34 59.4581 24.34C58.8581 24.34 58.3848 24.1533 58.0381 23.78C57.6915 23.4067 57.5181 22.94 57.5181 22.38ZM62.2838 22.38C62.2838 21.82 62.4571 21.3533 62.8038 20.98C63.1504 20.6067 63.6238 20.42 64.2238 20.42C64.8238 20.42 65.2971 20.6067 65.6438 20.98C65.9904 21.3533 66.1638 21.82 66.1638 22.38C66.1638 22.94 65.9904 23.4067 65.6438 23.78C65.2971 24.1533 64.8238 24.34 64.2238 24.34C63.6238 24.34 63.1504 24.1533 62.8038 23.78C62.4571 23.4067 62.2838 22.94 62.2838 22.38Z" fill="#1257B4"/>
</svg>
