<svg width="289" height="183" viewBox="0 0 289 183" fill="none" xmlns="http://www.w3.org/2000/svg">
<rect width="289" height="183" fill="#A1CAFF"/>
<path d="M84.656 53.888C84.928 53.728 85.336 53.576 85.88 53.432C86.44 53.288 87 53.216 87.56 53.216C88.36 53.216 89.064 53.336 89.672 53.576C90.296 53.8 90.696 54.16 90.872 54.656C91.16 55.488 91.472 56.456 91.808 57.56C92.144 58.664 92.48 59.808 92.816 60.992C93.152 62.16 93.48 63.32 93.8 64.472C94.12 65.608 94.4 66.616 94.64 67.496C94.448 67.72 94.16 67.896 93.776 68.024C93.392 68.168 92.936 68.24 92.408 68.24C92.024 68.24 91.696 68.208 91.424 68.144C91.168 68.08 90.952 67.984 90.776 67.856C90.616 67.728 90.48 67.56 90.368 67.352C90.272 67.144 90.184 66.904 90.104 66.632L89.672 64.976H85.328C85.2 65.456 85.072 65.952 84.944 66.464C84.816 66.976 84.688 67.472 84.56 67.952C84.336 68.032 84.096 68.096 83.84 68.144C83.6 68.208 83.304 68.24 82.952 68.24C82.136 68.24 81.528 68.104 81.128 67.832C80.744 67.544 80.552 67.152 80.552 66.656C80.552 66.432 80.584 66.208 80.648 65.984C80.712 65.76 80.784 65.496 80.864 65.192C80.976 64.76 81.128 64.224 81.32 63.584C81.528 62.944 81.752 62.256 81.992 61.52C82.232 60.768 82.488 60 82.76 59.216C83.032 58.432 83.288 57.696 83.528 57.008C83.768 56.304 83.984 55.68 84.176 55.136C84.384 54.592 84.544 54.176 84.656 53.888ZM87.536 56.984C87.312 57.656 87.056 58.408 86.768 59.24C86.496 60.056 86.248 60.888 86.024 61.736H89C88.776 60.872 88.544 60.032 88.304 59.216C88.08 58.384 87.872 57.64 87.68 56.984H87.536ZM100.375 67.976C100.215 68.024 99.9589 68.072 99.6069 68.12C99.2709 68.168 98.9189 68.192 98.5509 68.192C98.1989 68.192 97.8789 68.168 97.5909 68.12C97.3189 68.072 97.0869 67.976 96.8949 67.832C96.7029 67.688 96.5509 67.496 96.4389 67.256C96.3429 67 96.2949 66.672 96.2949 66.272V59.072C96.2949 58.704 96.3589 58.392 96.4869 58.136C96.6309 57.864 96.8309 57.624 97.0869 57.416C97.3429 57.208 97.6549 57.024 98.0229 56.864C98.4069 56.688 98.8149 56.536 99.2469 56.408C99.6789 56.28 100.127 56.184 100.591 56.12C101.055 56.04 101.519 56 101.983 56C102.751 56 103.359 56.152 103.807 56.456C104.255 56.744 104.479 57.224 104.479 57.896C104.479 58.12 104.447 58.344 104.383 58.568C104.319 58.776 104.239 58.968 104.143 59.144C103.807 59.144 103.463 59.16 103.111 59.192C102.759 59.224 102.415 59.272 102.079 59.336C101.743 59.4 101.423 59.472 101.119 59.552C100.831 59.616 100.583 59.696 100.375 59.792V67.976ZM111.885 68.384C110.941 68.384 110.061 68.256 109.245 68C108.445 67.728 107.741 67.328 107.133 66.8C106.541 66.272 106.069 65.608 105.717 64.808C105.381 64.008 105.213 63.072 105.213 62C105.213 60.944 105.381 60.04 105.717 59.288C106.069 58.52 106.525 57.896 107.085 57.416C107.645 56.92 108.285 56.56 109.005 56.336C109.725 56.096 110.461 55.976 111.213 55.976C112.061 55.976 112.829 56.104 113.517 56.36C114.221 56.616 114.821 56.968 115.317 57.416C115.829 57.864 116.221 58.4 116.493 59.024C116.781 59.648 116.925 60.328 116.925 61.064C116.925 61.608 116.773 62.024 116.469 62.312C116.165 62.6 115.741 62.784 115.197 62.864L109.269 63.752C109.445 64.28 109.805 64.68 110.349 64.952C110.893 65.208 111.517 65.336 112.221 65.336C112.877 65.336 113.493 65.256 114.069 65.096C114.661 64.92 115.141 64.72 115.509 64.496C115.765 64.656 115.981 64.88 116.157 65.168C116.333 65.456 116.421 65.76 116.421 66.08C116.421 66.8 116.085 67.336 115.413 67.688C114.901 67.96 114.325 68.144 113.685 68.24C113.045 68.336 112.445 68.384 111.885 68.384ZM111.213 58.952C110.829 58.952 110.493 59.016 110.205 59.144C109.933 59.272 109.709 59.44 109.533 59.648C109.357 59.84 109.221 60.064 109.125 60.32C109.045 60.56 108.997 60.808 108.981 61.064L113.085 60.392C113.037 60.072 112.861 59.752 112.557 59.432C112.253 59.112 111.805 58.952 111.213 58.952ZM125.517 65.024C125.341 64.624 125.149 64.176 124.941 63.68C124.749 63.184 124.541 62.616 124.317 61.976C124.109 61.336 123.885 60.608 123.645 59.792C123.421 58.96 123.181 58.008 122.925 56.936C123.149 56.712 123.445 56.52 123.813 56.36C124.197 56.184 124.613 56.096 125.061 56.096C125.621 56.096 126.085 56.216 126.453 56.456C126.821 56.68 127.093 57.112 127.269 57.752L129.165 64.352H129.261C129.453 63.808 129.637 63.216 129.813 62.576C130.005 61.936 130.189 61.28 130.365 60.608C130.541 59.92 130.701 59.24 130.845 58.568C131.005 57.88 131.141 57.208 131.253 56.552C131.829 56.248 132.461 56.096 133.149 56.096C133.709 56.096 134.173 56.216 134.541 56.456C134.909 56.696 135.093 57.112 135.093 57.704C135.093 58.136 135.037 58.64 134.925 59.216C134.813 59.776 134.661 60.376 134.469 61.016C134.293 61.656 134.077 62.32 133.821 63.008C133.581 63.68 133.325 64.344 133.053 65C132.781 65.656 132.501 66.28 132.213 66.872C131.925 67.448 131.645 67.968 131.373 68.432C130.925 69.216 130.509 69.856 130.125 70.352C129.741 70.848 129.373 71.232 129.021 71.504C128.669 71.792 128.317 71.984 127.965 72.08C127.613 72.192 127.245 72.248 126.861 72.248C126.189 72.248 125.645 72.048 125.229 71.648C124.813 71.248 124.565 70.728 124.485 70.088C124.997 69.688 125.509 69.24 126.021 68.744C126.533 68.264 126.997 67.768 127.413 67.256C127.141 67.176 126.845 66.992 126.525 66.704C126.221 66.4 125.885 65.84 125.517 65.024ZM148.867 62.168C148.867 63.16 148.715 64.048 148.411 64.832C148.107 65.6 147.675 66.248 147.115 66.776C146.571 67.304 145.915 67.704 145.147 67.976C144.379 68.248 143.523 68.384 142.579 68.384C141.635 68.384 140.779 68.24 140.011 67.952C139.243 67.664 138.579 67.256 138.019 66.728C137.475 66.184 137.051 65.528 136.747 64.76C136.443 63.992 136.291 63.128 136.291 62.168C136.291 61.224 136.443 60.368 136.747 59.6C137.051 58.832 137.475 58.184 138.019 57.656C138.579 57.112 139.243 56.696 140.011 56.408C140.779 56.12 141.635 55.976 142.579 55.976C143.523 55.976 144.379 56.128 145.147 56.432C145.915 56.72 146.571 57.136 147.115 57.68C147.675 58.208 148.107 58.856 148.411 59.624C148.715 60.392 148.867 61.24 148.867 62.168ZM140.467 62.168C140.467 63.144 140.651 63.896 141.019 64.424C141.403 64.936 141.931 65.192 142.603 65.192C143.275 65.192 143.787 64.928 144.139 64.4C144.507 63.872 144.691 63.128 144.691 62.168C144.691 61.208 144.507 60.472 144.139 59.96C143.771 59.432 143.251 59.168 142.579 59.168C141.907 59.168 141.387 59.432 141.019 59.96C140.651 60.472 140.467 61.208 140.467 62.168ZM150.857 56.504C151.017 56.456 151.265 56.408 151.601 56.36C151.953 56.312 152.313 56.288 152.681 56.288C153.033 56.288 153.345 56.312 153.617 56.36C153.905 56.408 154.145 56.504 154.337 56.648C154.529 56.792 154.673 56.992 154.769 57.248C154.881 57.488 154.937 57.808 154.937 58.208V63.368C154.937 64.024 155.097 64.496 155.417 64.784C155.737 65.056 156.201 65.192 156.809 65.192C157.177 65.192 157.473 65.16 157.697 65.096C157.937 65.032 158.121 64.968 158.249 64.904V56.504C158.409 56.456 158.657 56.408 158.993 56.36C159.345 56.312 159.705 56.288 160.073 56.288C160.425 56.288 160.737 56.312 161.009 56.36C161.297 56.408 161.537 56.504 161.729 56.648C161.921 56.792 162.065 56.992 162.161 57.248C162.273 57.488 162.329 57.808 162.329 58.208V65.504C162.329 66.304 161.993 66.904 161.321 67.304C160.761 67.656 160.089 67.92 159.305 68.096C158.537 68.288 157.697 68.384 156.785 68.384C155.921 68.384 155.121 68.288 154.385 68.096C153.665 67.904 153.041 67.608 152.513 67.208C151.985 66.808 151.577 66.296 151.289 65.672C151.001 65.032 150.857 64.264 150.857 63.368V56.504ZM179.471 64.52C179.471 65.736 179.015 66.688 178.103 67.376C177.191 68.064 175.847 68.408 174.071 68.408C173.399 68.408 172.775 68.36 172.199 68.264C171.623 68.168 171.127 68.024 170.711 67.832C170.311 67.624 169.991 67.368 169.751 67.064C169.527 66.76 169.415 66.4 169.415 65.984C169.415 65.6 169.495 65.28 169.655 65.024C169.815 64.752 170.007 64.528 170.231 64.352C170.695 64.608 171.223 64.84 171.815 65.048C172.423 65.24 173.119 65.336 173.903 65.336C174.399 65.336 174.775 65.264 175.031 65.12C175.303 64.976 175.439 64.784 175.439 64.544C175.439 64.32 175.343 64.144 175.151 64.016C174.959 63.888 174.639 63.784 174.191 63.704L173.471 63.56C172.079 63.288 171.039 62.864 170.351 62.288C169.679 61.696 169.343 60.856 169.343 59.768C169.343 59.176 169.471 58.64 169.727 58.16C169.983 57.68 170.343 57.28 170.807 56.96C171.271 56.64 171.823 56.392 172.463 56.216C173.119 56.04 173.839 55.952 174.623 55.952C175.215 55.952 175.767 56 176.279 56.096C176.807 56.176 177.263 56.304 177.647 56.48C178.031 56.656 178.335 56.888 178.559 57.176C178.783 57.448 178.895 57.776 178.895 58.16C178.895 58.528 178.823 58.848 178.679 59.12C178.551 59.376 178.383 59.592 178.175 59.768C178.047 59.688 177.855 59.608 177.599 59.528C177.343 59.432 177.063 59.352 176.759 59.288C176.455 59.208 176.143 59.144 175.823 59.096C175.519 59.048 175.239 59.024 174.983 59.024C174.455 59.024 174.047 59.088 173.759 59.216C173.471 59.328 173.327 59.512 173.327 59.768C173.327 59.944 173.407 60.088 173.567 60.2C173.727 60.312 174.031 60.416 174.479 60.512L175.223 60.68C176.759 61.032 177.847 61.52 178.487 62.144C179.143 62.752 179.471 63.544 179.471 64.52ZM181.443 56.504C181.603 56.456 181.851 56.408 182.187 56.36C182.539 56.312 182.899 56.288 183.267 56.288C183.619 56.288 183.931 56.312 184.203 56.36C184.491 56.408 184.731 56.504 184.923 56.648C185.115 56.792 185.259 56.992 185.355 57.248C185.467 57.488 185.523 57.808 185.523 58.208V63.368C185.523 64.024 185.683 64.496 186.003 64.784C186.323 65.056 186.787 65.192 187.395 65.192C187.763 65.192 188.059 65.16 188.283 65.096C188.523 65.032 188.707 64.968 188.835 64.904V56.504C188.995 56.456 189.243 56.408 189.579 56.36C189.931 56.312 190.291 56.288 190.659 56.288C191.011 56.288 191.323 56.312 191.595 56.36C191.883 56.408 192.123 56.504 192.315 56.648C192.507 56.792 192.651 56.992 192.747 57.248C192.859 57.488 192.915 57.808 192.915 58.208V65.504C192.915 66.304 192.579 66.904 191.907 67.304C191.347 67.656 190.675 67.92 189.891 68.096C189.123 68.288 188.283 68.384 187.371 68.384C186.507 68.384 185.707 68.288 184.971 68.096C184.251 67.904 183.627 67.608 183.099 67.208C182.571 66.808 182.163 66.296 181.875 65.672C181.587 65.032 181.443 64.264 181.443 63.368V56.504ZM199.492 67.976C199.332 68.024 199.076 68.072 198.724 68.12C198.388 68.168 198.036 68.192 197.668 68.192C197.316 68.192 196.996 68.168 196.708 68.12C196.436 68.072 196.204 67.976 196.012 67.832C195.82 67.688 195.668 67.496 195.556 67.256C195.46 67 195.412 66.672 195.412 66.272V59.072C195.412 58.704 195.476 58.392 195.604 58.136C195.748 57.864 195.948 57.624 196.204 57.416C196.46 57.208 196.772 57.024 197.14 56.864C197.524 56.688 197.932 56.536 198.364 56.408C198.796 56.28 199.244 56.184 199.708 56.12C200.172 56.04 200.636 56 201.1 56C201.868 56 202.476 56.152 202.924 56.456C203.372 56.744 203.596 57.224 203.596 57.896C203.596 58.12 203.564 58.344 203.5 58.568C203.436 58.776 203.356 58.968 203.26 59.144C202.924 59.144 202.58 59.16 202.228 59.192C201.876 59.224 201.532 59.272 201.196 59.336C200.86 59.4 200.54 59.472 200.236 59.552C199.948 59.616 199.7 59.696 199.492 59.792V67.976ZM211.002 68.384C210.058 68.384 209.178 68.256 208.362 68C207.562 67.728 206.858 67.328 206.25 66.8C205.658 66.272 205.186 65.608 204.834 64.808C204.498 64.008 204.33 63.072 204.33 62C204.33 60.944 204.498 60.04 204.834 59.288C205.186 58.52 205.642 57.896 206.202 57.416C206.762 56.92 207.402 56.56 208.122 56.336C208.842 56.096 209.578 55.976 210.33 55.976C211.178 55.976 211.946 56.104 212.634 56.36C213.338 56.616 213.938 56.968 214.434 57.416C214.946 57.864 215.338 58.4 215.61 59.024C215.898 59.648 216.042 60.328 216.042 61.064C216.042 61.608 215.89 62.024 215.586 62.312C215.282 62.6 214.858 62.784 214.314 62.864L208.386 63.752C208.562 64.28 208.922 64.68 209.466 64.952C210.01 65.208 210.634 65.336 211.338 65.336C211.994 65.336 212.61 65.256 213.186 65.096C213.778 64.92 214.258 64.72 214.626 64.496C214.882 64.656 215.098 64.88 215.274 65.168C215.45 65.456 215.538 65.76 215.538 66.08C215.538 66.8 215.202 67.336 214.53 67.688C214.018 67.96 213.442 68.144 212.802 68.24C212.162 68.336 211.562 68.384 211.002 68.384ZM210.33 58.952C209.946 58.952 209.61 59.016 209.322 59.144C209.05 59.272 208.826 59.44 208.65 59.648C208.474 59.84 208.338 60.064 208.242 60.32C208.162 60.56 208.114 60.808 208.098 61.064L212.202 60.392C212.154 60.072 211.978 59.752 211.674 59.432C211.37 59.112 210.922 58.952 210.33 58.952ZM224.635 65.024C224.459 64.624 224.267 64.176 224.059 63.68C223.867 63.184 223.659 62.616 223.435 61.976C223.227 61.336 223.003 60.608 222.763 59.792C222.539 58.96 222.299 58.008 222.043 56.936C222.267 56.712 222.563 56.52 222.931 56.36C223.315 56.184 223.731 56.096 224.179 56.096C224.739 56.096 225.203 56.216 225.571 56.456C225.939 56.68 226.211 57.112 226.387 57.752L228.283 64.352H228.379C228.571 63.808 228.755 63.216 228.931 62.576C229.123 61.936 229.307 61.28 229.483 60.608C229.659 59.92 229.819 59.24 229.963 58.568C230.123 57.88 230.259 57.208 230.371 56.552C230.947 56.248 231.579 56.096 232.267 56.096C232.827 56.096 233.291 56.216 233.659 56.456C234.027 56.696 234.211 57.112 234.211 57.704C234.211 58.136 234.155 58.64 234.043 59.216C233.931 59.776 233.779 60.376 233.587 61.016C233.411 61.656 233.195 62.32 232.939 63.008C232.699 63.68 232.443 64.344 232.171 65C231.899 65.656 231.619 66.28 231.331 66.872C231.043 67.448 230.763 67.968 230.491 68.432C230.043 69.216 229.627 69.856 229.243 70.352C228.859 70.848 228.491 71.232 228.139 71.504C227.787 71.792 227.435 71.984 227.083 72.08C226.731 72.192 226.363 72.248 225.979 72.248C225.307 72.248 224.763 72.048 224.347 71.648C223.931 71.248 223.683 70.728 223.603 70.088C224.115 69.688 224.627 69.24 225.139 68.744C225.651 68.264 226.115 67.768 226.531 67.256C226.259 67.176 225.963 66.992 225.643 66.704C225.339 66.4 225.003 65.84 224.635 65.024ZM247.984 62.168C247.984 63.16 247.832 64.048 247.528 64.832C247.224 65.6 246.792 66.248 246.232 66.776C245.688 67.304 245.032 67.704 244.264 67.976C243.496 68.248 242.64 68.384 241.696 68.384C240.752 68.384 239.896 68.24 239.128 67.952C238.36 67.664 237.696 67.256 237.136 66.728C236.592 66.184 236.168 65.528 235.864 64.76C235.56 63.992 235.408 63.128 235.408 62.168C235.408 61.224 235.56 60.368 235.864 59.6C236.168 58.832 236.592 58.184 237.136 57.656C237.696 57.112 238.36 56.696 239.128 56.408C239.896 56.12 240.752 55.976 241.696 55.976C242.64 55.976 243.496 56.128 244.264 56.432C245.032 56.72 245.688 57.136 246.232 57.68C246.792 58.208 247.224 58.856 247.528 59.624C247.832 60.392 247.984 61.24 247.984 62.168ZM239.584 62.168C239.584 63.144 239.768 63.896 240.136 64.424C240.52 64.936 241.048 65.192 241.72 65.192C242.392 65.192 242.904 64.928 243.256 64.4C243.624 63.872 243.808 63.128 243.808 62.168C243.808 61.208 243.624 60.472 243.256 59.96C242.888 59.432 242.368 59.168 241.696 59.168C241.024 59.168 240.504 59.432 240.136 59.96C239.768 60.472 239.584 61.208 239.584 62.168ZM249.975 56.504C250.135 56.456 250.383 56.408 250.719 56.36C251.071 56.312 251.431 56.288 251.799 56.288C252.151 56.288 252.463 56.312 252.735 56.36C253.023 56.408 253.263 56.504 253.455 56.648C253.647 56.792 253.791 56.992 253.887 57.248C253.999 57.488 254.055 57.808 254.055 58.208V63.368C254.055 64.024 254.215 64.496 254.535 64.784C254.855 65.056 255.319 65.192 255.927 65.192C256.295 65.192 256.591 65.16 256.815 65.096C257.055 65.032 257.239 64.968 257.367 64.904V56.504C257.527 56.456 257.775 56.408 258.111 56.36C258.463 56.312 258.823 56.288 259.191 56.288C259.543 56.288 259.855 56.312 260.127 56.36C260.415 56.408 260.655 56.504 260.847 56.648C261.039 56.792 261.183 56.992 261.279 57.248C261.391 57.488 261.447 57.808 261.447 58.208V65.504C261.447 66.304 261.111 66.904 260.439 67.304C259.879 67.656 259.207 67.92 258.423 68.096C257.655 68.288 256.815 68.384 255.903 68.384C255.039 68.384 254.239 68.288 253.503 68.096C252.783 67.904 252.159 67.608 251.631 67.208C251.103 66.808 250.695 66.296 250.407 65.672C250.119 65.032 249.975 64.264 249.975 63.368V56.504ZM87.896 97.64C87.672 97.832 87.368 97.984 86.984 98.096C86.6 98.224 86.144 98.288 85.616 98.288C84.96 98.288 84.392 98.192 83.912 98C83.432 97.824 83.112 97.568 82.952 97.232C82.776 96.848 82.568 96.24 82.328 95.408C82.104 94.576 81.88 93.664 81.656 92.672C81.432 91.68 81.216 90.672 81.008 89.648C80.816 88.624 80.664 87.72 80.552 86.936C80.776 86.712 81.072 86.52 81.44 86.36C81.824 86.184 82.24 86.096 82.688 86.096C83.248 86.096 83.704 86.224 84.056 86.48C84.424 86.72 84.648 87.144 84.728 87.752C84.888 88.968 85.024 89.976 85.136 90.776C85.248 91.56 85.336 92.208 85.4 92.72C85.48 93.216 85.536 93.6 85.568 93.872C85.616 94.128 85.656 94.336 85.688 94.496H85.784C85.832 94.24 85.912 93.872 86.024 93.392C86.152 92.896 86.296 92.336 86.456 91.712C86.616 91.088 86.784 90.416 86.96 89.696C87.136 88.96 87.312 88.232 87.488 87.512C87.808 87.336 88.12 87.2 88.424 87.104C88.744 87.008 89.136 86.96 89.6 86.96C90.16 86.96 90.64 87.048 91.04 87.224C91.44 87.4 91.696 87.672 91.808 88.04C92 88.744 92.184 89.432 92.36 90.104C92.536 90.76 92.696 91.376 92.84 91.952C92.984 92.512 93.112 93.016 93.224 93.464C93.336 93.896 93.416 94.24 93.464 94.496H93.584C93.76 93.264 93.928 91.984 94.088 90.656C94.264 89.328 94.424 87.976 94.568 86.6C94.856 86.424 95.16 86.296 95.48 86.216C95.8 86.136 96.12 86.096 96.44 86.096C97 86.096 97.464 86.216 97.832 86.456C98.2 86.696 98.384 87.112 98.384 87.704C98.384 87.96 98.344 88.344 98.264 88.856C98.184 89.368 98.08 89.944 97.952 90.584C97.824 91.224 97.672 91.896 97.496 92.6C97.336 93.304 97.168 93.984 96.992 94.64C96.832 95.296 96.672 95.888 96.512 96.416C96.368 96.944 96.24 97.352 96.128 97.64C95.904 97.832 95.56 97.984 95.096 98.096C94.632 98.224 94.136 98.288 93.608 98.288C92.264 98.288 91.472 97.952 91.232 97.28C91.136 96.992 91.016 96.632 90.872 96.2C90.728 95.752 90.576 95.264 90.416 94.736C90.256 94.208 90.104 93.664 89.96 93.104C89.816 92.528 89.696 91.976 89.6 91.448C89.488 92.008 89.352 92.592 89.192 93.2C89.032 93.792 88.864 94.376 88.688 94.952C88.528 95.512 88.376 96.032 88.232 96.512C88.088 96.976 87.976 97.352 87.896 97.64ZM105.224 95.408C105.496 95.408 105.792 95.384 106.112 95.336C106.448 95.272 106.696 95.192 106.856 95.096V93.176L105.128 93.32C104.68 93.352 104.312 93.448 104.024 93.608C103.736 93.768 103.592 94.008 103.592 94.328C103.592 94.648 103.712 94.912 103.952 95.12C104.208 95.312 104.632 95.408 105.224 95.408ZM105.032 85.976C105.896 85.976 106.68 86.064 107.384 86.24C108.104 86.416 108.712 86.688 109.208 87.056C109.72 87.408 110.112 87.864 110.384 88.424C110.656 88.968 110.792 89.616 110.792 90.368V95.744C110.792 96.16 110.672 96.504 110.432 96.776C110.208 97.032 109.936 97.256 109.616 97.448C108.576 98.072 107.112 98.384 105.224 98.384C104.376 98.384 103.608 98.304 102.92 98.144C102.248 97.984 101.664 97.744 101.168 97.424C100.688 97.104 100.312 96.696 100.04 96.2C99.7844 95.704 99.6564 95.128 99.6564 94.472C99.6564 93.368 99.9844 92.52 100.64 91.928C101.296 91.336 102.312 90.968 103.688 90.824L106.832 90.488V90.32C106.832 89.856 106.624 89.528 106.208 89.336C105.808 89.128 105.224 89.024 104.456 89.024C103.848 89.024 103.256 89.088 102.68 89.216C102.104 89.344 101.584 89.504 101.12 89.696C100.912 89.552 100.736 89.336 100.592 89.048C100.448 88.744 100.376 88.432 100.376 88.112C100.376 87.696 100.472 87.368 100.664 87.128C100.872 86.872 101.184 86.656 101.6 86.48C102.064 86.304 102.608 86.176 103.232 86.096C103.872 86.016 104.472 85.976 105.032 85.976ZM120.679 90.608C120.679 90.112 120.535 89.752 120.247 89.528C119.975 89.288 119.599 89.168 119.119 89.168C118.799 89.168 118.479 89.208 118.159 89.288C117.855 89.368 117.591 89.488 117.367 89.648V97.976C117.207 98.024 116.951 98.072 116.599 98.12C116.263 98.168 115.911 98.192 115.543 98.192C115.191 98.192 114.871 98.168 114.583 98.12C114.311 98.072 114.079 97.976 113.887 97.832C113.695 97.688 113.543 97.496 113.431 97.256C113.335 97 113.287 96.672 113.287 96.272V89.072C113.287 88.64 113.375 88.288 113.551 88.016C113.743 87.744 113.999 87.496 114.319 87.272C114.863 86.888 115.543 86.576 116.359 86.336C117.191 86.096 118.111 85.976 119.119 85.976C120.927 85.976 122.319 86.376 123.295 87.176C124.271 87.96 124.759 89.056 124.759 90.464V97.976C124.599 98.024 124.343 98.072 123.991 98.12C123.655 98.168 123.303 98.192 122.935 98.192C122.583 98.192 122.263 98.168 121.975 98.12C121.703 98.072 121.471 97.976 121.279 97.832C121.087 97.688 120.935 97.496 120.823 97.256C120.727 97 120.679 96.672 120.679 96.272V90.608ZM131.359 93.992C131.359 94.408 131.487 94.704 131.743 94.88C132.015 95.056 132.391 95.144 132.871 95.144C133.111 95.144 133.359 95.128 133.615 95.096C133.871 95.048 134.095 94.992 134.287 94.928C134.431 95.104 134.551 95.304 134.647 95.528C134.759 95.736 134.815 95.992 134.815 96.296C134.815 96.904 134.583 97.4 134.119 97.784C133.671 98.168 132.871 98.36 131.719 98.36C130.311 98.36 129.223 98.04 128.455 97.4C127.703 96.76 127.327 95.72 127.327 94.28V84.008C127.503 83.96 127.751 83.912 128.071 83.864C128.407 83.8 128.759 83.768 129.127 83.768C129.831 83.768 130.375 83.896 130.759 84.152C131.159 84.392 131.359 84.912 131.359 85.712V87.248H134.503C134.599 87.424 134.687 87.648 134.767 87.92C134.863 88.176 134.911 88.464 134.911 88.784C134.911 89.344 134.783 89.752 134.527 90.008C134.287 90.248 133.959 90.368 133.543 90.368H131.359V93.992ZM145.773 93.992C145.773 94.408 145.901 94.704 146.157 94.88C146.429 95.056 146.805 95.144 147.285 95.144C147.525 95.144 147.773 95.128 148.029 95.096C148.285 95.048 148.509 94.992 148.701 94.928C148.845 95.104 148.965 95.304 149.061 95.528C149.173 95.736 149.229 95.992 149.229 96.296C149.229 96.904 148.997 97.4 148.533 97.784C148.085 98.168 147.285 98.36 146.133 98.36C144.725 98.36 143.637 98.04 142.869 97.4C142.117 96.76 141.741 95.72 141.741 94.28V84.008C141.917 83.96 142.165 83.912 142.485 83.864C142.821 83.8 143.173 83.768 143.541 83.768C144.245 83.768 144.789 83.896 145.173 84.152C145.573 84.392 145.773 84.912 145.773 85.712V87.248H148.917C149.013 87.424 149.101 87.648 149.181 87.92C149.277 88.176 149.325 88.464 149.325 88.784C149.325 89.344 149.197 89.752 148.941 90.008C148.701 90.248 148.373 90.368 147.957 90.368H145.773V93.992ZM163.234 92.168C163.234 93.16 163.082 94.048 162.778 94.832C162.474 95.6 162.042 96.248 161.482 96.776C160.938 97.304 160.282 97.704 159.514 97.976C158.746 98.248 157.89 98.384 156.946 98.384C156.002 98.384 155.146 98.24 154.378 97.952C153.61 97.664 152.946 97.256 152.386 96.728C151.842 96.184 151.418 95.528 151.114 94.76C150.81 93.992 150.658 93.128 150.658 92.168C150.658 91.224 150.81 90.368 151.114 89.6C151.418 88.832 151.842 88.184 152.386 87.656C152.946 87.112 153.61 86.696 154.378 86.408C155.146 86.12 156.002 85.976 156.946 85.976C157.89 85.976 158.746 86.128 159.514 86.432C160.282 86.72 160.938 87.136 161.482 87.68C162.042 88.208 162.474 88.856 162.778 89.624C163.082 90.392 163.234 91.24 163.234 92.168ZM154.834 92.168C154.834 93.144 155.018 93.896 155.386 94.424C155.77 94.936 156.298 95.192 156.97 95.192C157.642 95.192 158.154 94.928 158.506 94.4C158.874 93.872 159.058 93.128 159.058 92.168C159.058 91.208 158.874 90.472 158.506 89.96C158.138 89.432 157.618 89.168 156.946 89.168C156.274 89.168 155.754 89.432 155.386 89.96C155.018 90.472 154.834 91.208 154.834 92.168ZM174.109 97.976C173.949 98.024 173.693 98.072 173.341 98.12C173.005 98.168 172.653 98.192 172.285 98.192C171.933 98.192 171.613 98.168 171.325 98.12C171.053 98.072 170.821 97.976 170.629 97.832C170.437 97.688 170.285 97.496 170.173 97.256C170.077 97 170.029 96.672 170.029 96.272V89.072C170.029 88.704 170.093 88.392 170.221 88.136C170.365 87.864 170.565 87.624 170.821 87.416C171.077 87.208 171.389 87.024 171.757 86.864C172.141 86.688 172.549 86.536 172.981 86.408C173.413 86.28 173.861 86.184 174.325 86.12C174.789 86.04 175.253 86 175.717 86C176.485 86 177.093 86.152 177.541 86.456C177.989 86.744 178.213 87.224 178.213 87.896C178.213 88.12 178.181 88.344 178.117 88.568C178.053 88.776 177.973 88.968 177.877 89.144C177.541 89.144 177.197 89.16 176.845 89.192C176.493 89.224 176.149 89.272 175.813 89.336C175.477 89.4 175.157 89.472 174.853 89.552C174.565 89.616 174.317 89.696 174.109 89.792V97.976ZM185.619 98.384C184.675 98.384 183.795 98.256 182.979 98C182.179 97.728 181.475 97.328 180.867 96.8C180.275 96.272 179.803 95.608 179.451 94.808C179.115 94.008 178.947 93.072 178.947 92C178.947 90.944 179.115 90.04 179.451 89.288C179.803 88.52 180.259 87.896 180.819 87.416C181.379 86.92 182.019 86.56 182.739 86.336C183.459 86.096 184.195 85.976 184.947 85.976C185.795 85.976 186.563 86.104 187.251 86.36C187.955 86.616 188.555 86.968 189.051 87.416C189.563 87.864 189.955 88.4 190.227 89.024C190.515 89.648 190.659 90.328 190.659 91.064C190.659 91.608 190.507 92.024 190.203 92.312C189.899 92.6 189.475 92.784 188.931 92.864L183.003 93.752C183.179 94.28 183.539 94.68 184.083 94.952C184.627 95.208 185.251 95.336 185.955 95.336C186.611 95.336 187.227 95.256 187.803 95.096C188.395 94.92 188.875 94.72 189.243 94.496C189.499 94.656 189.715 94.88 189.891 95.168C190.067 95.456 190.155 95.76 190.155 96.08C190.155 96.8 189.819 97.336 189.147 97.688C188.635 97.96 188.059 98.144 187.419 98.24C186.779 98.336 186.179 98.384 185.619 98.384ZM184.947 88.952C184.563 88.952 184.227 89.016 183.939 89.144C183.667 89.272 183.443 89.44 183.267 89.648C183.091 89.84 182.955 90.064 182.859 90.32C182.779 90.56 182.731 90.808 182.715 91.064L186.819 90.392C186.771 90.072 186.595 89.752 186.291 89.432C185.987 89.112 185.539 88.952 184.947 88.952ZM202.463 94.52C202.463 95.736 202.007 96.688 201.095 97.376C200.183 98.064 198.839 98.408 197.063 98.408C196.391 98.408 195.767 98.36 195.191 98.264C194.615 98.168 194.119 98.024 193.703 97.832C193.303 97.624 192.983 97.368 192.743 97.064C192.519 96.76 192.407 96.4 192.407 95.984C192.407 95.6 192.487 95.28 192.647 95.024C192.807 94.752 192.999 94.528 193.223 94.352C193.687 94.608 194.215 94.84 194.807 95.048C195.415 95.24 196.111 95.336 196.895 95.336C197.391 95.336 197.767 95.264 198.023 95.12C198.295 94.976 198.431 94.784 198.431 94.544C198.431 94.32 198.335 94.144 198.143 94.016C197.951 93.888 197.631 93.784 197.183 93.704L196.463 93.56C195.071 93.288 194.031 92.864 193.343 92.288C192.671 91.696 192.335 90.856 192.335 89.768C192.335 89.176 192.463 88.64 192.719 88.16C192.975 87.68 193.335 87.28 193.799 86.96C194.263 86.64 194.815 86.392 195.455 86.216C196.111 86.04 196.831 85.952 197.615 85.952C198.207 85.952 198.759 86 199.271 86.096C199.799 86.176 200.255 86.304 200.639 86.48C201.023 86.656 201.327 86.888 201.551 87.176C201.775 87.448 201.887 87.776 201.887 88.16C201.887 88.528 201.815 88.848 201.671 89.12C201.543 89.376 201.375 89.592 201.167 89.768C201.039 89.688 200.847 89.608 200.591 89.528C200.335 89.432 200.055 89.352 199.751 89.288C199.447 89.208 199.135 89.144 198.815 89.096C198.511 89.048 198.231 89.024 197.975 89.024C197.447 89.024 197.039 89.088 196.751 89.216C196.463 89.328 196.319 89.512 196.319 89.768C196.319 89.944 196.399 90.088 196.559 90.2C196.719 90.312 197.023 90.416 197.471 90.512L198.215 90.68C199.751 91.032 200.839 91.52 201.479 92.144C202.135 92.752 202.463 93.544 202.463 94.52ZM208.516 93.992C208.516 94.408 208.644 94.704 208.9 94.88C209.172 95.056 209.548 95.144 210.028 95.144C210.268 95.144 210.516 95.128 210.772 95.096C211.028 95.048 211.252 94.992 211.444 94.928C211.588 95.104 211.708 95.304 211.804 95.528C211.916 95.736 211.972 95.992 211.972 96.296C211.972 96.904 211.74 97.4 211.276 97.784C210.828 98.168 210.028 98.36 208.876 98.36C207.468 98.36 206.38 98.04 205.612 97.4C204.86 96.76 204.484 95.72 204.484 94.28V84.008C204.66 83.96 204.908 83.912 205.228 83.864C205.564 83.8 205.916 83.768 206.284 83.768C206.988 83.768 207.532 83.896 207.916 84.152C208.316 84.392 208.516 84.912 208.516 85.712V87.248H211.66C211.756 87.424 211.844 87.648 211.924 87.92C212.02 88.176 212.068 88.464 212.068 88.784C212.068 89.344 211.94 89.752 211.684 90.008C211.444 90.248 211.116 90.368 210.7 90.368H208.516V93.992ZM219.037 95.408C219.309 95.408 219.605 95.384 219.925 95.336C220.261 95.272 220.509 95.192 220.669 95.096V93.176L218.941 93.32C218.493 93.352 218.125 93.448 217.837 93.608C217.549 93.768 217.405 94.008 217.405 94.328C217.405 94.648 217.525 94.912 217.765 95.12C218.021 95.312 218.445 95.408 219.037 95.408ZM218.845 85.976C219.709 85.976 220.493 86.064 221.197 86.24C221.917 86.416 222.525 86.688 223.021 87.056C223.533 87.408 223.925 87.864 224.197 88.424C224.469 88.968 224.605 89.616 224.605 90.368V95.744C224.605 96.16 224.485 96.504 224.245 96.776C224.021 97.032 223.749 97.256 223.429 97.448C222.389 98.072 220.925 98.384 219.037 98.384C218.189 98.384 217.421 98.304 216.733 98.144C216.061 97.984 215.477 97.744 214.981 97.424C214.501 97.104 214.125 96.696 213.853 96.2C213.597 95.704 213.469 95.128 213.469 94.472C213.469 93.368 213.797 92.52 214.453 91.928C215.109 91.336 216.125 90.968 217.501 90.824L220.645 90.488V90.32C220.645 89.856 220.437 89.528 220.021 89.336C219.621 89.128 219.037 89.024 218.269 89.024C217.661 89.024 217.069 89.088 216.493 89.216C215.917 89.344 215.397 89.504 214.933 89.696C214.725 89.552 214.549 89.336 214.405 89.048C214.261 88.744 214.189 88.432 214.189 88.112C214.189 87.696 214.285 87.368 214.477 87.128C214.685 86.872 214.997 86.656 215.413 86.48C215.877 86.304 216.421 86.176 217.045 86.096C217.685 86.016 218.285 85.976 218.845 85.976ZM231.18 97.976C231.02 98.024 230.764 98.072 230.412 98.12C230.076 98.168 229.724 98.192 229.356 98.192C229.004 98.192 228.684 98.168 228.396 98.12C228.124 98.072 227.892 97.976 227.7 97.832C227.508 97.688 227.356 97.496 227.244 97.256C227.148 97 227.1 96.672 227.1 96.272V89.072C227.1 88.704 227.164 88.392 227.292 88.136C227.436 87.864 227.636 87.624 227.892 87.416C228.148 87.208 228.46 87.024 228.828 86.864C229.212 86.688 229.62 86.536 230.052 86.408C230.484 86.28 230.932 86.184 231.396 86.12C231.86 86.04 232.324 86 232.788 86C233.556 86 234.164 86.152 234.612 86.456C235.06 86.744 235.284 87.224 235.284 87.896C235.284 88.12 235.252 88.344 235.188 88.568C235.124 88.776 235.044 88.968 234.948 89.144C234.612 89.144 234.268 89.16 233.916 89.192C233.564 89.224 233.22 89.272 232.884 89.336C232.548 89.4 232.228 89.472 231.924 89.552C231.636 89.616 231.388 89.696 231.18 89.792V97.976ZM241.047 93.992C241.047 94.408 241.175 94.704 241.431 94.88C241.703 95.056 242.079 95.144 242.559 95.144C242.799 95.144 243.047 95.128 243.303 95.096C243.559 95.048 243.783 94.992 243.975 94.928C244.119 95.104 244.239 95.304 244.335 95.528C244.447 95.736 244.503 95.992 244.503 96.296C244.503 96.904 244.271 97.4 243.807 97.784C243.359 98.168 242.559 98.36 241.407 98.36C239.999 98.36 238.911 98.04 238.143 97.4C237.391 96.76 237.015 95.72 237.015 94.28V84.008C237.191 83.96 237.439 83.912 237.759 83.864C238.095 83.8 238.447 83.768 238.815 83.768C239.519 83.768 240.063 83.896 240.447 84.152C240.847 84.392 241.047 84.912 241.047 85.712V87.248H244.191C244.287 87.424 244.375 87.648 244.455 87.92C244.551 88.176 244.599 88.464 244.599 88.784C244.599 89.344 244.471 89.752 244.215 90.008C243.975 90.248 243.647 90.368 243.231 90.368H241.047V93.992ZM247.8 96.152C247.8 95.496 248 94.96 248.4 94.544C248.816 94.112 249.384 93.896 250.104 93.896C250.824 93.896 251.384 94.112 251.784 94.544C252.2 94.96 252.408 95.496 252.408 96.152C252.408 96.808 252.2 97.352 251.784 97.784C251.384 98.2 250.824 98.408 250.104 98.408C249.384 98.408 248.816 98.2 248.4 97.784C248 97.352 247.8 96.808 247.8 96.152ZM248.592 93.008C248.32 92.864 248.064 92.608 247.824 92.24C247.584 91.856 247.464 91.408 247.464 90.896C247.464 90.4 247.592 90.032 247.848 89.792C248.12 89.536 248.512 89.344 249.024 89.216L250.896 88.76C251.696 88.552 252.096 88.168 252.096 87.608C252.096 87.304 251.944 87.04 251.64 86.816C251.352 86.592 250.848 86.48 250.128 86.48C249.472 86.48 248.856 86.568 248.28 86.744C247.704 86.904 247.24 87.096 246.888 87.32C246.616 87.112 246.384 86.864 246.192 86.576C246 86.272 245.904 85.912 245.904 85.496C245.904 85.08 246.024 84.72 246.264 84.416C246.504 84.096 246.832 83.84 247.248 83.648C247.68 83.44 248.184 83.288 248.76 83.192C249.352 83.096 250 83.048 250.704 83.048C252.592 83.048 254.016 83.472 254.976 84.32C255.952 85.152 256.44 86.248 256.44 87.608C256.44 90.168 254.632 91.808 251.016 92.528L248.592 93.008Z" fill="#1257B4"/>
<rect width="289" height="30" fill="#1257B4"/>
<path fill-rule="evenodd" clip-rule="evenodd" d="M24 75.5C24 65.2827 32.2827 57 42.5 57C52.7173 57 61 65.2827 61 75.5C61 85.7173 52.7173 94 42.5 94C32.2827 94 24 85.7173 24 75.5ZM44.35 65.325C44.35 64.3032 43.5218 63.475 42.5 63.475C41.4782 63.475 40.65 64.3032 40.65 65.325V78.275C40.65 79.2968 41.4782 80.125 42.5 80.125C43.5218 80.125 44.35 79.2968 44.35 78.275V65.325ZM42.5 83.825C43.5218 83.825 44.35 84.6532 44.35 85.675C44.35 86.6968 43.5218 87.525 42.5 87.525C41.4782 87.525 40.65 86.6968 40.65 85.675C40.65 84.6532 41.4782 83.825 42.5 83.825Z" fill="#1257B4"/>
</svg>
