<svg width="30" height="30" viewBox="0 0 30 30" fill="none" xmlns="http://www.w3.org/2000/svg">
<g id="Settings Button">
<rect id="Rectangle 3" x="1.5" y="1.5" width="27.0021" height="27.0021" fill="white" stroke="#4294FF" stroke-width="3"/>
<g id="&#240;&#159;&#166;&#134; icon &#34;Settings&#34;">
<path id="Vector" d="M7.02524 12.4608C7.37679 11.3858 7.9559 10.3991 8.72003 9.56286C8.84924 9.42145 9.05196 9.37104 9.23346 9.43521L11.0596 10.0808C11.5546 10.2557 12.0994 10.0007 12.2763 9.5112C12.2937 9.46306 12.3071 9.41362 12.3164 9.36342L12.6643 7.47541C12.6989 7.28769 12.8447 7.13921 13.0335 7.09947C13.5858 6.98325 14.152 6.92413 14.7258 6.92413C15.2991 6.92413 15.8651 6.98318 16.4171 7.09926C16.6058 7.13895 16.7516 7.28735 16.7862 7.475L17.1351 9.36334C17.2294 9.87469 17.7251 10.2136 18.2424 10.1204C18.2933 10.1112 18.3433 10.098 18.3919 10.0808L20.218 9.43521C20.3995 9.37104 20.6022 9.42145 20.7314 9.56286C21.4956 10.3991 22.0747 11.3858 22.4263 12.4608C22.4856 12.6421 22.4283 12.8409 22.2814 12.9643L20.8013 14.2067C20.4006 14.5431 20.3516 15.1371 20.6918 15.5333C20.7253 15.5723 20.7619 15.6085 20.8013 15.6415L22.2814 16.884C22.4283 17.0073 22.4856 17.2062 22.4263 17.3875C22.0747 18.4625 21.4956 19.4492 20.7314 20.2854C20.6022 20.4268 20.3995 20.4772 20.218 20.413L18.3919 19.7675C17.8969 19.5926 17.3521 19.8476 17.1752 20.337C17.1578 20.3852 17.1444 20.4346 17.1351 20.4851L16.7862 22.3733C16.7516 22.5609 16.6058 22.7093 16.4171 22.749C15.8651 22.865 15.2991 22.9241 14.7258 22.9241C14.152 22.9241 13.5858 22.865 13.0335 22.7487C12.8447 22.709 12.6989 22.5605 12.6643 22.3729L12.3164 20.4849C12.2221 19.9735 11.7263 19.6346 11.2091 19.7279C11.1583 19.7371 11.1082 19.7503 11.0596 19.7675L9.23346 20.413C9.05196 20.4772 8.84924 20.4268 8.72003 20.2854C7.9559 19.4492 7.37679 18.4625 7.02524 17.3875C6.96594 17.2062 7.02312 17.0073 7.17008 16.884L8.6502 15.6416C9.05095 15.3051 9.09997 14.7112 8.75968 14.3149C8.72622 14.276 8.68961 14.2398 8.65021 14.2067L7.17008 12.9643C7.02312 12.8409 6.96594 12.6421 7.02524 12.4608ZM12.3749 14.924C12.3749 16.2131 13.4274 17.2582 14.7256 17.2582C16.0238 17.2582 17.0763 16.2131 17.0763 14.924C17.0763 13.6349 16.0238 12.5899 14.7256 12.5899C13.4274 12.5899 12.3749 13.6349 12.3749 14.924Z" fill="#4294FF"/>
</g>
</g>
</svg>
