<svg width="80" height="38" viewBox="0 0 80 38" fill="none" xmlns="http://www.w3.org/2000/svg">
<rect width="80" height="38" rx="10" fill="white"/>
<path d="M5.53147 21.536C5.41947 21.36 5.31547 21.128 5.21947 20.84C5.12347 20.552 5.07547 20.248 5.07547 19.928C5.07547 19.336 5.21147 18.912 5.48347 18.656C5.75547 18.384 6.10747 18.248 6.53947 18.248H11.6755C11.7715 18.424 11.8675 18.656 11.9635 18.944C12.0755 19.232 12.1315 19.536 12.1315 19.856C12.1315 20.448 11.9955 20.88 11.7235 21.152C11.4515 21.408 11.0995 21.536 10.6675 21.536H5.53147ZM17.9631 11.048C19.8031 11.048 21.2031 11.432 22.1631 12.2C23.1231 12.952 23.6031 13.968 23.6031 15.248C23.6031 16.016 23.3951 16.672 22.9791 17.216C22.5791 17.744 22.0991 18.144 21.5391 18.416C21.8751 18.544 22.1871 18.704 22.4751 18.896C22.7631 19.088 23.0191 19.328 23.2431 19.616C23.4671 19.904 23.6431 20.24 23.7711 20.624C23.8991 21.008 23.9631 21.456 23.9631 21.968C23.9631 22.656 23.8111 23.272 23.5071 23.816C23.2191 24.36 22.8111 24.824 22.2831 25.208C21.7551 25.592 21.1231 25.88 20.3871 26.072C19.6671 26.28 18.8751 26.384 18.0111 26.384C16.3471 26.384 15.0911 26.152 14.2431 25.688C13.3951 25.224 12.9711 24.632 12.9711 23.912C12.9711 23.48 13.0751 23.112 13.2831 22.808C13.4911 22.488 13.7471 22.24 14.0511 22.064C14.3711 22.288 14.7951 22.528 15.3231 22.784C15.8671 23.024 16.5711 23.144 17.4351 23.144C18.2511 23.144 18.8511 23 19.2351 22.712C19.6351 22.424 19.8351 22.048 19.8351 21.584C19.8351 21.12 19.6751 20.768 19.3551 20.528C19.0511 20.288 18.5151 20.168 17.7471 20.168H15.4911C15.3791 19.992 15.2831 19.776 15.2031 19.52C15.1231 19.264 15.0831 18.96 15.0831 18.608C15.0831 18.24 15.1151 17.928 15.1791 17.672C15.2591 17.4 15.3631 17.176 15.4911 17H17.7471C18.8991 17 19.4751 16.56 19.4751 15.68C19.4751 15.264 19.2911 14.928 18.9231 14.672C18.5551 14.416 18.0031 14.288 17.2671 14.288C16.6111 14.288 16.0351 14.368 15.5391 14.528C15.0431 14.672 14.6351 14.856 14.3151 15.08C14.0431 14.888 13.8191 14.656 13.6431 14.384C13.4671 14.096 13.3791 13.76 13.3791 13.376C13.3791 12.576 13.7951 11.992 14.6271 11.624C15.4591 11.24 16.5711 11.048 17.9631 11.048ZM34.393 18.704C34.393 17.296 34.185 16.208 33.769 15.44C33.369 14.672 32.793 14.288 32.041 14.288C31.289 14.288 30.713 14.672 30.313 15.44C29.929 16.208 29.737 17.296 29.737 18.704C29.737 20.112 29.929 21.208 30.313 21.992C30.713 22.76 31.289 23.144 32.041 23.144C32.793 23.144 33.369 22.76 33.769 21.992C34.185 21.208 34.393 20.112 34.393 18.704ZM38.497 18.704C38.497 19.936 38.337 21.032 38.017 21.992C37.697 22.952 37.249 23.76 36.673 24.416C36.113 25.056 35.433 25.544 34.633 25.88C33.849 26.216 32.993 26.384 32.065 26.384C31.121 26.384 30.249 26.216 29.449 25.88C28.665 25.544 27.985 25.056 27.409 24.416C26.849 23.76 26.409 22.952 26.089 21.992C25.785 21.032 25.633 19.936 25.633 18.704C25.633 17.472 25.785 16.384 26.089 15.44C26.409 14.48 26.849 13.68 27.409 13.04C27.985 12.384 28.665 11.888 29.449 11.552C30.249 11.216 31.121 11.048 32.065 11.048C32.993 11.048 33.849 11.216 34.633 11.552C35.433 11.888 36.113 12.384 36.673 13.04C37.249 13.68 37.697 14.48 38.017 15.44C38.337 16.384 38.497 17.472 38.497 18.704ZM40.1157 16.52C40.1157 15.848 40.3237 15.288 40.7397 14.84C41.1557 14.392 41.7237 14.168 42.4437 14.168C43.1637 14.168 43.7317 14.392 44.1477 14.84C44.5637 15.288 44.7717 15.848 44.7717 16.52C44.7717 17.192 44.5637 17.752 44.1477 18.2C43.7317 18.648 43.1637 18.872 42.4437 18.872C41.7237 18.872 41.1557 18.648 40.7397 18.2C40.3237 17.752 40.1157 17.192 40.1157 16.52ZM40.1157 24.056C40.1157 23.384 40.3237 22.824 40.7397 22.376C41.1557 21.928 41.7237 21.704 42.4437 21.704C43.1637 21.704 43.7317 21.928 44.1477 22.376C44.5637 22.824 44.7717 23.384 44.7717 24.056C44.7717 24.728 44.5637 25.288 44.1477 25.736C43.7317 26.184 43.1637 26.408 42.4437 26.408C41.7237 26.408 41.1557 26.184 40.7397 25.736C40.3237 25.288 40.1157 24.728 40.1157 24.056ZM55.1352 18.704C55.1352 17.296 54.9272 16.208 54.5112 15.44C54.1112 14.672 53.5352 14.288 52.7832 14.288C52.0312 14.288 51.4552 14.672 51.0552 15.44C50.6712 16.208 50.4792 17.296 50.4792 18.704C50.4792 20.112 50.6712 21.208 51.0552 21.992C51.4552 22.76 52.0312 23.144 52.7832 23.144C53.5352 23.144 54.1112 22.76 54.5112 21.992C54.9272 21.208 55.1352 20.112 55.1352 18.704ZM59.2392 18.704C59.2392 19.936 59.0792 21.032 58.7592 21.992C58.4392 22.952 57.9912 23.76 57.4152 24.416C56.8552 25.056 56.1752 25.544 55.3752 25.88C54.5912 26.216 53.7352 26.384 52.8072 26.384C51.8632 26.384 50.9912 26.216 50.1912 25.88C49.4072 25.544 48.7272 25.056 48.1512 24.416C47.5912 23.76 47.1512 22.952 46.8312 21.992C46.5272 21.032 46.3752 19.936 46.3752 18.704C46.3752 17.472 46.5272 16.384 46.8312 15.44C47.1512 14.48 47.5912 13.68 48.1512 13.04C48.7272 12.384 49.4072 11.888 50.1912 11.552C50.9912 11.216 51.8632 11.048 52.8072 11.048C53.7352 11.048 54.5912 11.216 55.3752 11.552C56.1752 11.888 56.8552 12.384 57.4152 13.04C57.9912 13.68 58.4392 14.48 58.7592 15.44C59.0792 16.384 59.2392 17.472 59.2392 18.704ZM69.6898 18.704C69.6898 17.296 69.4818 16.208 69.0658 15.44C68.6658 14.672 68.0898 14.288 67.3378 14.288C66.5858 14.288 66.0098 14.672 65.6098 15.44C65.2258 16.208 65.0338 17.296 65.0338 18.704C65.0338 20.112 65.2258 21.208 65.6098 21.992C66.0098 22.76 66.5858 23.144 67.3378 23.144C68.0898 23.144 68.6658 22.76 69.0658 21.992C69.4818 21.208 69.6898 20.112 69.6898 18.704ZM73.7938 18.704C73.7938 19.936 73.6338 21.032 73.3138 21.992C72.9938 22.952 72.5458 23.76 71.9698 24.416C71.4098 25.056 70.7298 25.544 69.9298 25.88C69.1458 26.216 68.2898 26.384 67.3618 26.384C66.4178 26.384 65.5458 26.216 64.7458 25.88C63.9618 25.544 63.2818 25.056 62.7058 24.416C62.1458 23.76 61.7058 22.952 61.3858 21.992C61.0818 21.032 60.9298 19.936 60.9298 18.704C60.9298 17.472 61.0818 16.384 61.3858 15.44C61.7058 14.48 62.1458 13.68 62.7058 13.04C63.2818 12.384 63.9618 11.888 64.7458 11.552C65.5458 11.216 66.4178 11.048 67.3618 11.048C68.2898 11.048 69.1458 11.216 69.9298 11.552C70.7298 11.888 71.4098 12.384 71.9698 13.04C72.5458 13.68 72.9938 14.48 73.3138 15.44C73.6338 16.384 73.7938 17.472 73.7938 18.704Z" fill="#4294FF"/>
</svg>
