<svg width="80" height="38" viewBox="0 0 80 38" fill="none" xmlns="http://www.w3.org/2000/svg">
<rect width="80" height="38" rx="10" fill="white"/>
<path d="M14.2151 21.536C14.1031 21.36 13.9991 21.128 13.9031 20.84C13.8071 20.552 13.7591 20.248 13.7591 19.928C13.7591 19.336 13.8951 18.912 14.1671 18.656C14.4391 18.384 14.7911 18.248 15.2231 18.248H20.3591C20.4551 18.424 20.5511 18.656 20.6471 18.944C20.7591 19.232 20.8151 19.536 20.8151 19.856C20.8151 20.448 20.6791 20.88 20.4071 21.152C20.1351 21.408 19.7831 21.536 19.3511 21.536H14.2151ZM24.7747 15.296L22.3747 16.04C22.1347 15.88 21.8947 15.656 21.6547 15.368C21.4147 15.08 21.2947 14.68 21.2947 14.168C21.2947 13.208 21.8787 12.536 23.0467 12.152L25.7347 11.24H26.6227C27.3107 11.24 27.8547 11.44 28.2547 11.84C28.6547 12.24 28.8547 12.784 28.8547 13.472V25.976C28.6787 26.008 28.4147 26.048 28.0627 26.096C27.7267 26.16 27.3827 26.192 27.0307 26.192C26.6787 26.192 26.3587 26.168 26.0707 26.12C25.7987 26.072 25.5667 25.976 25.3747 25.832C25.1827 25.688 25.0307 25.496 24.9187 25.256C24.8227 25 24.7747 24.672 24.7747 24.272V15.296ZM31.4321 16.52C31.4321 15.848 31.6401 15.288 32.0561 14.84C32.4721 14.392 33.0401 14.168 33.7601 14.168C34.4801 14.168 35.0481 14.392 35.4641 14.84C35.8801 15.288 36.0881 15.848 36.0881 16.52C36.0881 17.192 35.8801 17.752 35.4641 18.2C35.0481 18.648 34.4801 18.872 33.7601 18.872C33.0401 18.872 32.4721 18.648 32.0561 18.2C31.6401 17.752 31.4321 17.192 31.4321 16.52ZM31.4321 24.056C31.4321 23.384 31.6401 22.824 32.0561 22.376C32.4721 21.928 33.0401 21.704 33.7601 21.704C34.4801 21.704 35.0481 21.928 35.4641 22.376C35.8801 22.824 36.0881 23.384 36.0881 24.056C36.0881 24.728 35.8801 25.288 35.4641 25.736C35.0481 26.184 34.4801 26.408 33.7601 26.408C33.0401 26.408 32.4721 26.184 32.0561 25.736C31.6401 25.288 31.4321 24.728 31.4321 24.056ZM46.4516 18.704C46.4516 17.296 46.2436 16.208 45.8276 15.44C45.4276 14.672 44.8516 14.288 44.0996 14.288C43.3476 14.288 42.7716 14.672 42.3716 15.44C41.9876 16.208 41.7956 17.296 41.7956 18.704C41.7956 20.112 41.9876 21.208 42.3716 21.992C42.7716 22.76 43.3476 23.144 44.0996 23.144C44.8516 23.144 45.4276 22.76 45.8276 21.992C46.2436 21.208 46.4516 20.112 46.4516 18.704ZM50.5556 18.704C50.5556 19.936 50.3956 21.032 50.0756 21.992C49.7556 22.952 49.3076 23.76 48.7316 24.416C48.1716 25.056 47.4916 25.544 46.6916 25.88C45.9076 26.216 45.0516 26.384 44.1236 26.384C43.1796 26.384 42.3076 26.216 41.5076 25.88C40.7236 25.544 40.0436 25.056 39.4676 24.416C38.9076 23.76 38.4676 22.952 38.1476 21.992C37.8436 21.032 37.6916 19.936 37.6916 18.704C37.6916 17.472 37.8436 16.384 38.1476 15.44C38.4676 14.48 38.9076 13.68 39.4676 13.04C40.0436 12.384 40.7236 11.888 41.5076 11.552C42.3076 11.216 43.1796 11.048 44.1236 11.048C45.0516 11.048 45.9076 11.216 46.6916 11.552C47.4916 11.888 48.1716 12.384 48.7316 13.04C49.3076 13.68 49.7556 14.48 50.0756 15.44C50.3956 16.384 50.5556 17.472 50.5556 18.704ZM61.0063 18.704C61.0063 17.296 60.7983 16.208 60.3823 15.44C59.9823 14.672 59.4063 14.288 58.6543 14.288C57.9023 14.288 57.3263 14.672 56.9263 15.44C56.5423 16.208 56.3503 17.296 56.3503 18.704C56.3503 20.112 56.5423 21.208 56.9263 21.992C57.3263 22.76 57.9023 23.144 58.6543 23.144C59.4063 23.144 59.9823 22.76 60.3823 21.992C60.7983 21.208 61.0063 20.112 61.0063 18.704ZM65.1103 18.704C65.1103 19.936 64.9503 21.032 64.6302 21.992C64.3103 22.952 63.8623 23.76 63.2863 24.416C62.7263 25.056 62.0463 25.544 61.2463 25.88C60.4623 26.216 59.6063 26.384 58.6783 26.384C57.7343 26.384 56.8623 26.216 56.0623 25.88C55.2783 25.544 54.5983 25.056 54.0223 24.416C53.4623 23.76 53.0223 22.952 52.7023 21.992C52.3983 21.032 52.2463 19.936 52.2463 18.704C52.2463 17.472 52.3983 16.384 52.7023 15.44C53.0223 14.48 53.4623 13.68 54.0223 13.04C54.5983 12.384 55.2783 11.888 56.0623 11.552C56.8623 11.216 57.7343 11.048 58.6783 11.048C59.6063 11.048 60.4623 11.216 61.2463 11.552C62.0463 11.888 62.7263 12.384 63.2863 13.04C63.8623 13.68 64.3103 14.48 64.6302 15.44C64.9503 16.384 65.1103 17.472 65.1103 18.704Z" fill="#4294FF"/>
</svg>
