<svg width="356" height="233" viewBox="0 0 356 233" fill="none" xmlns="http://www.w3.org/2000/svg">
<rect width="356" height="233" fill="#A1CAFF"/>
<path d="M106.995 70.5992C106.822 70.7459 106.595 70.8659 106.315 70.9592C106.048 71.0392 105.735 71.0792 105.375 71.0792C104.895 71.0792 104.495 71.0192 104.175 70.8992C103.868 70.7792 103.668 70.5726 103.575 70.2792C103.202 69.1059 102.895 68.1592 102.655 67.4392C102.415 66.7059 102.228 66.0659 102.095 65.5192H101.995C101.955 66.3059 101.922 67.0259 101.895 67.6792C101.882 68.3192 101.868 68.9459 101.855 69.5592C101.855 70.1726 101.842 70.7926 101.815 71.4192C101.802 72.0459 101.775 72.7392 101.735 73.4992C101.562 73.5659 101.335 73.6192 101.055 73.6592C100.775 73.7126 100.495 73.7392 100.215 73.7392C99.6282 73.7392 99.1682 73.6459 98.8349 73.4592C98.5149 73.2726 98.3549 72.9326 98.3549 72.4392L98.9349 62.2392C99.0415 62.0659 99.2749 61.8792 99.6349 61.6792C99.9949 61.4792 100.502 61.3792 101.155 61.3792C101.862 61.3792 102.415 61.4926 102.815 61.7192C103.215 61.9326 103.508 62.2859 103.695 62.7792C103.815 63.0992 103.942 63.4659 104.075 63.8792C104.222 64.2926 104.362 64.7192 104.495 65.1592C104.642 65.5992 104.782 66.0392 104.915 66.4792C105.048 66.9059 105.168 67.2926 105.275 67.6392H105.375C105.695 66.5192 106.015 65.4392 106.335 64.3992C106.655 63.3459 106.948 62.4659 107.215 61.7592C107.415 61.6526 107.668 61.5659 107.975 61.4992C108.295 61.4192 108.648 61.3792 109.035 61.3792C109.688 61.3792 110.222 61.4792 110.635 61.6792C111.048 61.8659 111.288 62.1392 111.355 62.4992C111.408 62.7659 111.462 63.1792 111.515 63.7392C111.582 64.2859 111.648 64.9059 111.715 65.5992C111.782 66.2926 111.848 67.0259 111.915 67.7992C111.982 68.5726 112.042 69.3192 112.095 70.0392C112.162 70.7459 112.215 71.3992 112.255 71.9992C112.295 72.5859 112.322 73.0392 112.335 73.3592C112.108 73.4926 111.868 73.5859 111.615 73.6392C111.375 73.7059 111.062 73.7392 110.675 73.7392C110.168 73.7392 109.742 73.6526 109.395 73.4792C109.048 73.3059 108.862 72.9659 108.835 72.4592C108.755 71.0059 108.702 69.6992 108.675 68.5392C108.662 67.3792 108.635 66.4059 108.595 65.6192H108.495C108.362 66.1392 108.168 66.7926 107.915 67.5792C107.662 68.3659 107.355 69.3726 106.995 70.5992ZM118.452 71.4192C118.679 71.4192 118.926 71.3992 119.192 71.3592C119.472 71.3059 119.679 71.2392 119.812 71.1592V69.5592L118.372 69.6792C117.999 69.7059 117.692 69.7859 117.452 69.9192C117.212 70.0526 117.092 70.2526 117.092 70.5192C117.092 70.7859 117.192 71.0059 117.392 71.1792C117.606 71.3392 117.959 71.4192 118.452 71.4192ZM118.292 63.5592C119.012 63.5592 119.666 63.6326 120.252 63.7792C120.852 63.9259 121.359 64.1526 121.772 64.4592C122.199 64.7526 122.526 65.1326 122.752 65.5992C122.979 66.0526 123.092 66.5926 123.092 67.2192V71.6992C123.092 72.0459 122.992 72.3326 122.792 72.5592C122.606 72.7726 122.379 72.9592 122.112 73.1192C121.246 73.6392 120.026 73.8992 118.452 73.8992C117.746 73.8992 117.106 73.8326 116.532 73.6992C115.972 73.5659 115.486 73.3659 115.072 73.0992C114.672 72.8326 114.359 72.4926 114.132 72.0792C113.919 71.6659 113.812 71.1859 113.812 70.6392C113.812 69.7192 114.086 69.0126 114.632 68.5192C115.179 68.0259 116.026 67.7192 117.172 67.5992L119.792 67.3192V67.1792C119.792 66.7926 119.619 66.5192 119.272 66.3592C118.939 66.1859 118.452 66.0992 117.812 66.0992C117.306 66.0992 116.812 66.1526 116.332 66.2592C115.852 66.3659 115.419 66.4992 115.032 66.6592C114.859 66.5392 114.712 66.3592 114.592 66.1192C114.472 65.8659 114.412 65.6059 114.412 65.3392C114.412 64.9926 114.492 64.7192 114.652 64.5192C114.826 64.3059 115.086 64.1259 115.432 63.9792C115.819 63.8326 116.272 63.7259 116.792 63.6592C117.326 63.5926 117.826 63.5592 118.292 63.5592ZM134.671 71.8192C134.605 72.4459 134.418 72.9259 134.111 73.2592C133.818 73.5926 133.385 73.7592 132.811 73.7592C132.385 73.7592 132.005 73.6592 131.671 73.4592C131.338 73.2459 130.978 72.8926 130.591 72.3992L128.611 69.9192V73.5592C128.465 73.5859 128.245 73.6192 127.951 73.6592C127.671 73.7126 127.385 73.7392 127.091 73.7392C126.798 73.7392 126.531 73.7192 126.291 73.6792C126.065 73.6392 125.871 73.5592 125.711 73.4392C125.551 73.3192 125.425 73.1592 125.331 72.9592C125.251 72.7459 125.211 72.4726 125.211 72.1392V60.5592C125.358 60.5192 125.571 60.4792 125.851 60.4392C126.145 60.3859 126.438 60.3592 126.731 60.3592C127.025 60.3592 127.285 60.3792 127.511 60.4192C127.751 60.4592 127.951 60.5392 128.111 60.6592C128.271 60.7792 128.391 60.9459 128.471 61.1592C128.565 61.3592 128.611 61.6259 128.611 61.9592V67.2392L132.051 63.7192C132.745 63.7192 133.298 63.8726 133.711 64.1792C134.138 64.4859 134.351 64.8726 134.351 65.3392C134.351 65.5392 134.318 65.7259 134.251 65.8992C134.185 66.0592 134.078 66.2259 133.931 66.3992C133.798 66.5726 133.618 66.7592 133.391 66.9592C133.178 67.1459 132.925 67.3659 132.631 67.6192L131.471 68.6192L134.671 71.8192ZM140.956 73.8992C140.169 73.8992 139.436 73.7926 138.756 73.5792C138.089 73.3526 137.502 73.0192 136.996 72.5792C136.502 72.1392 136.109 71.5859 135.816 70.9192C135.536 70.2526 135.396 69.4726 135.396 68.5792C135.396 67.6992 135.536 66.9459 135.816 66.3192C136.109 65.6792 136.489 65.1592 136.956 64.7592C137.422 64.3459 137.956 64.0459 138.556 63.8592C139.156 63.6592 139.769 63.5592 140.396 63.5592C141.102 63.5592 141.742 63.6659 142.316 63.8792C142.902 64.0926 143.402 64.3859 143.816 64.7592C144.242 65.1326 144.569 65.5792 144.796 66.0992C145.036 66.6192 145.156 67.1859 145.156 67.7992C145.156 68.2526 145.029 68.5992 144.776 68.8392C144.522 69.0792 144.169 69.2326 143.716 69.2992L138.776 70.0392C138.922 70.4792 139.222 70.8126 139.676 71.0392C140.129 71.2526 140.649 71.3592 141.236 71.3592C141.782 71.3592 142.296 71.2926 142.776 71.1592C143.269 71.0126 143.669 70.8459 143.976 70.6592C144.189 70.7926 144.369 70.9792 144.516 71.2192C144.662 71.4592 144.736 71.7126 144.736 71.9792C144.736 72.5792 144.456 73.0259 143.896 73.3192C143.469 73.5459 142.989 73.6992 142.456 73.7792C141.922 73.8592 141.422 73.8992 140.956 73.8992ZM140.396 66.0392C140.076 66.0392 139.796 66.0926 139.556 66.1992C139.329 66.3059 139.142 66.4459 138.996 66.6192C138.849 66.7792 138.736 66.9659 138.656 67.1792C138.589 67.3792 138.549 67.5859 138.536 67.7992L141.956 67.2392C141.916 66.9726 141.769 66.7059 141.516 66.4392C141.262 66.1726 140.889 66.0392 140.396 66.0392ZM158.996 70.6792C158.996 71.6926 158.616 72.4859 157.856 73.0592C157.096 73.6326 155.976 73.9192 154.496 73.9192C153.936 73.9192 153.416 73.8792 152.936 73.7992C152.456 73.7192 152.043 73.5992 151.696 73.4392C151.363 73.2659 151.096 73.0526 150.896 72.7992C150.71 72.5459 150.616 72.2459 150.616 71.8992C150.616 71.5792 150.683 71.3126 150.816 71.0992C150.95 70.8726 151.11 70.6859 151.296 70.5392C151.683 70.7526 152.123 70.9459 152.616 71.1192C153.123 71.2792 153.703 71.3592 154.356 71.3592C154.77 71.3592 155.083 71.2992 155.296 71.1792C155.523 71.0592 155.636 70.8992 155.636 70.6992C155.636 70.5126 155.556 70.3659 155.396 70.2592C155.236 70.1526 154.97 70.0659 154.596 69.9992L153.996 69.8792C152.836 69.6526 151.97 69.2992 151.396 68.8192C150.836 68.3259 150.556 67.6259 150.556 66.7192C150.556 66.2259 150.663 65.7792 150.876 65.3792C151.09 64.9792 151.39 64.6459 151.776 64.3792C152.163 64.1126 152.623 63.9059 153.156 63.7592C153.703 63.6126 154.303 63.5392 154.956 63.5392C155.45 63.5392 155.91 63.5792 156.336 63.6592C156.776 63.7259 157.156 63.8326 157.476 63.9792C157.796 64.1259 158.05 64.3192 158.236 64.5592C158.423 64.7859 158.516 65.0592 158.516 65.3792C158.516 65.6859 158.456 65.9526 158.336 66.1792C158.23 66.3926 158.09 66.5726 157.916 66.7192C157.81 66.6526 157.65 66.5859 157.436 66.5192C157.223 66.4392 156.99 66.3726 156.736 66.3192C156.483 66.2526 156.223 66.1992 155.956 66.1592C155.703 66.1192 155.47 66.0992 155.256 66.0992C154.816 66.0992 154.476 66.1526 154.236 66.2592C153.996 66.3526 153.876 66.5059 153.876 66.7192C153.876 66.8659 153.943 66.9859 154.076 67.0792C154.21 67.1726 154.463 67.2592 154.836 67.3392L155.456 67.4792C156.736 67.7726 157.643 68.1792 158.176 68.6992C158.723 69.2059 158.996 69.8659 158.996 70.6792ZM160.64 63.9992C160.773 63.9592 160.98 63.9192 161.26 63.8792C161.553 63.8392 161.853 63.8192 162.16 63.8192C162.453 63.8192 162.713 63.8392 162.94 63.8792C163.18 63.9192 163.38 63.9992 163.54 64.1192C163.7 64.2392 163.82 64.4059 163.9 64.6192C163.993 64.8192 164.04 65.0859 164.04 65.4192V69.7192C164.04 70.2659 164.173 70.6592 164.44 70.8992C164.707 71.1259 165.093 71.2392 165.6 71.2392C165.907 71.2392 166.153 71.2126 166.34 71.1592C166.54 71.1059 166.693 71.0526 166.8 70.9992V63.9992C166.933 63.9592 167.14 63.9192 167.42 63.8792C167.713 63.8392 168.013 63.8192 168.32 63.8192C168.613 63.8192 168.873 63.8392 169.1 63.8792C169.34 63.9192 169.54 63.9992 169.7 64.1192C169.86 64.2392 169.98 64.4059 170.06 64.6192C170.153 64.8192 170.2 65.0859 170.2 65.4192V71.4992C170.2 72.1659 169.92 72.6659 169.36 72.9992C168.893 73.2926 168.333 73.5126 167.68 73.6592C167.04 73.8192 166.34 73.8992 165.58 73.8992C164.86 73.8992 164.193 73.8192 163.58 73.6592C162.98 73.4992 162.46 73.2526 162.02 72.9192C161.58 72.5859 161.24 72.1592 161 71.6392C160.76 71.1059 160.64 70.4659 160.64 69.7192V63.9992ZM175.681 73.5592C175.547 73.5992 175.334 73.6392 175.041 73.6792C174.761 73.7192 174.467 73.7392 174.161 73.7392C173.867 73.7392 173.601 73.7192 173.361 73.6792C173.134 73.6392 172.941 73.5592 172.781 73.4392C172.621 73.3192 172.494 73.1592 172.401 72.9592C172.321 72.7459 172.281 72.4726 172.281 72.1392V66.1392C172.281 65.8326 172.334 65.5726 172.441 65.3592C172.561 65.1326 172.727 64.9326 172.941 64.7592C173.154 64.5859 173.414 64.4326 173.721 64.2992C174.041 64.1526 174.381 64.0259 174.741 63.9192C175.101 63.8126 175.474 63.7326 175.861 63.6792C176.247 63.6126 176.634 63.5792 177.021 63.5792C177.661 63.5792 178.167 63.7059 178.541 63.9592C178.914 64.1992 179.101 64.5992 179.101 65.1592C179.101 65.3459 179.074 65.5326 179.021 65.7192C178.967 65.8926 178.901 66.0526 178.821 66.1992C178.541 66.1992 178.254 66.2126 177.961 66.2392C177.667 66.2659 177.381 66.3059 177.101 66.3592C176.821 66.4126 176.554 66.4726 176.301 66.5392C176.061 66.5926 175.854 66.6592 175.681 66.7392V73.5592ZM185.272 73.8992C184.486 73.8992 183.752 73.7926 183.072 73.5792C182.406 73.3526 181.819 73.0192 181.312 72.5792C180.819 72.1392 180.426 71.5859 180.132 70.9192C179.852 70.2526 179.712 69.4726 179.712 68.5792C179.712 67.6992 179.852 66.9459 180.132 66.3192C180.426 65.6792 180.806 65.1592 181.272 64.7592C181.739 64.3459 182.272 64.0459 182.872 63.8592C183.472 63.6592 184.086 63.5592 184.712 63.5592C185.419 63.5592 186.059 63.6659 186.632 63.8792C187.219 64.0926 187.719 64.3859 188.132 64.7592C188.559 65.1326 188.886 65.5792 189.112 66.0992C189.352 66.6192 189.472 67.1859 189.472 67.7992C189.472 68.2526 189.346 68.5992 189.092 68.8392C188.839 69.0792 188.486 69.2326 188.032 69.2992L183.092 70.0392C183.239 70.4792 183.539 70.8126 183.992 71.0392C184.446 71.2526 184.966 71.3592 185.552 71.3592C186.099 71.3592 186.612 71.2926 187.092 71.1592C187.586 71.0126 187.986 70.8459 188.292 70.6592C188.506 70.7926 188.686 70.9792 188.832 71.2192C188.979 71.4592 189.052 71.7126 189.052 71.9792C189.052 72.5792 188.772 73.0259 188.212 73.3192C187.786 73.5459 187.306 73.6992 186.772 73.7792C186.239 73.8592 185.739 73.8992 185.272 73.8992ZM184.712 66.0392C184.392 66.0392 184.112 66.0926 183.872 66.1992C183.646 66.3059 183.459 66.4459 183.312 66.6192C183.166 66.7792 183.052 66.9659 182.972 67.1792C182.906 67.3792 182.866 67.5859 182.852 67.7992L186.272 67.2392C186.232 66.9726 186.086 66.7059 185.832 66.4392C185.579 66.1726 185.206 66.0392 184.712 66.0392ZM198.513 70.2392C198.513 70.5859 198.619 70.8326 198.833 70.9792C199.059 71.1259 199.373 71.1992 199.773 71.1992C199.973 71.1992 200.179 71.1859 200.393 71.1592C200.606 71.1192 200.793 71.0726 200.953 71.0192C201.073 71.1659 201.173 71.3326 201.253 71.5192C201.346 71.6926 201.393 71.9059 201.393 72.1592C201.393 72.6659 201.199 73.0792 200.813 73.3992C200.439 73.7192 199.773 73.8792 198.813 73.8792C197.639 73.8792 196.733 73.6126 196.093 73.0792C195.466 72.5459 195.153 71.6792 195.153 70.4792V61.9192C195.299 61.8792 195.506 61.8392 195.773 61.7992C196.053 61.7459 196.346 61.7192 196.653 61.7192C197.239 61.7192 197.693 61.8259 198.013 62.0392C198.346 62.2392 198.513 62.6726 198.513 63.3392V64.6192H201.133C201.213 64.7659 201.286 64.9526 201.353 65.1792C201.433 65.3926 201.473 65.6326 201.473 65.8992C201.473 66.3659 201.366 66.7059 201.153 66.9192C200.953 67.1192 200.679 67.2192 200.333 67.2192H198.513V70.2392ZM213.063 68.7192C213.063 69.5459 212.937 70.2859 212.683 70.9392C212.43 71.5792 212.07 72.1192 211.603 72.5592C211.15 72.9992 210.603 73.3326 209.963 73.5592C209.323 73.7859 208.61 73.8992 207.823 73.8992C207.037 73.8992 206.323 73.7792 205.683 73.5392C205.043 73.2992 204.49 72.9592 204.023 72.5192C203.57 72.0659 203.217 71.5192 202.963 70.8792C202.71 70.2392 202.583 69.5192 202.583 68.7192C202.583 67.9326 202.71 67.2192 202.963 66.5792C203.217 65.9392 203.57 65.3992 204.023 64.9592C204.49 64.5059 205.043 64.1592 205.683 63.9192C206.323 63.6792 207.037 63.5592 207.823 63.5592C208.61 63.5592 209.323 63.6859 209.963 63.9392C210.603 64.1792 211.15 64.5259 211.603 64.9792C212.07 65.4192 212.43 65.9592 212.683 66.5992C212.937 67.2392 213.063 67.9459 213.063 68.7192ZM206.063 68.7192C206.063 69.5326 206.217 70.1592 206.523 70.5992C206.843 71.0259 207.283 71.2392 207.843 71.2392C208.403 71.2392 208.83 71.0192 209.123 70.5792C209.43 70.1392 209.583 69.5192 209.583 68.7192C209.583 67.9192 209.43 67.3059 209.123 66.8792C208.817 66.4392 208.383 66.2192 207.823 66.2192C207.263 66.2192 206.83 66.4392 206.523 66.8792C206.217 67.3059 206.063 67.9192 206.063 68.7192ZM226.926 70.6792C226.926 71.6926 226.546 72.4859 225.786 73.0592C225.026 73.6326 223.906 73.9192 222.426 73.9192C221.866 73.9192 221.346 73.8792 220.866 73.7992C220.386 73.7192 219.973 73.5992 219.626 73.4392C219.293 73.2659 219.026 73.0526 218.826 72.7992C218.639 72.5459 218.546 72.2459 218.546 71.8992C218.546 71.5792 218.613 71.3126 218.746 71.0992C218.879 70.8726 219.039 70.6859 219.226 70.5392C219.613 70.7526 220.053 70.9459 220.546 71.1192C221.053 71.2792 221.633 71.3592 222.286 71.3592C222.699 71.3592 223.013 71.2992 223.226 71.1792C223.453 71.0592 223.566 70.8992 223.566 70.6992C223.566 70.5126 223.486 70.3659 223.326 70.2592C223.166 70.1526 222.899 70.0659 222.526 69.9992L221.926 69.8792C220.766 69.6526 219.899 69.2992 219.326 68.8192C218.766 68.3259 218.486 67.6259 218.486 66.7192C218.486 66.2259 218.593 65.7792 218.806 65.3792C219.019 64.9792 219.319 64.6459 219.706 64.3792C220.093 64.1126 220.553 63.9059 221.086 63.7592C221.633 63.6126 222.233 63.5392 222.886 63.5392C223.379 63.5392 223.839 63.5792 224.266 63.6592C224.706 63.7259 225.086 63.8326 225.406 63.9792C225.726 64.1259 225.979 64.3192 226.166 64.5592C226.353 64.7859 226.446 65.0592 226.446 65.3792C226.446 65.6859 226.386 65.9526 226.266 66.1792C226.159 66.3926 226.019 66.5726 225.846 66.7192C225.739 66.6526 225.579 66.5859 225.366 66.5192C225.153 66.4392 224.919 66.3726 224.666 66.3192C224.413 66.2526 224.153 66.1992 223.886 66.1592C223.633 66.1192 223.399 66.0992 223.186 66.0992C222.746 66.0992 222.406 66.1526 222.166 66.2592C221.926 66.3526 221.806 66.5059 221.806 66.7192C221.806 66.8659 221.873 66.9859 222.006 67.0792C222.139 67.1726 222.393 67.2592 222.766 67.3392L223.386 67.4792C224.666 67.7726 225.573 68.1792 226.106 68.6992C226.653 69.2059 226.926 69.8659 226.926 70.6792ZM233.807 73.8992C233.021 73.8992 232.287 73.7926 231.607 73.5792C230.941 73.3526 230.354 73.0192 229.847 72.5792C229.354 72.1392 228.961 71.5859 228.667 70.9192C228.387 70.2526 228.247 69.4726 228.247 68.5792C228.247 67.6992 228.387 66.9459 228.667 66.3192C228.961 65.6792 229.341 65.1592 229.807 64.7592C230.274 64.3459 230.807 64.0459 231.407 63.8592C232.007 63.6592 232.621 63.5592 233.247 63.5592C233.954 63.5592 234.594 63.6659 235.167 63.8792C235.754 64.0926 236.254 64.3859 236.667 64.7592C237.094 65.1326 237.421 65.5792 237.647 66.0992C237.887 66.6192 238.007 67.1859 238.007 67.7992C238.007 68.2526 237.881 68.5992 237.627 68.8392C237.374 69.0792 237.021 69.2326 236.567 69.2992L231.627 70.0392C231.774 70.4792 232.074 70.8126 232.527 71.0392C232.981 71.2526 233.501 71.3592 234.087 71.3592C234.634 71.3592 235.147 71.2926 235.627 71.1592C236.121 71.0126 236.521 70.8459 236.827 70.6592C237.041 70.7926 237.221 70.9792 237.367 71.2192C237.514 71.4592 237.587 71.7126 237.587 71.9792C237.587 72.5792 237.307 73.0259 236.747 73.3192C236.321 73.5459 235.841 73.6992 235.307 73.7792C234.774 73.8592 234.274 73.8992 233.807 73.8992ZM233.247 66.0392C232.927 66.0392 232.647 66.0926 232.407 66.1992C232.181 66.3059 231.994 66.4459 231.847 66.6192C231.701 66.7792 231.587 66.9659 231.507 67.1792C231.441 67.3792 231.401 67.5859 231.387 67.7992L234.807 67.2392C234.767 66.9726 234.621 66.7059 234.367 66.4392C234.114 66.1726 233.741 66.0392 233.247 66.0392ZM243.044 70.2392C243.044 70.5859 243.151 70.8326 243.364 70.9792C243.591 71.1259 243.904 71.1992 244.304 71.1992C244.504 71.1992 244.711 71.1859 244.924 71.1592C245.137 71.1192 245.324 71.0726 245.484 71.0192C245.604 71.1659 245.704 71.3326 245.784 71.5192C245.877 71.6926 245.924 71.9059 245.924 72.1592C245.924 72.6659 245.731 73.0792 245.344 73.3992C244.971 73.7192 244.304 73.8792 243.344 73.8792C242.171 73.8792 241.264 73.6126 240.624 73.0792C239.997 72.5459 239.684 71.6792 239.684 70.4792V61.9192C239.831 61.8792 240.037 61.8392 240.304 61.7992C240.584 61.7459 240.877 61.7192 241.184 61.7192C241.771 61.7192 242.224 61.8259 242.544 62.0392C242.877 62.2392 243.044 62.6726 243.044 63.3392V64.6192H245.664C245.744 64.7659 245.817 64.9526 245.884 65.1792C245.964 65.3926 246.004 65.6326 246.004 65.8992C246.004 66.3659 245.897 66.7059 245.684 66.9192C245.484 67.1192 245.211 67.2192 244.864 67.2192H243.044V70.2392ZM255.056 70.2392C255.056 70.5859 255.162 70.8326 255.376 70.9792C255.602 71.1259 255.916 71.1992 256.316 71.1992C256.516 71.1992 256.722 71.1859 256.936 71.1592C257.149 71.1192 257.336 71.0726 257.496 71.0192C257.616 71.1659 257.716 71.3326 257.796 71.5192C257.889 71.6926 257.936 71.9059 257.936 72.1592C257.936 72.6659 257.742 73.0792 257.356 73.3992C256.982 73.7192 256.316 73.8792 255.356 73.8792C254.182 73.8792 253.276 73.6126 252.636 73.0792C252.009 72.5459 251.696 71.6792 251.696 70.4792V61.9192C251.842 61.8792 252.049 61.8392 252.316 61.7992C252.596 61.7459 252.889 61.7192 253.196 61.7192C253.782 61.7192 254.236 61.8259 254.556 62.0392C254.889 62.2392 255.056 62.6726 255.056 63.3392V64.6192H257.676C257.756 64.7659 257.829 64.9526 257.896 65.1792C257.976 65.3926 258.016 65.6326 258.016 65.8992C258.016 66.3659 257.909 66.7059 257.696 66.9192C257.496 67.1192 257.222 67.2192 256.876 67.2192H255.056V70.2392ZM269.263 73.5592C269.13 73.5992 268.917 73.6392 268.623 73.6792C268.343 73.7192 268.05 73.7392 267.743 73.7392C267.45 73.7392 267.183 73.7192 266.943 73.6792C266.717 73.6392 266.523 73.5592 266.363 73.4392C266.203 73.3192 266.077 73.1592 265.983 72.9592C265.903 72.7459 265.863 72.4726 265.863 72.1392V67.6992C265.863 67.1526 265.723 66.7726 265.443 66.5592C265.177 66.3326 264.843 66.2192 264.443 66.2192C264.177 66.2192 263.923 66.2526 263.683 66.3192C263.443 66.3859 263.25 66.4659 263.103 66.5592V73.5592C262.97 73.5992 262.757 73.6392 262.463 73.6792C262.183 73.7192 261.89 73.7392 261.583 73.7392C261.29 73.7392 261.023 73.7192 260.783 73.6792C260.557 73.6392 260.363 73.5592 260.203 73.4392C260.043 73.3192 259.917 73.1592 259.823 72.9592C259.743 72.7459 259.703 72.4726 259.703 72.1392V60.5392C259.85 60.5126 260.063 60.4792 260.343 60.4392C260.637 60.3859 260.93 60.3592 261.223 60.3592C261.517 60.3592 261.777 60.3792 262.003 60.4192C262.243 60.4592 262.443 60.5392 262.603 60.6592C262.763 60.7792 262.883 60.9459 262.963 61.1592C263.057 61.3592 263.103 61.6259 263.103 61.9592V63.9192C263.277 63.8526 263.537 63.7792 263.883 63.6992C264.243 63.6059 264.637 63.5592 265.063 63.5592C266.383 63.5592 267.41 63.8926 268.143 64.5592C268.89 65.2126 269.263 66.1926 269.263 67.4992V73.5592ZM276.503 73.8992C275.716 73.8992 274.983 73.7926 274.303 73.5792C273.636 73.3526 273.049 73.0192 272.543 72.5792C272.049 72.1392 271.656 71.5859 271.363 70.9192C271.083 70.2526 270.943 69.4726 270.943 68.5792C270.943 67.6992 271.083 66.9459 271.363 66.3192C271.656 65.6792 272.036 65.1592 272.503 64.7592C272.969 64.3459 273.503 64.0459 274.103 63.8592C274.703 63.6592 275.316 63.5592 275.943 63.5592C276.649 63.5592 277.289 63.6659 277.863 63.8792C278.449 64.0926 278.949 64.3859 279.363 64.7592C279.789 65.1326 280.116 65.5792 280.343 66.0992C280.583 66.6192 280.703 67.1859 280.703 67.7992C280.703 68.2526 280.576 68.5992 280.323 68.8392C280.069 69.0792 279.716 69.2326 279.263 69.2992L274.323 70.0392C274.469 70.4792 274.769 70.8126 275.223 71.0392C275.676 71.2526 276.196 71.3592 276.783 71.3592C277.329 71.3592 277.843 71.2926 278.323 71.1592C278.816 71.0126 279.216 70.8459 279.523 70.6592C279.736 70.7926 279.916 70.9792 280.063 71.2192C280.209 71.4592 280.283 71.7126 280.283 71.9792C280.283 72.5792 280.003 73.0259 279.443 73.3192C279.016 73.5459 278.536 73.6992 278.003 73.7792C277.469 73.8592 276.969 73.8992 276.503 73.8992ZM275.943 66.0392C275.623 66.0392 275.343 66.0926 275.103 66.1992C274.876 66.3059 274.689 66.4459 274.543 66.6192C274.396 66.7792 274.283 66.9659 274.203 67.1792C274.136 67.3792 274.096 67.5859 274.083 67.7992L277.503 67.2392C277.463 66.9726 277.316 66.7059 277.063 66.4392C276.809 66.1726 276.436 66.0392 275.943 66.0392ZM101.755 99.2392C101.755 99.5859 101.862 99.8326 102.075 99.9792C102.302 100.126 102.615 100.199 103.015 100.199C103.215 100.199 103.422 100.186 103.635 100.159C103.848 100.119 104.035 100.073 104.195 100.019C104.315 100.166 104.415 100.333 104.495 100.519C104.588 100.693 104.635 100.906 104.635 101.159C104.635 101.666 104.442 102.079 104.055 102.399C103.682 102.719 103.015 102.879 102.055 102.879C100.882 102.879 99.9749 102.613 99.3349 102.079C98.7082 101.546 98.3949 100.679 98.3949 99.4792V90.9192C98.5415 90.8792 98.7482 90.8392 99.0149 90.7992C99.2949 90.7459 99.5882 90.7192 99.8949 90.7192C100.482 90.7192 100.935 90.8259 101.255 91.0392C101.588 91.2392 101.755 91.6726 101.755 92.3392V93.6192H104.375C104.455 93.7659 104.528 93.9526 104.595 94.1792C104.675 94.3926 104.715 94.6326 104.715 94.8992C104.715 95.3659 104.608 95.7059 104.395 95.9192C104.195 96.1192 103.922 96.2192 103.575 96.2192H101.755V99.2392ZM106.283 90.1592C106.283 89.6526 106.449 89.2259 106.783 88.8792C107.129 88.5326 107.583 88.3592 108.143 88.3592C108.703 88.3592 109.149 88.5326 109.483 88.8792C109.829 89.2259 110.003 89.6526 110.003 90.1592C110.003 90.6659 109.829 91.0926 109.483 91.4392C109.149 91.7859 108.703 91.9592 108.143 91.9592C107.583 91.9592 107.129 91.7859 106.783 91.4392C106.449 91.0926 106.283 90.6659 106.283 90.1592ZM109.843 102.559C109.696 102.586 109.476 102.619 109.183 102.659C108.903 102.713 108.616 102.739 108.323 102.739C108.029 102.739 107.763 102.719 107.523 102.679C107.296 102.639 107.103 102.559 106.943 102.439C106.783 102.319 106.656 102.159 106.563 101.959C106.483 101.746 106.443 101.473 106.443 101.139V92.9992C106.589 92.9726 106.803 92.9392 107.083 92.8992C107.376 92.8459 107.669 92.8192 107.963 92.8192C108.256 92.8192 108.516 92.8392 108.743 92.8792C108.983 92.9192 109.183 92.9992 109.343 93.1192C109.503 93.2392 109.623 93.4059 109.703 93.6192C109.796 93.8192 109.843 94.0859 109.843 94.4192V102.559ZM116.667 92.5592C117.214 92.5592 117.747 92.6392 118.267 92.7992C118.801 92.9459 119.261 93.1726 119.647 93.4792C120.047 93.2126 120.494 92.9926 120.987 92.8192C121.494 92.6459 122.101 92.5592 122.807 92.5592C123.314 92.5592 123.807 92.6259 124.287 92.7592C124.781 92.8926 125.214 93.1059 125.587 93.3992C125.974 93.6792 126.281 94.0592 126.507 94.5392C126.734 95.0059 126.847 95.5792 126.847 96.2592V102.559C126.714 102.599 126.501 102.639 126.207 102.679C125.927 102.719 125.634 102.739 125.327 102.739C125.034 102.739 124.767 102.719 124.527 102.679C124.301 102.639 124.107 102.559 123.947 102.439C123.787 102.319 123.661 102.159 123.567 101.959C123.487 101.746 123.447 101.473 123.447 101.139V96.3592C123.447 95.9592 123.334 95.6726 123.107 95.4992C122.881 95.3126 122.574 95.2192 122.187 95.2192C122.001 95.2192 121.801 95.2659 121.587 95.3592C121.374 95.4392 121.214 95.5259 121.107 95.6192C121.121 95.6726 121.127 95.7259 121.127 95.7792C121.127 95.8192 121.127 95.8592 121.127 95.8992V102.559C120.981 102.599 120.761 102.639 120.467 102.679C120.187 102.719 119.901 102.739 119.607 102.739C119.314 102.739 119.047 102.719 118.807 102.679C118.581 102.639 118.387 102.559 118.227 102.439C118.067 102.319 117.941 102.159 117.847 101.959C117.767 101.746 117.727 101.473 117.727 101.139V96.3592C117.727 95.9592 117.601 95.6726 117.347 95.4992C117.107 95.3126 116.814 95.2192 116.467 95.2192C116.227 95.2192 116.021 95.2592 115.847 95.3392C115.674 95.4059 115.527 95.4726 115.407 95.5392V102.559C115.274 102.599 115.061 102.639 114.767 102.679C114.487 102.719 114.194 102.739 113.887 102.739C113.594 102.739 113.327 102.719 113.087 102.679C112.861 102.639 112.667 102.559 112.507 102.439C112.347 102.319 112.221 102.159 112.127 101.959C112.047 101.746 112.007 101.473 112.007 101.139V95.0992C112.007 94.7392 112.081 94.4526 112.227 94.2392C112.387 94.0259 112.601 93.8259 112.867 93.6392C113.321 93.3192 113.881 93.0592 114.547 92.8592C115.227 92.6592 115.934 92.5592 116.667 92.5592ZM134.061 102.899C133.275 102.899 132.541 102.793 131.861 102.579C131.195 102.353 130.608 102.019 130.101 101.579C129.608 101.139 129.215 100.586 128.921 99.9192C128.641 99.2526 128.501 98.4726 128.501 97.5792C128.501 96.6992 128.641 95.9459 128.921 95.3192C129.215 94.6792 129.595 94.1592 130.061 93.7592C130.528 93.3459 131.061 93.0459 131.661 92.8592C132.261 92.6592 132.875 92.5592 133.501 92.5592C134.208 92.5592 134.848 92.6659 135.421 92.8792C136.008 93.0926 136.508 93.3859 136.921 93.7592C137.348 94.1326 137.675 94.5792 137.901 95.0992C138.141 95.6192 138.261 96.1859 138.261 96.7992C138.261 97.2526 138.135 97.5992 137.881 97.8392C137.628 98.0792 137.275 98.2326 136.821 98.2992L131.881 99.0392C132.028 99.4792 132.328 99.8126 132.781 100.039C133.235 100.253 133.755 100.359 134.341 100.359C134.888 100.359 135.401 100.293 135.881 100.159C136.375 100.013 136.775 99.8459 137.081 99.6592C137.295 99.7926 137.475 99.9792 137.621 100.219C137.768 100.459 137.841 100.713 137.841 100.979C137.841 101.579 137.561 102.026 137.001 102.319C136.575 102.546 136.095 102.699 135.561 102.779C135.028 102.859 134.528 102.899 134.061 102.899ZM133.501 95.0392C133.181 95.0392 132.901 95.0926 132.661 95.1992C132.435 95.3059 132.248 95.4459 132.101 95.6192C131.955 95.7792 131.841 95.9659 131.761 96.1792C131.695 96.3792 131.655 96.5859 131.641 96.7992L135.061 96.2392C135.021 95.9726 134.875 95.7059 134.621 95.4392C134.368 95.1726 133.995 95.0392 133.501 95.0392ZM143.298 102.559C143.165 102.599 142.951 102.639 142.658 102.679C142.378 102.719 142.085 102.739 141.778 102.739C141.485 102.739 141.218 102.719 140.978 102.679C140.751 102.639 140.558 102.559 140.398 102.439C140.238 102.319 140.111 102.159 140.018 101.959C139.938 101.746 139.898 101.473 139.898 101.139V95.1392C139.898 94.8326 139.951 94.5726 140.058 94.3592C140.178 94.1326 140.345 93.9326 140.558 93.7592C140.771 93.5859 141.031 93.4326 141.338 93.2992C141.658 93.1526 141.998 93.0259 142.358 92.9192C142.718 92.8126 143.091 92.7326 143.478 92.6792C143.865 92.6126 144.251 92.5792 144.638 92.5792C145.278 92.5792 145.785 92.7059 146.158 92.9592C146.531 93.1992 146.718 93.5992 146.718 94.1592C146.718 94.3459 146.691 94.5326 146.638 94.7192C146.585 94.8926 146.518 95.0526 146.438 95.1992C146.158 95.1992 145.871 95.2126 145.578 95.2392C145.285 95.2659 144.998 95.3059 144.718 95.3592C144.438 95.4126 144.171 95.4726 143.918 95.5392C143.678 95.5926 143.471 95.6592 143.298 95.7392V102.559ZM156.321 99.6792C156.321 100.693 155.941 101.486 155.181 102.059C154.421 102.633 153.301 102.919 151.821 102.919C151.261 102.919 150.741 102.879 150.261 102.799C149.781 102.719 149.367 102.599 149.021 102.439C148.687 102.266 148.421 102.053 148.221 101.799C148.034 101.546 147.941 101.246 147.941 100.899C147.941 100.579 148.007 100.313 148.141 100.099C148.274 99.8726 148.434 99.6859 148.621 99.5392C149.007 99.7526 149.447 99.9459 149.941 100.119C150.447 100.279 151.027 100.359 151.681 100.359C152.094 100.359 152.407 100.299 152.621 100.179C152.847 100.059 152.961 99.8992 152.961 99.6992C152.961 99.5126 152.881 99.3659 152.721 99.2592C152.561 99.1526 152.294 99.0659 151.921 98.9992L151.321 98.8792C150.161 98.6526 149.294 98.2992 148.721 97.8192C148.161 97.3259 147.881 96.6259 147.881 95.7192C147.881 95.2259 147.987 94.7792 148.201 94.3792C148.414 93.9792 148.714 93.6459 149.101 93.3792C149.487 93.1126 149.947 92.9059 150.481 92.7592C151.027 92.6126 151.627 92.5392 152.281 92.5392C152.774 92.5392 153.234 92.5792 153.661 92.6592C154.101 92.7259 154.481 92.8326 154.801 92.9792C155.121 93.1259 155.374 93.3192 155.561 93.5592C155.747 93.7859 155.841 94.0592 155.841 94.3792C155.841 94.6859 155.781 94.9526 155.661 95.1792C155.554 95.3926 155.414 95.5726 155.241 95.7192C155.134 95.6526 154.974 95.5859 154.761 95.5192C154.547 95.4392 154.314 95.3726 154.061 95.3192C153.807 95.2526 153.547 95.1992 153.281 95.1592C153.027 95.1192 152.794 95.0992 152.581 95.0992C152.141 95.0992 151.801 95.1526 151.561 95.2592C151.321 95.3526 151.201 95.5059 151.201 95.7192C151.201 95.8659 151.267 95.9859 151.401 96.0792C151.534 96.1726 151.787 96.2592 152.161 96.3392L152.781 96.4792C154.061 96.7726 154.967 97.1792 155.501 97.6992C156.047 98.2059 156.321 98.8659 156.321 99.6792ZM168.128 96.4192C168.128 96.0059 168.008 95.7059 167.768 95.5192C167.541 95.3192 167.228 95.2192 166.828 95.2192C166.561 95.2192 166.295 95.2526 166.028 95.3192C165.775 95.3859 165.555 95.4859 165.368 95.6192V102.559C165.235 102.599 165.021 102.639 164.728 102.679C164.448 102.719 164.155 102.739 163.848 102.739C163.555 102.739 163.288 102.719 163.048 102.679C162.821 102.639 162.628 102.559 162.468 102.439C162.308 102.319 162.181 102.159 162.088 101.959C162.008 101.746 161.968 101.473 161.968 101.139V95.1392C161.968 94.7792 162.041 94.4859 162.188 94.2592C162.348 94.0326 162.561 93.8259 162.828 93.6392C163.281 93.3192 163.848 93.0592 164.528 92.8592C165.221 92.6592 165.988 92.5592 166.828 92.5592C168.335 92.5592 169.495 92.8926 170.308 93.5592C171.121 94.2126 171.528 95.1259 171.528 96.2992V102.559C171.395 102.599 171.181 102.639 170.888 102.679C170.608 102.719 170.315 102.739 170.008 102.739C169.715 102.739 169.448 102.719 169.208 102.679C168.981 102.639 168.788 102.559 168.628 102.439C168.468 102.319 168.341 102.159 168.248 101.959C168.168 101.746 168.128 101.473 168.128 101.139V96.4192ZM183.688 97.7192C183.688 98.5459 183.562 99.2859 183.308 99.9392C183.055 100.579 182.695 101.119 182.228 101.559C181.775 101.999 181.228 102.333 180.588 102.559C179.948 102.786 179.235 102.899 178.448 102.899C177.662 102.899 176.948 102.779 176.308 102.539C175.668 102.299 175.115 101.959 174.648 101.519C174.195 101.066 173.842 100.519 173.588 99.8792C173.335 99.2392 173.208 98.5192 173.208 97.7192C173.208 96.9326 173.335 96.2192 173.588 95.5792C173.842 94.9392 174.195 94.3992 174.648 93.9592C175.115 93.5059 175.668 93.1592 176.308 92.9192C176.948 92.6792 177.662 92.5592 178.448 92.5592C179.235 92.5592 179.948 92.6859 180.588 92.9392C181.228 93.1792 181.775 93.5259 182.228 93.9792C182.695 94.4192 183.055 94.9592 183.308 95.5992C183.562 96.2392 183.688 96.9459 183.688 97.7192ZM176.688 97.7192C176.688 98.5326 176.842 99.1592 177.148 99.5992C177.468 100.026 177.908 100.239 178.468 100.239C179.028 100.239 179.455 100.019 179.748 99.5792C180.055 99.1392 180.208 98.5192 180.208 97.7192C180.208 96.9192 180.055 96.3059 179.748 95.8792C179.442 95.4392 179.008 95.2192 178.448 95.2192C177.888 95.2192 177.455 95.4392 177.148 95.8792C176.842 96.3059 176.688 96.9192 176.688 97.7192ZM190.77 102.279C190.583 102.439 190.33 102.566 190.01 102.659C189.69 102.766 189.31 102.819 188.87 102.819C188.323 102.819 187.85 102.739 187.45 102.579C187.05 102.433 186.783 102.219 186.65 101.939C186.503 101.619 186.33 101.113 186.13 100.419C185.943 99.7259 185.757 98.9659 185.57 98.1392C185.383 97.3126 185.203 96.4726 185.03 95.6192C184.87 94.7659 184.743 94.0126 184.65 93.3592C184.837 93.1726 185.083 93.0126 185.39 92.8792C185.71 92.7326 186.057 92.6592 186.43 92.6592C186.897 92.6592 187.277 92.7659 187.57 92.9792C187.877 93.1792 188.063 93.5326 188.13 94.0392C188.263 95.0526 188.377 95.8926 188.47 96.5592C188.563 97.2126 188.637 97.7526 188.69 98.1792C188.757 98.5926 188.803 98.9126 188.83 99.1392C188.87 99.3526 188.903 99.5259 188.93 99.6592H189.01C189.05 99.4459 189.117 99.1392 189.21 98.7392C189.317 98.3259 189.437 97.8592 189.57 97.3392C189.703 96.8192 189.843 96.2592 189.99 95.6592C190.137 95.0459 190.283 94.4392 190.43 93.8392C190.697 93.6926 190.957 93.5792 191.21 93.4992C191.477 93.4192 191.803 93.3792 192.19 93.3792C192.657 93.3792 193.057 93.4526 193.39 93.5992C193.723 93.7459 193.937 93.9726 194.03 94.2792C194.19 94.8659 194.343 95.4392 194.49 95.9992C194.637 96.5459 194.77 97.0592 194.89 97.5392C195.01 98.0059 195.117 98.4259 195.21 98.7992C195.303 99.1592 195.37 99.4459 195.41 99.6592H195.51C195.657 98.6326 195.797 97.5659 195.93 96.4592C196.077 95.3526 196.21 94.2259 196.33 93.0792C196.57 92.9326 196.823 92.8259 197.09 92.7592C197.357 92.6926 197.623 92.6592 197.89 92.6592C198.357 92.6592 198.743 92.7592 199.05 92.9592C199.357 93.1592 199.51 93.5059 199.51 93.9992C199.51 94.2126 199.477 94.5326 199.41 94.9592C199.343 95.3859 199.257 95.8659 199.15 96.3992C199.043 96.9326 198.917 97.4926 198.77 98.0792C198.637 98.6659 198.497 99.2326 198.35 99.7792C198.217 100.326 198.083 100.819 197.95 101.259C197.83 101.699 197.723 102.039 197.63 102.279C197.443 102.439 197.157 102.566 196.77 102.659C196.383 102.766 195.97 102.819 195.53 102.819C194.41 102.819 193.75 102.539 193.55 101.979C193.47 101.739 193.37 101.439 193.25 101.079C193.13 100.706 193.003 100.299 192.87 99.8592C192.737 99.4192 192.61 98.9659 192.49 98.4992C192.37 98.0192 192.27 97.5592 192.19 97.1192C192.097 97.5859 191.983 98.0726 191.85 98.5792C191.717 99.0726 191.577 99.5592 191.43 100.039C191.297 100.506 191.17 100.939 191.05 101.339C190.93 101.726 190.837 102.039 190.77 102.279ZM204.75 90.9792C204.75 91.2859 204.744 91.7326 204.73 92.3192C204.717 92.8926 204.69 93.5192 204.65 94.1992C204.61 94.8659 204.557 95.5392 204.49 96.2192C204.424 96.8859 204.344 97.4659 204.25 97.9592C204.197 97.9992 204.117 98.0392 204.01 98.0792C203.904 98.1192 203.79 98.1526 203.67 98.1792C203.55 98.2059 203.43 98.2259 203.31 98.2392C203.19 98.2526 203.084 98.2592 202.99 98.2592C202.604 98.2592 202.277 98.1992 202.01 98.0792C201.757 97.9592 201.597 97.7259 201.53 97.3792C201.464 97.0726 201.404 96.6059 201.35 95.9792C201.31 95.3526 201.27 94.6726 201.23 93.9392C201.19 93.2059 201.157 92.4792 201.13 91.7592C201.117 91.0392 201.11 90.4259 201.11 89.9192C201.377 89.7726 201.677 89.6592 202.01 89.5792C202.357 89.4859 202.697 89.4392 203.03 89.4392C203.577 89.4392 203.997 89.5659 204.29 89.8192C204.597 90.0726 204.75 90.4592 204.75 90.9792ZM201.07 101.059C201.07 100.513 201.237 100.066 201.57 99.7192C201.917 99.3592 202.39 99.1792 202.99 99.1792C203.59 99.1792 204.057 99.3592 204.39 99.7192C204.737 100.066 204.91 100.513 204.91 101.059C204.91 101.606 204.737 102.059 204.39 102.419C204.057 102.766 203.59 102.939 202.99 102.939C202.39 102.939 201.917 102.766 201.57 102.419C201.237 102.059 201.07 101.606 201.07 101.059ZM217.631 102.499C217.484 102.539 217.258 102.579 216.951 102.619C216.644 102.659 216.344 102.679 216.051 102.679C215.438 102.679 214.978 102.579 214.671 102.379C214.364 102.166 214.211 101.726 214.211 101.059V98.3592C213.878 97.8659 213.518 97.3192 213.131 96.7192C212.744 96.1192 212.364 95.5059 211.991 94.8792C211.618 94.2526 211.271 93.6392 210.951 93.0392C210.631 92.4259 210.371 91.8659 210.171 91.3592C210.344 91.1192 210.578 90.8992 210.871 90.6992C211.178 90.4992 211.551 90.3992 211.991 90.3992C212.511 90.3992 212.931 90.5059 213.251 90.7192C213.584 90.9326 213.898 91.3326 214.191 91.9192L215.851 95.2592H215.971C216.158 94.8459 216.318 94.4726 216.451 94.1392C216.598 93.7926 216.738 93.4526 216.871 93.1192C217.004 92.7726 217.144 92.4192 217.291 92.0592C217.438 91.6859 217.604 91.2592 217.791 90.7792C218.031 90.6592 218.298 90.5659 218.591 90.4992C218.884 90.4326 219.164 90.3992 219.431 90.3992C219.898 90.3992 220.291 90.5259 220.611 90.7792C220.944 91.0192 221.111 91.3859 221.111 91.8792C221.111 92.0392 221.078 92.2326 221.011 92.4592C220.944 92.6859 220.791 93.0326 220.551 93.4992C220.311 93.9526 219.958 94.5726 219.491 95.3592C219.038 96.1459 218.418 97.1726 217.631 98.4392V102.499ZM231.657 97.7192C231.657 98.5459 231.53 99.2859 231.277 99.9392C231.024 100.579 230.664 101.119 230.197 101.559C229.744 101.999 229.197 102.333 228.557 102.559C227.917 102.786 227.204 102.899 226.417 102.899C225.63 102.899 224.917 102.779 224.277 102.539C223.637 102.299 223.084 101.959 222.617 101.519C222.164 101.066 221.81 100.519 221.557 99.8792C221.304 99.2392 221.177 98.5192 221.177 97.7192C221.177 96.9326 221.304 96.2192 221.557 95.5792C221.81 94.9392 222.164 94.3992 222.617 93.9592C223.084 93.5059 223.637 93.1592 224.277 92.9192C224.917 92.6792 225.63 92.5592 226.417 92.5592C227.204 92.5592 227.917 92.6859 228.557 92.9392C229.197 93.1792 229.744 93.5259 230.197 93.9792C230.664 94.4192 231.024 94.9592 231.277 95.5992C231.53 96.2392 231.657 96.9459 231.657 97.7192ZM224.657 97.7192C224.657 98.5326 224.81 99.1592 225.117 99.5992C225.437 100.026 225.877 100.239 226.437 100.239C226.997 100.239 227.424 100.019 227.717 99.5792C228.024 99.1392 228.177 98.5192 228.177 97.7192C228.177 96.9192 228.024 96.3059 227.717 95.8792C227.41 95.4392 226.977 95.2192 226.417 95.2192C225.857 95.2192 225.424 95.4392 225.117 95.8792C224.81 96.3059 224.657 96.9192 224.657 97.7192ZM233.316 92.9992C233.449 92.9592 233.656 92.9192 233.936 92.8792C234.229 92.8392 234.529 92.8192 234.836 92.8192C235.129 92.8192 235.389 92.8392 235.616 92.8792C235.856 92.9192 236.056 92.9992 236.216 93.1192C236.376 93.2392 236.496 93.4059 236.576 93.6192C236.669 93.8192 236.716 94.0859 236.716 94.4192V98.7192C236.716 99.2659 236.849 99.6592 237.116 99.8992C237.382 100.126 237.769 100.239 238.276 100.239C238.582 100.239 238.829 100.213 239.016 100.159C239.216 100.106 239.369 100.053 239.476 99.9992V92.9992C239.609 92.9592 239.816 92.9192 240.096 92.8792C240.389 92.8392 240.689 92.8192 240.996 92.8192C241.289 92.8192 241.549 92.8392 241.776 92.8792C242.016 92.9192 242.216 92.9992 242.376 93.1192C242.536 93.2392 242.656 93.4059 242.736 93.6192C242.829 93.8192 242.876 94.0859 242.876 94.4192V100.499C242.876 101.166 242.596 101.666 242.036 101.999C241.569 102.293 241.009 102.513 240.356 102.659C239.716 102.819 239.016 102.899 238.256 102.899C237.536 102.899 236.869 102.819 236.256 102.659C235.656 102.499 235.136 102.253 234.696 101.919C234.256 101.586 233.916 101.159 233.676 100.639C233.436 100.106 233.316 99.4659 233.316 98.7192V92.9992ZM246.956 94.1392C246.81 94.3659 246.636 94.5326 246.436 94.6392C246.236 94.7459 245.983 94.7992 245.676 94.7992C245.423 94.7992 245.19 94.7726 244.976 94.7192C244.763 94.6659 244.556 94.5926 244.356 94.4992C244.423 93.6859 244.49 92.8726 244.556 92.0592C244.623 91.2459 244.67 90.4926 244.696 89.7992C244.883 89.6926 245.123 89.5926 245.416 89.4992C245.723 89.4059 246.016 89.3592 246.296 89.3592C246.51 89.3592 246.716 89.3792 246.916 89.4192C247.13 89.4592 247.316 89.5326 247.476 89.6392C247.636 89.7326 247.763 89.8659 247.856 90.0392C247.95 90.1992 247.996 90.3992 247.996 90.6392C247.996 90.9059 247.97 91.1992 247.916 91.5192C247.863 91.8392 247.783 92.1592 247.676 92.4792C247.583 92.7992 247.47 93.1059 247.336 93.3992C247.216 93.6926 247.09 93.9392 246.956 94.1392ZM252.889 102.559C252.742 102.586 252.522 102.619 252.229 102.659C251.949 102.713 251.662 102.739 251.369 102.739C251.076 102.739 250.809 102.719 250.569 102.679C250.342 102.639 250.149 102.559 249.989 102.439C249.829 102.319 249.702 102.159 249.609 101.959C249.529 101.746 249.489 101.473 249.489 101.139V89.5392C249.636 89.5126 249.849 89.4792 250.129 89.4392C250.422 89.3859 250.716 89.3592 251.009 89.3592C251.302 89.3592 251.562 89.3792 251.789 89.4192C252.029 89.4592 252.229 89.5392 252.389 89.6592C252.549 89.7792 252.669 89.9459 252.749 90.1592C252.842 90.3592 252.889 90.6259 252.889 90.9592V102.559ZM258.495 102.559C258.348 102.586 258.128 102.619 257.835 102.659C257.555 102.713 257.268 102.739 256.975 102.739C256.681 102.739 256.415 102.719 256.175 102.679C255.948 102.639 255.755 102.559 255.595 102.439C255.435 102.319 255.308 102.159 255.215 101.959C255.135 101.746 255.095 101.473 255.095 101.139V89.5392C255.241 89.5126 255.455 89.4792 255.735 89.4392C256.028 89.3859 256.321 89.3592 256.615 89.3592C256.908 89.3592 257.168 89.3792 257.395 89.4192C257.635 89.4592 257.835 89.5392 257.995 89.6592C258.155 89.7792 258.275 89.9459 258.355 90.1592C258.448 90.3592 258.495 90.6259 258.495 90.9592V102.559ZM274.704 97.7192C274.704 98.5459 274.577 99.2859 274.324 99.9392C274.071 100.579 273.711 101.119 273.244 101.559C272.791 101.999 272.244 102.333 271.604 102.559C270.964 102.786 270.251 102.899 269.464 102.899C268.677 102.899 267.964 102.779 267.324 102.539C266.684 102.299 266.131 101.959 265.664 101.519C265.211 101.066 264.857 100.519 264.604 99.8792C264.351 99.2392 264.224 98.5192 264.224 97.7192C264.224 96.9326 264.351 96.2192 264.604 95.5792C264.857 94.9392 265.211 94.3992 265.664 93.9592C266.131 93.5059 266.684 93.1592 267.324 92.9192C267.964 92.6792 268.677 92.5592 269.464 92.5592C270.251 92.5592 270.964 92.6859 271.604 92.9392C272.244 93.1792 272.791 93.5259 273.244 93.9792C273.711 94.4192 274.071 94.9592 274.324 95.5992C274.577 96.2392 274.704 96.9459 274.704 97.7192ZM267.704 97.7192C267.704 98.5326 267.857 99.1592 268.164 99.5992C268.484 100.026 268.924 100.239 269.484 100.239C270.044 100.239 270.471 100.019 270.764 99.5792C271.071 99.1392 271.224 98.5192 271.224 97.7192C271.224 96.9192 271.071 96.3059 270.764 95.8792C270.457 95.4392 270.024 95.2192 269.464 95.2192C268.904 95.2192 268.471 95.4392 268.164 95.8792C267.857 96.3059 267.704 96.9192 267.704 97.7192ZM282.523 96.4192C282.523 96.0059 282.403 95.7059 282.163 95.5192C281.936 95.3192 281.623 95.2192 281.223 95.2192C280.956 95.2192 280.689 95.2526 280.423 95.3192C280.169 95.3859 279.949 95.4859 279.763 95.6192V102.559C279.629 102.599 279.416 102.639 279.123 102.679C278.843 102.719 278.549 102.739 278.243 102.739C277.949 102.739 277.683 102.719 277.443 102.679C277.216 102.639 277.023 102.559 276.863 102.439C276.703 102.319 276.576 102.159 276.483 101.959C276.403 101.746 276.363 101.473 276.363 101.139V95.1392C276.363 94.7792 276.436 94.4859 276.583 94.2592C276.743 94.0326 276.956 93.8259 277.223 93.6392C277.676 93.3192 278.243 93.0592 278.923 92.8592C279.616 92.6592 280.383 92.5592 281.223 92.5592C282.729 92.5592 283.889 92.8926 284.703 93.5592C285.516 94.2126 285.923 95.1259 285.923 96.2992V102.559C285.789 102.599 285.576 102.639 285.283 102.679C285.003 102.719 284.709 102.739 284.403 102.739C284.109 102.739 283.843 102.719 283.603 102.679C283.376 102.639 283.183 102.559 283.023 102.439C282.863 102.319 282.736 102.159 282.643 101.959C282.563 101.746 282.523 101.473 282.523 101.139V96.4192ZM291.483 102.559C291.336 102.586 291.116 102.619 290.823 102.659C290.543 102.713 290.256 102.739 289.963 102.739C289.67 102.739 289.403 102.719 289.163 102.679C288.936 102.639 288.743 102.559 288.583 102.439C288.423 102.319 288.296 102.159 288.203 101.959C288.123 101.746 288.083 101.473 288.083 101.139V89.5392C288.23 89.5126 288.443 89.4792 288.723 89.4392C289.016 89.3859 289.31 89.3592 289.603 89.3592C289.896 89.3592 290.156 89.3792 290.383 89.4192C290.623 89.4592 290.823 89.5392 290.983 89.6592C291.143 89.7792 291.263 89.9459 291.343 90.1592C291.436 90.3592 291.483 90.6259 291.483 90.9592V102.559ZM295.148 100.099C295.002 99.7659 294.842 99.3926 294.668 98.9792C294.508 98.5659 294.335 98.0926 294.148 97.5592C293.975 97.0259 293.788 96.4192 293.588 95.7392C293.402 95.0459 293.202 94.2526 292.988 93.3592C293.175 93.1726 293.422 93.0126 293.728 92.8792C294.048 92.7326 294.395 92.6592 294.768 92.6592C295.235 92.6592 295.622 92.7592 295.928 92.9592C296.235 93.1459 296.462 93.5059 296.608 94.0392L298.188 99.5392H298.268C298.428 99.0859 298.582 98.5926 298.728 98.0592C298.888 97.5259 299.042 96.9792 299.188 96.4192C299.335 95.8459 299.468 95.2792 299.588 94.7192C299.722 94.1459 299.835 93.5859 299.928 93.0392C300.408 92.7859 300.935 92.6592 301.508 92.6592C301.975 92.6592 302.362 92.7592 302.668 92.9592C302.975 93.1592 303.128 93.5059 303.128 93.9992C303.128 94.3592 303.082 94.7792 302.988 95.2592C302.895 95.7259 302.768 96.2259 302.608 96.7592C302.462 97.2926 302.282 97.8459 302.068 98.4192C301.868 98.9792 301.655 99.5326 301.428 100.079C301.202 100.626 300.968 101.146 300.728 101.639C300.488 102.119 300.255 102.553 300.028 102.939C299.655 103.593 299.308 104.126 298.988 104.539C298.668 104.953 298.362 105.273 298.068 105.499C297.775 105.739 297.482 105.899 297.188 105.979C296.895 106.073 296.588 106.119 296.268 106.119C295.708 106.119 295.255 105.953 294.908 105.619C294.562 105.286 294.355 104.853 294.288 104.319C294.715 103.986 295.142 103.613 295.568 103.199C295.995 102.799 296.382 102.386 296.728 101.959C296.502 101.893 296.255 101.739 295.988 101.499C295.735 101.246 295.455 100.779 295.148 100.099ZM98.3949 118.559C98.5282 118.519 98.7415 118.479 99.0349 118.439C99.3282 118.386 99.6282 118.359 99.9349 118.359C100.228 118.359 100.488 118.379 100.715 118.419C100.955 118.459 101.155 118.539 101.315 118.659C101.475 118.779 101.595 118.946 101.675 119.159C101.755 119.359 101.795 119.626 101.795 119.959V121.919C102.128 121.786 102.442 121.693 102.735 121.639C103.042 121.586 103.375 121.559 103.735 121.559C104.375 121.559 104.982 121.673 105.555 121.899C106.128 122.126 106.635 122.459 107.075 122.899C107.515 123.326 107.862 123.859 108.115 124.499C108.368 125.139 108.495 125.879 108.495 126.719C108.495 127.586 108.362 128.346 108.095 128.999C107.842 129.639 107.482 130.173 107.015 130.599C106.548 131.026 105.975 131.353 105.295 131.579C104.628 131.793 103.888 131.899 103.075 131.899C102.195 131.899 101.448 131.793 100.835 131.579C100.222 131.379 99.7015 131.126 99.2749 130.819C98.6882 130.406 98.3949 129.873 98.3949 129.219V118.559ZM103.075 129.219C103.688 129.219 104.162 129.013 104.495 128.599C104.842 128.173 105.015 127.546 105.015 126.719C105.015 125.879 104.842 125.253 104.495 124.839C104.148 124.426 103.682 124.219 103.095 124.219C102.828 124.219 102.595 124.246 102.395 124.299C102.208 124.353 102.002 124.433 101.775 124.539V128.899C101.922 128.993 102.095 129.073 102.295 129.139C102.508 129.193 102.768 129.219 103.075 129.219ZM115.292 131.899C114.505 131.899 113.772 131.793 113.092 131.579C112.425 131.353 111.838 131.019 111.332 130.579C110.838 130.139 110.445 129.586 110.152 128.919C109.872 128.253 109.732 127.473 109.732 126.579C109.732 125.699 109.872 124.946 110.152 124.319C110.445 123.679 110.825 123.159 111.292 122.759C111.758 122.346 112.292 122.046 112.892 121.859C113.492 121.659 114.105 121.559 114.732 121.559C115.438 121.559 116.078 121.666 116.652 121.879C117.238 122.093 117.738 122.386 118.152 122.759C118.578 123.133 118.905 123.579 119.132 124.099C119.372 124.619 119.492 125.186 119.492 125.799C119.492 126.253 119.365 126.599 119.112 126.839C118.858 127.079 118.505 127.233 118.052 127.299L113.112 128.039C113.258 128.479 113.558 128.813 114.012 129.039C114.465 129.253 114.985 129.359 115.572 129.359C116.118 129.359 116.632 129.293 117.112 129.159C117.605 129.013 118.005 128.846 118.312 128.659C118.525 128.793 118.705 128.979 118.852 129.219C118.998 129.459 119.072 129.713 119.072 129.979C119.072 130.579 118.792 131.026 118.232 131.319C117.805 131.546 117.325 131.699 116.792 131.779C116.258 131.859 115.758 131.899 115.292 131.899ZM114.732 124.039C114.412 124.039 114.132 124.093 113.892 124.199C113.665 124.306 113.478 124.446 113.332 124.619C113.185 124.779 113.072 124.966 112.992 125.179C112.925 125.379 112.885 125.586 112.872 125.799L116.292 125.239C116.252 124.973 116.105 124.706 115.852 124.439C115.598 124.173 115.225 124.039 114.732 124.039ZM129.292 129.419C129.519 129.419 129.766 129.399 130.032 129.359C130.312 129.306 130.519 129.239 130.652 129.159V127.559L129.212 127.679C128.839 127.706 128.532 127.786 128.292 127.919C128.052 128.053 127.932 128.253 127.932 128.519C127.932 128.786 128.032 129.006 128.232 129.179C128.446 129.339 128.799 129.419 129.292 129.419ZM129.132 121.559C129.852 121.559 130.506 121.633 131.092 121.779C131.692 121.926 132.199 122.153 132.612 122.459C133.039 122.753 133.366 123.133 133.592 123.599C133.819 124.053 133.932 124.593 133.932 125.219V129.699C133.932 130.046 133.832 130.333 133.632 130.559C133.446 130.773 133.219 130.959 132.952 131.119C132.086 131.639 130.866 131.899 129.292 131.899C128.586 131.899 127.946 131.833 127.372 131.699C126.812 131.566 126.326 131.366 125.912 131.099C125.512 130.833 125.199 130.493 124.972 130.079C124.759 129.666 124.652 129.186 124.652 128.639C124.652 127.719 124.926 127.013 125.472 126.519C126.019 126.026 126.866 125.719 128.012 125.599L130.632 125.319V125.179C130.632 124.793 130.459 124.519 130.112 124.359C129.779 124.186 129.292 124.099 128.652 124.099C128.146 124.099 127.652 124.153 127.172 124.259C126.692 124.366 126.259 124.499 125.872 124.659C125.699 124.539 125.552 124.359 125.432 124.119C125.312 123.866 125.252 123.606 125.252 123.339C125.252 122.993 125.332 122.719 125.492 122.519C125.666 122.306 125.926 122.126 126.272 121.979C126.659 121.833 127.112 121.726 127.632 121.659C128.166 121.593 128.666 121.559 129.132 121.559ZM136.051 118.559C136.184 118.519 136.398 118.479 136.691 118.439C136.984 118.386 137.284 118.359 137.591 118.359C137.884 118.359 138.144 118.379 138.371 118.419C138.611 118.459 138.811 118.539 138.971 118.659C139.131 118.779 139.251 118.946 139.331 119.159C139.411 119.359 139.451 119.626 139.451 119.959V121.919C139.784 121.786 140.098 121.693 140.391 121.639C140.698 121.586 141.031 121.559 141.391 121.559C142.031 121.559 142.638 121.673 143.211 121.899C143.784 122.126 144.291 122.459 144.731 122.899C145.171 123.326 145.518 123.859 145.771 124.499C146.024 125.139 146.151 125.879 146.151 126.719C146.151 127.586 146.018 128.346 145.751 128.999C145.498 129.639 145.138 130.173 144.671 130.599C144.204 131.026 143.631 131.353 142.951 131.579C142.284 131.793 141.544 131.899 140.731 131.899C139.851 131.899 139.104 131.793 138.491 131.579C137.878 131.379 137.358 131.126 136.931 130.819C136.344 130.406 136.051 129.873 136.051 129.219V118.559ZM140.731 129.219C141.344 129.219 141.818 129.013 142.151 128.599C142.498 128.173 142.671 127.546 142.671 126.719C142.671 125.879 142.498 125.253 142.151 124.839C141.804 124.426 141.338 124.219 140.751 124.219C140.484 124.219 140.251 124.246 140.051 124.299C139.864 124.353 139.658 124.433 139.431 124.539V128.899C139.578 128.993 139.751 129.073 139.951 129.139C140.164 129.193 140.424 129.219 140.731 129.219ZM151.268 131.559C151.121 131.586 150.901 131.619 150.608 131.659C150.328 131.713 150.041 131.739 149.748 131.739C149.455 131.739 149.188 131.719 148.948 131.679C148.721 131.639 148.528 131.559 148.368 131.439C148.208 131.319 148.081 131.159 147.988 130.959C147.908 130.746 147.868 130.473 147.868 130.139V118.539C148.015 118.513 148.228 118.479 148.508 118.439C148.801 118.386 149.095 118.359 149.388 118.359C149.681 118.359 149.941 118.379 150.168 118.419C150.408 118.459 150.608 118.539 150.768 118.659C150.928 118.779 151.048 118.946 151.128 119.159C151.221 119.359 151.268 119.626 151.268 119.959V131.559ZM158.553 131.899C157.767 131.899 157.033 131.793 156.353 131.579C155.687 131.353 155.1 131.019 154.593 130.579C154.1 130.139 153.707 129.586 153.413 128.919C153.133 128.253 152.993 127.473 152.993 126.579C152.993 125.699 153.133 124.946 153.413 124.319C153.707 123.679 154.087 123.159 154.553 122.759C155.02 122.346 155.553 122.046 156.153 121.859C156.753 121.659 157.367 121.559 157.993 121.559C158.7 121.559 159.34 121.666 159.913 121.879C160.5 122.093 161 122.386 161.413 122.759C161.84 123.133 162.167 123.579 162.393 124.099C162.633 124.619 162.753 125.186 162.753 125.799C162.753 126.253 162.627 126.599 162.373 126.839C162.12 127.079 161.767 127.233 161.313 127.299L156.373 128.039C156.52 128.479 156.82 128.813 157.273 129.039C157.727 129.253 158.247 129.359 158.833 129.359C159.38 129.359 159.893 129.293 160.373 129.159C160.867 129.013 161.267 128.846 161.573 128.659C161.787 128.793 161.967 128.979 162.113 129.219C162.26 129.459 162.333 129.713 162.333 129.979C162.333 130.579 162.053 131.026 161.493 131.319C161.067 131.546 160.587 131.699 160.053 131.779C159.52 131.859 159.02 131.899 158.553 131.899ZM157.993 124.039C157.673 124.039 157.393 124.093 157.153 124.199C156.927 124.306 156.74 124.446 156.593 124.619C156.447 124.779 156.333 124.966 156.253 125.179C156.187 125.379 156.147 125.586 156.133 125.799L159.553 125.239C159.513 124.973 159.367 124.706 159.113 124.439C158.86 124.173 158.487 124.039 157.993 124.039ZM171.794 128.239C171.794 128.586 171.901 128.833 172.114 128.979C172.341 129.126 172.654 129.199 173.054 129.199C173.254 129.199 173.461 129.186 173.674 129.159C173.887 129.119 174.074 129.073 174.234 129.019C174.354 129.166 174.454 129.333 174.534 129.519C174.627 129.693 174.674 129.906 174.674 130.159C174.674 130.666 174.481 131.079 174.094 131.399C173.721 131.719 173.054 131.879 172.094 131.879C170.921 131.879 170.014 131.613 169.374 131.079C168.747 130.546 168.434 129.679 168.434 128.479V119.919C168.581 119.879 168.787 119.839 169.054 119.799C169.334 119.746 169.627 119.719 169.934 119.719C170.521 119.719 170.974 119.826 171.294 120.039C171.627 120.239 171.794 120.673 171.794 121.339V122.619H174.414C174.494 122.766 174.567 122.953 174.634 123.179C174.714 123.393 174.754 123.633 174.754 123.899C174.754 124.366 174.647 124.706 174.434 124.919C174.234 125.119 173.961 125.219 173.614 125.219H171.794V128.239ZM186.345 126.719C186.345 127.546 186.218 128.286 185.965 128.939C185.711 129.579 185.351 130.119 184.885 130.559C184.431 130.999 183.885 131.333 183.245 131.559C182.605 131.786 181.891 131.899 181.105 131.899C180.318 131.899 179.605 131.779 178.965 131.539C178.325 131.299 177.771 130.959 177.305 130.519C176.851 130.066 176.498 129.519 176.245 128.879C175.991 128.239 175.865 127.519 175.865 126.719C175.865 125.933 175.991 125.219 176.245 124.579C176.498 123.939 176.851 123.399 177.305 122.959C177.771 122.506 178.325 122.159 178.965 121.919C179.605 121.679 180.318 121.559 181.105 121.559C181.891 121.559 182.605 121.686 183.245 121.939C183.885 122.179 184.431 122.526 184.885 122.979C185.351 123.419 185.711 123.959 185.965 124.599C186.218 125.239 186.345 125.946 186.345 126.719ZM179.345 126.719C179.345 127.533 179.498 128.159 179.805 128.599C180.125 129.026 180.565 129.239 181.125 129.239C181.685 129.239 182.111 129.019 182.405 128.579C182.711 128.139 182.865 127.519 182.865 126.719C182.865 125.919 182.711 125.306 182.405 124.879C182.098 124.439 181.665 124.219 181.105 124.219C180.545 124.219 180.111 124.439 179.805 124.879C179.498 125.306 179.345 125.919 179.345 126.719ZM200.207 128.679C200.207 129.693 199.827 130.486 199.067 131.059C198.307 131.633 197.187 131.919 195.707 131.919C195.147 131.919 194.627 131.879 194.147 131.799C193.667 131.719 193.254 131.599 192.907 131.439C192.574 131.266 192.307 131.053 192.107 130.799C191.921 130.546 191.827 130.246 191.827 129.899C191.827 129.579 191.894 129.313 192.027 129.099C192.161 128.873 192.321 128.686 192.507 128.539C192.894 128.753 193.334 128.946 193.827 129.119C194.334 129.279 194.914 129.359 195.567 129.359C195.981 129.359 196.294 129.299 196.507 129.179C196.734 129.059 196.847 128.899 196.847 128.699C196.847 128.513 196.767 128.366 196.607 128.259C196.447 128.153 196.181 128.066 195.807 127.999L195.207 127.879C194.047 127.653 193.181 127.299 192.607 126.819C192.047 126.326 191.767 125.626 191.767 124.719C191.767 124.226 191.874 123.779 192.087 123.379C192.301 122.979 192.601 122.646 192.987 122.379C193.374 122.113 193.834 121.906 194.367 121.759C194.914 121.613 195.514 121.539 196.167 121.539C196.661 121.539 197.121 121.579 197.547 121.659C197.987 121.726 198.367 121.833 198.687 121.979C199.007 122.126 199.261 122.319 199.447 122.559C199.634 122.786 199.727 123.059 199.727 123.379C199.727 123.686 199.667 123.953 199.547 124.179C199.441 124.393 199.301 124.573 199.127 124.719C199.021 124.653 198.861 124.586 198.647 124.519C198.434 124.439 198.201 124.373 197.947 124.319C197.694 124.253 197.434 124.199 197.167 124.159C196.914 124.119 196.681 124.099 196.467 124.099C196.027 124.099 195.687 124.153 195.447 124.259C195.207 124.353 195.087 124.506 195.087 124.719C195.087 124.866 195.154 124.986 195.287 125.079C195.421 125.173 195.674 125.259 196.047 125.339L196.667 125.479C197.947 125.773 198.854 126.179 199.387 126.699C199.934 127.206 200.207 127.866 200.207 128.679ZM207.089 131.899C206.302 131.899 205.569 131.793 204.889 131.579C204.222 131.353 203.635 131.019 203.129 130.579C202.635 130.139 202.242 129.586 201.949 128.919C201.669 128.253 201.529 127.473 201.529 126.579C201.529 125.699 201.669 124.946 201.949 124.319C202.242 123.679 202.622 123.159 203.089 122.759C203.555 122.346 204.089 122.046 204.689 121.859C205.289 121.659 205.902 121.559 206.529 121.559C207.235 121.559 207.875 121.666 208.449 121.879C209.035 122.093 209.535 122.386 209.949 122.759C210.375 123.133 210.702 123.579 210.929 124.099C211.169 124.619 211.289 125.186 211.289 125.799C211.289 126.253 211.162 126.599 210.909 126.839C210.655 127.079 210.302 127.233 209.849 127.299L204.909 128.039C205.055 128.479 205.355 128.813 205.809 129.039C206.262 129.253 206.782 129.359 207.369 129.359C207.915 129.359 208.429 129.293 208.909 129.159C209.402 129.013 209.802 128.846 210.109 128.659C210.322 128.793 210.502 128.979 210.649 129.219C210.795 129.459 210.869 129.713 210.869 129.979C210.869 130.579 210.589 131.026 210.029 131.319C209.602 131.546 209.122 131.699 208.589 131.779C208.055 131.859 207.555 131.899 207.089 131.899ZM206.529 124.039C206.209 124.039 205.929 124.093 205.689 124.199C205.462 124.306 205.275 124.446 205.129 124.619C204.982 124.779 204.869 124.966 204.789 125.179C204.722 125.379 204.682 125.586 204.669 125.799L208.089 125.239C208.049 124.973 207.902 124.706 207.649 124.439C207.395 124.173 207.022 124.039 206.529 124.039ZM216.325 128.239C216.325 128.586 216.432 128.833 216.645 128.979C216.872 129.126 217.185 129.199 217.585 129.199C217.785 129.199 217.992 129.186 218.205 129.159C218.419 129.119 218.605 129.073 218.765 129.019C218.885 129.166 218.985 129.333 219.065 129.519C219.159 129.693 219.205 129.906 219.205 130.159C219.205 130.666 219.012 131.079 218.625 131.399C218.252 131.719 217.585 131.879 216.625 131.879C215.452 131.879 214.545 131.613 213.905 131.079C213.279 130.546 212.965 129.679 212.965 128.479V119.919C213.112 119.879 213.319 119.839 213.585 119.799C213.865 119.746 214.159 119.719 214.465 119.719C215.052 119.719 215.505 119.826 215.825 120.039C216.159 120.239 216.325 120.673 216.325 121.339V122.619H218.945C219.025 122.766 219.099 122.953 219.165 123.179C219.245 123.393 219.285 123.633 219.285 123.899C219.285 124.366 219.179 124.706 218.965 124.919C218.765 125.119 218.492 125.219 218.145 125.219H216.325V128.239ZM228.337 128.239C228.337 128.586 228.444 128.833 228.657 128.979C228.884 129.126 229.197 129.199 229.597 129.199C229.797 129.199 230.004 129.186 230.217 129.159C230.43 129.119 230.617 129.073 230.777 129.019C230.897 129.166 230.997 129.333 231.077 129.519C231.17 129.693 231.217 129.906 231.217 130.159C231.217 130.666 231.024 131.079 230.637 131.399C230.264 131.719 229.597 131.879 228.637 131.879C227.464 131.879 226.557 131.613 225.917 131.079C225.29 130.546 224.977 129.679 224.977 128.479V119.919C225.124 119.879 225.33 119.839 225.597 119.799C225.877 119.746 226.17 119.719 226.477 119.719C227.064 119.719 227.517 119.826 227.837 120.039C228.17 120.239 228.337 120.673 228.337 121.339V122.619H230.957C231.037 122.766 231.11 122.953 231.177 123.179C231.257 123.393 231.297 123.633 231.297 123.899C231.297 124.366 231.19 124.706 230.977 124.919C230.777 125.119 230.504 125.219 230.157 125.219H228.337V128.239ZM242.545 131.559C242.411 131.599 242.198 131.639 241.905 131.679C241.625 131.719 241.331 131.739 241.025 131.739C240.731 131.739 240.465 131.719 240.225 131.679C239.998 131.639 239.805 131.559 239.645 131.439C239.485 131.319 239.358 131.159 239.265 130.959C239.185 130.746 239.145 130.473 239.145 130.139V125.699C239.145 125.153 239.005 124.773 238.725 124.559C238.458 124.333 238.125 124.219 237.725 124.219C237.458 124.219 237.205 124.253 236.965 124.319C236.725 124.386 236.531 124.466 236.385 124.559V131.559C236.251 131.599 236.038 131.639 235.745 131.679C235.465 131.719 235.171 131.739 234.865 131.739C234.571 131.739 234.305 131.719 234.065 131.679C233.838 131.639 233.645 131.559 233.485 131.439C233.325 131.319 233.198 131.159 233.105 130.959C233.025 130.746 232.985 130.473 232.985 130.139V118.539C233.131 118.513 233.345 118.479 233.625 118.439C233.918 118.386 234.211 118.359 234.505 118.359C234.798 118.359 235.058 118.379 235.285 118.419C235.525 118.459 235.725 118.539 235.885 118.659C236.045 118.779 236.165 118.946 236.245 119.159C236.338 119.359 236.385 119.626 236.385 119.959V121.919C236.558 121.853 236.818 121.779 237.165 121.699C237.525 121.606 237.918 121.559 238.345 121.559C239.665 121.559 240.691 121.893 241.425 122.559C242.171 123.213 242.545 124.193 242.545 125.499V131.559ZM249.784 131.899C248.997 131.899 248.264 131.793 247.584 131.579C246.917 131.353 246.331 131.019 245.824 130.579C245.331 130.139 244.937 129.586 244.644 128.919C244.364 128.253 244.224 127.473 244.224 126.579C244.224 125.699 244.364 124.946 244.644 124.319C244.937 123.679 245.317 123.159 245.784 122.759C246.251 122.346 246.784 122.046 247.384 121.859C247.984 121.659 248.597 121.559 249.224 121.559C249.931 121.559 250.571 121.666 251.144 121.879C251.731 122.093 252.231 122.386 252.644 122.759C253.071 123.133 253.397 123.579 253.624 124.099C253.864 124.619 253.984 125.186 253.984 125.799C253.984 126.253 253.857 126.599 253.604 126.839C253.351 127.079 252.997 127.233 252.544 127.299L247.604 128.039C247.751 128.479 248.051 128.813 248.504 129.039C248.957 129.253 249.477 129.359 250.064 129.359C250.611 129.359 251.124 129.293 251.604 129.159C252.097 129.013 252.497 128.846 252.804 128.659C253.017 128.793 253.197 128.979 253.344 129.219C253.491 129.459 253.564 129.713 253.564 129.979C253.564 130.579 253.284 131.026 252.724 131.319C252.297 131.546 251.817 131.699 251.284 131.779C250.751 131.859 250.251 131.899 249.784 131.899ZM249.224 124.039C248.904 124.039 248.624 124.093 248.384 124.199C248.157 124.306 247.971 124.446 247.824 124.619C247.677 124.779 247.564 124.966 247.484 125.179C247.417 125.379 247.377 125.586 247.364 125.799L250.784 125.239C250.744 124.973 250.597 124.706 250.344 124.439C250.091 124.173 249.717 124.039 249.224 124.039ZM260.281 121.559C260.827 121.559 261.361 121.639 261.881 121.799C262.414 121.946 262.874 122.173 263.261 122.479C263.661 122.213 264.107 121.993 264.601 121.819C265.107 121.646 265.714 121.559 266.421 121.559C266.927 121.559 267.421 121.626 267.901 121.759C268.394 121.893 268.827 122.106 269.201 122.399C269.587 122.679 269.894 123.059 270.121 123.539C270.347 124.006 270.461 124.579 270.461 125.259V131.559C270.327 131.599 270.114 131.639 269.821 131.679C269.541 131.719 269.247 131.739 268.941 131.739C268.647 131.739 268.381 131.719 268.141 131.679C267.914 131.639 267.721 131.559 267.561 131.439C267.401 131.319 267.274 131.159 267.181 130.959C267.101 130.746 267.061 130.473 267.061 130.139V125.359C267.061 124.959 266.947 124.673 266.721 124.499C266.494 124.313 266.187 124.219 265.801 124.219C265.614 124.219 265.414 124.266 265.201 124.359C264.987 124.439 264.827 124.526 264.721 124.619C264.734 124.673 264.741 124.726 264.741 124.779C264.741 124.819 264.741 124.859 264.741 124.899V131.559C264.594 131.599 264.374 131.639 264.081 131.679C263.801 131.719 263.514 131.739 263.221 131.739C262.927 131.739 262.661 131.719 262.421 131.679C262.194 131.639 262.001 131.559 261.841 131.439C261.681 131.319 261.554 131.159 261.461 130.959C261.381 130.746 261.341 130.473 261.341 130.139V125.359C261.341 124.959 261.214 124.673 260.961 124.499C260.721 124.313 260.427 124.219 260.081 124.219C259.841 124.219 259.634 124.259 259.461 124.339C259.287 124.406 259.141 124.473 259.021 124.539V131.559C258.887 131.599 258.674 131.639 258.381 131.679C258.101 131.719 257.807 131.739 257.501 131.739C257.207 131.739 256.941 131.719 256.701 131.679C256.474 131.639 256.281 131.559 256.121 131.439C255.961 131.319 255.834 131.159 255.741 130.959C255.661 130.746 255.621 130.473 255.621 130.139V124.099C255.621 123.739 255.694 123.453 255.841 123.239C256.001 123.026 256.214 122.826 256.481 122.639C256.934 122.319 257.494 122.059 258.161 121.859C258.841 121.659 259.547 121.559 260.281 121.559ZM97.9349 155.719C97.9349 154.839 98.0682 154.079 98.3349 153.439C98.6015 152.786 98.9682 152.246 99.4349 151.819C99.9149 151.393 100.468 151.079 101.095 150.879C101.735 150.666 102.422 150.559 103.155 150.559C103.422 150.559 103.682 150.586 103.935 150.639C104.188 150.679 104.395 150.733 104.555 150.799V147.559C104.688 147.519 104.902 147.479 105.195 147.439C105.488 147.386 105.788 147.359 106.095 147.359C106.388 147.359 106.648 147.379 106.875 147.419C107.115 147.459 107.315 147.539 107.475 147.659C107.635 147.779 107.755 147.946 107.835 148.159C107.915 148.359 107.955 148.626 107.955 148.959V158.439C107.955 159.066 107.662 159.566 107.075 159.939C106.688 160.193 106.188 160.413 105.575 160.599C104.962 160.799 104.255 160.899 103.455 160.899C102.588 160.899 101.808 160.779 101.115 160.539C100.435 160.299 99.8549 159.953 99.3749 159.499C98.9082 159.046 98.5482 158.506 98.2949 157.879C98.0549 157.239 97.9349 156.519 97.9349 155.719ZM103.615 153.219C102.895 153.219 102.342 153.426 101.955 153.839C101.568 154.253 101.375 154.879 101.375 155.719C101.375 156.546 101.555 157.173 101.915 157.599C102.275 158.013 102.795 158.219 103.475 158.219C103.715 158.219 103.928 158.186 104.115 158.119C104.315 158.039 104.468 157.953 104.575 157.859V153.459C104.308 153.299 103.988 153.219 103.615 153.219ZM110.074 150.999C110.207 150.959 110.414 150.919 110.694 150.879C110.987 150.839 111.287 150.819 111.594 150.819C111.887 150.819 112.147 150.839 112.374 150.879C112.614 150.919 112.814 150.999 112.974 151.119C113.134 151.239 113.254 151.406 113.334 151.619C113.427 151.819 113.474 152.086 113.474 152.419V156.719C113.474 157.266 113.607 157.659 113.874 157.899C114.14 158.126 114.527 158.239 115.034 158.239C115.34 158.239 115.587 158.213 115.774 158.159C115.974 158.106 116.127 158.053 116.234 157.999V150.999C116.367 150.959 116.574 150.919 116.854 150.879C117.147 150.839 117.447 150.819 117.754 150.819C118.047 150.819 118.307 150.839 118.534 150.879C118.774 150.919 118.974 150.999 119.134 151.119C119.294 151.239 119.414 151.406 119.494 151.619C119.587 151.819 119.634 152.086 119.634 152.419V158.499C119.634 159.166 119.354 159.666 118.794 159.999C118.327 160.293 117.767 160.513 117.114 160.659C116.474 160.819 115.774 160.899 115.014 160.899C114.294 160.899 113.627 160.819 113.014 160.659C112.414 160.499 111.894 160.253 111.454 159.919C111.014 159.586 110.674 159.159 110.434 158.639C110.194 158.106 110.074 157.466 110.074 156.719V150.999ZM125.114 160.559C124.981 160.599 124.768 160.639 124.474 160.679C124.194 160.719 123.901 160.739 123.594 160.739C123.301 160.739 123.034 160.719 122.794 160.679C122.568 160.639 122.374 160.559 122.214 160.439C122.054 160.319 121.928 160.159 121.834 159.959C121.754 159.746 121.714 159.473 121.714 159.139V153.139C121.714 152.833 121.768 152.573 121.874 152.359C121.994 152.133 122.161 151.933 122.374 151.759C122.588 151.586 122.848 151.433 123.154 151.299C123.474 151.153 123.814 151.026 124.174 150.919C124.534 150.813 124.908 150.733 125.294 150.679C125.681 150.613 126.068 150.579 126.454 150.579C127.094 150.579 127.601 150.706 127.974 150.959C128.348 151.199 128.534 151.599 128.534 152.159C128.534 152.346 128.508 152.533 128.454 152.719C128.401 152.893 128.334 153.053 128.254 153.199C127.974 153.199 127.688 153.213 127.394 153.239C127.101 153.266 126.814 153.306 126.534 153.359C126.254 153.413 125.988 153.473 125.734 153.539C125.494 153.593 125.288 153.659 125.114 153.739V160.559ZM129.857 148.159C129.857 147.653 130.024 147.226 130.357 146.879C130.704 146.533 131.157 146.359 131.717 146.359C132.277 146.359 132.724 146.533 133.057 146.879C133.404 147.226 133.577 147.653 133.577 148.159C133.577 148.666 133.404 149.093 133.057 149.439C132.724 149.786 132.277 149.959 131.717 149.959C131.157 149.959 130.704 149.786 130.357 149.439C130.024 149.093 129.857 148.666 129.857 148.159ZM133.417 160.559C133.27 160.586 133.05 160.619 132.757 160.659C132.477 160.713 132.19 160.739 131.897 160.739C131.604 160.739 131.337 160.719 131.097 160.679C130.87 160.639 130.677 160.559 130.517 160.439C130.357 160.319 130.23 160.159 130.137 159.959C130.057 159.746 130.017 159.473 130.017 159.139V150.999C130.164 150.973 130.377 150.939 130.657 150.899C130.95 150.846 131.244 150.819 131.537 150.819C131.83 150.819 132.09 150.839 132.317 150.879C132.557 150.919 132.757 150.999 132.917 151.119C133.077 151.239 133.197 151.406 133.277 151.619C133.37 151.819 133.417 152.086 133.417 152.419V160.559ZM141.741 154.419C141.741 154.006 141.621 153.706 141.381 153.519C141.155 153.319 140.841 153.219 140.441 153.219C140.175 153.219 139.908 153.253 139.641 153.319C139.388 153.386 139.168 153.486 138.981 153.619V160.559C138.848 160.599 138.635 160.639 138.341 160.679C138.061 160.719 137.768 160.739 137.461 160.739C137.168 160.739 136.901 160.719 136.661 160.679C136.435 160.639 136.241 160.559 136.081 160.439C135.921 160.319 135.795 160.159 135.701 159.959C135.621 159.746 135.581 159.473 135.581 159.139V153.139C135.581 152.779 135.655 152.486 135.801 152.259C135.961 152.033 136.175 151.826 136.441 151.639C136.895 151.319 137.461 151.059 138.141 150.859C138.835 150.659 139.601 150.559 140.441 150.559C141.948 150.559 143.108 150.893 143.921 151.559C144.735 152.213 145.141 153.126 145.141 154.299V160.559C145.008 160.599 144.795 160.639 144.501 160.679C144.221 160.719 143.928 160.739 143.621 160.739C143.328 160.739 143.061 160.719 142.821 160.679C142.595 160.639 142.401 160.559 142.241 160.439C142.081 160.319 141.955 160.159 141.861 159.959C141.781 159.746 141.741 159.473 141.741 159.139V154.419ZM151.982 150.559C152.742 150.559 153.428 150.659 154.042 150.859C154.668 151.046 155.195 151.293 155.622 151.599C155.888 151.786 156.095 151.993 156.242 152.219C156.402 152.446 156.482 152.739 156.482 153.099V160.099C156.482 160.806 156.348 161.413 156.082 161.919C155.815 162.439 155.448 162.866 154.982 163.199C154.528 163.546 153.988 163.799 153.362 163.959C152.748 164.119 152.088 164.199 151.382 164.199C150.168 164.199 149.215 164.033 148.522 163.699C147.828 163.379 147.482 162.853 147.482 162.119C147.482 161.813 147.542 161.539 147.662 161.299C147.795 161.073 147.942 160.899 148.102 160.779C148.488 160.993 148.922 161.173 149.402 161.319C149.895 161.466 150.402 161.539 150.922 161.539C151.642 161.539 152.215 161.419 152.642 161.179C153.068 160.939 153.282 160.553 153.282 160.019V159.699C152.735 159.939 152.068 160.059 151.282 160.059C150.682 160.059 150.108 159.973 149.562 159.799C149.028 159.613 148.555 159.333 148.142 158.959C147.742 158.573 147.415 158.079 147.162 157.479C146.922 156.879 146.802 156.166 146.802 155.339C146.802 154.526 146.928 153.819 147.182 153.219C147.448 152.619 147.808 152.126 148.262 151.739C148.728 151.339 149.275 151.046 149.902 150.859C150.542 150.659 151.235 150.559 151.982 150.559ZM153.222 153.459C153.128 153.406 152.988 153.353 152.802 153.299C152.628 153.246 152.408 153.219 152.142 153.219C151.488 153.219 150.995 153.406 150.662 153.779C150.342 154.139 150.182 154.659 150.182 155.339C150.182 156.113 150.342 156.673 150.662 157.019C150.995 157.353 151.415 157.519 151.922 157.519C152.468 157.519 152.902 157.393 153.222 157.139V153.459ZM165.993 157.239C165.993 157.586 166.1 157.833 166.313 157.979C166.54 158.126 166.853 158.199 167.253 158.199C167.453 158.199 167.66 158.186 167.873 158.159C168.086 158.119 168.273 158.073 168.433 158.019C168.553 158.166 168.653 158.333 168.733 158.519C168.826 158.693 168.873 158.906 168.873 159.159C168.873 159.666 168.68 160.079 168.293 160.399C167.92 160.719 167.253 160.879 166.293 160.879C165.12 160.879 164.213 160.613 163.573 160.079C162.946 159.546 162.633 158.679 162.633 157.479V148.919C162.78 148.879 162.986 148.839 163.253 148.799C163.533 148.746 163.826 148.719 164.133 148.719C164.72 148.719 165.173 148.826 165.493 149.039C165.826 149.239 165.993 149.673 165.993 150.339V151.619H168.613C168.693 151.766 168.766 151.953 168.833 152.179C168.913 152.393 168.953 152.633 168.953 152.899C168.953 153.366 168.846 153.706 168.633 153.919C168.433 154.119 168.16 154.219 167.813 154.219H165.993V157.239ZM180.201 160.559C180.068 160.599 179.854 160.639 179.561 160.679C179.281 160.719 178.988 160.739 178.681 160.739C178.388 160.739 178.121 160.719 177.881 160.679C177.654 160.639 177.461 160.559 177.301 160.439C177.141 160.319 177.014 160.159 176.921 159.959C176.841 159.746 176.801 159.473 176.801 159.139V154.699C176.801 154.153 176.661 153.773 176.381 153.559C176.114 153.333 175.781 153.219 175.381 153.219C175.114 153.219 174.861 153.253 174.621 153.319C174.381 153.386 174.188 153.466 174.041 153.559V160.559C173.908 160.599 173.694 160.639 173.401 160.679C173.121 160.719 172.828 160.739 172.521 160.739C172.228 160.739 171.961 160.719 171.721 160.679C171.494 160.639 171.301 160.559 171.141 160.439C170.981 160.319 170.854 160.159 170.761 159.959C170.681 159.746 170.641 159.473 170.641 159.139V147.539C170.788 147.513 171.001 147.479 171.281 147.439C171.574 147.386 171.868 147.359 172.161 147.359C172.454 147.359 172.714 147.379 172.941 147.419C173.181 147.459 173.381 147.539 173.541 147.659C173.701 147.779 173.821 147.946 173.901 148.159C173.994 148.359 174.041 148.626 174.041 148.959V150.919C174.214 150.853 174.474 150.779 174.821 150.699C175.181 150.606 175.574 150.559 176.001 150.559C177.321 150.559 178.348 150.893 179.081 151.559C179.828 152.213 180.201 153.193 180.201 154.499V160.559ZM187.44 160.899C186.654 160.899 185.92 160.793 185.24 160.579C184.574 160.353 183.987 160.019 183.48 159.579C182.987 159.139 182.594 158.586 182.3 157.919C182.02 157.253 181.88 156.473 181.88 155.579C181.88 154.699 182.02 153.946 182.3 153.319C182.594 152.679 182.974 152.159 183.44 151.759C183.907 151.346 184.44 151.046 185.04 150.859C185.64 150.659 186.254 150.559 186.88 150.559C187.587 150.559 188.227 150.666 188.8 150.879C189.387 151.093 189.887 151.386 190.3 151.759C190.727 152.133 191.054 152.579 191.28 153.099C191.52 153.619 191.64 154.186 191.64 154.799C191.64 155.253 191.514 155.599 191.26 155.839C191.007 156.079 190.654 156.233 190.2 156.299L185.26 157.039C185.407 157.479 185.707 157.813 186.16 158.039C186.614 158.253 187.134 158.359 187.72 158.359C188.267 158.359 188.78 158.293 189.26 158.159C189.754 158.013 190.154 157.846 190.46 157.659C190.674 157.793 190.854 157.979 191 158.219C191.147 158.459 191.22 158.713 191.22 158.979C191.22 159.579 190.94 160.026 190.38 160.319C189.954 160.546 189.474 160.699 188.94 160.779C188.407 160.859 187.907 160.899 187.44 160.899ZM186.88 153.039C186.56 153.039 186.28 153.093 186.04 153.199C185.814 153.306 185.627 153.446 185.48 153.619C185.334 153.779 185.22 153.966 185.14 154.179C185.074 154.379 185.034 154.586 185.02 154.799L188.44 154.239C188.4 153.973 188.254 153.706 188 153.439C187.747 153.173 187.374 153.039 186.88 153.039ZM202.821 160.279C202.634 160.439 202.381 160.566 202.061 160.659C201.741 160.766 201.361 160.819 200.921 160.819C200.374 160.819 199.901 160.739 199.501 160.579C199.101 160.433 198.834 160.219 198.701 159.939C198.554 159.619 198.381 159.113 198.181 158.419C197.994 157.726 197.807 156.966 197.621 156.139C197.434 155.313 197.254 154.473 197.081 153.619C196.921 152.766 196.794 152.013 196.701 151.359C196.887 151.173 197.134 151.013 197.441 150.879C197.761 150.733 198.107 150.659 198.481 150.659C198.947 150.659 199.327 150.766 199.621 150.979C199.927 151.179 200.114 151.533 200.181 152.039C200.314 153.053 200.427 153.893 200.521 154.559C200.614 155.213 200.687 155.753 200.741 156.179C200.807 156.593 200.854 156.913 200.881 157.139C200.921 157.353 200.954 157.526 200.981 157.659H201.061C201.101 157.446 201.167 157.139 201.261 156.739C201.367 156.326 201.487 155.859 201.621 155.339C201.754 154.819 201.894 154.259 202.041 153.659C202.187 153.046 202.334 152.439 202.481 151.839C202.747 151.693 203.007 151.579 203.261 151.499C203.527 151.419 203.854 151.379 204.241 151.379C204.707 151.379 205.107 151.453 205.441 151.599C205.774 151.746 205.987 151.973 206.081 152.279C206.241 152.866 206.394 153.439 206.541 153.999C206.687 154.546 206.821 155.059 206.941 155.539C207.061 156.006 207.167 156.426 207.261 156.799C207.354 157.159 207.421 157.446 207.461 157.659H207.561C207.707 156.633 207.847 155.566 207.981 154.459C208.127 153.353 208.261 152.226 208.381 151.079C208.621 150.933 208.874 150.826 209.141 150.759C209.407 150.693 209.674 150.659 209.941 150.659C210.407 150.659 210.794 150.759 211.101 150.959C211.407 151.159 211.561 151.506 211.561 151.999C211.561 152.213 211.527 152.533 211.461 152.959C211.394 153.386 211.307 153.866 211.201 154.399C211.094 154.933 210.967 155.493 210.821 156.079C210.687 156.666 210.547 157.233 210.401 157.779C210.267 158.326 210.134 158.819 210.001 159.259C209.881 159.699 209.774 160.039 209.681 160.279C209.494 160.439 209.207 160.566 208.821 160.659C208.434 160.766 208.021 160.819 207.581 160.819C206.461 160.819 205.801 160.539 205.601 159.979C205.521 159.739 205.421 159.439 205.301 159.079C205.181 158.706 205.054 158.299 204.921 157.859C204.787 157.419 204.661 156.966 204.541 156.499C204.421 156.019 204.321 155.559 204.241 155.119C204.147 155.586 204.034 156.073 203.901 156.579C203.767 157.073 203.627 157.559 203.481 158.039C203.347 158.506 203.221 158.939 203.101 159.339C202.981 159.726 202.887 160.039 202.821 160.279ZM223.161 155.719C223.161 156.546 223.034 157.286 222.781 157.939C222.528 158.579 222.168 159.119 221.701 159.559C221.248 159.999 220.701 160.333 220.061 160.559C219.421 160.786 218.708 160.899 217.921 160.899C217.134 160.899 216.421 160.779 215.781 160.539C215.141 160.299 214.588 159.959 214.121 159.519C213.668 159.066 213.314 158.519 213.061 157.879C212.808 157.239 212.681 156.519 212.681 155.719C212.681 154.933 212.808 154.219 213.061 153.579C213.314 152.939 213.668 152.399 214.121 151.959C214.588 151.506 215.141 151.159 215.781 150.919C216.421 150.679 217.134 150.559 217.921 150.559C218.708 150.559 219.421 150.686 220.061 150.939C220.701 151.179 221.248 151.526 221.701 151.979C222.168 152.419 222.528 152.959 222.781 153.599C223.034 154.239 223.161 154.946 223.161 155.719ZM216.161 155.719C216.161 156.533 216.314 157.159 216.621 157.599C216.941 158.026 217.381 158.239 217.941 158.239C218.501 158.239 218.928 158.019 219.221 157.579C219.528 157.139 219.681 156.519 219.681 155.719C219.681 154.919 219.528 154.306 219.221 153.879C218.914 153.439 218.481 153.219 217.921 153.219C217.361 153.219 216.928 153.439 216.621 153.879C216.314 154.306 216.161 154.919 216.161 155.719ZM228.22 160.559C228.086 160.599 227.873 160.639 227.58 160.679C227.3 160.719 227.006 160.739 226.7 160.739C226.406 160.739 226.14 160.719 225.9 160.679C225.673 160.639 225.48 160.559 225.32 160.439C225.16 160.319 225.033 160.159 224.94 159.959C224.86 159.746 224.82 159.473 224.82 159.139V153.139C224.82 152.833 224.873 152.573 224.98 152.359C225.1 152.133 225.266 151.933 225.48 151.759C225.693 151.586 225.953 151.433 226.26 151.299C226.58 151.153 226.92 151.026 227.28 150.919C227.64 150.813 228.013 150.733 228.4 150.679C228.786 150.613 229.173 150.579 229.56 150.579C230.2 150.579 230.706 150.706 231.08 150.959C231.453 151.199 231.64 151.599 231.64 152.159C231.64 152.346 231.613 152.533 231.56 152.719C231.506 152.893 231.44 153.053 231.36 153.199C231.08 153.199 230.793 153.213 230.5 153.239C230.206 153.266 229.92 153.306 229.64 153.359C229.36 153.413 229.093 153.473 228.84 153.539C228.6 153.593 228.393 153.659 228.22 153.739V160.559ZM242.542 158.819C242.476 159.446 242.289 159.926 241.982 160.259C241.689 160.593 241.256 160.759 240.682 160.759C240.256 160.759 239.876 160.659 239.542 160.459C239.209 160.246 238.849 159.893 238.462 159.399L236.482 156.919V160.559C236.336 160.586 236.116 160.619 235.822 160.659C235.542 160.713 235.256 160.739 234.962 160.739C234.669 160.739 234.402 160.719 234.162 160.679C233.936 160.639 233.742 160.559 233.582 160.439C233.422 160.319 233.296 160.159 233.202 159.959C233.122 159.746 233.082 159.473 233.082 159.139V147.559C233.229 147.519 233.442 147.479 233.722 147.439C234.016 147.386 234.309 147.359 234.602 147.359C234.896 147.359 235.156 147.379 235.382 147.419C235.622 147.459 235.822 147.539 235.982 147.659C236.142 147.779 236.262 147.946 236.342 148.159C236.436 148.359 236.482 148.626 236.482 148.959V154.239L239.922 150.719C240.616 150.719 241.169 150.873 241.582 151.179C242.009 151.486 242.222 151.873 242.222 152.339C242.222 152.539 242.189 152.726 242.122 152.899C242.056 153.059 241.949 153.226 241.802 153.399C241.669 153.573 241.489 153.759 241.262 153.959C241.049 154.146 240.796 154.366 240.502 154.619L239.342 155.619L242.542 158.819ZM251.54 157.239C251.54 157.586 251.647 157.833 251.86 157.979C252.087 158.126 252.4 158.199 252.8 158.199C253 158.199 253.207 158.186 253.42 158.159C253.633 158.119 253.82 158.073 253.98 158.019C254.1 158.166 254.2 158.333 254.28 158.519C254.373 158.693 254.42 158.906 254.42 159.159C254.42 159.666 254.227 160.079 253.84 160.399C253.467 160.719 252.8 160.879 251.84 160.879C250.667 160.879 249.76 160.613 249.12 160.079C248.493 159.546 248.18 158.679 248.18 157.479V148.919C248.327 148.879 248.533 148.839 248.8 148.799C249.08 148.746 249.373 148.719 249.68 148.719C250.267 148.719 250.72 148.826 251.04 149.039C251.373 149.239 251.54 149.673 251.54 150.339V151.619H254.16C254.24 151.766 254.313 151.953 254.38 152.179C254.46 152.393 254.5 152.633 254.5 152.899C254.5 153.366 254.393 153.706 254.18 153.919C253.98 154.119 253.707 154.219 253.36 154.219H251.54V157.239ZM256.068 148.159C256.068 147.653 256.235 147.226 256.568 146.879C256.915 146.533 257.368 146.359 257.928 146.359C258.488 146.359 258.935 146.533 259.268 146.879C259.615 147.226 259.788 147.653 259.788 148.159C259.788 148.666 259.615 149.093 259.268 149.439C258.935 149.786 258.488 149.959 257.928 149.959C257.368 149.959 256.915 149.786 256.568 149.439C256.235 149.093 256.068 148.666 256.068 148.159ZM259.628 160.559C259.481 160.586 259.261 160.619 258.968 160.659C258.688 160.713 258.401 160.739 258.108 160.739C257.815 160.739 257.548 160.719 257.308 160.679C257.081 160.639 256.888 160.559 256.728 160.439C256.568 160.319 256.441 160.159 256.348 159.959C256.268 159.746 256.228 159.473 256.228 159.139V150.999C256.375 150.973 256.588 150.939 256.868 150.899C257.161 150.846 257.455 150.819 257.748 150.819C258.041 150.819 258.301 150.839 258.528 150.879C258.768 150.919 258.968 150.999 259.128 151.119C259.288 151.239 259.408 151.406 259.488 151.619C259.581 151.819 259.628 152.086 259.628 152.419V160.559ZM266.452 150.559C266.999 150.559 267.532 150.639 268.052 150.799C268.586 150.946 269.046 151.173 269.432 151.479C269.832 151.213 270.279 150.993 270.772 150.819C271.279 150.646 271.886 150.559 272.592 150.559C273.099 150.559 273.592 150.626 274.072 150.759C274.566 150.893 274.999 151.106 275.372 151.399C275.759 151.679 276.066 152.059 276.292 152.539C276.519 153.006 276.632 153.579 276.632 154.259V160.559C276.499 160.599 276.286 160.639 275.992 160.679C275.712 160.719 275.419 160.739 275.112 160.739C274.819 160.739 274.552 160.719 274.312 160.679C274.086 160.639 273.892 160.559 273.732 160.439C273.572 160.319 273.446 160.159 273.352 159.959C273.272 159.746 273.232 159.473 273.232 159.139V154.359C273.232 153.959 273.119 153.673 272.892 153.499C272.666 153.313 272.359 153.219 271.972 153.219C271.786 153.219 271.586 153.266 271.372 153.359C271.159 153.439 270.999 153.526 270.892 153.619C270.906 153.673 270.912 153.726 270.912 153.779C270.912 153.819 270.912 153.859 270.912 153.899V160.559C270.766 160.599 270.546 160.639 270.252 160.679C269.972 160.719 269.686 160.739 269.392 160.739C269.099 160.739 268.832 160.719 268.592 160.679C268.366 160.639 268.172 160.559 268.012 160.439C267.852 160.319 267.726 160.159 267.632 159.959C267.552 159.746 267.512 159.473 267.512 159.139V154.359C267.512 153.959 267.386 153.673 267.132 153.499C266.892 153.313 266.599 153.219 266.252 153.219C266.012 153.219 265.806 153.259 265.632 153.339C265.459 153.406 265.312 153.473 265.192 153.539V160.559C265.059 160.599 264.846 160.639 264.552 160.679C264.272 160.719 263.979 160.739 263.672 160.739C263.379 160.739 263.112 160.719 262.872 160.679C262.646 160.639 262.452 160.559 262.292 160.439C262.132 160.319 262.006 160.159 261.912 159.959C261.832 159.746 261.792 159.473 261.792 159.139V153.099C261.792 152.739 261.866 152.453 262.012 152.239C262.172 152.026 262.386 151.826 262.652 151.639C263.106 151.319 263.666 151.059 264.332 150.859C265.012 150.659 265.719 150.559 266.452 150.559ZM283.846 160.899C283.06 160.899 282.326 160.793 281.646 160.579C280.98 160.353 280.393 160.019 279.886 159.579C279.393 159.139 279 158.586 278.706 157.919C278.426 157.253 278.286 156.473 278.286 155.579C278.286 154.699 278.426 153.946 278.706 153.319C279 152.679 279.38 152.159 279.846 151.759C280.313 151.346 280.846 151.046 281.446 150.859C282.046 150.659 282.66 150.559 283.286 150.559C283.993 150.559 284.633 150.666 285.206 150.879C285.793 151.093 286.293 151.386 286.706 151.759C287.133 152.133 287.46 152.579 287.686 153.099C287.926 153.619 288.046 154.186 288.046 154.799C288.046 155.253 287.92 155.599 287.666 155.839C287.413 156.079 287.06 156.233 286.606 156.299L281.666 157.039C281.813 157.479 282.113 157.813 282.566 158.039C283.02 158.253 283.54 158.359 284.126 158.359C284.673 158.359 285.186 158.293 285.666 158.159C286.16 158.013 286.56 157.846 286.866 157.659C287.08 157.793 287.26 157.979 287.406 158.219C287.553 158.459 287.626 158.713 287.626 158.979C287.626 159.579 287.346 160.026 286.786 160.319C286.36 160.546 285.88 160.699 285.346 160.779C284.813 160.859 284.313 160.899 283.846 160.899ZM283.286 153.039C282.966 153.039 282.686 153.093 282.446 153.199C282.22 153.306 282.033 153.446 281.886 153.619C281.74 153.779 281.626 153.966 281.546 154.179C281.48 154.379 281.44 154.586 281.426 154.799L284.846 154.239C284.806 153.973 284.66 153.706 284.406 153.439C284.153 153.173 283.78 153.039 283.286 153.039ZM289.083 158.959C289.083 158.399 289.256 157.933 289.603 157.559C289.95 157.186 290.423 156.999 291.023 156.999C291.623 156.999 292.096 157.186 292.443 157.559C292.79 157.933 292.963 158.399 292.963 158.959C292.963 159.519 292.79 159.986 292.443 160.359C292.096 160.733 291.623 160.919 291.023 160.919C290.423 160.919 289.95 160.733 289.603 160.359C289.256 159.986 289.083 159.519 289.083 158.959Z" fill="#1257B4"/>
<rect width="356" height="38.1967" fill="#1257B4"/>
<path fill-rule="evenodd" clip-rule="evenodd" d="M29.1843 96.1284C29.1843 83.3327 39.5573 72.9598 52.3529 72.9598C65.1486 72.9598 75.5216 83.3327 75.5216 96.1284C75.5216 108.924 65.1486 119.297 52.3529 119.297C39.5573 119.297 29.1843 108.924 29.1843 96.1284ZM54.6698 83.3857C54.6698 82.1061 53.6326 81.0688 52.3529 81.0688C51.0733 81.0688 50.0361 82.1061 50.0361 83.3857V99.6037C50.0361 100.883 51.0733 101.921 52.3529 101.921C53.6326 101.921 54.6698 100.883 54.6698 99.6037V83.3857ZM52.3529 106.554C53.6326 106.554 54.6698 107.592 54.6698 108.871C54.6698 110.151 53.6326 111.188 52.3529 111.188C51.0733 111.188 50.0361 110.151 50.0361 108.871C50.0361 107.592 51.0733 106.554 52.3529 106.554Z" fill="#1257B4"/>
</svg>
