<svg width="77" height="37" viewBox="0 0 77 37" fill="none" xmlns="http://www.w3.org/2000/svg">
<rect x="1.3877" y="1.08594" width="74.3699" height="34.9976" fill="#D5E7FF" stroke="#1257B4"/>
<path d="M23.56 21.52C23.4133 21.1867 23.2533 20.8133 23.08 20.4C22.92 19.9867 22.7467 19.5133 22.56 18.98C22.3867 18.4467 22.2 17.84 22 17.16C21.8133 16.4667 21.6133 15.6733 21.4 14.78C21.5867 14.5933 21.8333 14.4333 22.14 14.3C22.46 14.1533 22.8067 14.08 23.18 14.08C23.6467 14.08 24.0333 14.18 24.34 14.38C24.6467 14.5667 24.8733 14.9267 25.02 15.46L26.6 20.96H26.68C26.84 20.5067 26.9933 20.0133 27.14 19.48C27.3 18.9467 27.4533 18.4 27.6 17.84C27.7467 17.2667 27.88 16.7 28 16.14C28.1333 15.5667 28.2467 15.0067 28.34 14.46C28.82 14.2067 29.3467 14.08 29.92 14.08C30.3867 14.08 30.7733 14.18 31.08 14.38C31.3867 14.58 31.54 14.9267 31.54 15.42C31.54 15.78 31.4933 16.2 31.4 16.68C31.3067 17.1467 31.18 17.6467 31.02 18.18C30.8733 18.7133 30.6933 19.2667 30.48 19.84C30.28 20.4 30.0667 20.9533 29.84 21.5C29.6133 22.0467 29.38 22.5667 29.14 23.06C28.9 23.54 28.6667 23.9733 28.44 24.36C28.0667 25.0133 27.72 25.5467 27.4 25.96C27.08 26.3733 26.7733 26.6933 26.48 26.92C26.1867 27.16 25.8933 27.32 25.6 27.4C25.3067 27.4933 25 27.54 24.68 27.54C24.12 27.54 23.6667 27.3733 23.32 27.04C22.9733 26.7067 22.7667 26.2733 22.7 25.74C23.1267 25.4067 23.5533 25.0333 23.98 24.62C24.4067 24.22 24.7933 23.8067 25.14 23.38C24.9133 23.3133 24.6667 23.16 24.4 22.92C24.1467 22.6667 23.8667 22.2 23.56 21.52ZM38.098 24.32C37.3113 24.32 36.578 24.2133 35.898 24C35.2313 23.7733 34.6446 23.44 34.138 23C33.6446 22.56 33.2513 22.0067 32.958 21.34C32.678 20.6733 32.538 19.8933 32.538 19C32.538 18.12 32.678 17.3667 32.958 16.74C33.2513 16.1 33.6313 15.58 34.098 15.18C34.5646 14.7667 35.098 14.4667 35.698 14.28C36.298 14.08 36.9113 13.98 37.538 13.98C38.2446 13.98 38.8846 14.0867 39.458 14.3C40.0446 14.5133 40.5446 14.8067 40.958 15.18C41.3846 15.5533 41.7113 16 41.938 16.52C42.178 17.04 42.298 17.6067 42.298 18.22C42.298 18.6733 42.1713 19.02 41.918 19.26C41.6646 19.5 41.3113 19.6533 40.858 19.72L35.918 20.46C36.0646 20.9 36.3646 21.2333 36.818 21.46C37.2713 21.6733 37.7913 21.78 38.378 21.78C38.9246 21.78 39.438 21.7133 39.918 21.58C40.4113 21.4333 40.8113 21.2667 41.118 21.08C41.3313 21.2133 41.5113 21.4 41.658 21.64C41.8046 21.88 41.878 22.1333 41.878 22.4C41.878 23 41.598 23.4467 41.038 23.74C40.6113 23.9667 40.1313 24.12 39.598 24.2C39.0646 24.28 38.5646 24.32 38.098 24.32ZM37.538 16.46C37.218 16.46 36.938 16.5133 36.698 16.62C36.4713 16.7267 36.2846 16.8667 36.138 17.04C35.9913 17.2 35.878 17.3867 35.798 17.6C35.7313 17.8 35.6913 18.0067 35.678 18.22L39.098 17.66C39.058 17.3933 38.9113 17.1267 38.658 16.86C38.4046 16.5933 38.0313 16.46 37.538 16.46ZM48.3945 13.98C49.1945 13.98 49.9345 14.0867 50.6145 14.3C51.3079 14.5 51.9012 14.8133 52.3945 15.24C52.8879 15.6667 53.2745 16.2067 53.5545 16.86C53.8345 17.5 53.9745 18.2667 53.9745 19.16C53.9745 20.0133 53.8545 20.76 53.6145 21.4C53.3745 22.04 53.0345 22.58 52.5945 23.02C52.1545 23.4467 51.6212 23.7667 50.9945 23.98C50.3812 24.1933 49.6945 24.3 48.9345 24.3C48.3612 24.3 47.8279 24.2133 47.3345 24.04V27.36C47.2012 27.4 46.9879 27.44 46.6945 27.48C46.4012 27.5333 46.1012 27.56 45.7945 27.56C45.5012 27.56 45.2345 27.54 44.9945 27.5C44.7679 27.46 44.5745 27.38 44.4145 27.26C44.2545 27.14 44.1345 26.9733 44.0545 26.76C43.9745 26.56 43.9345 26.2933 43.9345 25.96V16.36C43.9345 16 44.0079 15.7067 44.1545 15.48C44.3145 15.2533 44.5279 15.0467 44.7945 14.86C45.2079 14.5933 45.7212 14.38 46.3345 14.22C46.9479 14.06 47.6345 13.98 48.3945 13.98ZM48.4345 21.62C49.8079 21.62 50.4945 20.8 50.4945 19.16C50.4945 18.3067 50.3212 17.6733 49.9745 17.26C49.6412 16.8467 49.1545 16.64 48.5145 16.64C48.2612 16.64 48.0345 16.6733 47.8345 16.74C47.6345 16.7933 47.4612 16.86 47.3145 16.94V21.34C47.4745 21.42 47.6479 21.4867 47.8345 21.54C48.0212 21.5933 48.2212 21.62 48.4345 21.62Z" fill="#1257B4"/>
</svg>
