<svg width="67" height="32" viewBox="0 0 67 32" fill="none" xmlns="http://www.w3.org/2000/svg">
<rect x="0.5" y="0.5" width="66" height="31" fill="#D5E7FF" stroke="#1257B4"/>
<path d="M17.072 20.024C16.896 19.624 16.704 19.176 16.496 18.68C16.304 18.184 16.096 17.616 15.872 16.976C15.664 16.336 15.44 15.608 15.2 14.792C14.976 13.96 14.736 13.008 14.48 11.936C14.704 11.712 15 11.52 15.368 11.36C15.752 11.184 16.168 11.096 16.616 11.096C17.176 11.096 17.64 11.216 18.008 11.456C18.376 11.68 18.648 12.112 18.824 12.752L20.72 19.352H20.816C21.008 18.808 21.192 18.216 21.368 17.576C21.56 16.936 21.744 16.28 21.92 15.608C22.096 14.92 22.256 14.24 22.4 13.568C22.56 12.88 22.696 12.208 22.808 11.552C23.384 11.248 24.016 11.096 24.704 11.096C25.264 11.096 25.728 11.216 26.096 11.456C26.464 11.696 26.648 12.112 26.648 12.704C26.648 13.136 26.592 13.64 26.48 14.216C26.368 14.776 26.216 15.376 26.024 16.016C25.848 16.656 25.632 17.32 25.376 18.008C25.136 18.68 24.88 19.344 24.608 20C24.336 20.656 24.056 21.28 23.768 21.872C23.48 22.448 23.2 22.968 22.928 23.432C22.48 24.216 22.064 24.856 21.68 25.352C21.296 25.848 20.928 26.232 20.576 26.504C20.224 26.792 19.872 26.984 19.52 27.08C19.168 27.192 18.8 27.248 18.416 27.248C17.744 27.248 17.2 27.048 16.784 26.648C16.368 26.248 16.12 25.728 16.04 25.088C16.552 24.688 17.064 24.24 17.576 23.744C18.088 23.264 18.552 22.768 18.968 22.256C18.696 22.176 18.4 21.992 18.08 21.704C17.776 21.4 17.44 20.84 17.072 20.024ZM34.5176 23.384C33.5736 23.384 32.6936 23.256 31.8776 23C31.0776 22.728 30.3736 22.328 29.7656 21.8C29.1736 21.272 28.7016 20.608 28.3496 19.808C28.0136 19.008 27.8456 18.072 27.8456 17C27.8456 15.944 28.0136 15.04 28.3496 14.288C28.7016 13.52 29.1576 12.896 29.7176 12.416C30.2776 11.92 30.9176 11.56 31.6376 11.336C32.3576 11.096 33.0936 10.976 33.8456 10.976C34.6936 10.976 35.4616 11.104 36.1496 11.36C36.8536 11.616 37.4536 11.968 37.9496 12.416C38.4616 12.864 38.8536 13.4 39.1256 14.024C39.4136 14.648 39.5576 15.328 39.5576 16.064C39.5576 16.608 39.4056 17.024 39.1016 17.312C38.7976 17.6 38.3736 17.784 37.8296 17.864L31.9016 18.752C32.0776 19.28 32.4376 19.68 32.9816 19.952C33.5256 20.208 34.1496 20.336 34.8536 20.336C35.5096 20.336 36.1256 20.256 36.7016 20.096C37.2936 19.92 37.7736 19.72 38.1416 19.496C38.3976 19.656 38.6136 19.88 38.7896 20.168C38.9656 20.456 39.0536 20.76 39.0536 21.08C39.0536 21.8 38.7176 22.336 38.0456 22.688C37.5336 22.96 36.9576 23.144 36.3176 23.24C35.6776 23.336 35.0776 23.384 34.5176 23.384ZM33.8456 13.952C33.4616 13.952 33.1256 14.016 32.8376 14.144C32.5656 14.272 32.3416 14.44 32.1656 14.648C31.9896 14.84 31.8536 15.064 31.7576 15.32C31.6776 15.56 31.6296 15.808 31.6136 16.064L35.7176 15.392C35.6696 15.072 35.4936 14.752 35.1896 14.432C34.8856 14.112 34.4376 13.952 33.8456 13.952ZM51.3614 19.52C51.3614 20.736 50.9054 21.688 49.9934 22.376C49.0814 23.064 47.7374 23.408 45.9614 23.408C45.2894 23.408 44.6654 23.36 44.0894 23.264C43.5134 23.168 43.0174 23.024 42.6014 22.832C42.2014 22.624 41.8814 22.368 41.6414 22.064C41.4174 21.76 41.3054 21.4 41.3054 20.984C41.3054 20.6 41.3854 20.28 41.5454 20.024C41.7054 19.752 41.8974 19.528 42.1214 19.352C42.5854 19.608 43.1134 19.84 43.7054 20.048C44.3134 20.24 45.0094 20.336 45.7934 20.336C46.2894 20.336 46.6654 20.264 46.9214 20.12C47.1934 19.976 47.3294 19.784 47.3294 19.544C47.3294 19.32 47.2334 19.144 47.0414 19.016C46.8494 18.888 46.5294 18.784 46.0814 18.704L45.3614 18.56C43.9694 18.288 42.9294 17.864 42.2414 17.288C41.5694 16.696 41.2334 15.856 41.2334 14.768C41.2334 14.176 41.3614 13.64 41.6174 13.16C41.8734 12.68 42.2334 12.28 42.6974 11.96C43.1614 11.64 43.7134 11.392 44.3534 11.216C45.0094 11.04 45.7294 10.952 46.5134 10.952C47.1054 10.952 47.6574 11 48.1694 11.096C48.6974 11.176 49.1534 11.304 49.5374 11.48C49.9214 11.656 50.2254 11.888 50.4494 12.176C50.6734 12.448 50.7854 12.776 50.7854 13.16C50.7854 13.528 50.7134 13.848 50.5694 14.12C50.4414 14.376 50.2734 14.592 50.0654 14.768C49.9374 14.688 49.7454 14.608 49.4894 14.528C49.2334 14.432 48.9534 14.352 48.6494 14.288C48.3454 14.208 48.0334 14.144 47.7134 14.096C47.4094 14.048 47.1294 14.024 46.8734 14.024C46.3454 14.024 45.9374 14.088 45.6494 14.216C45.3614 14.328 45.2174 14.512 45.2174 14.768C45.2174 14.944 45.2974 15.088 45.4574 15.2C45.6174 15.312 45.9214 15.416 46.3694 15.512L47.1134 15.68C48.6494 16.032 49.7374 16.52 50.3774 17.144C51.0334 17.752 51.3614 18.544 51.3614 19.52Z" fill="#1257B4"/>
</svg>
